<?xml version="1.0" encoding="utf-8"?>
<svg xmlns="http://www.w3.org/2000/svg" xmlns:xlink="http://www.w3.org/1999/xlink" width="600" height="400" viewBox="0 0 2400 1600">
<defs>
  <clipPath id="clip640">
    <rect x="0" y="0" width="2400" height="1600"/>
  </clipPath>
</defs>
<path clip-path="url(#clip640)" d="
M0 1600 L2400 1600 L2400 0 L0 0  Z
  " fill="#ffffff" fill-rule="evenodd" fill-opacity="1"/>
<defs>
  <clipPath id="clip641">
    <rect x="480" y="0" width="1681" height="1600"/>
  </clipPath>
</defs>
<path clip-path="url(#clip640)" d="
M193.936 1486.45 L2352.76 1486.45 L2352.76 47.2441 L193.936 47.2441  Z
  " fill="#ffffff" fill-rule="evenodd" fill-opacity="1"/>
<defs>
  <clipPath id="clip642">
    <rect x="193" y="47" width="2160" height="1440"/>
  </clipPath>
</defs>
<polyline clip-path="url(#clip642)" style="stroke:#000000; stroke-linecap:butt; stroke-linejoin:round; stroke-width:2; stroke-opacity:0.1; fill:none" points="
  255.035,1486.45 255.035,47.2441 
  "/>
<polyline clip-path="url(#clip642)" style="stroke:#000000; stroke-linecap:butt; stroke-linejoin:round; stroke-width:2; stroke-opacity:0.1; fill:none" points="
  579.173,1486.45 579.173,47.2441 
  "/>
<polyline clip-path="url(#clip642)" style="stroke:#000000; stroke-linecap:butt; stroke-linejoin:round; stroke-width:2; stroke-opacity:0.1; fill:none" points="
  903.312,1486.45 903.312,47.2441 
  "/>
<polyline clip-path="url(#clip642)" style="stroke:#000000; stroke-linecap:butt; stroke-linejoin:round; stroke-width:2; stroke-opacity:0.1; fill:none" points="
  1227.45,1486.45 1227.45,47.2441 
  "/>
<polyline clip-path="url(#clip642)" style="stroke:#000000; stroke-linecap:butt; stroke-linejoin:round; stroke-width:2; stroke-opacity:0.1; fill:none" points="
  1551.59,1486.45 1551.59,47.2441 
  "/>
<polyline clip-path="url(#clip642)" style="stroke:#000000; stroke-linecap:butt; stroke-linejoin:round; stroke-width:2; stroke-opacity:0.1; fill:none" points="
  1875.73,1486.45 1875.73,47.2441 
  "/>
<polyline clip-path="url(#clip642)" style="stroke:#000000; stroke-linecap:butt; stroke-linejoin:round; stroke-width:2; stroke-opacity:0.1; fill:none" points="
  2199.87,1486.45 2199.87,47.2441 
  "/>
<polyline clip-path="url(#clip640)" style="stroke:#000000; stroke-linecap:butt; stroke-linejoin:round; stroke-width:4; stroke-opacity:1; fill:none" points="
  193.936,1486.45 2352.76,1486.45 
  "/>
<polyline clip-path="url(#clip640)" style="stroke:#000000; stroke-linecap:butt; stroke-linejoin:round; stroke-width:4; stroke-opacity:1; fill:none" points="
  255.035,1486.45 255.035,1467.55 
  "/>
<polyline clip-path="url(#clip640)" style="stroke:#000000; stroke-linecap:butt; stroke-linejoin:round; stroke-width:4; stroke-opacity:1; fill:none" points="
  579.173,1486.45 579.173,1467.55 
  "/>
<polyline clip-path="url(#clip640)" style="stroke:#000000; stroke-linecap:butt; stroke-linejoin:round; stroke-width:4; stroke-opacity:1; fill:none" points="
  903.312,1486.45 903.312,1467.55 
  "/>
<polyline clip-path="url(#clip640)" style="stroke:#000000; stroke-linecap:butt; stroke-linejoin:round; stroke-width:4; stroke-opacity:1; fill:none" points="
  1227.45,1486.45 1227.45,1467.55 
  "/>
<polyline clip-path="url(#clip640)" style="stroke:#000000; stroke-linecap:butt; stroke-linejoin:round; stroke-width:4; stroke-opacity:1; fill:none" points="
  1551.59,1486.45 1551.59,1467.55 
  "/>
<polyline clip-path="url(#clip640)" style="stroke:#000000; stroke-linecap:butt; stroke-linejoin:round; stroke-width:4; stroke-opacity:1; fill:none" points="
  1875.73,1486.45 1875.73,1467.55 
  "/>
<polyline clip-path="url(#clip640)" style="stroke:#000000; stroke-linecap:butt; stroke-linejoin:round; stroke-width:4; stroke-opacity:1; fill:none" points="
  2199.87,1486.45 2199.87,1467.55 
  "/>
<path clip-path="url(#clip640)" d="M255.035 1517.37 Q251.424 1517.37 249.595 1520.93 Q247.789 1524.47 247.789 1531.6 Q247.789 1538.71 249.595 1542.27 Q251.424 1545.82 255.035 1545.82 Q258.669 1545.82 260.474 1542.27 Q262.303 1538.71 262.303 1531.6 Q262.303 1524.47 260.474 1520.93 Q258.669 1517.37 255.035 1517.37 M255.035 1513.66 Q260.845 1513.66 263.9 1518.27 Q266.979 1522.85 266.979 1531.6 Q266.979 1540.33 263.9 1544.94 Q260.845 1549.52 255.035 1549.52 Q249.225 1549.52 246.146 1544.94 Q243.09 1540.33 243.09 1531.6 Q243.09 1522.85 246.146 1518.27 Q249.225 1513.66 255.035 1513.66 Z" fill="#000000" fill-rule="evenodd" fill-opacity="1" /><path clip-path="url(#clip640)" d="M573.826 1544.91 L590.145 1544.91 L590.145 1548.85 L568.201 1548.85 L568.201 1544.91 Q570.863 1542.16 575.446 1537.53 Q580.053 1532.88 581.233 1531.53 Q583.479 1529.01 584.358 1527.27 Q585.261 1525.51 585.261 1523.82 Q585.261 1521.07 583.317 1519.33 Q581.395 1517.6 578.294 1517.6 Q576.095 1517.6 573.641 1518.36 Q571.21 1519.13 568.433 1520.68 L568.433 1515.95 Q571.257 1514.82 573.71 1514.24 Q576.164 1513.66 578.201 1513.66 Q583.571 1513.66 586.766 1516.35 Q589.96 1519.03 589.96 1523.52 Q589.96 1525.65 589.15 1527.57 Q588.363 1529.47 586.257 1532.07 Q585.678 1532.74 582.576 1535.95 Q579.474 1539.15 573.826 1544.91 Z" fill="#000000" fill-rule="evenodd" fill-opacity="1" /><path clip-path="url(#clip640)" d="M906.321 1518.36 L894.516 1536.81 L906.321 1536.81 L906.321 1518.36 M905.094 1514.29 L910.974 1514.29 L910.974 1536.81 L915.904 1536.81 L915.904 1540.7 L910.974 1540.7 L910.974 1548.85 L906.321 1548.85 L906.321 1540.7 L890.719 1540.7 L890.719 1536.19 L905.094 1514.29 Z" fill="#000000" fill-rule="evenodd" fill-opacity="1" /><path clip-path="url(#clip640)" d="M1227.86 1529.7 Q1224.71 1529.7 1222.86 1531.86 Q1221.03 1534.01 1221.03 1537.76 Q1221.03 1541.49 1222.86 1543.66 Q1224.71 1545.82 1227.86 1545.82 Q1231 1545.82 1232.83 1543.66 Q1234.68 1541.49 1234.68 1537.76 Q1234.68 1534.01 1232.83 1531.86 Q1231 1529.7 1227.86 1529.7 M1237.14 1515.05 L1237.14 1519.31 Q1235.38 1518.48 1233.57 1518.04 Q1231.79 1517.6 1230.03 1517.6 Q1225.4 1517.6 1222.95 1520.72 Q1220.52 1523.85 1220.17 1530.17 Q1221.54 1528.15 1223.6 1527.09 Q1225.66 1526 1228.13 1526 Q1233.34 1526 1236.35 1529.17 Q1239.38 1532.32 1239.38 1537.76 Q1239.38 1543.08 1236.23 1546.3 Q1233.09 1549.52 1227.86 1549.52 Q1221.86 1549.52 1218.69 1544.94 Q1215.52 1540.33 1215.52 1531.6 Q1215.52 1523.41 1219.41 1518.55 Q1223.3 1513.66 1229.85 1513.66 Q1231.61 1513.66 1233.39 1514.01 Q1235.19 1514.36 1237.14 1515.05 Z" fill="#000000" fill-rule="evenodd" fill-opacity="1" /><path clip-path="url(#clip640)" d="M1551.59 1532.44 Q1548.26 1532.44 1546.33 1534.22 Q1544.44 1536 1544.44 1539.13 Q1544.44 1542.25 1546.33 1544.03 Q1548.26 1545.82 1551.59 1545.82 Q1554.92 1545.82 1556.84 1544.03 Q1558.76 1542.23 1558.76 1539.13 Q1558.76 1536 1556.84 1534.22 Q1554.95 1532.44 1551.59 1532.44 M1546.91 1530.45 Q1543.9 1529.7 1542.21 1527.64 Q1540.55 1525.58 1540.55 1522.62 Q1540.55 1518.48 1543.49 1516.07 Q1546.45 1513.66 1551.59 1513.66 Q1556.75 1513.66 1559.69 1516.07 Q1562.63 1518.48 1562.63 1522.62 Q1562.63 1525.58 1560.94 1527.64 Q1559.27 1529.7 1556.29 1530.45 Q1559.67 1531.23 1561.54 1533.52 Q1563.44 1535.82 1563.44 1539.13 Q1563.44 1544.15 1560.36 1546.83 Q1557.31 1549.52 1551.59 1549.52 Q1545.87 1549.52 1542.79 1546.83 Q1539.74 1544.15 1539.74 1539.13 Q1539.74 1535.82 1541.64 1533.52 Q1543.53 1531.23 1546.91 1530.45 M1545.2 1523.06 Q1545.2 1525.75 1546.87 1527.25 Q1548.56 1528.76 1551.59 1528.76 Q1554.6 1528.76 1556.29 1527.25 Q1558 1525.75 1558 1523.06 Q1558 1520.38 1556.29 1518.87 Q1554.6 1517.37 1551.59 1517.37 Q1548.56 1517.37 1546.87 1518.87 Q1545.2 1520.38 1545.2 1523.06 Z" fill="#000000" fill-rule="evenodd" fill-opacity="1" /><path clip-path="url(#clip640)" d="M1850.42 1544.91 L1858.05 1544.91 L1858.05 1518.55 L1849.74 1520.21 L1849.74 1515.95 L1858.01 1514.29 L1862.68 1514.29 L1862.68 1544.91 L1870.32 1544.91 L1870.32 1548.85 L1850.42 1548.85 L1850.42 1544.91 Z" fill="#000000" fill-rule="evenodd" fill-opacity="1" /><path clip-path="url(#clip640)" d="M1889.77 1517.37 Q1886.16 1517.37 1884.33 1520.93 Q1882.52 1524.47 1882.52 1531.6 Q1882.52 1538.71 1884.33 1542.27 Q1886.16 1545.82 1889.77 1545.82 Q1893.4 1545.82 1895.21 1542.27 Q1897.04 1538.71 1897.04 1531.6 Q1897.04 1524.47 1895.21 1520.93 Q1893.4 1517.37 1889.77 1517.37 M1889.77 1513.66 Q1895.58 1513.66 1898.63 1518.27 Q1901.71 1522.85 1901.71 1531.6 Q1901.71 1540.33 1898.63 1544.94 Q1895.58 1549.52 1889.77 1549.52 Q1883.96 1549.52 1880.88 1544.94 Q1877.82 1540.33 1877.82 1531.6 Q1877.82 1522.85 1880.88 1518.27 Q1883.96 1513.66 1889.77 1513.66 Z" fill="#000000" fill-rule="evenodd" fill-opacity="1" /><path clip-path="url(#clip640)" d="M2175.35 1544.91 L2182.99 1544.91 L2182.99 1518.55 L2174.68 1520.21 L2174.68 1515.95 L2182.94 1514.29 L2187.62 1514.29 L2187.62 1544.91 L2195.26 1544.91 L2195.26 1548.85 L2175.35 1548.85 L2175.35 1544.91 Z" fill="#000000" fill-rule="evenodd" fill-opacity="1" /><path clip-path="url(#clip640)" d="M2208.73 1544.91 L2225.05 1544.91 L2225.05 1548.85 L2203.11 1548.85 L2203.11 1544.91 Q2205.77 1542.16 2210.35 1537.53 Q2214.96 1532.88 2216.14 1531.53 Q2218.38 1529.01 2219.26 1527.27 Q2220.17 1525.51 2220.17 1523.82 Q2220.17 1521.07 2218.22 1519.33 Q2216.3 1517.6 2213.2 1517.6 Q2211 1517.6 2208.55 1518.36 Q2206.12 1519.13 2203.34 1520.68 L2203.34 1515.95 Q2206.16 1514.82 2208.62 1514.24 Q2211.07 1513.66 2213.11 1513.66 Q2218.48 1513.66 2221.67 1516.35 Q2224.87 1519.03 2224.87 1523.52 Q2224.87 1525.65 2224.06 1527.57 Q2223.27 1529.47 2221.16 1532.07 Q2220.58 1532.74 2217.48 1535.95 Q2214.38 1539.15 2208.73 1544.91 Z" fill="#000000" fill-rule="evenodd" fill-opacity="1" /><polyline clip-path="url(#clip642)" style="stroke:#000000; stroke-linecap:butt; stroke-linejoin:round; stroke-width:2; stroke-opacity:0.1; fill:none" points="
  193.936,1445.8 2352.76,1445.8 
  "/>
<polyline clip-path="url(#clip642)" style="stroke:#000000; stroke-linecap:butt; stroke-linejoin:round; stroke-width:2; stroke-opacity:0.1; fill:none" points="
  193.936,1106.32 2352.76,1106.32 
  "/>
<polyline clip-path="url(#clip642)" style="stroke:#000000; stroke-linecap:butt; stroke-linejoin:round; stroke-width:2; stroke-opacity:0.1; fill:none" points="
  193.936,766.846 2352.76,766.846 
  "/>
<polyline clip-path="url(#clip642)" style="stroke:#000000; stroke-linecap:butt; stroke-linejoin:round; stroke-width:2; stroke-opacity:0.1; fill:none" points="
  193.936,427.368 2352.76,427.368 
  "/>
<polyline clip-path="url(#clip642)" style="stroke:#000000; stroke-linecap:butt; stroke-linejoin:round; stroke-width:2; stroke-opacity:0.1; fill:none" points="
  193.936,87.8908 2352.76,87.8908 
  "/>
<polyline clip-path="url(#clip640)" style="stroke:#000000; stroke-linecap:butt; stroke-linejoin:round; stroke-width:4; stroke-opacity:1; fill:none" points="
  193.936,1486.45 193.936,47.2441 
  "/>
<polyline clip-path="url(#clip640)" style="stroke:#000000; stroke-linecap:butt; stroke-linejoin:round; stroke-width:4; stroke-opacity:1; fill:none" points="
  193.936,1445.8 212.834,1445.8 
  "/>
<polyline clip-path="url(#clip640)" style="stroke:#000000; stroke-linecap:butt; stroke-linejoin:round; stroke-width:4; stroke-opacity:1; fill:none" points="
  193.936,1106.32 212.834,1106.32 
  "/>
<polyline clip-path="url(#clip640)" style="stroke:#000000; stroke-linecap:butt; stroke-linejoin:round; stroke-width:4; stroke-opacity:1; fill:none" points="
  193.936,766.846 212.834,766.846 
  "/>
<polyline clip-path="url(#clip640)" style="stroke:#000000; stroke-linecap:butt; stroke-linejoin:round; stroke-width:4; stroke-opacity:1; fill:none" points="
  193.936,427.368 212.834,427.368 
  "/>
<polyline clip-path="url(#clip640)" style="stroke:#000000; stroke-linecap:butt; stroke-linejoin:round; stroke-width:4; stroke-opacity:1; fill:none" points="
  193.936,87.8908 212.834,87.8908 
  "/>
<path clip-path="url(#clip640)" d="M50.9921 1446.25 L80.6679 1446.25 L80.6679 1450.19 L50.9921 1450.19 L50.9921 1446.25 Z" fill="#000000" fill-rule="evenodd" fill-opacity="1" /><path clip-path="url(#clip640)" d="M91.5706 1459.15 L99.2095 1459.15 L99.2095 1432.78 L90.8993 1434.45 L90.8993 1430.19 L99.1632 1428.52 L103.839 1428.52 L103.839 1459.15 L111.478 1459.15 L111.478 1463.08 L91.5706 1463.08 L91.5706 1459.15 Z" fill="#000000" fill-rule="evenodd" fill-opacity="1" /><path clip-path="url(#clip640)" d="M120.922 1457.2 L125.807 1457.2 L125.807 1463.08 L120.922 1463.08 L120.922 1457.2 Z" fill="#000000" fill-rule="evenodd" fill-opacity="1" /><path clip-path="url(#clip640)" d="M145.992 1431.6 Q142.381 1431.6 140.552 1435.16 Q138.746 1438.71 138.746 1445.84 Q138.746 1452.94 140.552 1456.51 Q142.381 1460.05 145.992 1460.05 Q149.626 1460.05 151.431 1456.51 Q153.26 1452.94 153.26 1445.84 Q153.26 1438.71 151.431 1435.16 Q149.626 1431.6 145.992 1431.6 M145.992 1427.9 Q151.802 1427.9 154.857 1432.5 Q157.936 1437.09 157.936 1445.84 Q157.936 1454.56 154.857 1459.17 Q151.802 1463.75 145.992 1463.75 Q140.181 1463.75 137.103 1459.17 Q134.047 1454.56 134.047 1445.84 Q134.047 1437.09 137.103 1432.5 Q140.181 1427.9 145.992 1427.9 Z" fill="#000000" fill-rule="evenodd" fill-opacity="1" /><path clip-path="url(#clip640)" d="M51.9875 1106.77 L81.6633 1106.77 L81.6633 1110.71 L51.9875 1110.71 L51.9875 1106.77 Z" fill="#000000" fill-rule="evenodd" fill-opacity="1" /><path clip-path="url(#clip640)" d="M101.756 1092.12 Q98.1447 1092.12 96.316 1095.69 Q94.5104 1099.23 94.5104 1106.36 Q94.5104 1113.46 96.316 1117.03 Q98.1447 1120.57 101.756 1120.57 Q105.39 1120.57 107.196 1117.03 Q109.024 1113.46 109.024 1106.36 Q109.024 1099.23 107.196 1095.69 Q105.39 1092.12 101.756 1092.12 M101.756 1088.42 Q107.566 1088.42 110.621 1093.03 Q113.7 1097.61 113.7 1106.36 Q113.7 1115.09 110.621 1119.69 Q107.566 1124.27 101.756 1124.27 Q95.9456 1124.27 92.8669 1119.69 Q89.8114 1115.09 89.8114 1106.36 Q89.8114 1097.61 92.8669 1093.03 Q95.9456 1088.42 101.756 1088.42 Z" fill="#000000" fill-rule="evenodd" fill-opacity="1" /><path clip-path="url(#clip640)" d="M121.918 1117.72 L126.802 1117.72 L126.802 1123.6 L121.918 1123.6 L121.918 1117.72 Z" fill="#000000" fill-rule="evenodd" fill-opacity="1" /><path clip-path="url(#clip640)" d="M137.033 1089.04 L155.39 1089.04 L155.39 1092.98 L141.316 1092.98 L141.316 1101.45 Q142.334 1101.1 143.353 1100.94 Q144.371 1100.76 145.39 1100.76 Q151.177 1100.76 154.556 1103.93 Q157.936 1107.1 157.936 1112.52 Q157.936 1118.09 154.464 1121.2 Q150.992 1124.27 144.672 1124.27 Q142.496 1124.27 140.228 1123.9 Q137.982 1123.53 135.575 1122.79 L135.575 1118.09 Q137.658 1119.23 139.881 1119.78 Q142.103 1120.34 144.58 1120.34 Q148.584 1120.34 150.922 1118.23 Q153.26 1116.13 153.26 1112.52 Q153.26 1108.9 150.922 1106.8 Q148.584 1104.69 144.58 1104.69 Q142.705 1104.69 140.83 1105.11 Q138.978 1105.52 137.033 1106.4 L137.033 1089.04 Z" fill="#000000" fill-rule="evenodd" fill-opacity="1" /><path clip-path="url(#clip640)" d="M100.76 752.645 Q97.1493 752.645 95.3206 756.209 Q93.515 759.751 93.515 766.881 Q93.515 773.987 95.3206 777.552 Q97.1493 781.094 100.76 781.094 Q104.395 781.094 106.2 777.552 Q108.029 773.987 108.029 766.881 Q108.029 759.751 106.2 756.209 Q104.395 752.645 100.76 752.645 M100.76 748.941 Q106.571 748.941 109.626 753.547 Q112.705 758.131 112.705 766.881 Q112.705 775.608 109.626 780.214 Q106.571 784.797 100.76 784.797 Q94.9502 784.797 91.8715 780.214 Q88.816 775.608 88.816 766.881 Q88.816 758.131 91.8715 753.547 Q94.9502 748.941 100.76 748.941 Z" fill="#000000" fill-rule="evenodd" fill-opacity="1" /><path clip-path="url(#clip640)" d="M120.922 778.246 L125.807 778.246 L125.807 784.126 L120.922 784.126 L120.922 778.246 Z" fill="#000000" fill-rule="evenodd" fill-opacity="1" /><path clip-path="url(#clip640)" d="M145.992 752.645 Q142.381 752.645 140.552 756.209 Q138.746 759.751 138.746 766.881 Q138.746 773.987 140.552 777.552 Q142.381 781.094 145.992 781.094 Q149.626 781.094 151.431 777.552 Q153.26 773.987 153.26 766.881 Q153.26 759.751 151.431 756.209 Q149.626 752.645 145.992 752.645 M145.992 748.941 Q151.802 748.941 154.857 753.547 Q157.936 758.131 157.936 766.881 Q157.936 775.608 154.857 780.214 Q151.802 784.797 145.992 784.797 Q140.181 784.797 137.103 780.214 Q134.047 775.608 134.047 766.881 Q134.047 758.131 137.103 753.547 Q140.181 748.941 145.992 748.941 Z" fill="#000000" fill-rule="evenodd" fill-opacity="1" /><path clip-path="url(#clip640)" d="M101.756 413.167 Q98.1447 413.167 96.316 416.732 Q94.5104 420.274 94.5104 427.403 Q94.5104 434.51 96.316 438.074 Q98.1447 441.616 101.756 441.616 Q105.39 441.616 107.196 438.074 Q109.024 434.51 109.024 427.403 Q109.024 420.274 107.196 416.732 Q105.39 413.167 101.756 413.167 M101.756 409.463 Q107.566 409.463 110.621 414.07 Q113.7 418.653 113.7 427.403 Q113.7 436.13 110.621 440.736 Q107.566 445.32 101.756 445.32 Q95.9456 445.32 92.8669 440.736 Q89.8114 436.13 89.8114 427.403 Q89.8114 418.653 92.8669 414.07 Q95.9456 409.463 101.756 409.463 Z" fill="#000000" fill-rule="evenodd" fill-opacity="1" /><path clip-path="url(#clip640)" d="M121.918 438.769 L126.802 438.769 L126.802 444.648 L121.918 444.648 L121.918 438.769 Z" fill="#000000" fill-rule="evenodd" fill-opacity="1" /><path clip-path="url(#clip640)" d="M137.033 410.088 L155.39 410.088 L155.39 414.024 L141.316 414.024 L141.316 422.496 Q142.334 422.149 143.353 421.986 Q144.371 421.801 145.39 421.801 Q151.177 421.801 154.556 424.973 Q157.936 428.144 157.936 433.56 Q157.936 439.139 154.464 442.241 Q150.992 445.32 144.672 445.32 Q142.496 445.32 140.228 444.949 Q137.982 444.579 135.575 443.838 L135.575 439.139 Q137.658 440.273 139.881 440.829 Q142.103 441.385 144.58 441.385 Q148.584 441.385 150.922 439.278 Q153.26 437.172 153.26 433.56 Q153.26 429.949 150.922 427.843 Q148.584 425.736 144.58 425.736 Q142.705 425.736 140.83 426.153 Q138.978 426.57 137.033 427.449 L137.033 410.088 Z" fill="#000000" fill-rule="evenodd" fill-opacity="1" /><path clip-path="url(#clip640)" d="M91.5706 101.236 L99.2095 101.236 L99.2095 74.8701 L90.8993 76.5367 L90.8993 72.2775 L99.1632 70.6108 L103.839 70.6108 L103.839 101.236 L111.478 101.236 L111.478 105.171 L91.5706 105.171 L91.5706 101.236 Z" fill="#000000" fill-rule="evenodd" fill-opacity="1" /><path clip-path="url(#clip640)" d="M120.922 99.2912 L125.807 99.2912 L125.807 105.171 L120.922 105.171 L120.922 99.2912 Z" fill="#000000" fill-rule="evenodd" fill-opacity="1" /><path clip-path="url(#clip640)" d="M145.992 73.6895 Q142.381 73.6895 140.552 77.2543 Q138.746 80.7959 138.746 87.9255 Q138.746 95.032 140.552 98.5968 Q142.381 102.138 145.992 102.138 Q149.626 102.138 151.431 98.5968 Q153.26 95.032 153.26 87.9255 Q153.26 80.7959 151.431 77.2543 Q149.626 73.6895 145.992 73.6895 M145.992 69.9858 Q151.802 69.9858 154.857 74.5923 Q157.936 79.1756 157.936 87.9255 Q157.936 96.6523 154.857 101.259 Q151.802 105.842 145.992 105.842 Q140.181 105.842 137.103 101.259 Q134.047 96.6523 134.047 87.9255 Q134.047 79.1756 137.103 74.5923 Q140.181 69.9858 145.992 69.9858 Z" fill="#000000" fill-rule="evenodd" fill-opacity="1" /><polyline clip-path="url(#clip642)" style="stroke:#009af9; stroke-linecap:butt; stroke-linejoin:round; stroke-width:4; stroke-opacity:1; fill:none" points="
  255.035,766.846 275.607,680.895 296.179,596.328 316.751,514.504 337.322,436.74 357.894,364.288 378.466,298.313 399.038,239.877 419.61,189.921 440.182,149.247 
  460.754,118.51 481.326,98.2057 501.898,88.6598 522.47,90.0263 543.042,102.283 563.614,125.233 584.186,158.506 604.758,201.568 625.33,253.726 645.902,314.14 
  666.474,381.838 687.046,455.731 707.617,534.63 728.189,617.265 748.761,702.307 769.333,788.388 789.905,874.122 810.477,958.13 831.049,1039.06 851.621,1115.61 
  872.193,1186.55 892.765,1250.73 913.337,1307.13 933.909,1354.84 954.481,1393.08 975.053,1421.25 995.625,1438.89 1016.2,1445.72 1036.77,1441.62 1057.34,1426.66 
  1077.91,1401.09 1098.48,1365.31 1119.06,1319.91 1139.63,1265.6 1160.2,1203.27 1180.77,1133.92 1201.34,1058.66 1221.92,978.703 1242.49,895.339 1263.06,809.908 
  1283.63,723.784 1304.2,638.353 1324.78,554.989 1345.35,475.035 1365.92,399.775 1386.49,330.422 1407.06,268.091 1427.64,213.785 1448.21,168.379 1468.78,132.601 
  1489.35,107.029 1509.92,92.0742 1530.5,87.9763 1551.07,94.8016 1571.64,112.44 1592.21,140.609 1612.78,178.854 1633.35,226.559 1653.93,282.959 1674.5,347.144 
  1695.07,418.082 1715.64,494.632 1736.21,575.562 1756.79,659.57 1777.36,745.304 1797.93,831.385 1818.5,916.427 1839.07,999.062 1859.65,1077.96 1880.22,1151.85 
  1900.79,1219.55 1921.36,1279.97 1941.93,1332.12 1962.51,1375.19 1983.08,1408.46 2003.65,1431.41 2024.22,1443.67 2044.79,1445.03 2065.37,1435.49 2085.94,1415.18 
  2106.51,1384.45 2127.08,1343.77 2147.65,1293.81 2168.23,1235.38 2188.8,1169.4 2209.37,1096.95 2229.94,1019.19 2250.51,937.364 2271.09,852.797 2291.66,766.846 
  
  "/>
<path clip-path="url(#clip640)" d="
M1815.53 198.898 L2280.8 198.898 L2280.8 95.2176 L1815.53 95.2176  Z
  " fill="#ffffff" fill-rule="evenodd" fill-opacity="1"/>
<polyline clip-path="url(#clip640)" style="stroke:#000000; stroke-linecap:butt; stroke-linejoin:round; stroke-width:4; stroke-opacity:1; fill:none" points="
  1815.53,198.898 2280.8,198.898 2280.8,95.2176 1815.53,95.2176 1815.53,198.898 
  "/>
<polyline clip-path="url(#clip640)" style="stroke:#009af9; stroke-linecap:butt; stroke-linejoin:round; stroke-width:4; stroke-opacity:1; fill:none" points="
  1839.52,147.058 1983.44,147.058 
  "/>
<path clip-path="url(#clip640)" d="M2021.27 166.745 Q2019.47 171.375 2017.75 172.787 Q2016.04 174.199 2013.17 174.199 L2009.77 174.199 L2009.77 170.634 L2012.27 170.634 Q2014.03 170.634 2015 169.8 Q2015.97 168.967 2017.15 165.865 L2017.92 163.921 L2007.43 138.412 L2011.94 138.412 L2020.04 158.689 L2028.15 138.412 L2032.66 138.412 L2021.27 166.745 Z" fill="#000000" fill-rule="evenodd" fill-opacity="1" /><path clip-path="url(#clip640)" d="M2054.17 142.81 L2083.84 142.81 L2083.84 146.699 L2054.17 146.699 L2054.17 142.81 M2054.17 152.254 L2083.84 152.254 L2083.84 156.189 L2054.17 156.189 L2054.17 152.254 Z" fill="#000000" fill-rule="evenodd" fill-opacity="1" /><path clip-path="url(#clip640)" d="M2124.93 139.176 L2124.93 143.203 Q2123.12 142.277 2121.18 141.815 Q2119.23 141.352 2117.15 141.352 Q2113.98 141.352 2112.38 142.324 Q2110.81 143.296 2110.81 145.24 Q2110.81 146.722 2111.94 147.578 Q2113.08 148.412 2116.5 149.176 L2117.96 149.5 Q2122.5 150.472 2124.4 152.254 Q2126.32 154.014 2126.32 157.185 Q2126.32 160.796 2123.45 162.902 Q2120.6 165.009 2115.6 165.009 Q2113.52 165.009 2111.25 164.592 Q2109 164.199 2106.5 163.388 L2106.5 158.99 Q2108.86 160.217 2111.16 160.842 Q2113.45 161.444 2115.69 161.444 Q2118.7 161.444 2120.32 160.426 Q2121.94 159.384 2121.94 157.509 Q2121.94 155.773 2120.76 154.847 Q2119.6 153.921 2115.65 153.064 L2114.16 152.717 Q2110.21 151.884 2108.45 150.171 Q2106.69 148.435 2106.69 145.426 Q2106.69 141.768 2109.28 139.778 Q2111.87 137.787 2116.64 137.787 Q2119 137.787 2121.09 138.134 Q2123.17 138.481 2124.93 139.176 Z" fill="#000000" fill-rule="evenodd" fill-opacity="1" /><path clip-path="url(#clip640)" d="M2133.1 138.412 L2137.36 138.412 L2137.36 164.338 L2133.1 164.338 L2133.1 138.412 M2133.1 128.319 L2137.36 128.319 L2137.36 133.713 L2133.1 133.713 L2133.1 128.319 Z" fill="#000000" fill-rule="evenodd" fill-opacity="1" /><path clip-path="url(#clip640)" d="M2167.82 148.689 L2167.82 164.338 L2163.56 164.338 L2163.56 148.828 Q2163.56 145.148 2162.13 143.319 Q2160.69 141.49 2157.82 141.49 Q2154.37 141.49 2152.38 143.69 Q2150.39 145.889 2150.39 149.685 L2150.39 164.338 L2146.11 164.338 L2146.11 138.412 L2150.39 138.412 L2150.39 142.44 Q2151.92 140.102 2153.98 138.944 Q2156.06 137.787 2158.77 137.787 Q2163.24 137.787 2165.53 140.565 Q2167.82 143.319 2167.82 148.689 Z" fill="#000000" fill-rule="evenodd" fill-opacity="1" /><path clip-path="url(#clip640)" d="M2186.55 128.366 Q2183.45 133.69 2181.94 138.898 Q2180.44 144.106 2180.44 149.453 Q2180.44 154.801 2181.94 160.055 Q2183.47 165.287 2186.55 170.588 L2182.84 170.588 Q2179.37 165.148 2177.64 159.893 Q2175.92 154.639 2175.92 149.453 Q2175.92 144.291 2177.64 139.06 Q2179.35 133.828 2182.84 128.366 L2186.55 128.366 Z" fill="#000000" fill-rule="evenodd" fill-opacity="1" /><path clip-path="url(#clip640)" d="M2216.36 138.412 L2206.99 151.027 L2216.85 164.338 L2211.83 164.338 L2204.28 154.152 L2196.73 164.338 L2191.71 164.338 L2201.78 150.773 L2192.57 138.412 L2197.59 138.412 L2204.47 147.648 L2211.34 138.412 L2216.36 138.412 Z" fill="#000000" fill-rule="evenodd" fill-opacity="1" /><path clip-path="url(#clip640)" d="M2222.2 128.366 L2225.9 128.366 Q2229.37 133.828 2231.09 139.06 Q2232.82 144.291 2232.82 149.453 Q2232.82 154.639 2231.09 159.893 Q2229.37 165.148 2225.9 170.588 L2222.2 170.588 Q2225.28 165.287 2226.78 160.055 Q2228.31 154.801 2228.31 149.453 Q2228.31 144.106 2226.78 138.898 Q2225.28 133.69 2222.2 128.366 Z" fill="#000000" fill-rule="evenodd" fill-opacity="1" /></svg>
