<?xml version="1.0" encoding="utf-8"?>
<svg xmlns="http://www.w3.org/2000/svg" xmlns:xlink="http://www.w3.org/1999/xlink" width="600" height="400" viewBox="0 0 2400 1600">
<defs>
  <clipPath id="clip800">
    <rect x="0" y="0" width="2400" height="1600"/>
  </clipPath>
</defs>
<path clip-path="url(#clip800)" d="
M0 1600 L2400 1600 L2400 0 L0 0  Z
  " fill="#ffffff" fill-rule="evenodd" fill-opacity="1"/>
<defs>
  <clipPath id="clip801">
    <rect x="480" y="0" width="1681" height="1600"/>
  </clipPath>
</defs>
<path clip-path="url(#clip800)" d="
M193.936 1486.45 L2352.76 1486.45 L2352.76 47.2441 L193.936 47.2441  Z
  " fill="#ffffff" fill-rule="evenodd" fill-opacity="1"/>
<defs>
  <clipPath id="clip802">
    <rect x="193" y="47" width="2160" height="1440"/>
  </clipPath>
</defs>
<polyline clip-path="url(#clip802)" style="stroke:#000000; stroke-linecap:butt; stroke-linejoin:round; stroke-width:2; stroke-opacity:0.1; fill:none" points="
  255.035,1486.45 255.035,47.2441 
  "/>
<polyline clip-path="url(#clip802)" style="stroke:#000000; stroke-linecap:butt; stroke-linejoin:round; stroke-width:2; stroke-opacity:0.1; fill:none" points="
  764.19,1486.45 764.19,47.2441 
  "/>
<polyline clip-path="url(#clip802)" style="stroke:#000000; stroke-linecap:butt; stroke-linejoin:round; stroke-width:2; stroke-opacity:0.1; fill:none" points="
  1273.35,1486.45 1273.35,47.2441 
  "/>
<polyline clip-path="url(#clip802)" style="stroke:#000000; stroke-linecap:butt; stroke-linejoin:round; stroke-width:2; stroke-opacity:0.1; fill:none" points="
  1782.5,1486.45 1782.5,47.2441 
  "/>
<polyline clip-path="url(#clip802)" style="stroke:#000000; stroke-linecap:butt; stroke-linejoin:round; stroke-width:2; stroke-opacity:0.1; fill:none" points="
  2291.66,1486.45 2291.66,47.2441 
  "/>
<polyline clip-path="url(#clip800)" style="stroke:#000000; stroke-linecap:butt; stroke-linejoin:round; stroke-width:4; stroke-opacity:1; fill:none" points="
  193.936,1486.45 2352.76,1486.45 
  "/>
<polyline clip-path="url(#clip800)" style="stroke:#000000; stroke-linecap:butt; stroke-linejoin:round; stroke-width:4; stroke-opacity:1; fill:none" points="
  255.035,1486.45 255.035,1467.55 
  "/>
<polyline clip-path="url(#clip800)" style="stroke:#000000; stroke-linecap:butt; stroke-linejoin:round; stroke-width:4; stroke-opacity:1; fill:none" points="
  764.19,1486.45 764.19,1467.55 
  "/>
<polyline clip-path="url(#clip800)" style="stroke:#000000; stroke-linecap:butt; stroke-linejoin:round; stroke-width:4; stroke-opacity:1; fill:none" points="
  1273.35,1486.45 1273.35,1467.55 
  "/>
<polyline clip-path="url(#clip800)" style="stroke:#000000; stroke-linecap:butt; stroke-linejoin:round; stroke-width:4; stroke-opacity:1; fill:none" points="
  1782.5,1486.45 1782.5,1467.55 
  "/>
<polyline clip-path="url(#clip800)" style="stroke:#000000; stroke-linecap:butt; stroke-linejoin:round; stroke-width:4; stroke-opacity:1; fill:none" points="
  2291.66,1486.45 2291.66,1467.55 
  "/>
<path clip-path="url(#clip800)" d="M217.338 1517.37 Q213.727 1517.37 211.898 1520.93 Q210.093 1524.47 210.093 1531.6 Q210.093 1538.71 211.898 1542.27 Q213.727 1545.82 217.338 1545.82 Q220.972 1545.82 222.778 1542.27 Q224.607 1538.71 224.607 1531.6 Q224.607 1524.47 222.778 1520.93 Q220.972 1517.37 217.338 1517.37 M217.338 1513.66 Q223.148 1513.66 226.204 1518.27 Q229.282 1522.85 229.282 1531.6 Q229.282 1540.33 226.204 1544.94 Q223.148 1549.52 217.338 1549.52 Q211.528 1549.52 208.449 1544.94 Q205.394 1540.33 205.394 1531.6 Q205.394 1522.85 208.449 1518.27 Q211.528 1513.66 217.338 1513.66 Z" fill="#000000" fill-rule="evenodd" fill-opacity="1" /><path clip-path="url(#clip800)" d="M237.5 1542.97 L242.384 1542.97 L242.384 1548.85 L237.5 1548.85 L237.5 1542.97 Z" fill="#000000" fill-rule="evenodd" fill-opacity="1" /><path clip-path="url(#clip800)" d="M262.569 1517.37 Q258.958 1517.37 257.13 1520.93 Q255.324 1524.47 255.324 1531.6 Q255.324 1538.71 257.13 1542.27 Q258.958 1545.82 262.569 1545.82 Q266.204 1545.82 268.009 1542.27 Q269.838 1538.71 269.838 1531.6 Q269.838 1524.47 268.009 1520.93 Q266.204 1517.37 262.569 1517.37 M262.569 1513.66 Q268.38 1513.66 271.435 1518.27 Q274.514 1522.85 274.514 1531.6 Q274.514 1540.33 271.435 1544.94 Q268.38 1549.52 262.569 1549.52 Q256.759 1549.52 253.681 1544.94 Q250.625 1540.33 250.625 1531.6 Q250.625 1522.85 253.681 1518.27 Q256.759 1513.66 262.569 1513.66 Z" fill="#000000" fill-rule="evenodd" fill-opacity="1" /><path clip-path="url(#clip800)" d="M292.731 1517.37 Q289.12 1517.37 287.291 1520.93 Q285.486 1524.47 285.486 1531.6 Q285.486 1538.71 287.291 1542.27 Q289.12 1545.82 292.731 1545.82 Q296.365 1545.82 298.171 1542.27 Q300 1538.71 300 1531.6 Q300 1524.47 298.171 1520.93 Q296.365 1517.37 292.731 1517.37 M292.731 1513.66 Q298.541 1513.66 301.597 1518.27 Q304.676 1522.85 304.676 1531.6 Q304.676 1540.33 301.597 1544.94 Q298.541 1549.52 292.731 1549.52 Q286.921 1549.52 283.842 1544.94 Q280.787 1540.33 280.787 1531.6 Q280.787 1522.85 283.842 1518.27 Q286.921 1513.66 292.731 1513.66 Z" fill="#000000" fill-rule="evenodd" fill-opacity="1" /><path clip-path="url(#clip800)" d="M726.991 1517.37 Q723.38 1517.37 721.552 1520.93 Q719.746 1524.47 719.746 1531.6 Q719.746 1538.71 721.552 1542.27 Q723.38 1545.82 726.991 1545.82 Q730.626 1545.82 732.431 1542.27 Q734.26 1538.71 734.26 1531.6 Q734.26 1524.47 732.431 1520.93 Q730.626 1517.37 726.991 1517.37 M726.991 1513.66 Q732.802 1513.66 735.857 1518.27 Q738.936 1522.85 738.936 1531.6 Q738.936 1540.33 735.857 1544.94 Q732.802 1549.52 726.991 1549.52 Q721.181 1549.52 718.103 1544.94 Q715.047 1540.33 715.047 1531.6 Q715.047 1522.85 718.103 1518.27 Q721.181 1513.66 726.991 1513.66 Z" fill="#000000" fill-rule="evenodd" fill-opacity="1" /><path clip-path="url(#clip800)" d="M747.153 1542.97 L752.038 1542.97 L752.038 1548.85 L747.153 1548.85 L747.153 1542.97 Z" fill="#000000" fill-rule="evenodd" fill-opacity="1" /><path clip-path="url(#clip800)" d="M766.25 1544.91 L782.57 1544.91 L782.57 1548.85 L760.626 1548.85 L760.626 1544.91 Q763.288 1542.16 767.871 1537.53 Q772.477 1532.88 773.658 1531.53 Q775.903 1529.01 776.783 1527.27 Q777.686 1525.51 777.686 1523.82 Q777.686 1521.07 775.741 1519.33 Q773.82 1517.6 770.718 1517.6 Q768.519 1517.6 766.065 1518.36 Q763.635 1519.13 760.857 1520.68 L760.857 1515.95 Q763.681 1514.82 766.135 1514.24 Q768.588 1513.66 770.625 1513.66 Q775.996 1513.66 779.19 1516.35 Q782.385 1519.03 782.385 1523.52 Q782.385 1525.65 781.574 1527.57 Q780.787 1529.47 778.681 1532.07 Q778.102 1532.74 775 1535.95 Q771.899 1539.15 766.25 1544.91 Z" fill="#000000" fill-rule="evenodd" fill-opacity="1" /><path clip-path="url(#clip800)" d="M792.431 1514.29 L810.787 1514.29 L810.787 1518.22 L796.713 1518.22 L796.713 1526.7 Q797.732 1526.35 798.75 1526.19 Q799.769 1526 800.787 1526 Q806.574 1526 809.954 1529.17 Q813.334 1532.34 813.334 1537.76 Q813.334 1543.34 809.861 1546.44 Q806.389 1549.52 800.07 1549.52 Q797.894 1549.52 795.625 1549.15 Q793.38 1548.78 790.973 1548.04 L790.973 1543.34 Q793.056 1544.47 795.278 1545.03 Q797.5 1545.58 799.977 1545.58 Q803.982 1545.58 806.32 1543.48 Q808.658 1541.37 808.658 1537.76 Q808.658 1534.15 806.32 1532.04 Q803.982 1529.94 799.977 1529.94 Q798.102 1529.94 796.227 1530.35 Q794.375 1530.77 792.431 1531.65 L792.431 1514.29 Z" fill="#000000" fill-rule="evenodd" fill-opacity="1" /><path clip-path="url(#clip800)" d="M1235.65 1517.37 Q1232.04 1517.37 1230.21 1520.93 Q1228.4 1524.47 1228.4 1531.6 Q1228.4 1538.71 1230.21 1542.27 Q1232.04 1545.82 1235.65 1545.82 Q1239.28 1545.82 1241.09 1542.27 Q1242.92 1538.71 1242.92 1531.6 Q1242.92 1524.47 1241.09 1520.93 Q1239.28 1517.37 1235.65 1517.37 M1235.65 1513.66 Q1241.46 1513.66 1244.52 1518.27 Q1247.59 1522.85 1247.59 1531.6 Q1247.59 1540.33 1244.52 1544.94 Q1241.46 1549.52 1235.65 1549.52 Q1229.84 1549.52 1226.76 1544.94 Q1223.71 1540.33 1223.71 1531.6 Q1223.71 1522.85 1226.76 1518.27 Q1229.84 1513.66 1235.65 1513.66 Z" fill="#000000" fill-rule="evenodd" fill-opacity="1" /><path clip-path="url(#clip800)" d="M1255.81 1542.97 L1260.7 1542.97 L1260.7 1548.85 L1255.81 1548.85 L1255.81 1542.97 Z" fill="#000000" fill-rule="evenodd" fill-opacity="1" /><path clip-path="url(#clip800)" d="M1270.93 1514.29 L1289.28 1514.29 L1289.28 1518.22 L1275.21 1518.22 L1275.21 1526.7 Q1276.23 1526.35 1277.25 1526.19 Q1278.26 1526 1279.28 1526 Q1285.07 1526 1288.45 1529.17 Q1291.83 1532.34 1291.83 1537.76 Q1291.83 1543.34 1288.36 1546.44 Q1284.89 1549.52 1278.57 1549.52 Q1276.39 1549.52 1274.12 1549.15 Q1271.88 1548.78 1269.47 1548.04 L1269.47 1543.34 Q1271.55 1544.47 1273.77 1545.03 Q1276 1545.58 1278.47 1545.58 Q1282.48 1545.58 1284.82 1543.48 Q1287.15 1541.37 1287.15 1537.76 Q1287.15 1534.15 1284.82 1532.04 Q1282.48 1529.94 1278.47 1529.94 Q1276.6 1529.94 1274.72 1530.35 Q1272.87 1530.77 1270.93 1531.65 L1270.93 1514.29 Z" fill="#000000" fill-rule="evenodd" fill-opacity="1" /><path clip-path="url(#clip800)" d="M1311.04 1517.37 Q1307.43 1517.37 1305.6 1520.93 Q1303.8 1524.47 1303.8 1531.6 Q1303.8 1538.71 1305.6 1542.27 Q1307.43 1545.82 1311.04 1545.82 Q1314.68 1545.82 1316.48 1542.27 Q1318.31 1538.71 1318.31 1531.6 Q1318.31 1524.47 1316.48 1520.93 Q1314.68 1517.37 1311.04 1517.37 M1311.04 1513.66 Q1316.85 1513.66 1319.91 1518.27 Q1322.99 1522.85 1322.99 1531.6 Q1322.99 1540.33 1319.91 1544.94 Q1316.85 1549.52 1311.04 1549.52 Q1305.23 1549.52 1302.15 1544.94 Q1299.1 1540.33 1299.1 1531.6 Q1299.1 1522.85 1302.15 1518.27 Q1305.23 1513.66 1311.04 1513.66 Z" fill="#000000" fill-rule="evenodd" fill-opacity="1" /><path clip-path="url(#clip800)" d="M1745.3 1517.37 Q1741.69 1517.37 1739.86 1520.93 Q1738.06 1524.47 1738.06 1531.6 Q1738.06 1538.71 1739.86 1542.27 Q1741.69 1545.82 1745.3 1545.82 Q1748.94 1545.82 1750.74 1542.27 Q1752.57 1538.71 1752.57 1531.6 Q1752.57 1524.47 1750.74 1520.93 Q1748.94 1517.37 1745.3 1517.37 M1745.3 1513.66 Q1751.11 1513.66 1754.17 1518.27 Q1757.25 1522.85 1757.25 1531.6 Q1757.25 1540.33 1754.17 1544.94 Q1751.11 1549.52 1745.3 1549.52 Q1739.49 1549.52 1736.41 1544.94 Q1733.36 1540.33 1733.36 1531.6 Q1733.36 1522.85 1736.41 1518.27 Q1739.49 1513.66 1745.3 1513.66 Z" fill="#000000" fill-rule="evenodd" fill-opacity="1" /><path clip-path="url(#clip800)" d="M1765.46 1542.97 L1770.35 1542.97 L1770.35 1548.85 L1765.46 1548.85 L1765.46 1542.97 Z" fill="#000000" fill-rule="evenodd" fill-opacity="1" /><path clip-path="url(#clip800)" d="M1779.35 1514.29 L1801.58 1514.29 L1801.58 1516.28 L1789.03 1548.85 L1784.15 1548.85 L1795.95 1518.22 L1779.35 1518.22 L1779.35 1514.29 Z" fill="#000000" fill-rule="evenodd" fill-opacity="1" /><path clip-path="url(#clip800)" d="M1810.74 1514.29 L1829.1 1514.29 L1829.1 1518.22 L1815.02 1518.22 L1815.02 1526.7 Q1816.04 1526.35 1817.06 1526.19 Q1818.08 1526 1819.1 1526 Q1824.89 1526 1828.27 1529.17 Q1831.64 1532.34 1831.64 1537.76 Q1831.64 1543.34 1828.17 1546.44 Q1824.7 1549.52 1818.38 1549.52 Q1816.21 1549.52 1813.94 1549.15 Q1811.69 1548.78 1809.28 1548.04 L1809.28 1543.34 Q1811.37 1544.47 1813.59 1545.03 Q1815.81 1545.58 1818.29 1545.58 Q1822.29 1545.58 1824.63 1543.48 Q1826.97 1541.37 1826.97 1537.76 Q1826.97 1534.15 1824.63 1532.04 Q1822.29 1529.94 1818.29 1529.94 Q1816.41 1529.94 1814.54 1530.35 Q1812.69 1530.77 1810.74 1531.65 L1810.74 1514.29 Z" fill="#000000" fill-rule="evenodd" fill-opacity="1" /><path clip-path="url(#clip800)" d="M2243.73 1544.91 L2251.37 1544.91 L2251.37 1518.55 L2243.06 1520.21 L2243.06 1515.95 L2251.32 1514.29 L2256 1514.29 L2256 1544.91 L2263.64 1544.91 L2263.64 1548.85 L2243.73 1548.85 L2243.73 1544.91 Z" fill="#000000" fill-rule="evenodd" fill-opacity="1" /><path clip-path="url(#clip800)" d="M2273.08 1542.97 L2277.97 1542.97 L2277.97 1548.85 L2273.08 1548.85 L2273.08 1542.97 Z" fill="#000000" fill-rule="evenodd" fill-opacity="1" /><path clip-path="url(#clip800)" d="M2298.15 1517.37 Q2294.54 1517.37 2292.71 1520.93 Q2290.9 1524.47 2290.9 1531.6 Q2290.9 1538.71 2292.71 1542.27 Q2294.54 1545.82 2298.15 1545.82 Q2301.78 1545.82 2303.59 1542.27 Q2305.42 1538.71 2305.42 1531.6 Q2305.42 1524.47 2303.59 1520.93 Q2301.78 1517.37 2298.15 1517.37 M2298.15 1513.66 Q2303.96 1513.66 2307.02 1518.27 Q2310.09 1522.85 2310.09 1531.6 Q2310.09 1540.33 2307.02 1544.94 Q2303.96 1549.52 2298.15 1549.52 Q2292.34 1549.52 2289.26 1544.94 Q2286.21 1540.33 2286.21 1531.6 Q2286.21 1522.85 2289.26 1518.27 Q2292.34 1513.66 2298.15 1513.66 Z" fill="#000000" fill-rule="evenodd" fill-opacity="1" /><path clip-path="url(#clip800)" d="M2328.31 1517.37 Q2324.7 1517.37 2322.87 1520.93 Q2321.07 1524.47 2321.07 1531.6 Q2321.07 1538.71 2322.87 1542.27 Q2324.7 1545.82 2328.31 1545.82 Q2331.95 1545.82 2333.75 1542.27 Q2335.58 1538.71 2335.58 1531.6 Q2335.58 1524.47 2333.75 1520.93 Q2331.95 1517.37 2328.31 1517.37 M2328.31 1513.66 Q2334.12 1513.66 2337.18 1518.27 Q2340.26 1522.85 2340.26 1531.6 Q2340.26 1540.33 2337.18 1544.94 Q2334.12 1549.52 2328.31 1549.52 Q2322.5 1549.52 2319.42 1544.94 Q2316.37 1540.33 2316.37 1531.6 Q2316.37 1522.85 2319.42 1518.27 Q2322.5 1513.66 2328.31 1513.66 Z" fill="#000000" fill-rule="evenodd" fill-opacity="1" /><polyline clip-path="url(#clip802)" style="stroke:#000000; stroke-linecap:butt; stroke-linejoin:round; stroke-width:2; stroke-opacity:0.1; fill:none" points="
  193.936,1445.75 2352.76,1445.75 
  "/>
<polyline clip-path="url(#clip802)" style="stroke:#000000; stroke-linecap:butt; stroke-linejoin:round; stroke-width:2; stroke-opacity:0.1; fill:none" points="
  193.936,1106.31 2352.76,1106.31 
  "/>
<polyline clip-path="url(#clip802)" style="stroke:#000000; stroke-linecap:butt; stroke-linejoin:round; stroke-width:2; stroke-opacity:0.1; fill:none" points="
  193.936,766.864 2352.76,766.864 
  "/>
<polyline clip-path="url(#clip802)" style="stroke:#000000; stroke-linecap:butt; stroke-linejoin:round; stroke-width:2; stroke-opacity:0.1; fill:none" points="
  193.936,427.42 2352.76,427.42 
  "/>
<polyline clip-path="url(#clip802)" style="stroke:#000000; stroke-linecap:butt; stroke-linejoin:round; stroke-width:2; stroke-opacity:0.1; fill:none" points="
  193.936,87.9763 2352.76,87.9763 
  "/>
<polyline clip-path="url(#clip800)" style="stroke:#000000; stroke-linecap:butt; stroke-linejoin:round; stroke-width:4; stroke-opacity:1; fill:none" points="
  193.936,1486.45 193.936,47.2441 
  "/>
<polyline clip-path="url(#clip800)" style="stroke:#000000; stroke-linecap:butt; stroke-linejoin:round; stroke-width:4; stroke-opacity:1; fill:none" points="
  193.936,1445.75 212.834,1445.75 
  "/>
<polyline clip-path="url(#clip800)" style="stroke:#000000; stroke-linecap:butt; stroke-linejoin:round; stroke-width:4; stroke-opacity:1; fill:none" points="
  193.936,1106.31 212.834,1106.31 
  "/>
<polyline clip-path="url(#clip800)" style="stroke:#000000; stroke-linecap:butt; stroke-linejoin:round; stroke-width:4; stroke-opacity:1; fill:none" points="
  193.936,766.864 212.834,766.864 
  "/>
<polyline clip-path="url(#clip800)" style="stroke:#000000; stroke-linecap:butt; stroke-linejoin:round; stroke-width:4; stroke-opacity:1; fill:none" points="
  193.936,427.42 212.834,427.42 
  "/>
<polyline clip-path="url(#clip800)" style="stroke:#000000; stroke-linecap:butt; stroke-linejoin:round; stroke-width:4; stroke-opacity:1; fill:none" points="
  193.936,87.9763 212.834,87.9763 
  "/>
<path clip-path="url(#clip800)" d="M50.9921 1446.2 L80.6679 1446.2 L80.6679 1450.14 L50.9921 1450.14 L50.9921 1446.2 Z" fill="#000000" fill-rule="evenodd" fill-opacity="1" /><path clip-path="url(#clip800)" d="M91.5706 1459.1 L99.2095 1459.1 L99.2095 1432.73 L90.8993 1434.4 L90.8993 1430.14 L99.1632 1428.47 L103.839 1428.47 L103.839 1459.1 L111.478 1459.1 L111.478 1463.03 L91.5706 1463.03 L91.5706 1459.1 Z" fill="#000000" fill-rule="evenodd" fill-opacity="1" /><path clip-path="url(#clip800)" d="M120.922 1457.15 L125.807 1457.15 L125.807 1463.03 L120.922 1463.03 L120.922 1457.15 Z" fill="#000000" fill-rule="evenodd" fill-opacity="1" /><path clip-path="url(#clip800)" d="M145.992 1431.55 Q142.381 1431.55 140.552 1435.12 Q138.746 1438.66 138.746 1445.79 Q138.746 1452.89 140.552 1456.46 Q142.381 1460 145.992 1460 Q149.626 1460 151.431 1456.46 Q153.26 1452.89 153.26 1445.79 Q153.26 1438.66 151.431 1435.12 Q149.626 1431.55 145.992 1431.55 M145.992 1427.85 Q151.802 1427.85 154.857 1432.45 Q157.936 1437.04 157.936 1445.79 Q157.936 1454.51 154.857 1459.12 Q151.802 1463.7 145.992 1463.7 Q140.181 1463.7 137.103 1459.12 Q134.047 1454.51 134.047 1445.79 Q134.047 1437.04 137.103 1432.45 Q140.181 1427.85 145.992 1427.85 Z" fill="#000000" fill-rule="evenodd" fill-opacity="1" /><path clip-path="url(#clip800)" d="M51.9875 1106.76 L81.6633 1106.76 L81.6633 1110.69 L51.9875 1110.69 L51.9875 1106.76 Z" fill="#000000" fill-rule="evenodd" fill-opacity="1" /><path clip-path="url(#clip800)" d="M101.756 1092.11 Q98.1447 1092.11 96.316 1095.67 Q94.5104 1099.21 94.5104 1106.34 Q94.5104 1113.45 96.316 1117.01 Q98.1447 1120.56 101.756 1120.56 Q105.39 1120.56 107.196 1117.01 Q109.024 1113.45 109.024 1106.34 Q109.024 1099.21 107.196 1095.67 Q105.39 1092.11 101.756 1092.11 M101.756 1088.4 Q107.566 1088.4 110.621 1093.01 Q113.7 1097.59 113.7 1106.34 Q113.7 1115.07 110.621 1119.68 Q107.566 1124.26 101.756 1124.26 Q95.9456 1124.26 92.8669 1119.68 Q89.8114 1115.07 89.8114 1106.34 Q89.8114 1097.59 92.8669 1093.01 Q95.9456 1088.4 101.756 1088.4 Z" fill="#000000" fill-rule="evenodd" fill-opacity="1" /><path clip-path="url(#clip800)" d="M121.918 1117.71 L126.802 1117.71 L126.802 1123.59 L121.918 1123.59 L121.918 1117.71 Z" fill="#000000" fill-rule="evenodd" fill-opacity="1" /><path clip-path="url(#clip800)" d="M137.033 1089.03 L155.39 1089.03 L155.39 1092.96 L141.316 1092.96 L141.316 1101.44 Q142.334 1101.09 143.353 1100.93 Q144.371 1100.74 145.39 1100.74 Q151.177 1100.74 154.556 1103.91 Q157.936 1107.08 157.936 1112.5 Q157.936 1118.08 154.464 1121.18 Q150.992 1124.26 144.672 1124.26 Q142.496 1124.26 140.228 1123.89 Q137.982 1123.52 135.575 1122.78 L135.575 1118.08 Q137.658 1119.21 139.881 1119.77 Q142.103 1120.32 144.58 1120.32 Q148.584 1120.32 150.922 1118.22 Q153.26 1116.11 153.26 1112.5 Q153.26 1108.89 150.922 1106.78 Q148.584 1104.68 144.58 1104.68 Q142.705 1104.68 140.83 1105.09 Q138.978 1105.51 137.033 1106.39 L137.033 1089.03 Z" fill="#000000" fill-rule="evenodd" fill-opacity="1" /><path clip-path="url(#clip800)" d="M100.76 752.663 Q97.1493 752.663 95.3206 756.227 Q93.515 759.769 93.515 766.899 Q93.515 774.005 95.3206 777.57 Q97.1493 781.112 100.76 781.112 Q104.395 781.112 106.2 777.57 Q108.029 774.005 108.029 766.899 Q108.029 759.769 106.2 756.227 Q104.395 752.663 100.76 752.663 M100.76 748.959 Q106.571 748.959 109.626 753.565 Q112.705 758.149 112.705 766.899 Q112.705 775.625 109.626 780.232 Q106.571 784.815 100.76 784.815 Q94.9502 784.815 91.8715 780.232 Q88.816 775.625 88.816 766.899 Q88.816 758.149 91.8715 753.565 Q94.9502 748.959 100.76 748.959 Z" fill="#000000" fill-rule="evenodd" fill-opacity="1" /><path clip-path="url(#clip800)" d="M120.922 778.264 L125.807 778.264 L125.807 784.144 L120.922 784.144 L120.922 778.264 Z" fill="#000000" fill-rule="evenodd" fill-opacity="1" /><path clip-path="url(#clip800)" d="M145.992 752.663 Q142.381 752.663 140.552 756.227 Q138.746 759.769 138.746 766.899 Q138.746 774.005 140.552 777.57 Q142.381 781.112 145.992 781.112 Q149.626 781.112 151.431 777.57 Q153.26 774.005 153.26 766.899 Q153.26 759.769 151.431 756.227 Q149.626 752.663 145.992 752.663 M145.992 748.959 Q151.802 748.959 154.857 753.565 Q157.936 758.149 157.936 766.899 Q157.936 775.625 154.857 780.232 Q151.802 784.815 145.992 784.815 Q140.181 784.815 137.103 780.232 Q134.047 775.625 134.047 766.899 Q134.047 758.149 137.103 753.565 Q140.181 748.959 145.992 748.959 Z" fill="#000000" fill-rule="evenodd" fill-opacity="1" /><path clip-path="url(#clip800)" d="M101.756 413.219 Q98.1447 413.219 96.316 416.784 Q94.5104 420.325 94.5104 427.455 Q94.5104 434.561 96.316 438.126 Q98.1447 441.668 101.756 441.668 Q105.39 441.668 107.196 438.126 Q109.024 434.561 109.024 427.455 Q109.024 420.325 107.196 416.784 Q105.39 413.219 101.756 413.219 M101.756 409.515 Q107.566 409.515 110.621 414.122 Q113.7 418.705 113.7 427.455 Q113.7 436.182 110.621 440.788 Q107.566 445.371 101.756 445.371 Q95.9456 445.371 92.8669 440.788 Q89.8114 436.182 89.8114 427.455 Q89.8114 418.705 92.8669 414.122 Q95.9456 409.515 101.756 409.515 Z" fill="#000000" fill-rule="evenodd" fill-opacity="1" /><path clip-path="url(#clip800)" d="M121.918 438.82 L126.802 438.82 L126.802 444.7 L121.918 444.7 L121.918 438.82 Z" fill="#000000" fill-rule="evenodd" fill-opacity="1" /><path clip-path="url(#clip800)" d="M137.033 410.14 L155.39 410.14 L155.39 414.075 L141.316 414.075 L141.316 422.547 Q142.334 422.2 143.353 422.038 Q144.371 421.853 145.39 421.853 Q151.177 421.853 154.556 425.024 Q157.936 428.196 157.936 433.612 Q157.936 439.191 154.464 442.293 Q150.992 445.371 144.672 445.371 Q142.496 445.371 140.228 445.001 Q137.982 444.631 135.575 443.89 L135.575 439.191 Q137.658 440.325 139.881 440.881 Q142.103 441.436 144.58 441.436 Q148.584 441.436 150.922 439.33 Q153.26 437.223 153.26 433.612 Q153.26 430.001 150.922 427.895 Q148.584 425.788 144.58 425.788 Q142.705 425.788 140.83 426.205 Q138.978 426.621 137.033 427.501 L137.033 410.14 Z" fill="#000000" fill-rule="evenodd" fill-opacity="1" /><path clip-path="url(#clip800)" d="M91.5706 101.321 L99.2095 101.321 L99.2095 74.9555 L90.8993 76.6222 L90.8993 72.3629 L99.1632 70.6963 L103.839 70.6963 L103.839 101.321 L111.478 101.321 L111.478 105.256 L91.5706 105.256 L91.5706 101.321 Z" fill="#000000" fill-rule="evenodd" fill-opacity="1" /><path clip-path="url(#clip800)" d="M120.922 99.3767 L125.807 99.3767 L125.807 105.256 L120.922 105.256 L120.922 99.3767 Z" fill="#000000" fill-rule="evenodd" fill-opacity="1" /><path clip-path="url(#clip800)" d="M145.992 73.775 Q142.381 73.775 140.552 77.3398 Q138.746 80.8814 138.746 88.011 Q138.746 95.1174 140.552 98.6822 Q142.381 102.224 145.992 102.224 Q149.626 102.224 151.431 98.6822 Q153.26 95.1174 153.26 88.011 Q153.26 80.8814 151.431 77.3398 Q149.626 73.775 145.992 73.775 M145.992 70.0713 Q151.802 70.0713 154.857 74.6777 Q157.936 79.261 157.936 88.011 Q157.936 96.7378 154.857 101.344 Q151.802 105.928 145.992 105.928 Q140.181 105.928 137.103 101.344 Q134.047 96.7378 134.047 88.011 Q134.047 79.261 137.103 74.6777 Q140.181 70.0713 145.992 70.0713 Z" fill="#000000" fill-rule="evenodd" fill-opacity="1" /><polyline clip-path="url(#clip802)" style="stroke:#009af9; stroke-linecap:butt; stroke-linejoin:round; stroke-width:4; stroke-opacity:1; fill:none" points="
  255.035,766.864 275.607,698.406 296.179,630.646 316.751,564.274 337.322,499.968 357.894,438.383 378.466,380.146 399.038,325.852 419.61,276.054 440.182,231.259 
  460.754,191.924 481.326,158.45 501.898,131.179 522.47,110.388 543.042,96.2895 563.614,89.027 584.186,88.6747 604.758,95.2361 625.33,108.644 645.902,128.763 
  666.474,155.386 687.046,188.243 707.617,226.999 728.189,271.258 748.761,320.57 769.333,374.431 789.905,432.293 810.477,493.566 831.049,557.625 851.621,623.816 
  872.193,691.467 892.765,759.885 913.337,828.375 933.909,896.238 954.481,962.782 975.053,1027.33 995.625,1089.22 1016.2,1147.83 1036.77,1202.55 1057.34,1252.83 
  1077.91,1298.15 1098.48,1338.06 1119.06,1372.15 1139.63,1400.07 1160.2,1421.53 1180.77,1436.31 1201.34,1444.28 1221.92,1445.33 1242.49,1439.47 1263.06,1426.76 
  1283.63,1407.31 1304.2,1381.34 1324.78,1349.1 1345.35,1310.93 1365.92,1267.21 1386.49,1218.39 1407.06,1164.97 1427.64,1107.49 1448.21,1046.54 1468.78,982.731 
  1489.35,916.726 1509.92,849.193 1530.5,780.82 1551.07,712.306 1571.64,644.347 1592.21,577.638 1612.78,512.857 1633.35,450.666 1653.93,391.699 1674.5,336.556 
  1695.07,285.8 1715.64,239.947 1736.21,199.467 1756.79,164.771 1777.36,136.212 1797.93,114.083 1818.5,98.6086 1839.07,89.9465 1859.65,88.1851 1880.22,93.3425 
  1900.79,105.366 1921.36,124.133 1941.93,149.452 1962.51,181.066 1983.08,218.651 2003.65,261.825 2024.22,310.147 2044.79,363.126 2065.37,420.22 2085.94,480.848 
  2106.51,544.392 2127.08,610.204 2147.65,677.613 2168.23,745.931 2188.8,814.463 2209.37,882.51 2229.94,949.378 2250.51,1014.39 2271.09,1076.87 2291.66,1136.19 
  
  "/>
<polyline clip-path="url(#clip802)" style="stroke:#e26f46; stroke-linecap:butt; stroke-linejoin:round; stroke-width:4; stroke-opacity:1; fill:none" points="
  255.035,87.9763 275.607,91.4367 296.179,101.783 316.751,118.909 337.322,142.64 357.894,172.735 378.466,208.887 399.038,250.727 419.61,297.829 440.182,349.712 
  460.754,405.848 481.326,465.665 501.898,528.551 522.47,593.867 543.042,660.947 563.614,729.107 584.186,797.651 604.758,865.882 625.33,933.103 645.902,998.63 
  666.474,1061.79 687.046,1121.95 707.617,1178.49 728.189,1230.83 748.761,1278.44 769.333,1320.84 789.905,1357.58 810.477,1388.31 831.049,1412.7 851.621,1430.51 
  872.193,1441.55 892.765,1445.72 913.337,1442.96 933.909,1433.31 954.481,1416.87 975.053,1393.8 995.625,1364.34 1016.2,1328.79 1036.77,1287.51 1057.34,1240.92 
  1077.91,1189.5 1098.48,1133.77 1119.06,1074.3 1139.63,1011.7 1160.2,946.599 1180.77,879.668 1201.34,811.587 1221.92,743.05 1242.49,674.755 1263.06,607.4 
  1283.63,541.67 1304.2,478.236 1324.78,417.744 1345.35,360.811 1365.92,308.018 1386.49,259.903 1407.06,216.955 1427.64,179.614 1448.21,148.259 1468.78,123.21 
  1489.35,104.724 1509.92,92.9868 1530.5,88.1197 1551.07,90.1721 1571.64,99.1229 1592.21,114.881 1612.78,137.285 1633.35,166.108 1653.93,201.055 1674.5,241.77 
  1695.07,287.838 1715.64,338.79 1736.21,394.105 1756.79,453.221 1777.36,515.534 1797.93,580.408 1818.5,647.184 1839.07,715.18 1859.65,783.703 1880.22,852.054 
  1900.79,919.537 1921.36,985.463 1941.93,1049.16 1962.51,1109.98 1983.08,1167.3 2003.65,1220.54 2024.22,1269.16 2044.79,1312.65 2065.37,1350.58 2085.94,1382.56 
  2106.51,1408.26 2127.08,1427.43 2147.65,1439.86 2168.23,1445.43 2188.8,1444.08 2209.37,1435.83 2229.94,1420.76 2250.51,1399.02 2271.09,1370.84 2291.66,1336.5 
  
  "/>
<path clip-path="url(#clip800)" d="
M1988.5 250.738 L2280.8 250.738 L2280.8 95.2176 L1988.5 95.2176  Z
  " fill="#ffffff" fill-rule="evenodd" fill-opacity="1"/>
<polyline clip-path="url(#clip800)" style="stroke:#000000; stroke-linecap:butt; stroke-linejoin:round; stroke-width:4; stroke-opacity:1; fill:none" points="
  1988.5,250.738 2280.8,250.738 2280.8,95.2176 1988.5,95.2176 1988.5,250.738 
  "/>
<polyline clip-path="url(#clip800)" style="stroke:#009af9; stroke-linecap:butt; stroke-linejoin:round; stroke-width:4; stroke-opacity:1; fill:none" points="
  2012.48,147.058 2156.4,147.058 
  "/>
<path clip-path="url(#clip800)" d="M2194.23 166.745 Q2192.43 171.375 2190.72 172.787 Q2189 174.199 2186.13 174.199 L2182.73 174.199 L2182.73 170.634 L2185.23 170.634 Q2186.99 170.634 2187.96 169.8 Q2188.93 168.967 2190.11 165.865 L2190.88 163.921 L2180.39 138.412 L2184.91 138.412 L2193.01 158.689 L2201.11 138.412 L2205.62 138.412 L2194.23 166.745 Z" fill="#000000" fill-rule="evenodd" fill-opacity="1" /><path clip-path="url(#clip800)" d="M2212.91 160.402 L2220.55 160.402 L2220.55 134.037 L2212.24 135.703 L2212.24 131.444 L2220.51 129.778 L2225.18 129.778 L2225.18 160.402 L2232.82 160.402 L2232.82 164.338 L2212.91 164.338 L2212.91 160.402 Z" fill="#000000" fill-rule="evenodd" fill-opacity="1" /><polyline clip-path="url(#clip800)" style="stroke:#e26f46; stroke-linecap:butt; stroke-linejoin:round; stroke-width:4; stroke-opacity:1; fill:none" points="
  2012.48,198.898 2156.4,198.898 
  "/>
<path clip-path="url(#clip800)" d="M2194.23 218.585 Q2192.43 223.215 2190.72 224.627 Q2189 226.039 2186.13 226.039 L2182.73 226.039 L2182.73 222.474 L2185.23 222.474 Q2186.99 222.474 2187.96 221.64 Q2188.93 220.807 2190.11 217.705 L2190.88 215.761 L2180.39 190.252 L2184.91 190.252 L2193.01 210.529 L2201.11 190.252 L2205.62 190.252 L2194.23 218.585 Z" fill="#000000" fill-rule="evenodd" fill-opacity="1" /><path clip-path="url(#clip800)" d="M2216.13 212.242 L2232.45 212.242 L2232.45 216.178 L2210.51 216.178 L2210.51 212.242 Q2213.17 209.488 2217.75 204.858 Q2222.36 200.205 2223.54 198.863 Q2225.78 196.34 2226.66 194.604 Q2227.57 192.844 2227.57 191.155 Q2227.57 188.4 2225.62 186.664 Q2223.7 184.928 2220.6 184.928 Q2218.4 184.928 2215.95 185.692 Q2213.52 186.455 2210.74 188.006 L2210.74 183.284 Q2213.56 182.15 2216.02 181.571 Q2218.47 180.993 2220.51 180.993 Q2225.88 180.993 2229.07 183.678 Q2232.27 186.363 2232.27 190.854 Q2232.27 192.983 2231.46 194.905 Q2230.67 196.803 2228.56 199.395 Q2227.98 200.067 2224.88 203.284 Q2221.78 206.479 2216.13 212.242 Z" fill="#000000" fill-rule="evenodd" fill-opacity="1" /></svg>
