<?xml version="1.0" encoding="utf-8"?>
<svg xmlns="http://www.w3.org/2000/svg" xmlns:xlink="http://www.w3.org/1999/xlink" width="600" height="400" viewBox="0 0 2400 1600">
<defs>
  <clipPath id="clip460">
    <rect x="0" y="0" width="2400" height="1600"/>
  </clipPath>
</defs>
<path clip-path="url(#clip460)" d="
M0 1600 L2400 1600 L2400 0 L0 0  Z
  " fill="#ffffff" fill-rule="evenodd" fill-opacity="1"/>
<defs>
  <clipPath id="clip461">
    <rect x="480" y="0" width="1681" height="1600"/>
  </clipPath>
</defs>
<path clip-path="url(#clip460)" d="
M193.936 1486.45 L2352.76 1486.45 L2352.76 47.2441 L193.936 47.2441  Z
  " fill="#ffffff" fill-rule="evenodd" fill-opacity="1"/>
<defs>
  <clipPath id="clip462">
    <rect x="193" y="47" width="2160" height="1440"/>
  </clipPath>
</defs>
<path clip-path="url(#clip462)" d="
M1273.35 766.846 L1952.22 766.846 L1952.2 761.642 L1952.14 756.439 L1952.04 751.236 L1951.9 746.034 L1951.72 740.833 L1951.5 735.634 L1951.24 730.436 L1950.94 725.241 
  L1950.6 720.048 L1950.22 714.858 L1949.81 709.671 L1949.35 704.487 L1948.85 699.307 L1948.31 694.131 L1947.73 688.959 L1947.12 683.792 L1946.46 678.63 L1945.77 673.473 
  L1945.03 668.321 L1944.25 663.175 L1943.44 658.035 L1942.59 652.902 L1941.69 647.775 L1940.76 642.655 L1939.79 637.543 L1938.78 632.438 L1937.73 627.341 L1936.64 622.253 
  L1935.51 617.172 L1934.35 612.101 L1933.14 607.039 L1931.9 601.986 L1930.61 596.942 L1929.29 591.909 L1927.93 586.886 L1926.53 581.874 L1925.09 576.872 L1923.62 571.882 
  L1922.11 566.903 L1920.55 561.936 L1918.96 556.981 L1917.34 552.038 L1915.67 547.108 L1913.97 542.19 L1912.23 537.286 L1910.45 532.396 L1908.63 527.519 L1906.78 522.656 
  L1904.89 517.808 L1273.35 766.846  Z
  " fill="#009af9" fill-rule="evenodd" fill-opacity="1"/>
<polyline clip-path="url(#clip462)" style="stroke:#000000; stroke-linecap:butt; stroke-linejoin:round; stroke-width:4; stroke-opacity:1; fill:none" points="
  1273.35,766.846 1952.22,766.846 1952.2,761.642 1952.14,756.439 1952.04,751.236 1951.9,746.034 1951.72,740.833 1951.5,735.634 1951.24,730.436 1950.94,725.241 
  1950.6,720.048 1950.22,714.858 1949.81,709.671 1949.35,704.487 1948.85,699.307 1948.31,694.131 1947.73,688.959 1947.12,683.792 1946.46,678.63 1945.77,673.473 
  1945.03,668.321 1944.25,663.175 1943.44,658.035 1942.59,652.902 1941.69,647.775 1940.76,642.655 1939.79,637.543 1938.78,632.438 1937.73,627.341 1936.64,622.253 
  1935.51,617.172 1934.35,612.101 1933.14,607.039 1931.9,601.986 1930.61,596.942 1929.29,591.909 1927.93,586.886 1926.53,581.874 1925.09,576.872 1923.62,571.882 
  1922.11,566.903 1920.55,561.936 1918.96,556.981 1917.34,552.038 1915.67,547.108 1913.97,542.19 1912.23,537.286 1910.45,532.396 1908.63,527.519 1906.78,522.656 
  1904.89,517.808 1273.35,766.846 
  "/>
<path clip-path="url(#clip462)" d="
M1273.35 766.846 L1904.89 517.808 L1901.86 510.251 L1898.73 502.731 L1895.52 495.248 L1892.22 487.805 L1888.83 480.402 L1885.35 473.041 L1881.78 465.721 L1878.12 458.445 
  L1874.38 451.213 L1870.55 444.027 L1866.64 436.887 L1862.64 429.794 L1858.55 422.75 L1854.38 415.756 L1850.13 408.812 L1845.79 401.92 L1841.37 395.08 L1836.87 388.293 
  L1832.29 381.561 L1827.63 374.885 L1822.89 368.265 L1818.07 361.702 L1813.17 355.197 L1808.2 348.752 L1803.14 342.367 L1798.01 336.043 L1792.81 329.781 L1787.53 323.581 
  L1782.17 317.446 L1776.75 311.375 L1771.25 305.37 L1765.68 299.431 L1760.04 293.559 L1754.32 287.756 L1748.54 282.021 L1742.69 276.356 L1736.78 270.762 L1730.79 265.239 
  L1724.74 259.788 L1718.63 254.411 L1712.45 249.107 L1706.21 243.877 L1699.9 238.723 L1693.54 233.644 L1687.11 228.643 L1680.63 223.719 L1674.08 218.872 L1667.48 214.105 
  L1660.83 209.418 L1273.35 766.846  Z
  " fill="#e26f46" fill-rule="evenodd" fill-opacity="1"/>
<polyline clip-path="url(#clip462)" style="stroke:#000000; stroke-linecap:butt; stroke-linejoin:round; stroke-width:4; stroke-opacity:1; fill:none" points="
  1273.35,766.846 1904.89,517.808 1901.86,510.251 1898.73,502.731 1895.52,495.248 1892.22,487.805 1888.83,480.402 1885.35,473.041 1881.78,465.721 1878.12,458.445 
  1874.38,451.213 1870.55,444.027 1866.64,436.887 1862.64,429.794 1858.55,422.75 1854.38,415.756 1850.13,408.812 1845.79,401.92 1841.37,395.08 1836.87,388.293 
  1832.29,381.561 1827.63,374.885 1822.89,368.265 1818.07,361.702 1813.17,355.197 1808.2,348.752 1803.14,342.367 1798.01,336.043 1792.81,329.781 1787.53,323.581 
  1782.17,317.446 1776.75,311.375 1771.25,305.37 1765.68,299.431 1760.04,293.559 1754.32,287.756 1748.54,282.021 1742.69,276.356 1736.78,270.762 1730.79,265.239 
  1724.74,259.788 1718.63,254.411 1712.45,249.107 1706.21,243.877 1699.9,238.723 1693.54,233.644 1687.11,228.643 1680.63,223.719 1674.08,218.872 1667.48,214.105 
  1660.83,209.418 1273.35,766.846 
  "/>
<path clip-path="url(#clip462)" d="
M1273.35 766.846 L1660.83 209.418 L1657.83 207.346 L1654.82 205.291 L1651.8 203.252 L1648.77 201.23 L1645.73 199.223 L1642.68 197.233 L1639.62 195.26 L1636.55 193.303 
  L1633.46 191.362 L1630.37 189.438 L1627.27 187.53 L1624.15 185.64 L1621.03 183.766 L1617.9 181.908 L1614.75 180.068 L1611.6 178.244 L1608.43 176.438 L1605.26 174.648 
  L1602.08 172.876 L1598.89 171.12 L1595.69 169.382 L1592.48 167.661 L1589.26 165.957 L1586.03 164.271 L1582.79 162.601 L1579.54 160.95 L1576.29 159.315 L1573.02 157.699 
  L1569.75 156.099 L1566.47 154.518 L1563.18 152.954 L1559.88 151.407 L1556.57 149.879 L1553.26 148.368 L1549.94 146.875 L1546.61 145.399 L1543.27 143.942 L1539.92 142.503 
  L1536.57 141.081 L1533.2 139.678 L1529.84 138.292 L1526.46 136.925 L1523.08 135.576 L1519.68 134.245 L1516.29 132.932 L1512.88 131.638 L1509.47 130.362 L1506.05 129.104 
  L1502.62 127.864 L1273.35 766.846  Z
  " fill="#3da44d" fill-rule="evenodd" fill-opacity="1"/>
<polyline clip-path="url(#clip462)" style="stroke:#000000; stroke-linecap:butt; stroke-linejoin:round; stroke-width:4; stroke-opacity:1; fill:none" points="
  1273.35,766.846 1660.83,209.418 1657.83,207.346 1654.82,205.291 1651.8,203.252 1648.77,201.23 1645.73,199.223 1642.68,197.233 1639.62,195.26 1636.55,193.303 
  1633.46,191.362 1630.37,189.438 1627.27,187.53 1624.15,185.64 1621.03,183.766 1617.9,181.908 1614.75,180.068 1611.6,178.244 1608.43,176.438 1605.26,174.648 
  1602.08,172.876 1598.89,171.12 1595.69,169.382 1592.48,167.661 1589.26,165.957 1586.03,164.271 1582.79,162.601 1579.54,160.95 1576.29,159.315 1573.02,157.699 
  1569.75,156.099 1566.47,154.518 1563.18,152.954 1559.88,151.407 1556.57,149.879 1553.26,148.368 1549.94,146.875 1546.61,145.399 1543.27,143.942 1539.92,142.503 
  1536.57,141.081 1533.2,139.678 1529.84,138.292 1526.46,136.925 1523.08,135.576 1519.68,134.245 1516.29,132.932 1512.88,131.638 1509.47,130.362 1506.05,129.104 
  1502.62,127.864 1273.35,766.846 
  "/>
<path clip-path="url(#clip462)" d="
M1273.35 766.846 L1502.62 127.864 L1494.51 125.01 L1486.36 122.259 L1478.17 119.611 L1469.95 117.067 L1461.7 114.628 L1453.42 112.293 L1445.11 110.064 L1436.77 107.94 
  L1428.41 105.921 L1420.02 104.009 L1411.61 102.204 L1403.18 100.505 L1394.72 98.913 L1386.25 97.4284 L1377.75 96.0514 L1369.25 94.7821 L1360.72 93.6207 L1352.18 92.5675 
  L1343.63 91.6226 L1335.07 90.7861 L1326.5 90.0582 L1317.91 89.439 L1309.33 88.9286 L1300.73 88.527 L1292.13 88.2344 L1283.53 88.0508 L1274.93 87.9763 L1266.32 88.0107 
  L1257.72 88.1542 L1249.12 88.4067 L1240.53 88.7682 L1231.94 89.2385 L1223.35 89.8177 L1214.78 90.5057 L1206.21 91.3022 L1197.65 92.2073 L1189.11 93.2207 L1180.58 94.3423 
  L1172.07 95.5719 L1163.57 96.9094 L1155.09 98.3544 L1146.62 99.9068 L1138.18 101.566 L1129.76 103.333 L1121.36 105.206 L1112.99 107.185 L1104.64 109.27 L1096.32 111.461 
  L1088.03 113.757 L1273.35 766.846  Z
  " fill="#c271d2" fill-rule="evenodd" fill-opacity="1"/>
<polyline clip-path="url(#clip462)" style="stroke:#000000; stroke-linecap:butt; stroke-linejoin:round; stroke-width:4; stroke-opacity:1; fill:none" points="
  1273.35,766.846 1502.62,127.864 1494.51,125.01 1486.36,122.259 1478.17,119.611 1469.95,117.067 1461.7,114.628 1453.42,112.293 1445.11,110.064 1436.77,107.94 
  1428.41,105.921 1420.02,104.009 1411.61,102.204 1403.18,100.505 1394.72,98.913 1386.25,97.4284 1377.75,96.0514 1369.25,94.7821 1360.72,93.6207 1352.18,92.5675 
  1343.63,91.6226 1335.07,90.7861 1326.5,90.0582 1317.91,89.439 1309.33,88.9286 1300.73,88.527 1292.13,88.2344 1283.53,88.0508 1274.93,87.9763 1266.32,88.0107 
  1257.72,88.1542 1249.12,88.4067 1240.53,88.7682 1231.94,89.2385 1223.35,89.8177 1214.78,90.5057 1206.21,91.3022 1197.65,92.2073 1189.11,93.2207 1180.58,94.3423 
  1172.07,95.5719 1163.57,96.9094 1155.09,98.3544 1146.62,99.9068 1138.18,101.566 1129.76,103.333 1121.36,105.206 1112.99,107.185 1104.64,109.27 1096.32,111.461 
  1088.03,113.757 1273.35,766.846 
  "/>
<path clip-path="url(#clip462)" d="
M1273.35 766.846 L1088.03 113.757 L1081.75 115.571 L1075.49 117.446 L1069.25 119.382 L1063.02 121.377 L1056.82 123.432 L1050.63 125.547 L1044.47 127.721 L1038.32 129.954 
  L1032.2 132.247 L1026.1 134.598 L1020.03 137.008 L1013.97 139.477 L1007.94 142.003 L1001.94 144.588 L995.961 147.23 L990.007 149.93 L984.08 152.686 L978.18 155.5 
  L972.307 158.371 L966.462 161.297 L960.646 164.28 L954.858 167.319 L949.1 170.414 L943.372 173.564 L937.675 176.768 L932.009 180.028 L926.374 183.342 L920.772 186.71 
  L915.202 190.131 L909.666 193.607 L904.163 197.135 L898.694 200.716 L893.26 204.35 L887.862 208.036 L882.499 211.774 L877.172 215.563 L871.883 219.403 L866.63 223.294 
  L861.415 227.235 L856.238 231.227 L851.1 235.268 L846.001 239.358 L840.942 243.498 L835.923 247.685 L830.944 251.921 L826.006 256.205 L821.11 260.536 L816.256 264.914 
  L811.444 269.339 L1273.35 766.846  Z
  " fill="#ac8d18" fill-rule="evenodd" fill-opacity="1"/>
<polyline clip-path="url(#clip462)" style="stroke:#000000; stroke-linecap:butt; stroke-linejoin:round; stroke-width:4; stroke-opacity:1; fill:none" points="
  1273.35,766.846 1088.03,113.757 1081.75,115.571 1075.49,117.446 1069.25,119.382 1063.02,121.377 1056.82,123.432 1050.63,125.547 1044.47,127.721 1038.32,129.954 
  1032.2,132.247 1026.1,134.598 1020.03,137.008 1013.97,139.477 1007.94,142.003 1001.94,144.588 995.961,147.23 990.007,149.93 984.08,152.686 978.18,155.5 
  972.307,158.371 966.462,161.297 960.646,164.28 954.858,167.319 949.1,170.414 943.372,173.564 937.675,176.768 932.009,180.028 926.374,183.342 920.772,186.71 
  915.202,190.131 909.666,193.607 904.163,197.135 898.694,200.716 893.26,204.35 887.862,208.036 882.499,211.774 877.172,215.563 871.883,219.403 866.63,223.294 
  861.415,227.235 856.238,231.227 851.1,235.268 846.001,239.358 840.942,243.498 835.923,247.685 830.944,251.921 826.006,256.205 821.11,260.536 816.256,264.914 
  811.444,269.339 1273.35,766.846 
  "/>
<path clip-path="url(#clip462)" d="
M1273.35 766.846 L811.444 269.339 L807.01 273.493 L802.613 277.686 L798.254 281.919 L793.933 286.19 L789.651 290.5 L785.407 294.848 L781.202 299.234 L777.037 303.657 
  L772.911 308.118 L768.825 312.615 L764.78 317.149 L760.776 321.718 L756.813 326.323 L752.891 330.964 L749.01 335.639 L745.172 340.349 L741.376 345.094 L737.623 349.872 
  L733.913 354.683 L730.245 359.527 L726.622 364.404 L723.042 369.314 L719.506 374.255 L716.014 379.227 L712.568 384.231 L709.166 389.265 L705.809 394.329 L702.498 399.424 
  L699.232 404.547 L696.013 409.7 L692.839 414.882 L689.713 420.091 L686.633 425.328 L683.6 430.593 L680.614 435.885 L677.675 441.203 L674.785 446.547 L671.942 451.917 
  L669.148 457.312 L666.402 462.732 L663.704 468.176 L661.055 473.644 L658.456 479.136 L655.905 484.651 L653.405 490.188 L650.953 495.748 L648.552 501.329 L646.201 506.931 
  L643.9 512.555 L1273.35 766.846  Z
  " fill="#00a9ad" fill-rule="evenodd" fill-opacity="1"/>
<polyline clip-path="url(#clip462)" style="stroke:#000000; stroke-linecap:butt; stroke-linejoin:round; stroke-width:4; stroke-opacity:1; fill:none" points="
  1273.35,766.846 811.444,269.339 807.01,273.493 802.613,277.686 798.254,281.919 793.933,286.19 789.651,290.5 785.407,294.848 781.202,299.234 777.037,303.657 
  772.911,308.118 768.825,312.615 764.78,317.149 760.776,321.718 756.813,326.323 752.891,330.964 749.01,335.639 745.172,340.349 741.376,345.094 737.623,349.872 
  733.913,354.683 730.245,359.527 726.622,364.404 723.042,369.314 719.506,374.255 716.014,379.227 712.568,384.231 709.166,389.265 705.809,394.329 702.498,399.424 
  699.232,404.547 696.013,409.7 692.839,414.882 689.713,420.091 686.633,425.328 683.6,430.593 680.614,435.885 677.675,441.203 674.785,446.547 671.942,451.917 
  669.148,457.312 666.402,462.732 663.704,468.176 661.055,473.644 658.456,479.136 655.905,484.651 653.405,490.188 650.953,495.748 648.552,501.329 646.201,506.931 
  643.9,512.555 1273.35,766.846 
  "/>
<path clip-path="url(#clip462)" d="
M1273.35 766.846 L643.9 512.555 L643.546 513.432 L643.193 514.31 L642.842 515.189 L642.492 516.068 L642.143 516.947 L641.795 517.827 L641.449 518.707 L641.103 519.588 
  L640.759 520.47 L640.417 521.352 L640.075 522.234 L639.735 523.117 L639.396 524 L639.058 524.884 L638.721 525.768 L638.386 526.653 L638.052 527.538 L637.719 528.424 
  L637.387 529.31 L637.057 530.196 L636.728 531.083 L636.4 531.971 L636.073 532.859 L635.747 533.747 L635.423 534.636 L635.1 535.525 L634.778 536.415 L634.458 537.305 
  L634.139 538.196 L633.821 539.087 L633.504 539.979 L633.188 540.871 L632.874 541.763 L632.561 542.656 L632.249 543.549 L631.938 544.443 L631.629 545.337 L631.321 546.232 
  L631.014 547.127 L630.708 548.022 L630.404 548.918 L630.101 549.814 L629.799 550.711 L629.499 551.608 L629.199 552.506 L628.901 553.403 L628.604 554.302 L628.309 555.201 
  L628.014 556.1 L1273.35 766.846  Z
  " fill="#ed5d92" fill-rule="evenodd" fill-opacity="1"/>
<polyline clip-path="url(#clip462)" style="stroke:#000000; stroke-linecap:butt; stroke-linejoin:round; stroke-width:4; stroke-opacity:1; fill:none" points="
  1273.35,766.846 643.9,512.555 643.546,513.432 643.193,514.31 642.842,515.189 642.492,516.068 642.143,516.947 641.795,517.827 641.449,518.707 641.103,519.588 
  640.759,520.47 640.417,521.352 640.075,522.234 639.735,523.117 639.396,524 639.058,524.884 638.721,525.768 638.386,526.653 638.052,527.538 637.719,528.424 
  637.387,529.31 637.057,530.196 636.728,531.083 636.4,531.971 636.073,532.859 635.747,533.747 635.423,534.636 635.1,535.525 634.778,536.415 634.458,537.305 
  634.139,538.196 633.821,539.087 633.504,539.979 633.188,540.871 632.874,541.763 632.561,542.656 632.249,543.549 631.938,544.443 631.629,545.337 631.321,546.232 
  631.014,547.127 630.708,548.022 630.404,548.918 630.101,549.814 629.799,550.711 629.499,551.608 629.199,552.506 628.901,553.403 628.604,554.302 628.309,555.201 
  628.014,556.1 1273.35,766.846 
  "/>
<path clip-path="url(#clip462)" d="
M1273.35 766.846 L628.014 556.1 L627.453 557.826 L626.897 559.554 L626.345 561.283 L625.797 563.014 L625.255 564.746 L624.717 566.479 L624.183 568.214 L623.654 569.951 
  L623.13 571.688 L622.611 573.428 L622.096 575.168 L621.586 576.91 L621.08 578.654 L620.579 580.398 L620.083 582.144 L619.592 583.892 L619.105 585.64 L618.623 587.39 
  L618.145 589.141 L617.672 590.894 L617.204 592.647 L616.741 594.402 L616.282 596.159 L615.828 597.916 L615.379 599.675 L614.934 601.435 L614.494 603.196 L614.059 604.958 
  L613.629 606.721 L613.203 608.486 L612.782 610.251 L612.365 612.018 L611.954 613.786 L611.547 615.555 L611.145 617.325 L610.747 619.096 L610.355 620.868 L609.967 622.641 
  L609.584 624.415 L609.205 626.191 L608.831 627.967 L608.463 629.744 L608.098 631.522 L607.739 633.302 L607.384 635.082 L607.034 636.863 L606.689 638.645 L606.349 640.428 
  L606.013 642.212 L1273.35 766.846  Z
  " fill="#c68125" fill-rule="evenodd" fill-opacity="1"/>
<polyline clip-path="url(#clip462)" style="stroke:#000000; stroke-linecap:butt; stroke-linejoin:round; stroke-width:4; stroke-opacity:1; fill:none" points="
  1273.35,766.846 628.014,556.1 627.453,557.826 626.897,559.554 626.345,561.283 625.797,563.014 625.255,564.746 624.717,566.479 624.183,568.214 623.654,569.951 
  623.13,571.688 622.611,573.428 622.096,575.168 621.586,576.91 621.08,578.654 620.579,580.398 620.083,582.144 619.592,583.892 619.105,585.64 618.623,587.39 
  618.145,589.141 617.672,590.894 617.204,592.647 616.741,594.402 616.282,596.159 615.828,597.916 615.379,599.675 614.934,601.435 614.494,603.196 614.059,604.958 
  613.629,606.721 613.203,608.486 612.782,610.251 612.365,612.018 611.954,613.786 611.547,615.555 611.145,617.325 610.747,619.096 610.355,620.868 609.967,622.641 
  609.584,624.415 609.205,626.191 608.831,627.967 608.463,629.744 608.098,631.522 607.739,633.302 607.384,635.082 607.034,636.863 606.689,638.645 606.349,640.428 
  606.013,642.212 1273.35,766.846 
  "/>
<path clip-path="url(#clip462)" d="
M1273.35 766.846 L606.013 642.212 L604.985 647.846 L604.005 653.489 L603.073 659.139 L602.188 664.798 L601.351 670.464 L600.562 676.136 L599.82 681.816 L599.127 687.501 
  L598.482 693.191 L597.884 698.888 L597.335 704.588 L596.834 710.294 L596.381 716.003 L595.976 721.716 L595.619 727.432 L595.311 733.151 L595.051 738.872 L594.839 744.596 
  L594.675 750.321 L594.56 756.047 L594.493 761.774 L594.474 767.501 L594.504 773.228 L594.582 778.955 L594.708 784.681 L594.883 790.405 L595.106 796.128 L595.377 801.849 
  L595.697 807.568 L596.064 813.283 L596.48 818.995 L596.944 824.704 L597.456 830.408 L598.017 836.108 L598.625 841.803 L599.281 847.492 L599.986 853.176 L600.738 858.854 
  L601.538 864.525 L602.386 870.189 L603.282 875.846 L604.225 881.495 L605.216 887.136 L606.255 892.768 L607.341 898.391 L608.474 904.005 L609.655 909.61 L610.883 915.204 
  L612.158 920.787 L1273.35 766.846  Z
  " fill="#00a98d" fill-rule="evenodd" fill-opacity="1"/>
<polyline clip-path="url(#clip462)" style="stroke:#000000; stroke-linecap:butt; stroke-linejoin:round; stroke-width:4; stroke-opacity:1; fill:none" points="
  1273.35,766.846 606.013,642.212 604.985,647.846 604.005,653.489 603.073,659.139 602.188,664.798 601.351,670.464 600.562,676.136 599.82,681.816 599.127,687.501 
  598.482,693.191 597.884,698.888 597.335,704.588 596.834,710.294 596.381,716.003 595.976,721.716 595.619,727.432 595.311,733.151 595.051,738.872 594.839,744.596 
  594.675,750.321 594.56,756.047 594.493,761.774 594.474,767.501 594.504,773.228 594.582,778.955 594.708,784.681 594.883,790.405 595.106,796.128 595.377,801.849 
  595.697,807.568 596.064,813.283 596.48,818.995 596.944,824.704 597.456,830.408 598.017,836.108 598.625,841.803 599.281,847.492 599.986,853.176 600.738,858.854 
  601.538,864.525 602.386,870.189 603.282,875.846 604.225,881.495 605.216,887.136 606.255,892.768 607.341,898.391 608.474,904.005 609.655,909.61 610.883,915.204 
  612.158,920.787 1273.35,766.846 
  "/>
<path clip-path="url(#clip462)" d="
M1273.35 766.846 L612.158 920.787 L612.991 924.322 L613.843 927.852 L614.714 931.377 L615.603 934.898 L616.512 938.414 L617.439 941.925 L618.385 945.432 L619.349 948.933 
  L620.333 952.428 L621.335 955.919 L622.356 959.404 L623.395 962.884 L624.453 966.358 L625.529 969.826 L626.625 973.288 L627.738 976.745 L628.87 980.195 L630.021 983.64 
  L631.19 987.078 L632.377 990.51 L633.582 993.935 L634.806 997.354 L636.049 1000.77 L637.309 1004.17 L638.588 1007.57 L639.884 1010.96 L641.199 1014.35 L642.532 1017.73 
  L643.883 1021.1 L645.252 1024.46 L646.639 1027.82 L648.044 1031.17 L649.467 1034.51 L650.908 1037.84 L652.367 1041.17 L653.843 1044.48 L655.337 1047.79 L656.849 1051.1 
  L658.378 1054.39 L659.925 1057.67 L661.489 1060.95 L663.071 1064.22 L664.671 1067.48 L666.288 1070.73 L667.922 1073.98 L669.574 1077.21 L671.242 1080.44 L672.928 1083.65 
  L674.632 1086.86 L1273.35 766.846  Z
  " fill="#8e971d" fill-rule="evenodd" fill-opacity="1"/>
<polyline clip-path="url(#clip462)" style="stroke:#000000; stroke-linecap:butt; stroke-linejoin:round; stroke-width:4; stroke-opacity:1; fill:none" points="
  1273.35,766.846 612.158,920.787 612.991,924.322 613.843,927.852 614.714,931.377 615.603,934.898 616.512,938.414 617.439,941.925 618.385,945.432 619.349,948.933 
  620.333,952.428 621.335,955.919 622.356,959.404 623.395,962.884 624.453,966.358 625.529,969.826 626.625,973.288 627.738,976.745 628.87,980.195 630.021,983.64 
  631.19,987.078 632.377,990.51 633.582,993.935 634.806,997.354 636.049,1000.77 637.309,1004.17 638.588,1007.57 639.884,1010.96 641.199,1014.35 642.532,1017.73 
  643.883,1021.1 645.252,1024.46 646.639,1027.82 648.044,1031.17 649.467,1034.51 650.908,1037.84 652.367,1041.17 653.843,1044.48 655.337,1047.79 656.849,1051.1 
  658.378,1054.39 659.925,1057.67 661.489,1060.95 663.071,1064.22 664.671,1067.48 666.288,1070.73 667.922,1073.98 669.574,1077.21 671.242,1080.44 672.928,1083.65 
  674.632,1086.86 1273.35,766.846 
  "/>
<path clip-path="url(#clip462)" d="
M1273.35 766.846 L674.632 1086.86 L677.102 1091.44 L679.607 1096 L682.147 1100.54 L684.721 1105.06 L687.33 1109.56 L689.974 1114.04 L692.652 1118.5 L695.364 1122.94 
  L698.11 1127.36 L700.889 1131.76 L703.702 1136.13 L706.549 1140.49 L709.429 1144.82 L712.342 1149.13 L715.288 1153.42 L718.267 1157.68 L721.279 1161.93 L724.323 1166.15 
  L727.399 1170.34 L730.507 1174.51 L733.647 1178.66 L736.819 1182.79 L740.022 1186.88 L743.257 1190.96 L746.522 1195.01 L749.819 1199.03 L753.146 1203.03 L756.504 1207.01 
  L759.893 1210.95 L763.311 1214.88 L766.76 1218.77 L770.238 1222.64 L773.746 1226.48 L777.283 1230.3 L780.849 1234.09 L784.444 1237.85 L788.068 1241.58 L791.72 1245.28 
  L795.401 1248.96 L799.109 1252.61 L802.846 1256.23 L806.61 1259.82 L810.402 1263.38 L814.22 1266.92 L818.066 1270.42 L821.939 1273.89 L825.838 1277.34 L829.763 1280.75 
  L833.714 1284.14 L1273.35 766.846  Z
  " fill="#00a8cb" fill-rule="evenodd" fill-opacity="1"/>
<polyline clip-path="url(#clip462)" style="stroke:#000000; stroke-linecap:butt; stroke-linejoin:round; stroke-width:4; stroke-opacity:1; fill:none" points="
  1273.35,766.846 674.632,1086.86 677.102,1091.44 679.607,1096 682.147,1100.54 684.721,1105.06 687.33,1109.56 689.974,1114.04 692.652,1118.5 695.364,1122.94 
  698.11,1127.36 700.889,1131.76 703.702,1136.13 706.549,1140.49 709.429,1144.82 712.342,1149.13 715.288,1153.42 718.267,1157.68 721.279,1161.93 724.323,1166.15 
  727.399,1170.34 730.507,1174.51 733.647,1178.66 736.819,1182.79 740.022,1186.88 743.257,1190.96 746.522,1195.01 749.819,1199.03 753.146,1203.03 756.504,1207.01 
  759.893,1210.95 763.311,1214.88 766.76,1218.77 770.238,1222.64 773.746,1226.48 777.283,1230.3 780.849,1234.09 784.444,1237.85 788.068,1241.58 791.72,1245.28 
  795.401,1248.96 799.109,1252.61 802.846,1256.23 806.61,1259.82 810.402,1263.38 814.22,1266.92 818.066,1270.42 821.939,1273.89 825.838,1277.34 829.763,1280.75 
  833.714,1284.14 1273.35,766.846 
  "/>
<path clip-path="url(#clip462)" d="
M1273.35 766.846 L833.714 1284.14 L834.139 1284.5 L834.565 1284.86 L834.99 1285.22 L835.416 1285.58 L835.843 1285.94 L836.269 1286.3 L836.696 1286.66 L837.123 1287.02 
  L837.551 1287.37 L837.978 1287.73 L838.407 1288.09 L838.835 1288.45 L839.263 1288.8 L839.692 1289.16 L840.122 1289.52 L840.551 1289.87 L840.981 1290.23 L841.411 1290.58 
  L841.841 1290.94 L842.272 1291.29 L842.703 1291.64 L843.134 1292 L843.566 1292.35 L843.998 1292.7 L844.43 1293.06 L844.862 1293.41 L845.295 1293.76 L845.728 1294.11 
  L846.161 1294.46 L846.595 1294.81 L847.029 1295.16 L847.463 1295.51 L847.897 1295.86 L848.332 1296.21 L848.767 1296.56 L849.202 1296.91 L849.638 1297.26 L850.074 1297.61 
  L850.51 1297.95 L850.946 1298.3 L851.383 1298.65 L851.82 1299 L852.257 1299.34 L852.695 1299.69 L853.133 1300.03 L853.571 1300.38 L854.009 1300.72 L854.448 1301.07 
  L854.887 1301.41 L1273.35 766.846  Z
  " fill="#9b7fe8" fill-rule="evenodd" fill-opacity="1"/>
<polyline clip-path="url(#clip462)" style="stroke:#000000; stroke-linecap:butt; stroke-linejoin:round; stroke-width:4; stroke-opacity:1; fill:none" points="
  1273.35,766.846 833.714,1284.14 834.139,1284.5 834.565,1284.86 834.99,1285.22 835.416,1285.58 835.843,1285.94 836.269,1286.3 836.696,1286.66 837.123,1287.02 
  837.551,1287.37 837.978,1287.73 838.407,1288.09 838.835,1288.45 839.263,1288.8 839.692,1289.16 840.122,1289.52 840.551,1289.87 840.981,1290.23 841.411,1290.58 
  841.841,1290.94 842.272,1291.29 842.703,1291.64 843.134,1292 843.566,1292.35 843.998,1292.7 844.43,1293.06 844.862,1293.41 845.295,1293.76 845.728,1294.11 
  846.161,1294.46 846.595,1294.81 847.029,1295.16 847.463,1295.51 847.897,1295.86 848.332,1296.21 848.767,1296.56 849.202,1296.91 849.638,1297.26 850.074,1297.61 
  850.51,1297.95 850.946,1298.3 851.383,1298.65 851.82,1299 852.257,1299.34 852.695,1299.69 853.133,1300.03 853.571,1300.38 854.009,1300.72 854.448,1301.07 
  854.887,1301.41 1273.35,766.846 
  "/>
<path clip-path="url(#clip462)" d="
M1273.35 766.846 L854.887 1301.41 L860.892 1306.06 L866.948 1310.64 L873.055 1315.15 L879.212 1319.59 L885.418 1323.96 L891.673 1328.27 L897.976 1332.5 L904.326 1336.66 
  L910.722 1340.75 L917.163 1344.77 L923.648 1348.72 L930.178 1352.6 L936.75 1356.4 L943.365 1360.12 L950.02 1363.78 L956.717 1367.36 L963.452 1370.86 L970.227 1374.29 
  L977.039 1377.64 L983.889 1380.92 L990.775 1384.11 L997.696 1387.24 L1004.65 1390.28 L1011.64 1393.25 L1018.66 1396.13 L1025.72 1398.94 L1032.8 1401.67 L1039.92 1404.32 
  L1047.06 1406.89 L1054.23 1409.38 L1061.43 1411.79 L1068.66 1414.12 L1075.91 1416.37 L1083.19 1418.54 L1090.49 1420.63 L1097.81 1422.63 L1105.15 1424.55 L1112.52 1426.39 
  L1119.91 1428.15 L1127.31 1429.83 L1134.74 1431.42 L1142.18 1432.93 L1149.64 1434.35 L1157.11 1435.69 L1164.6 1436.95 L1172.1 1438.12 L1179.61 1439.22 L1187.14 1440.22 
  L1194.67 1441.14 L1273.35 766.846  Z
  " fill="#608cf6" fill-rule="evenodd" fill-opacity="1"/>
<polyline clip-path="url(#clip462)" style="stroke:#000000; stroke-linecap:butt; stroke-linejoin:round; stroke-width:4; stroke-opacity:1; fill:none" points="
  1273.35,766.846 854.887,1301.41 860.892,1306.06 866.948,1310.64 873.055,1315.15 879.212,1319.59 885.418,1323.96 891.673,1328.27 897.976,1332.5 904.326,1336.66 
  910.722,1340.75 917.163,1344.77 923.648,1348.72 930.178,1352.6 936.75,1356.4 943.365,1360.12 950.02,1363.78 956.717,1367.36 963.452,1370.86 970.227,1374.29 
  977.039,1377.64 983.889,1380.92 990.775,1384.11 997.696,1387.24 1004.65,1390.28 1011.64,1393.25 1018.66,1396.13 1025.72,1398.94 1032.8,1401.67 1039.92,1404.32 
  1047.06,1406.89 1054.23,1409.38 1061.43,1411.79 1068.66,1414.12 1075.91,1416.37 1083.19,1418.54 1090.49,1420.63 1097.81,1422.63 1105.15,1424.55 1112.52,1426.39 
  1119.91,1428.15 1127.31,1429.83 1134.74,1431.42 1142.18,1432.93 1149.64,1434.35 1157.11,1435.69 1164.6,1436.95 1172.1,1438.12 1179.61,1439.22 1187.14,1440.22 
  1194.67,1441.14 1273.35,766.846 
  "/>
<path clip-path="url(#clip462)" d="
M1273.35 766.846 L1194.67 1441.14 L1196.12 1441.31 L1197.57 1441.48 L1199.02 1441.64 L1200.47 1441.79 L1201.92 1441.95 L1203.37 1442.1 L1204.82 1442.25 L1206.27 1442.4 
  L1207.73 1442.54 L1209.18 1442.68 L1210.63 1442.81 L1212.08 1442.95 L1213.54 1443.08 L1214.99 1443.2 L1216.44 1443.33 L1217.9 1443.45 L1219.35 1443.57 L1220.81 1443.68 
  L1222.26 1443.79 L1223.71 1443.9 L1225.17 1444.01 L1226.62 1444.11 L1228.08 1444.21 L1229.54 1444.3 L1230.99 1444.4 L1232.45 1444.48 L1233.9 1444.57 L1235.36 1444.65 
  L1236.82 1444.73 L1238.27 1444.81 L1239.73 1444.88 L1241.19 1444.96 L1242.64 1445.02 L1244.1 1445.09 L1245.56 1445.15 L1247.02 1445.21 L1248.47 1445.26 L1249.93 1445.31 
  L1251.39 1445.36 L1252.85 1445.41 L1254.31 1445.45 L1255.76 1445.49 L1257.22 1445.53 L1258.68 1445.56 L1260.14 1445.59 L1261.6 1445.62 L1263.06 1445.64 L1264.52 1445.66 
  L1265.97 1445.68 L1273.35 766.846  Z
  " fill="#f05f73" fill-rule="evenodd" fill-opacity="1"/>
<polyline clip-path="url(#clip462)" style="stroke:#000000; stroke-linecap:butt; stroke-linejoin:round; stroke-width:4; stroke-opacity:1; fill:none" points="
  1273.35,766.846 1194.67,1441.14 1196.12,1441.31 1197.57,1441.48 1199.02,1441.64 1200.47,1441.79 1201.92,1441.95 1203.37,1442.1 1204.82,1442.25 1206.27,1442.4 
  1207.73,1442.54 1209.18,1442.68 1210.63,1442.81 1212.08,1442.95 1213.54,1443.08 1214.99,1443.2 1216.44,1443.33 1217.9,1443.45 1219.35,1443.57 1220.81,1443.68 
  1222.26,1443.79 1223.71,1443.9 1225.17,1444.01 1226.62,1444.11 1228.08,1444.21 1229.54,1444.3 1230.99,1444.4 1232.45,1444.48 1233.9,1444.57 1235.36,1444.65 
  1236.82,1444.73 1238.27,1444.81 1239.73,1444.88 1241.19,1444.96 1242.64,1445.02 1244.1,1445.09 1245.56,1445.15 1247.02,1445.21 1248.47,1445.26 1249.93,1445.31 
  1251.39,1445.36 1252.85,1445.41 1254.31,1445.45 1255.76,1445.49 1257.22,1445.53 1258.68,1445.56 1260.14,1445.59 1261.6,1445.62 1263.06,1445.64 1264.52,1445.66 
  1265.97,1445.68 1273.35,766.846 
  "/>
<path clip-path="url(#clip462)" d="
M1273.35 766.846 L1265.97 1445.68 L1270.49 1445.71 L1275 1445.72 L1279.52 1445.69 L1284.04 1445.63 L1288.55 1445.55 L1293.06 1445.43 L1297.58 1445.29 L1302.09 1445.11 
  L1306.6 1444.9 L1311.11 1444.67 L1315.62 1444.4 L1320.12 1444.1 L1324.63 1443.78 L1329.13 1443.42 L1333.63 1443.04 L1338.12 1442.62 L1342.62 1442.17 L1347.11 1441.7 
  L1351.59 1441.19 L1356.08 1440.66 L1360.56 1440.09 L1365.03 1439.5 L1369.5 1438.87 L1373.97 1438.22 L1378.44 1437.53 L1382.89 1436.82 L1387.35 1436.08 L1391.8 1435.3 
  L1396.24 1434.5 L1400.68 1433.67 L1405.11 1432.81 L1409.54 1431.92 L1413.96 1431 L1418.37 1430.05 L1422.78 1429.07 L1427.18 1428.06 L1431.58 1427.02 L1435.96 1425.95 
  L1440.34 1424.86 L1444.72 1423.73 L1449.08 1422.58 L1453.44 1421.39 L1457.79 1420.18 L1462.13 1418.94 L1466.46 1417.67 L1470.79 1416.37 L1475.1 1415.04 L1479.41 1413.69 
  L1483.71 1412.3 L1273.35 766.846  Z
  " fill="#dd64b5" fill-rule="evenodd" fill-opacity="1"/>
<polyline clip-path="url(#clip462)" style="stroke:#000000; stroke-linecap:butt; stroke-linejoin:round; stroke-width:4; stroke-opacity:1; fill:none" points="
  1273.35,766.846 1265.97,1445.68 1270.49,1445.71 1275,1445.72 1279.52,1445.69 1284.04,1445.63 1288.55,1445.55 1293.06,1445.43 1297.58,1445.29 1302.09,1445.11 
  1306.6,1444.9 1311.11,1444.67 1315.62,1444.4 1320.12,1444.1 1324.63,1443.78 1329.13,1443.42 1333.63,1443.04 1338.12,1442.62 1342.62,1442.17 1347.11,1441.7 
  1351.59,1441.19 1356.08,1440.66 1360.56,1440.09 1365.03,1439.5 1369.5,1438.87 1373.97,1438.22 1378.44,1437.53 1382.89,1436.82 1387.35,1436.08 1391.8,1435.3 
  1396.24,1434.5 1400.68,1433.67 1405.11,1432.81 1409.54,1431.92 1413.96,1431 1418.37,1430.05 1422.78,1429.07 1427.18,1428.06 1431.58,1427.02 1435.96,1425.95 
  1440.34,1424.86 1444.72,1423.73 1449.08,1422.58 1453.44,1421.39 1457.79,1420.18 1462.13,1418.94 1466.46,1417.67 1470.79,1416.37 1475.1,1415.04 1479.41,1413.69 
  1483.71,1412.3 1273.35,766.846 
  "/>
<path clip-path="url(#clip462)" d="
M1273.35 766.846 L1483.71 1412.3 L1485.03 1411.87 L1486.36 1411.43 L1487.68 1410.99 L1489 1410.55 L1490.33 1410.11 L1491.65 1409.66 L1492.97 1409.21 L1494.28 1408.76 
  L1495.6 1408.3 L1496.92 1407.85 L1498.23 1407.39 L1499.55 1406.92 L1500.86 1406.46 L1502.18 1405.99 L1503.49 1405.52 L1504.8 1405.04 L1506.11 1404.57 L1507.42 1404.09 
  L1508.73 1403.61 L1510.03 1403.12 L1511.34 1402.63 L1512.65 1402.14 L1513.95 1401.65 L1515.25 1401.16 L1516.55 1400.66 L1517.86 1400.16 L1519.16 1399.65 L1520.45 1399.15 
  L1521.75 1398.64 L1523.05 1398.13 L1524.35 1397.61 L1525.64 1397.1 L1526.93 1396.58 L1528.23 1396.05 L1529.52 1395.53 L1530.81 1395 L1532.1 1394.47 L1533.39 1393.94 
  L1534.67 1393.4 L1535.96 1392.87 L1537.24 1392.33 L1538.53 1391.78 L1539.81 1391.24 L1541.09 1390.69 L1542.37 1390.14 L1543.65 1389.58 L1544.93 1389.03 L1546.21 1388.47 
  L1547.48 1387.91 L1273.35 766.846  Z
  " fill="#6b9e32" fill-rule="evenodd" fill-opacity="1"/>
<polyline clip-path="url(#clip462)" style="stroke:#000000; stroke-linecap:butt; stroke-linejoin:round; stroke-width:4; stroke-opacity:1; fill:none" points="
  1273.35,766.846 1483.71,1412.3 1485.03,1411.87 1486.36,1411.43 1487.68,1410.99 1489,1410.55 1490.33,1410.11 1491.65,1409.66 1492.97,1409.21 1494.28,1408.76 
  1495.6,1408.3 1496.92,1407.85 1498.23,1407.39 1499.55,1406.92 1500.86,1406.46 1502.18,1405.99 1503.49,1405.52 1504.8,1405.04 1506.11,1404.57 1507.42,1404.09 
  1508.73,1403.61 1510.03,1403.12 1511.34,1402.63 1512.65,1402.14 1513.95,1401.65 1515.25,1401.16 1516.55,1400.66 1517.86,1400.16 1519.16,1399.65 1520.45,1399.15 
  1521.75,1398.64 1523.05,1398.13 1524.35,1397.61 1525.64,1397.1 1526.93,1396.58 1528.23,1396.05 1529.52,1395.53 1530.81,1395 1532.1,1394.47 1533.39,1393.94 
  1534.67,1393.4 1535.96,1392.87 1537.24,1392.33 1538.53,1391.78 1539.81,1391.24 1541.09,1390.69 1542.37,1390.14 1543.65,1389.58 1544.93,1389.03 1546.21,1388.47 
  1547.48,1387.91 1273.35,766.846 
  "/>
<path clip-path="url(#clip462)" d="
M1273.35 766.846 L1547.48 1387.91 L1551.61 1386.07 L1555.73 1384.2 L1559.84 1382.3 L1563.93 1380.38 L1568.01 1378.43 L1572.08 1376.46 L1576.13 1374.46 L1580.17 1372.43 
  L1584.2 1370.37 L1588.21 1368.28 L1592.21 1366.17 L1596.19 1364.04 L1600.16 1361.87 L1604.12 1359.68 L1608.06 1357.47 L1611.98 1355.23 L1615.89 1352.96 L1619.79 1350.66 
  L1623.67 1348.34 L1627.54 1346 L1631.39 1343.63 L1635.22 1341.23 L1639.04 1338.81 L1642.84 1336.36 L1646.62 1333.88 L1650.39 1331.39 L1654.14 1328.86 L1657.88 1326.31 
  L1661.59 1323.74 L1665.29 1321.14 L1668.98 1318.52 L1672.64 1315.87 L1676.29 1313.2 L1679.92 1310.51 L1683.53 1307.79 L1687.12 1305.04 L1690.7 1302.27 L1694.26 1299.48 
  L1697.79 1296.67 L1701.31 1293.83 L1704.81 1290.97 L1708.29 1288.08 L1711.76 1285.17 L1715.2 1282.24 L1718.62 1279.29 L1722.02 1276.31 L1725.41 1273.31 L1728.77 1270.29 
  L1732.11 1267.25 L1273.35 766.846  Z
  " fill="#009af9" fill-rule="evenodd" fill-opacity="1"/>
<polyline clip-path="url(#clip462)" style="stroke:#000000; stroke-linecap:butt; stroke-linejoin:round; stroke-width:4; stroke-opacity:1; fill:none" points="
  1273.35,766.846 1547.48,1387.91 1551.61,1386.07 1555.73,1384.2 1559.84,1382.3 1563.93,1380.38 1568.01,1378.43 1572.08,1376.46 1576.13,1374.46 1580.17,1372.43 
  1584.2,1370.37 1588.21,1368.28 1592.21,1366.17 1596.19,1364.04 1600.16,1361.87 1604.12,1359.68 1608.06,1357.47 1611.98,1355.23 1615.89,1352.96 1619.79,1350.66 
  1623.67,1348.34 1627.54,1346 1631.39,1343.63 1635.22,1341.23 1639.04,1338.81 1642.84,1336.36 1646.62,1333.88 1650.39,1331.39 1654.14,1328.86 1657.88,1326.31 
  1661.59,1323.74 1665.29,1321.14 1668.98,1318.52 1672.64,1315.87 1676.29,1313.2 1679.92,1310.51 1683.53,1307.79 1687.12,1305.04 1690.7,1302.27 1694.26,1299.48 
  1697.79,1296.67 1701.31,1293.83 1704.81,1290.97 1708.29,1288.08 1711.76,1285.17 1715.2,1282.24 1718.62,1279.29 1722.02,1276.31 1725.41,1273.31 1728.77,1270.29 
  1732.11,1267.25 1273.35,766.846 
  "/>
<path clip-path="url(#clip462)" d="
M1273.35 766.846 L1732.11 1267.25 L1733.15 1266.3 L1734.18 1265.34 L1735.21 1264.39 L1736.24 1263.43 L1737.27 1262.47 L1738.29 1261.51 L1739.31 1260.55 L1740.33 1259.58 
  L1741.35 1258.61 L1742.37 1257.64 L1743.38 1256.67 L1744.4 1255.7 L1745.41 1254.72 L1746.42 1253.74 L1747.42 1252.76 L1748.43 1251.78 L1749.43 1250.8 L1750.43 1249.81 
  L1751.43 1248.82 L1752.43 1247.83 L1753.42 1246.84 L1754.41 1245.85 L1755.4 1244.85 L1756.39 1243.85 L1757.38 1242.85 L1758.36 1241.85 L1759.34 1240.84 L1760.32 1239.83 
  L1761.3 1238.83 L1762.28 1237.81 L1763.25 1236.8 L1764.22 1235.79 L1765.19 1234.77 L1766.16 1233.75 L1767.13 1232.73 L1768.09 1231.71 L1769.05 1230.68 L1770.01 1229.65 
  L1770.97 1228.63 L1771.92 1227.59 L1772.87 1226.56 L1773.82 1225.53 L1774.77 1224.49 L1775.72 1223.45 L1776.66 1222.41 L1777.6 1221.37 L1778.54 1220.32 L1779.48 1219.28 
  L1780.42 1218.23 L1273.35 766.846  Z
  " fill="#e26f46" fill-rule="evenodd" fill-opacity="1"/>
<polyline clip-path="url(#clip462)" style="stroke:#000000; stroke-linecap:butt; stroke-linejoin:round; stroke-width:4; stroke-opacity:1; fill:none" points="
  1273.35,766.846 1732.11,1267.25 1733.15,1266.3 1734.18,1265.34 1735.21,1264.39 1736.24,1263.43 1737.27,1262.47 1738.29,1261.51 1739.31,1260.55 1740.33,1259.58 
  1741.35,1258.61 1742.37,1257.64 1743.38,1256.67 1744.4,1255.7 1745.41,1254.72 1746.42,1253.74 1747.42,1252.76 1748.43,1251.78 1749.43,1250.8 1750.43,1249.81 
  1751.43,1248.82 1752.43,1247.83 1753.42,1246.84 1754.41,1245.85 1755.4,1244.85 1756.39,1243.85 1757.38,1242.85 1758.36,1241.85 1759.34,1240.84 1760.32,1239.83 
  1761.3,1238.83 1762.28,1237.81 1763.25,1236.8 1764.22,1235.79 1765.19,1234.77 1766.16,1233.75 1767.13,1232.73 1768.09,1231.71 1769.05,1230.68 1770.01,1229.65 
  1770.97,1228.63 1771.92,1227.59 1772.87,1226.56 1773.82,1225.53 1774.77,1224.49 1775.72,1223.45 1776.66,1222.41 1777.6,1221.37 1778.54,1220.32 1779.48,1219.28 
  1780.42,1218.23 1273.35,766.846 
  "/>
<path clip-path="url(#clip462)" d="
M1273.35 766.846 L1780.42 1218.23 L1783.6 1214.63 L1786.75 1211.01 L1789.88 1207.37 L1792.98 1203.71 L1796.05 1200.02 L1799.1 1196.32 L1802.13 1192.59 L1805.12 1188.84 
  L1808.09 1185.07 L1811.04 1181.28 L1813.95 1177.47 L1816.84 1173.64 L1819.71 1169.78 L1822.54 1165.91 L1825.35 1162.02 L1828.13 1158.1 L1830.88 1154.17 L1833.61 1150.22 
  L1836.3 1146.25 L1838.97 1142.26 L1841.61 1138.25 L1844.22 1134.22 L1846.81 1130.18 L1849.36 1126.12 L1851.89 1122.03 L1854.38 1117.93 L1856.85 1113.82 L1859.29 1109.68 
  L1861.7 1105.53 L1864.08 1101.36 L1866.43 1097.18 L1868.75 1092.98 L1871.04 1088.76 L1873.3 1084.53 L1875.53 1080.28 L1877.73 1076.01 L1879.9 1071.73 L1882.04 1067.43 
  L1884.15 1063.12 L1886.23 1058.8 L1888.28 1054.46 L1890.3 1050.1 L1892.29 1045.73 L1894.24 1041.35 L1896.17 1036.95 L1898.06 1032.54 L1899.93 1028.12 L1901.76 1023.68 
  L1903.56 1019.23 L1273.35 766.846  Z
  " fill="#3da44d" fill-rule="evenodd" fill-opacity="1"/>
<polyline clip-path="url(#clip462)" style="stroke:#000000; stroke-linecap:butt; stroke-linejoin:round; stroke-width:4; stroke-opacity:1; fill:none" points="
  1273.35,766.846 1780.42,1218.23 1783.6,1214.63 1786.75,1211.01 1789.88,1207.37 1792.98,1203.71 1796.05,1200.02 1799.1,1196.32 1802.13,1192.59 1805.12,1188.84 
  1808.09,1185.07 1811.04,1181.28 1813.95,1177.47 1816.84,1173.64 1819.71,1169.78 1822.54,1165.91 1825.35,1162.02 1828.13,1158.1 1830.88,1154.17 1833.61,1150.22 
  1836.3,1146.25 1838.97,1142.26 1841.61,1138.25 1844.22,1134.22 1846.81,1130.18 1849.36,1126.12 1851.89,1122.03 1854.38,1117.93 1856.85,1113.82 1859.29,1109.68 
  1861.7,1105.53 1864.08,1101.36 1866.43,1097.18 1868.75,1092.98 1871.04,1088.76 1873.3,1084.53 1875.53,1080.28 1877.73,1076.01 1879.9,1071.73 1882.04,1067.43 
  1884.15,1063.12 1886.23,1058.8 1888.28,1054.46 1890.3,1050.1 1892.29,1045.73 1894.24,1041.35 1896.17,1036.95 1898.06,1032.54 1899.93,1028.12 1901.76,1023.68 
  1903.56,1019.23 1273.35,766.846 
  "/>
<path clip-path="url(#clip462)" d="
M1273.35 766.846 L1903.56 1019.23 L1905.5 1014.33 L1907.41 1009.41 L1909.27 1004.47 L1911.1 999.518 L1912.89 994.553 L1914.64 989.575 L1916.35 984.583 L1918.03 979.577 
  L1919.66 974.559 L1921.26 969.529 L1922.81 964.486 L1924.33 959.431 L1925.81 954.365 L1927.24 949.287 L1928.64 944.198 L1930 939.099 L1931.32 933.989 L1932.6 928.869 
  L1933.84 923.739 L1935.04 918.6 L1936.2 913.451 L1937.32 908.294 L1938.4 903.128 L1939.44 897.954 L1940.44 892.772 L1941.39 887.582 L1942.31 882.385 L1943.19 877.181 
  L1944.03 871.971 L1944.83 866.754 L1945.58 861.531 L1946.3 856.302 L1946.97 851.068 L1947.61 845.829 L1948.2 840.585 L1948.75 835.336 L1949.27 830.084 L1949.74 824.828 
  L1950.17 819.568 L1950.56 814.305 L1950.91 809.039 L1951.21 803.77 L1951.48 798.499 L1951.7 793.227 L1951.89 787.953 L1952.03 782.677 L1952.14 777.401 L1952.2 772.123 
  L1952.22 766.846 L1273.35 766.846  Z
  " fill="#c271d2" fill-rule="evenodd" fill-opacity="1"/>
<polyline clip-path="url(#clip462)" style="stroke:#000000; stroke-linecap:butt; stroke-linejoin:round; stroke-width:4; stroke-opacity:1; fill:none" points="
  1273.35,766.846 1903.56,1019.23 1905.5,1014.33 1907.41,1009.41 1909.27,1004.47 1911.1,999.518 1912.89,994.553 1914.64,989.575 1916.35,984.583 1918.03,979.577 
  1919.66,974.559 1921.26,969.529 1922.81,964.486 1924.33,959.431 1925.81,954.365 1927.24,949.287 1928.64,944.198 1930,939.099 1931.32,933.989 1932.6,928.869 
  1933.84,923.739 1935.04,918.6 1936.2,913.451 1937.32,908.294 1938.4,903.128 1939.44,897.954 1940.44,892.772 1941.39,887.582 1942.31,882.385 1943.19,877.181 
  1944.03,871.971 1944.83,866.754 1945.58,861.531 1946.3,856.302 1946.97,851.068 1947.61,845.829 1948.2,840.585 1948.75,835.336 1949.27,830.084 1949.74,824.828 
  1950.17,819.568 1950.56,814.305 1950.91,809.039 1951.21,803.77 1951.48,798.499 1951.7,793.227 1951.89,787.953 1952.03,782.677 1952.14,777.401 1952.2,772.123 
  1952.22,766.846 1273.35,766.846 
  "/>
<path clip-path="url(#clip460)" d="
M1987.22 1183.86 L2280.8 1183.86 L2280.8 95.2176 L1987.22 95.2176  Z
  " fill="#ffffff" fill-rule="evenodd" fill-opacity="1"/>
<polyline clip-path="url(#clip460)" style="stroke:#000000; stroke-linecap:butt; stroke-linejoin:round; stroke-width:4; stroke-opacity:1; fill:none" points="
  1987.22,1183.86 2280.8,1183.86 2280.8,95.2176 1987.22,95.2176 1987.22,1183.86 
  "/>
<path clip-path="url(#clip460)" d="
M2011.21 167.794 L2155.13 167.794 L2155.13 126.322 L2011.21 126.322 L2011.21 167.794  Z
  " fill="#009af9" fill-rule="evenodd" fill-opacity="1"/>
<polyline clip-path="url(#clip460)" style="stroke:#000000; stroke-linecap:butt; stroke-linejoin:round; stroke-width:4; stroke-opacity:1; fill:none" points="
  2011.21,167.794 2155.13,167.794 2155.13,126.322 2011.21,126.322 2011.21,167.794 
  "/>
<path clip-path="url(#clip460)" d="M2179.79 160.402 L2187.43 160.402 L2187.43 134.037 L2179.12 135.703 L2179.12 131.444 L2187.38 129.778 L2192.06 129.778 L2192.06 160.402 L2199.7 160.402 L2199.7 164.338 L2179.79 164.338 L2179.79 160.402 Z" fill="#000000" fill-rule="evenodd" fill-opacity="1" /><path clip-path="url(#clip460)" d="
M2011.21 219.634 L2155.13 219.634 L2155.13 178.162 L2011.21 178.162 L2011.21 219.634  Z
  " fill="#e26f46" fill-rule="evenodd" fill-opacity="1"/>
<polyline clip-path="url(#clip460)" style="stroke:#000000; stroke-linecap:butt; stroke-linejoin:round; stroke-width:4; stroke-opacity:1; fill:none" points="
  2011.21,219.634 2155.13,219.634 2155.13,178.162 2011.21,178.162 2011.21,219.634 
  "/>
<path clip-path="url(#clip460)" d="M2184.74 212.242 L2201.06 212.242 L2201.06 216.178 L2179.12 216.178 L2179.12 212.242 Q2181.78 209.488 2186.36 204.858 Q2190.97 200.205 2192.15 198.863 Q2194.4 196.34 2195.28 194.604 Q2196.18 192.844 2196.18 191.155 Q2196.18 188.4 2194.23 186.664 Q2192.31 184.928 2189.21 184.928 Q2187.01 184.928 2184.56 185.692 Q2182.13 186.455 2179.35 188.006 L2179.35 183.284 Q2182.17 182.15 2184.63 181.571 Q2187.08 180.993 2189.12 180.993 Q2194.49 180.993 2197.68 183.678 Q2200.88 186.363 2200.88 190.854 Q2200.88 192.983 2200.07 194.905 Q2199.28 196.803 2197.17 199.395 Q2196.59 200.067 2193.49 203.284 Q2190.39 206.479 2184.74 212.242 Z" fill="#000000" fill-rule="evenodd" fill-opacity="1" /><path clip-path="url(#clip460)" d="
M2011.21 271.474 L2155.13 271.474 L2155.13 230.002 L2011.21 230.002 L2011.21 271.474  Z
  " fill="#3da44d" fill-rule="evenodd" fill-opacity="1"/>
<polyline clip-path="url(#clip460)" style="stroke:#000000; stroke-linecap:butt; stroke-linejoin:round; stroke-width:4; stroke-opacity:1; fill:none" points="
  2011.21,271.474 2155.13,271.474 2155.13,230.002 2011.21,230.002 2011.21,271.474 
  "/>
<path clip-path="url(#clip460)" d="M2194.74 249.383 Q2198.1 250.101 2199.97 252.369 Q2201.87 254.638 2201.87 257.971 Q2201.87 263.087 2198.35 265.888 Q2194.84 268.689 2188.35 268.689 Q2186.18 268.689 2183.86 268.249 Q2181.57 267.832 2179.12 266.976 L2179.12 262.462 Q2181.06 263.596 2183.38 264.175 Q2185.69 264.754 2188.22 264.754 Q2192.61 264.754 2194.91 263.018 Q2197.22 261.281 2197.22 257.971 Q2197.22 254.916 2195.07 253.203 Q2192.94 251.467 2189.12 251.467 L2185.09 251.467 L2185.09 247.624 L2189.3 247.624 Q2192.75 247.624 2194.58 246.258 Q2196.41 244.87 2196.41 242.277 Q2196.41 239.615 2194.51 238.203 Q2192.64 236.768 2189.12 236.768 Q2187.2 236.768 2185 237.184 Q2182.8 237.601 2180.16 238.481 L2180.16 234.314 Q2182.82 233.573 2185.14 233.203 Q2187.47 232.833 2189.53 232.833 Q2194.86 232.833 2197.96 235.263 Q2201.06 237.67 2201.06 241.791 Q2201.06 244.661 2199.42 246.652 Q2197.78 248.62 2194.74 249.383 Z" fill="#000000" fill-rule="evenodd" fill-opacity="1" /><path clip-path="url(#clip460)" d="
M2011.21 323.314 L2155.13 323.314 L2155.13 281.842 L2011.21 281.842 L2011.21 323.314  Z
  " fill="#c271d2" fill-rule="evenodd" fill-opacity="1"/>
<polyline clip-path="url(#clip460)" style="stroke:#000000; stroke-linecap:butt; stroke-linejoin:round; stroke-width:4; stroke-opacity:1; fill:none" points="
  2011.21,323.314 2155.13,323.314 2155.13,281.842 2011.21,281.842 2011.21,323.314 
  "/>
<path clip-path="url(#clip460)" d="M2194.72 289.372 L2182.91 307.821 L2194.72 307.821 L2194.72 289.372 M2193.49 285.298 L2199.37 285.298 L2199.37 307.821 L2204.3 307.821 L2204.3 311.709 L2199.37 311.709 L2199.37 319.858 L2194.72 319.858 L2194.72 311.709 L2179.12 311.709 L2179.12 307.196 L2193.49 285.298 Z" fill="#000000" fill-rule="evenodd" fill-opacity="1" /><path clip-path="url(#clip460)" d="
M2011.21 375.154 L2155.13 375.154 L2155.13 333.682 L2011.21 333.682 L2011.21 375.154  Z
  " fill="#ac8d18" fill-rule="evenodd" fill-opacity="1"/>
<polyline clip-path="url(#clip460)" style="stroke:#000000; stroke-linecap:butt; stroke-linejoin:round; stroke-width:4; stroke-opacity:1; fill:none" points="
  2011.21,375.154 2155.13,375.154 2155.13,333.682 2011.21,333.682 2011.21,375.154 
  "/>
<path clip-path="url(#clip460)" d="M2180.58 337.138 L2198.93 337.138 L2198.93 341.073 L2184.86 341.073 L2184.86 349.545 Q2185.88 349.198 2186.9 349.036 Q2187.91 348.85 2188.93 348.85 Q2194.72 348.85 2198.1 352.022 Q2201.48 355.193 2201.48 360.61 Q2201.48 366.188 2198.01 369.29 Q2194.53 372.369 2188.22 372.369 Q2186.04 372.369 2183.77 371.998 Q2181.53 371.628 2179.12 370.887 L2179.12 366.188 Q2181.2 367.323 2183.42 367.878 Q2185.65 368.434 2188.12 368.434 Q2192.13 368.434 2194.47 366.327 Q2196.8 364.221 2196.8 360.61 Q2196.8 356.999 2194.47 354.892 Q2192.13 352.786 2188.12 352.786 Q2186.25 352.786 2184.37 353.202 Q2182.52 353.619 2180.58 354.499 L2180.58 337.138 Z" fill="#000000" fill-rule="evenodd" fill-opacity="1" /><path clip-path="url(#clip460)" d="
M2011.21 426.994 L2155.13 426.994 L2155.13 385.522 L2011.21 385.522 L2011.21 426.994  Z
  " fill="#00a9ad" fill-rule="evenodd" fill-opacity="1"/>
<polyline clip-path="url(#clip460)" style="stroke:#000000; stroke-linecap:butt; stroke-linejoin:round; stroke-width:4; stroke-opacity:1; fill:none" points="
  2011.21,426.994 2155.13,426.994 2155.13,385.522 2011.21,385.522 2011.21,426.994 
  "/>
<path clip-path="url(#clip460)" d="M2191.46 404.394 Q2188.31 404.394 2186.46 406.547 Q2184.63 408.7 2184.63 412.45 Q2184.63 416.176 2186.46 418.352 Q2188.31 420.505 2191.46 420.505 Q2194.6 420.505 2196.43 418.352 Q2198.28 416.176 2198.28 412.45 Q2198.28 408.7 2196.43 406.547 Q2194.6 404.394 2191.46 404.394 M2200.74 389.741 L2200.74 394.001 Q2198.98 393.167 2197.17 392.728 Q2195.39 392.288 2193.63 392.288 Q2189 392.288 2186.55 395.413 Q2184.12 398.538 2183.77 404.857 Q2185.14 402.843 2187.2 401.778 Q2189.26 400.69 2191.73 400.69 Q2196.94 400.69 2199.95 403.862 Q2202.98 407.01 2202.98 412.45 Q2202.98 417.774 2199.84 420.991 Q2196.69 424.209 2191.46 424.209 Q2185.46 424.209 2182.29 419.626 Q2179.12 415.019 2179.12 406.292 Q2179.12 398.098 2183.01 393.237 Q2186.9 388.353 2193.45 388.353 Q2195.21 388.353 2196.99 388.7 Q2198.79 389.047 2200.74 389.741 Z" fill="#000000" fill-rule="evenodd" fill-opacity="1" /><path clip-path="url(#clip460)" d="
M2011.21 478.834 L2155.13 478.834 L2155.13 437.362 L2011.21 437.362 L2011.21 478.834  Z
  " fill="#ed5d92" fill-rule="evenodd" fill-opacity="1"/>
<polyline clip-path="url(#clip460)" style="stroke:#000000; stroke-linecap:butt; stroke-linejoin:round; stroke-width:4; stroke-opacity:1; fill:none" points="
  2011.21,478.834 2155.13,478.834 2155.13,437.362 2011.21,437.362 2011.21,478.834 
  "/>
<path clip-path="url(#clip460)" d="M2179.12 440.818 L2201.34 440.818 L2201.34 442.808 L2188.79 475.378 L2183.91 475.378 L2195.72 444.753 L2179.12 444.753 L2179.12 440.818 Z" fill="#000000" fill-rule="evenodd" fill-opacity="1" /><path clip-path="url(#clip460)" d="
M2011.21 530.674 L2155.13 530.674 L2155.13 489.202 L2011.21 489.202 L2011.21 530.674  Z
  " fill="#c68125" fill-rule="evenodd" fill-opacity="1"/>
<polyline clip-path="url(#clip460)" style="stroke:#000000; stroke-linecap:butt; stroke-linejoin:round; stroke-width:4; stroke-opacity:1; fill:none" points="
  2011.21,530.674 2155.13,530.674 2155.13,489.202 2011.21,489.202 2011.21,530.674 
  "/>
<path clip-path="url(#clip460)" d="M2190.97 510.806 Q2187.64 510.806 2185.72 512.588 Q2183.82 514.37 2183.82 517.495 Q2183.82 520.62 2185.72 522.403 Q2187.64 524.185 2190.97 524.185 Q2194.3 524.185 2196.22 522.403 Q2198.15 520.597 2198.15 517.495 Q2198.15 514.37 2196.22 512.588 Q2194.33 510.806 2190.97 510.806 M2186.29 508.815 Q2183.28 508.074 2181.59 506.014 Q2179.93 503.954 2179.93 500.991 Q2179.93 496.847 2182.87 494.44 Q2185.83 492.033 2190.97 492.033 Q2196.13 492.033 2199.07 494.44 Q2202.01 496.847 2202.01 500.991 Q2202.01 503.954 2200.32 506.014 Q2198.65 508.074 2195.67 508.815 Q2199.05 509.602 2200.92 511.894 Q2202.82 514.185 2202.82 517.495 Q2202.82 522.519 2199.74 525.204 Q2196.69 527.889 2190.97 527.889 Q2185.25 527.889 2182.17 525.204 Q2179.12 522.519 2179.12 517.495 Q2179.12 514.185 2181.02 511.894 Q2182.91 509.602 2186.29 508.815 M2184.58 501.431 Q2184.58 504.116 2186.25 505.62 Q2187.94 507.125 2190.97 507.125 Q2193.98 507.125 2195.67 505.62 Q2197.38 504.116 2197.38 501.431 Q2197.38 498.745 2195.67 497.241 Q2193.98 495.736 2190.97 495.736 Q2187.94 495.736 2186.25 497.241 Q2184.58 498.745 2184.58 501.431 Z" fill="#000000" fill-rule="evenodd" fill-opacity="1" /><path clip-path="url(#clip460)" d="
M2011.21 582.514 L2155.13 582.514 L2155.13 541.042 L2011.21 541.042 L2011.21 582.514  Z
  " fill="#00a98d" fill-rule="evenodd" fill-opacity="1"/>
<polyline clip-path="url(#clip460)" style="stroke:#000000; stroke-linecap:butt; stroke-linejoin:round; stroke-width:4; stroke-opacity:1; fill:none" points="
  2011.21,582.514 2155.13,582.514 2155.13,541.042 2011.21,541.042 2011.21,582.514 
  "/>
<path clip-path="url(#clip460)" d="M2181.34 578.34 L2181.34 574.081 Q2183.1 574.914 2184.91 575.354 Q2186.71 575.794 2188.45 575.794 Q2193.08 575.794 2195.51 572.692 Q2197.96 569.567 2198.31 563.224 Q2196.97 565.215 2194.91 566.28 Q2192.84 567.345 2190.34 567.345 Q2185.16 567.345 2182.13 564.22 Q2179.12 561.072 2179.12 555.632 Q2179.12 550.308 2182.27 547.09 Q2185.41 543.873 2190.65 543.873 Q2196.64 543.873 2199.79 548.479 Q2202.96 553.062 2202.96 561.812 Q2202.96 569.984 2199.07 574.868 Q2195.21 579.729 2188.66 579.729 Q2186.9 579.729 2185.09 579.382 Q2183.28 579.034 2181.34 578.34 M2190.65 563.687 Q2193.79 563.687 2195.62 561.534 Q2197.47 559.382 2197.47 555.632 Q2197.47 551.905 2195.62 549.752 Q2193.79 547.576 2190.65 547.576 Q2187.5 547.576 2185.65 549.752 Q2183.82 551.905 2183.82 555.632 Q2183.82 559.382 2185.65 561.534 Q2187.5 563.687 2190.65 563.687 Z" fill="#000000" fill-rule="evenodd" fill-opacity="1" /><path clip-path="url(#clip460)" d="
M2011.21 634.354 L2155.13 634.354 L2155.13 592.882 L2011.21 592.882 L2011.21 634.354  Z
  " fill="#8e971d" fill-rule="evenodd" fill-opacity="1"/>
<polyline clip-path="url(#clip460)" style="stroke:#000000; stroke-linecap:butt; stroke-linejoin:round; stroke-width:4; stroke-opacity:1; fill:none" points="
  2011.21,634.354 2155.13,634.354 2155.13,592.882 2011.21,592.882 2011.21,634.354 
  "/>
<path clip-path="url(#clip460)" d="M2179.79 626.962 L2187.43 626.962 L2187.43 600.597 L2179.12 602.263 L2179.12 598.004 L2187.38 596.338 L2192.06 596.338 L2192.06 626.962 L2199.7 626.962 L2199.7 630.898 L2179.79 630.898 L2179.79 626.962 Z" fill="#000000" fill-rule="evenodd" fill-opacity="1" /><path clip-path="url(#clip460)" d="M2219.14 599.416 Q2215.53 599.416 2213.7 602.981 Q2211.9 606.523 2211.9 613.652 Q2211.9 620.759 2213.7 624.324 Q2215.53 627.865 2219.14 627.865 Q2222.78 627.865 2224.58 624.324 Q2226.41 620.759 2226.41 613.652 Q2226.41 606.523 2224.58 602.981 Q2222.78 599.416 2219.14 599.416 M2219.14 595.713 Q2224.95 595.713 2228.01 600.319 Q2231.09 604.902 2231.09 613.652 Q2231.09 622.379 2228.01 626.986 Q2224.95 631.569 2219.14 631.569 Q2213.33 631.569 2210.25 626.986 Q2207.2 622.379 2207.2 613.652 Q2207.2 604.902 2210.25 600.319 Q2213.33 595.713 2219.14 595.713 Z" fill="#000000" fill-rule="evenodd" fill-opacity="1" /><path clip-path="url(#clip460)" d="
M2011.21 686.194 L2155.13 686.194 L2155.13 644.722 L2011.21 644.722 L2011.21 686.194  Z
  " fill="#00a8cb" fill-rule="evenodd" fill-opacity="1"/>
<polyline clip-path="url(#clip460)" style="stroke:#000000; stroke-linecap:butt; stroke-linejoin:round; stroke-width:4; stroke-opacity:1; fill:none" points="
  2011.21,686.194 2155.13,686.194 2155.13,644.722 2011.21,644.722 2011.21,686.194 
  "/>
<path clip-path="url(#clip460)" d="M2179.79 678.802 L2187.43 678.802 L2187.43 652.437 L2179.12 654.103 L2179.12 649.844 L2187.38 648.178 L2192.06 648.178 L2192.06 678.802 L2199.7 678.802 L2199.7 682.738 L2179.79 682.738 L2179.79 678.802 Z" fill="#000000" fill-rule="evenodd" fill-opacity="1" /><path clip-path="url(#clip460)" d="M2209.95 678.802 L2217.59 678.802 L2217.59 652.437 L2209.28 654.103 L2209.28 649.844 L2217.54 648.178 L2222.22 648.178 L2222.22 678.802 L2229.86 678.802 L2229.86 682.738 L2209.95 682.738 L2209.95 678.802 Z" fill="#000000" fill-rule="evenodd" fill-opacity="1" /><path clip-path="url(#clip460)" d="
M2011.21 738.034 L2155.13 738.034 L2155.13 696.562 L2011.21 696.562 L2011.21 738.034  Z
  " fill="#9b7fe8" fill-rule="evenodd" fill-opacity="1"/>
<polyline clip-path="url(#clip460)" style="stroke:#000000; stroke-linecap:butt; stroke-linejoin:round; stroke-width:4; stroke-opacity:1; fill:none" points="
  2011.21,738.034 2155.13,738.034 2155.13,696.562 2011.21,696.562 2011.21,738.034 
  "/>
<path clip-path="url(#clip460)" d="M2179.79 730.642 L2187.43 730.642 L2187.43 704.277 L2179.12 705.943 L2179.12 701.684 L2187.38 700.018 L2192.06 700.018 L2192.06 730.642 L2199.7 730.642 L2199.7 734.578 L2179.79 734.578 L2179.79 730.642 Z" fill="#000000" fill-rule="evenodd" fill-opacity="1" /><path clip-path="url(#clip460)" d="M2213.17 730.642 L2229.49 730.642 L2229.49 734.578 L2207.54 734.578 L2207.54 730.642 Q2210.21 727.888 2214.79 723.258 Q2219.4 718.605 2220.58 717.263 Q2222.82 714.74 2223.7 713.004 Q2224.6 711.244 2224.6 709.555 Q2224.6 706.8 2222.66 705.064 Q2220.74 703.328 2217.64 703.328 Q2215.44 703.328 2212.98 704.092 Q2210.55 704.855 2207.78 706.406 L2207.78 701.684 Q2210.6 700.55 2213.05 699.971 Q2215.51 699.393 2217.54 699.393 Q2222.91 699.393 2226.11 702.078 Q2229.3 704.763 2229.3 709.254 Q2229.3 711.383 2228.49 713.305 Q2227.71 715.203 2225.6 717.795 Q2225.02 718.467 2221.92 721.684 Q2218.82 724.879 2213.17 730.642 Z" fill="#000000" fill-rule="evenodd" fill-opacity="1" /><path clip-path="url(#clip460)" d="
M2011.21 789.874 L2155.13 789.874 L2155.13 748.402 L2011.21 748.402 L2011.21 789.874  Z
  " fill="#608cf6" fill-rule="evenodd" fill-opacity="1"/>
<polyline clip-path="url(#clip460)" style="stroke:#000000; stroke-linecap:butt; stroke-linejoin:round; stroke-width:4; stroke-opacity:1; fill:none" points="
  2011.21,789.874 2155.13,789.874 2155.13,748.402 2011.21,748.402 2011.21,789.874 
  "/>
<path clip-path="url(#clip460)" d="M2179.79 782.482 L2187.43 782.482 L2187.43 756.117 L2179.12 757.783 L2179.12 753.524 L2187.38 751.858 L2192.06 751.858 L2192.06 782.482 L2199.7 782.482 L2199.7 786.418 L2179.79 786.418 L2179.79 782.482 Z" fill="#000000" fill-rule="evenodd" fill-opacity="1" /><path clip-path="url(#clip460)" d="M2223.31 767.783 Q2226.66 768.501 2228.54 770.769 Q2230.44 773.038 2230.44 776.371 Q2230.44 781.487 2226.92 784.288 Q2223.4 787.089 2216.92 787.089 Q2214.74 787.089 2212.43 786.649 Q2210.14 786.232 2207.68 785.376 L2207.68 780.862 Q2209.63 781.996 2211.94 782.575 Q2214.26 783.154 2216.78 783.154 Q2221.18 783.154 2223.47 781.418 Q2225.78 779.681 2225.78 776.371 Q2225.78 773.316 2223.63 771.603 Q2221.5 769.867 2217.68 769.867 L2213.65 769.867 L2213.65 766.024 L2217.87 766.024 Q2221.32 766.024 2223.15 764.658 Q2224.97 763.27 2224.97 760.677 Q2224.97 758.015 2223.08 756.603 Q2221.2 755.168 2217.68 755.168 Q2215.76 755.168 2213.56 755.584 Q2211.36 756.001 2208.72 756.881 L2208.72 752.714 Q2211.39 751.973 2213.7 751.603 Q2216.04 751.233 2218.1 751.233 Q2223.42 751.233 2226.53 753.663 Q2229.63 756.07 2229.63 760.191 Q2229.63 763.061 2227.98 765.052 Q2226.34 767.02 2223.31 767.783 Z" fill="#000000" fill-rule="evenodd" fill-opacity="1" /><path clip-path="url(#clip460)" d="
M2011.21 841.714 L2155.13 841.714 L2155.13 800.242 L2011.21 800.242 L2011.21 841.714  Z
  " fill="#f05f73" fill-rule="evenodd" fill-opacity="1"/>
<polyline clip-path="url(#clip460)" style="stroke:#000000; stroke-linecap:butt; stroke-linejoin:round; stroke-width:4; stroke-opacity:1; fill:none" points="
  2011.21,841.714 2155.13,841.714 2155.13,800.242 2011.21,800.242 2011.21,841.714 
  "/>
<path clip-path="url(#clip460)" d="M2179.79 834.322 L2187.43 834.322 L2187.43 807.957 L2179.12 809.623 L2179.12 805.364 L2187.38 803.698 L2192.06 803.698 L2192.06 834.322 L2199.7 834.322 L2199.7 838.258 L2179.79 838.258 L2179.79 834.322 Z" fill="#000000" fill-rule="evenodd" fill-opacity="1" /><path clip-path="url(#clip460)" d="M2221.99 807.772 L2210.18 826.221 L2221.99 826.221 L2221.99 807.772 M2220.76 803.698 L2226.64 803.698 L2226.64 826.221 L2231.57 826.221 L2231.57 830.109 L2226.64 830.109 L2226.64 838.258 L2221.99 838.258 L2221.99 830.109 L2206.39 830.109 L2206.39 825.596 L2220.76 803.698 Z" fill="#000000" fill-rule="evenodd" fill-opacity="1" /><path clip-path="url(#clip460)" d="
M2011.21 893.554 L2155.13 893.554 L2155.13 852.082 L2011.21 852.082 L2011.21 893.554  Z
  " fill="#dd64b5" fill-rule="evenodd" fill-opacity="1"/>
<polyline clip-path="url(#clip460)" style="stroke:#000000; stroke-linecap:butt; stroke-linejoin:round; stroke-width:4; stroke-opacity:1; fill:none" points="
  2011.21,893.554 2155.13,893.554 2155.13,852.082 2011.21,852.082 2011.21,893.554 
  "/>
<path clip-path="url(#clip460)" d="M2179.79 886.162 L2187.43 886.162 L2187.43 859.797 L2179.12 861.463 L2179.12 857.204 L2187.38 855.538 L2192.06 855.538 L2192.06 886.162 L2199.7 886.162 L2199.7 890.098 L2179.79 890.098 L2179.79 886.162 Z" fill="#000000" fill-rule="evenodd" fill-opacity="1" /><path clip-path="url(#clip460)" d="M2209.19 855.538 L2227.54 855.538 L2227.54 859.473 L2213.47 859.473 L2213.47 867.945 Q2214.49 867.598 2215.51 867.436 Q2216.53 867.25 2217.54 867.25 Q2223.33 867.25 2226.71 870.422 Q2230.09 873.593 2230.09 879.01 Q2230.09 884.588 2226.62 887.69 Q2223.15 890.769 2216.83 890.769 Q2214.65 890.769 2212.38 890.398 Q2210.14 890.028 2207.73 889.287 L2207.73 884.588 Q2209.81 885.723 2212.03 886.278 Q2214.26 886.834 2216.73 886.834 Q2220.74 886.834 2223.08 884.727 Q2225.41 882.621 2225.41 879.01 Q2225.41 875.399 2223.08 873.292 Q2220.74 871.186 2216.73 871.186 Q2214.86 871.186 2212.98 871.602 Q2211.13 872.019 2209.19 872.899 L2209.19 855.538 Z" fill="#000000" fill-rule="evenodd" fill-opacity="1" /><path clip-path="url(#clip460)" d="
M2011.21 945.394 L2155.13 945.394 L2155.13 903.922 L2011.21 903.922 L2011.21 945.394  Z
  " fill="#6b9e32" fill-rule="evenodd" fill-opacity="1"/>
<polyline clip-path="url(#clip460)" style="stroke:#000000; stroke-linecap:butt; stroke-linejoin:round; stroke-width:4; stroke-opacity:1; fill:none" points="
  2011.21,945.394 2155.13,945.394 2155.13,903.922 2011.21,903.922 2011.21,945.394 
  "/>
<path clip-path="url(#clip460)" d="M2179.79 938.002 L2187.43 938.002 L2187.43 911.637 L2179.12 913.303 L2179.12 909.044 L2187.38 907.378 L2192.06 907.378 L2192.06 938.002 L2199.7 938.002 L2199.7 941.938 L2179.79 941.938 L2179.79 938.002 Z" fill="#000000" fill-rule="evenodd" fill-opacity="1" /><path clip-path="url(#clip460)" d="M2219.72 922.794 Q2216.57 922.794 2214.72 924.947 Q2212.89 927.1 2212.89 930.85 Q2212.89 934.576 2214.72 936.752 Q2216.57 938.905 2219.72 938.905 Q2222.87 938.905 2224.7 936.752 Q2226.55 934.576 2226.55 930.85 Q2226.55 927.1 2224.7 924.947 Q2222.87 922.794 2219.72 922.794 M2229 908.141 L2229 912.401 Q2227.24 911.567 2225.44 911.128 Q2223.65 910.688 2221.9 910.688 Q2217.27 910.688 2214.81 913.813 Q2212.38 916.938 2212.03 923.257 Q2213.4 921.243 2215.46 920.178 Q2217.52 919.09 2220 919.09 Q2225.21 919.09 2228.22 922.262 Q2231.25 925.41 2231.25 930.85 Q2231.25 936.174 2228.1 939.391 Q2224.95 942.609 2219.72 942.609 Q2213.72 942.609 2210.55 938.026 Q2207.38 933.419 2207.38 924.692 Q2207.38 916.498 2211.27 911.637 Q2215.16 906.753 2221.71 906.753 Q2223.47 906.753 2225.25 907.1 Q2227.06 907.447 2229 908.141 Z" fill="#000000" fill-rule="evenodd" fill-opacity="1" /><path clip-path="url(#clip460)" d="
M2011.21 997.234 L2155.13 997.234 L2155.13 955.762 L2011.21 955.762 L2011.21 997.234  Z
  " fill="#009af9" fill-rule="evenodd" fill-opacity="1"/>
<polyline clip-path="url(#clip460)" style="stroke:#000000; stroke-linecap:butt; stroke-linejoin:round; stroke-width:4; stroke-opacity:1; fill:none" points="
  2011.21,997.234 2155.13,997.234 2155.13,955.762 2011.21,955.762 2011.21,997.234 
  "/>
<path clip-path="url(#clip460)" d="M2179.79 989.842 L2187.43 989.842 L2187.43 963.477 L2179.12 965.143 L2179.12 960.884 L2187.38 959.218 L2192.06 959.218 L2192.06 989.842 L2199.7 989.842 L2199.7 993.778 L2179.79 993.778 L2179.79 989.842 Z" fill="#000000" fill-rule="evenodd" fill-opacity="1" /><path clip-path="url(#clip460)" d="M2207.96 959.218 L2230.18 959.218 L2230.18 961.208 L2217.64 993.778 L2212.75 993.778 L2224.56 963.153 L2207.96 963.153 L2207.96 959.218 Z" fill="#000000" fill-rule="evenodd" fill-opacity="1" /><path clip-path="url(#clip460)" d="
M2011.21 1049.07 L2155.13 1049.07 L2155.13 1007.6 L2011.21 1007.6 L2011.21 1049.07  Z
  " fill="#e26f46" fill-rule="evenodd" fill-opacity="1"/>
<polyline clip-path="url(#clip460)" style="stroke:#000000; stroke-linecap:butt; stroke-linejoin:round; stroke-width:4; stroke-opacity:1; fill:none" points="
  2011.21,1049.07 2155.13,1049.07 2155.13,1007.6 2011.21,1007.6 2011.21,1049.07 
  "/>
<path clip-path="url(#clip460)" d="M2179.79 1041.68 L2187.43 1041.68 L2187.43 1015.32 L2179.12 1016.98 L2179.12 1012.72 L2187.38 1011.06 L2192.06 1011.06 L2192.06 1041.68 L2199.7 1041.68 L2199.7 1045.62 L2179.79 1045.62 L2179.79 1041.68 Z" fill="#000000" fill-rule="evenodd" fill-opacity="1" /><path clip-path="url(#clip460)" d="M2219.14 1029.21 Q2215.81 1029.21 2213.89 1030.99 Q2211.99 1032.77 2211.99 1035.9 Q2211.99 1039.02 2213.89 1040.8 Q2215.81 1042.59 2219.14 1042.59 Q2222.47 1042.59 2224.4 1040.8 Q2226.32 1039 2226.32 1035.9 Q2226.32 1032.77 2224.4 1030.99 Q2222.5 1029.21 2219.14 1029.21 M2214.47 1027.21 Q2211.46 1026.47 2209.77 1024.41 Q2208.1 1022.35 2208.1 1019.39 Q2208.1 1015.25 2211.04 1012.84 Q2214 1010.43 2219.14 1010.43 Q2224.3 1010.43 2227.24 1012.84 Q2230.18 1015.25 2230.18 1019.39 Q2230.18 1022.35 2228.49 1024.41 Q2226.83 1026.47 2223.84 1027.21 Q2227.22 1028 2229.09 1030.29 Q2230.99 1032.59 2230.99 1035.9 Q2230.99 1040.92 2227.91 1043.6 Q2224.86 1046.29 2219.14 1046.29 Q2213.42 1046.29 2210.34 1043.6 Q2207.29 1040.92 2207.29 1035.9 Q2207.29 1032.59 2209.19 1030.29 Q2211.09 1028 2214.47 1027.21 M2212.75 1019.83 Q2212.75 1022.52 2214.42 1024.02 Q2216.11 1025.53 2219.14 1025.53 Q2222.15 1025.53 2223.84 1024.02 Q2225.55 1022.52 2225.55 1019.83 Q2225.55 1017.15 2223.84 1015.64 Q2222.15 1014.14 2219.14 1014.14 Q2216.11 1014.14 2214.42 1015.64 Q2212.75 1017.15 2212.75 1019.83 Z" fill="#000000" fill-rule="evenodd" fill-opacity="1" /><path clip-path="url(#clip460)" d="
M2011.21 1100.91 L2155.13 1100.91 L2155.13 1059.44 L2011.21 1059.44 L2011.21 1100.91  Z
  " fill="#3da44d" fill-rule="evenodd" fill-opacity="1"/>
<polyline clip-path="url(#clip460)" style="stroke:#000000; stroke-linecap:butt; stroke-linejoin:round; stroke-width:4; stroke-opacity:1; fill:none" points="
  2011.21,1100.91 2155.13,1100.91 2155.13,1059.44 2011.21,1059.44 2011.21,1100.91 
  "/>
<path clip-path="url(#clip460)" d="M2179.79 1093.52 L2187.43 1093.52 L2187.43 1067.16 L2179.12 1068.82 L2179.12 1064.56 L2187.38 1062.9 L2192.06 1062.9 L2192.06 1093.52 L2199.7 1093.52 L2199.7 1097.46 L2179.79 1097.46 L2179.79 1093.52 Z" fill="#000000" fill-rule="evenodd" fill-opacity="1" /><path clip-path="url(#clip460)" d="M2209.28 1096.74 L2209.28 1092.48 Q2211.04 1093.31 2212.84 1093.75 Q2214.65 1094.19 2216.39 1094.19 Q2221.02 1094.19 2223.45 1091.09 Q2225.9 1087.97 2226.25 1081.62 Q2224.9 1083.62 2222.84 1084.68 Q2220.78 1085.74 2218.28 1085.74 Q2213.1 1085.74 2210.07 1082.62 Q2207.06 1079.47 2207.06 1074.03 Q2207.06 1068.71 2210.21 1065.49 Q2213.35 1062.27 2218.59 1062.27 Q2224.58 1062.27 2227.73 1066.88 Q2230.9 1071.46 2230.9 1080.21 Q2230.9 1088.38 2227.01 1093.27 Q2223.15 1098.13 2216.59 1098.13 Q2214.84 1098.13 2213.03 1097.78 Q2211.22 1097.43 2209.28 1096.74 M2218.59 1082.09 Q2221.73 1082.09 2223.56 1079.93 Q2225.41 1077.78 2225.41 1074.03 Q2225.41 1070.3 2223.56 1068.15 Q2221.73 1065.98 2218.59 1065.98 Q2215.44 1065.98 2213.59 1068.15 Q2211.76 1070.3 2211.76 1074.03 Q2211.76 1077.78 2213.59 1079.93 Q2215.44 1082.09 2218.59 1082.09 Z" fill="#000000" fill-rule="evenodd" fill-opacity="1" /><path clip-path="url(#clip460)" d="
M2011.21 1152.75 L2155.13 1152.75 L2155.13 1111.28 L2011.21 1111.28 L2011.21 1152.75  Z
  " fill="#c271d2" fill-rule="evenodd" fill-opacity="1"/>
<polyline clip-path="url(#clip460)" style="stroke:#000000; stroke-linecap:butt; stroke-linejoin:round; stroke-width:4; stroke-opacity:1; fill:none" points="
  2011.21,1152.75 2155.13,1152.75 2155.13,1111.28 2011.21,1111.28 2011.21,1152.75 
  "/>
<path clip-path="url(#clip460)" d="M2184.74 1145.36 L2201.06 1145.36 L2201.06 1149.3 L2179.12 1149.3 L2179.12 1145.36 Q2181.78 1142.61 2186.36 1137.98 Q2190.97 1133.33 2192.15 1131.98 Q2194.4 1129.46 2195.28 1127.72 Q2196.18 1125.96 2196.18 1124.27 Q2196.18 1121.52 2194.23 1119.78 Q2192.31 1118.05 2189.21 1118.05 Q2187.01 1118.05 2184.56 1118.81 Q2182.13 1119.58 2179.35 1121.13 L2179.35 1116.4 Q2182.17 1115.27 2184.63 1114.69 Q2187.08 1114.11 2189.12 1114.11 Q2194.49 1114.11 2197.68 1116.8 Q2200.88 1119.48 2200.88 1123.97 Q2200.88 1126.1 2200.07 1128.02 Q2199.28 1129.92 2197.17 1132.52 Q2196.59 1133.19 2193.49 1136.4 Q2190.39 1139.6 2184.74 1145.36 Z" fill="#000000" fill-rule="evenodd" fill-opacity="1" /><path clip-path="url(#clip460)" d="M2220.88 1117.82 Q2217.27 1117.82 2215.44 1121.38 Q2213.63 1124.92 2213.63 1132.05 Q2213.63 1139.16 2215.44 1142.72 Q2217.27 1146.27 2220.88 1146.27 Q2224.51 1146.27 2226.32 1142.72 Q2228.15 1139.16 2228.15 1132.05 Q2228.15 1124.92 2226.32 1121.38 Q2224.51 1117.82 2220.88 1117.82 M2220.88 1114.11 Q2226.69 1114.11 2229.74 1118.72 Q2232.82 1123.3 2232.82 1132.05 Q2232.82 1140.78 2229.74 1145.39 Q2226.69 1149.97 2220.88 1149.97 Q2215.07 1149.97 2211.99 1145.39 Q2208.93 1140.78 2208.93 1132.05 Q2208.93 1123.3 2211.99 1118.72 Q2215.07 1114.11 2220.88 1114.11 Z" fill="#000000" fill-rule="evenodd" fill-opacity="1" /></svg>
