<?xml version="1.0" encoding="utf-8"?>
<svg xmlns="http://www.w3.org/2000/svg" xmlns:xlink="http://www.w3.org/1999/xlink" width="600" height="400" viewBox="0 0 2400 1600">
<defs>
  <clipPath id="clip790">
    <rect x="0" y="0" width="2400" height="1600"/>
  </clipPath>
</defs>
<path clip-path="url(#clip790)" d="
M0 1600 L2400 1600 L2400 0 L0 0  Z
  " fill="#ffffff" fill-rule="evenodd" fill-opacity="1"/>
<defs>
  <clipPath id="clip791">
    <rect x="480" y="0" width="1681" height="1600"/>
  </clipPath>
</defs>
<path clip-path="url(#clip790)" d="
M249.542 585.066 L2352.76 585.066 L2352.76 47.2441 L249.542 47.2441  Z
  " fill="#ffffff" fill-rule="evenodd" fill-opacity="1"/>
<defs>
  <clipPath id="clip792">
    <rect x="249" y="47" width="2104" height="539"/>
  </clipPath>
</defs>
<polyline clip-path="url(#clip792)" style="stroke:#000000; stroke-linecap:butt; stroke-linejoin:round; stroke-width:2; stroke-opacity:0.1; fill:none" points="
  309.067,585.066 309.067,47.2441 
  "/>
<polyline clip-path="url(#clip792)" style="stroke:#000000; stroke-linecap:butt; stroke-linejoin:round; stroke-width:2; stroke-opacity:0.1; fill:none" points="
  805.108,585.066 805.108,47.2441 
  "/>
<polyline clip-path="url(#clip792)" style="stroke:#000000; stroke-linecap:butt; stroke-linejoin:round; stroke-width:2; stroke-opacity:0.1; fill:none" points="
  1301.15,585.066 1301.15,47.2441 
  "/>
<polyline clip-path="url(#clip792)" style="stroke:#000000; stroke-linecap:butt; stroke-linejoin:round; stroke-width:2; stroke-opacity:0.1; fill:none" points="
  1797.19,585.066 1797.19,47.2441 
  "/>
<polyline clip-path="url(#clip792)" style="stroke:#000000; stroke-linecap:butt; stroke-linejoin:round; stroke-width:2; stroke-opacity:0.1; fill:none" points="
  2293.23,585.066 2293.23,47.2441 
  "/>
<polyline clip-path="url(#clip790)" style="stroke:#000000; stroke-linecap:butt; stroke-linejoin:round; stroke-width:4; stroke-opacity:1; fill:none" points="
  249.542,585.066 2352.76,585.066 
  "/>
<polyline clip-path="url(#clip790)" style="stroke:#000000; stroke-linecap:butt; stroke-linejoin:round; stroke-width:4; stroke-opacity:1; fill:none" points="
  309.067,585.066 309.067,566.168 
  "/>
<polyline clip-path="url(#clip790)" style="stroke:#000000; stroke-linecap:butt; stroke-linejoin:round; stroke-width:4; stroke-opacity:1; fill:none" points="
  805.108,585.066 805.108,566.168 
  "/>
<polyline clip-path="url(#clip790)" style="stroke:#000000; stroke-linecap:butt; stroke-linejoin:round; stroke-width:4; stroke-opacity:1; fill:none" points="
  1301.15,585.066 1301.15,566.168 
  "/>
<polyline clip-path="url(#clip790)" style="stroke:#000000; stroke-linecap:butt; stroke-linejoin:round; stroke-width:4; stroke-opacity:1; fill:none" points="
  1797.19,585.066 1797.19,566.168 
  "/>
<polyline clip-path="url(#clip790)" style="stroke:#000000; stroke-linecap:butt; stroke-linejoin:round; stroke-width:4; stroke-opacity:1; fill:none" points="
  2293.23,585.066 2293.23,566.168 
  "/>
<path clip-path="url(#clip790)" d="M271.37 615.985 Q267.759 615.985 265.931 619.549 Q264.125 623.091 264.125 630.221 Q264.125 637.327 265.931 640.892 Q267.759 644.433 271.37 644.433 Q275.005 644.433 276.81 640.892 Q278.639 637.327 278.639 630.221 Q278.639 623.091 276.81 619.549 Q275.005 615.985 271.37 615.985 M271.37 612.281 Q277.181 612.281 280.236 616.887 Q283.315 621.471 283.315 630.221 Q283.315 638.947 280.236 643.554 Q277.181 648.137 271.37 648.137 Q265.56 648.137 262.482 643.554 Q259.426 638.947 259.426 630.221 Q259.426 621.471 262.482 616.887 Q265.56 612.281 271.37 612.281 Z" fill="#000000" fill-rule="evenodd" fill-opacity="1" /><path clip-path="url(#clip790)" d="M291.532 641.586 L296.417 641.586 L296.417 647.466 L291.532 647.466 L291.532 641.586 Z" fill="#000000" fill-rule="evenodd" fill-opacity="1" /><path clip-path="url(#clip790)" d="M316.602 615.985 Q312.991 615.985 311.162 619.549 Q309.356 623.091 309.356 630.221 Q309.356 637.327 311.162 640.892 Q312.991 644.433 316.602 644.433 Q320.236 644.433 322.041 640.892 Q323.87 637.327 323.87 630.221 Q323.87 623.091 322.041 619.549 Q320.236 615.985 316.602 615.985 M316.602 612.281 Q322.412 612.281 325.467 616.887 Q328.546 621.471 328.546 630.221 Q328.546 638.947 325.467 643.554 Q322.412 648.137 316.602 648.137 Q310.791 648.137 307.713 643.554 Q304.657 638.947 304.657 630.221 Q304.657 621.471 307.713 616.887 Q310.791 612.281 316.602 612.281 Z" fill="#000000" fill-rule="evenodd" fill-opacity="1" /><path clip-path="url(#clip790)" d="M346.764 615.985 Q343.152 615.985 341.324 619.549 Q339.518 623.091 339.518 630.221 Q339.518 637.327 341.324 640.892 Q343.152 644.433 346.764 644.433 Q350.398 644.433 352.203 640.892 Q354.032 637.327 354.032 630.221 Q354.032 623.091 352.203 619.549 Q350.398 615.985 346.764 615.985 M346.764 612.281 Q352.574 612.281 355.629 616.887 Q358.708 621.471 358.708 630.221 Q358.708 638.947 355.629 643.554 Q352.574 648.137 346.764 648.137 Q340.953 648.137 337.875 643.554 Q334.819 638.947 334.819 630.221 Q334.819 621.471 337.875 616.887 Q340.953 612.281 346.764 612.281 Z" fill="#000000" fill-rule="evenodd" fill-opacity="1" /><path clip-path="url(#clip790)" d="M767.909 615.985 Q764.298 615.985 762.469 619.549 Q760.664 623.091 760.664 630.221 Q760.664 637.327 762.469 640.892 Q764.298 644.433 767.909 644.433 Q771.543 644.433 773.349 640.892 Q775.178 637.327 775.178 630.221 Q775.178 623.091 773.349 619.549 Q771.543 615.985 767.909 615.985 M767.909 612.281 Q773.719 612.281 776.775 616.887 Q779.853 621.471 779.853 630.221 Q779.853 638.947 776.775 643.554 Q773.719 648.137 767.909 648.137 Q762.099 648.137 759.02 643.554 Q755.965 638.947 755.965 630.221 Q755.965 621.471 759.02 616.887 Q762.099 612.281 767.909 612.281 Z" fill="#000000" fill-rule="evenodd" fill-opacity="1" /><path clip-path="url(#clip790)" d="M788.071 641.586 L792.955 641.586 L792.955 647.466 L788.071 647.466 L788.071 641.586 Z" fill="#000000" fill-rule="evenodd" fill-opacity="1" /><path clip-path="url(#clip790)" d="M807.168 643.531 L823.487 643.531 L823.487 647.466 L801.543 647.466 L801.543 643.531 Q804.205 640.776 808.788 636.146 Q813.395 631.494 814.576 630.151 Q816.821 627.628 817.7 625.892 Q818.603 624.133 818.603 622.443 Q818.603 619.688 816.659 617.952 Q814.738 616.216 811.636 616.216 Q809.437 616.216 806.983 616.98 Q804.552 617.744 801.775 619.295 L801.775 614.572 Q804.599 613.438 807.052 612.86 Q809.506 612.281 811.543 612.281 Q816.913 612.281 820.108 614.966 Q823.302 617.651 823.302 622.142 Q823.302 624.272 822.492 626.193 Q821.705 628.091 819.599 630.684 Q819.02 631.355 815.918 634.572 Q812.816 637.767 807.168 643.531 Z" fill="#000000" fill-rule="evenodd" fill-opacity="1" /><path clip-path="url(#clip790)" d="M833.349 612.906 L851.705 612.906 L851.705 616.841 L837.631 616.841 L837.631 625.313 Q838.649 624.966 839.668 624.804 Q840.686 624.619 841.705 624.619 Q847.492 624.619 850.872 627.79 Q854.251 630.961 854.251 636.378 Q854.251 641.957 850.779 645.058 Q847.307 648.137 840.987 648.137 Q838.811 648.137 836.543 647.767 Q834.298 647.396 831.89 646.656 L831.89 641.957 Q833.974 643.091 836.196 643.646 Q838.418 644.202 840.895 644.202 Q844.899 644.202 847.237 642.095 Q849.575 639.989 849.575 636.378 Q849.575 632.767 847.237 630.66 Q844.899 628.554 840.895 628.554 Q839.02 628.554 837.145 628.971 Q835.293 629.387 833.349 630.267 L833.349 612.906 Z" fill="#000000" fill-rule="evenodd" fill-opacity="1" /><path clip-path="url(#clip790)" d="M1263.45 615.985 Q1259.84 615.985 1258.01 619.549 Q1256.21 623.091 1256.21 630.221 Q1256.21 637.327 1258.01 640.892 Q1259.84 644.433 1263.45 644.433 Q1267.09 644.433 1268.89 640.892 Q1270.72 637.327 1270.72 630.221 Q1270.72 623.091 1268.89 619.549 Q1267.09 615.985 1263.45 615.985 M1263.45 612.281 Q1269.26 612.281 1272.32 616.887 Q1275.4 621.471 1275.4 630.221 Q1275.4 638.947 1272.32 643.554 Q1269.26 648.137 1263.45 648.137 Q1257.64 648.137 1254.56 643.554 Q1251.51 638.947 1251.51 630.221 Q1251.51 621.471 1254.56 616.887 Q1257.64 612.281 1263.45 612.281 Z" fill="#000000" fill-rule="evenodd" fill-opacity="1" /><path clip-path="url(#clip790)" d="M1283.61 641.586 L1288.5 641.586 L1288.5 647.466 L1283.61 647.466 L1283.61 641.586 Z" fill="#000000" fill-rule="evenodd" fill-opacity="1" /><path clip-path="url(#clip790)" d="M1298.73 612.906 L1317.09 612.906 L1317.09 616.841 L1303.01 616.841 L1303.01 625.313 Q1304.03 624.966 1305.05 624.804 Q1306.07 624.619 1307.09 624.619 Q1312.87 624.619 1316.25 627.79 Q1319.63 630.961 1319.63 636.378 Q1319.63 641.957 1316.16 645.058 Q1312.69 648.137 1306.37 648.137 Q1304.19 648.137 1301.92 647.767 Q1299.68 647.396 1297.27 646.656 L1297.27 641.957 Q1299.35 643.091 1301.58 643.646 Q1303.8 644.202 1306.28 644.202 Q1310.28 644.202 1312.62 642.095 Q1314.96 639.989 1314.96 636.378 Q1314.96 632.767 1312.62 630.66 Q1310.28 628.554 1306.28 628.554 Q1304.4 628.554 1302.53 628.971 Q1300.67 629.387 1298.73 630.267 L1298.73 612.906 Z" fill="#000000" fill-rule="evenodd" fill-opacity="1" /><path clip-path="url(#clip790)" d="M1338.85 615.985 Q1335.23 615.985 1333.41 619.549 Q1331.6 623.091 1331.6 630.221 Q1331.6 637.327 1333.41 640.892 Q1335.23 644.433 1338.85 644.433 Q1342.48 644.433 1344.29 640.892 Q1346.11 637.327 1346.11 630.221 Q1346.11 623.091 1344.29 619.549 Q1342.48 615.985 1338.85 615.985 M1338.85 612.281 Q1344.66 612.281 1347.71 616.887 Q1350.79 621.471 1350.79 630.221 Q1350.79 638.947 1347.71 643.554 Q1344.66 648.137 1338.85 648.137 Q1333.04 648.137 1329.96 643.554 Q1326.9 638.947 1326.9 630.221 Q1326.9 621.471 1329.96 616.887 Q1333.04 612.281 1338.85 612.281 Z" fill="#000000" fill-rule="evenodd" fill-opacity="1" /><path clip-path="url(#clip790)" d="M1759.99 615.985 Q1756.38 615.985 1754.55 619.549 Q1752.75 623.091 1752.75 630.221 Q1752.75 637.327 1754.55 640.892 Q1756.38 644.433 1759.99 644.433 Q1763.63 644.433 1765.43 640.892 Q1767.26 637.327 1767.26 630.221 Q1767.26 623.091 1765.43 619.549 Q1763.63 615.985 1759.99 615.985 M1759.99 612.281 Q1765.8 612.281 1768.86 616.887 Q1771.94 621.471 1771.94 630.221 Q1771.94 638.947 1768.86 643.554 Q1765.8 648.137 1759.99 648.137 Q1754.18 648.137 1751.1 643.554 Q1748.05 638.947 1748.05 630.221 Q1748.05 621.471 1751.1 616.887 Q1754.18 612.281 1759.99 612.281 Z" fill="#000000" fill-rule="evenodd" fill-opacity="1" /><path clip-path="url(#clip790)" d="M1780.15 641.586 L1785.04 641.586 L1785.04 647.466 L1780.15 647.466 L1780.15 641.586 Z" fill="#000000" fill-rule="evenodd" fill-opacity="1" /><path clip-path="url(#clip790)" d="M1794.04 612.906 L1816.26 612.906 L1816.26 614.897 L1803.72 647.466 L1798.83 647.466 L1810.64 616.841 L1794.04 616.841 L1794.04 612.906 Z" fill="#000000" fill-rule="evenodd" fill-opacity="1" /><path clip-path="url(#clip790)" d="M1825.43 612.906 L1843.79 612.906 L1843.79 616.841 L1829.71 616.841 L1829.71 625.313 Q1830.73 624.966 1831.75 624.804 Q1832.77 624.619 1833.79 624.619 Q1839.57 624.619 1842.95 627.79 Q1846.33 630.961 1846.33 636.378 Q1846.33 641.957 1842.86 645.058 Q1839.39 648.137 1833.07 648.137 Q1830.89 648.137 1828.62 647.767 Q1826.38 647.396 1823.97 646.656 L1823.97 641.957 Q1826.06 643.091 1828.28 643.646 Q1830.5 644.202 1832.98 644.202 Q1836.98 644.202 1839.32 642.095 Q1841.66 639.989 1841.66 636.378 Q1841.66 632.767 1839.32 630.66 Q1836.98 628.554 1832.98 628.554 Q1831.1 628.554 1829.23 628.971 Q1827.38 629.387 1825.43 630.267 L1825.43 612.906 Z" fill="#000000" fill-rule="evenodd" fill-opacity="1" /><path clip-path="url(#clip790)" d="M2245.3 643.531 L2252.94 643.531 L2252.94 617.165 L2244.63 618.832 L2244.63 614.572 L2252.9 612.906 L2257.57 612.906 L2257.57 643.531 L2265.21 643.531 L2265.21 647.466 L2245.3 647.466 L2245.3 643.531 Z" fill="#000000" fill-rule="evenodd" fill-opacity="1" /><path clip-path="url(#clip790)" d="M2274.65 641.586 L2279.54 641.586 L2279.54 647.466 L2274.65 647.466 L2274.65 641.586 Z" fill="#000000" fill-rule="evenodd" fill-opacity="1" /><path clip-path="url(#clip790)" d="M2299.72 615.985 Q2296.11 615.985 2294.28 619.549 Q2292.48 623.091 2292.48 630.221 Q2292.48 637.327 2294.28 640.892 Q2296.11 644.433 2299.72 644.433 Q2303.36 644.433 2305.16 640.892 Q2306.99 637.327 2306.99 630.221 Q2306.99 623.091 2305.16 619.549 Q2303.36 615.985 2299.72 615.985 M2299.72 612.281 Q2305.53 612.281 2308.59 616.887 Q2311.67 621.471 2311.67 630.221 Q2311.67 638.947 2308.59 643.554 Q2305.53 648.137 2299.72 648.137 Q2293.91 648.137 2290.84 643.554 Q2287.78 638.947 2287.78 630.221 Q2287.78 621.471 2290.84 616.887 Q2293.91 612.281 2299.72 612.281 Z" fill="#000000" fill-rule="evenodd" fill-opacity="1" /><path clip-path="url(#clip790)" d="M2329.89 615.985 Q2326.27 615.985 2324.45 619.549 Q2322.64 623.091 2322.64 630.221 Q2322.64 637.327 2324.45 640.892 Q2326.27 644.433 2329.89 644.433 Q2333.52 644.433 2335.33 640.892 Q2337.15 637.327 2337.15 630.221 Q2337.15 623.091 2335.33 619.549 Q2333.52 615.985 2329.89 615.985 M2329.89 612.281 Q2335.7 612.281 2338.75 616.887 Q2341.83 621.471 2341.83 630.221 Q2341.83 638.947 2338.75 643.554 Q2335.7 648.137 2329.89 648.137 Q2324.08 648.137 2321 643.554 Q2317.94 638.947 2317.94 630.221 Q2317.94 621.471 2321 616.887 Q2324.08 612.281 2329.89 612.281 Z" fill="#000000" fill-rule="evenodd" fill-opacity="1" /><path clip-path="url(#clip790)" d="M1317.76 694.282 L1304.87 711.628 L1318.43 729.93 L1311.53 729.93 L1301.15 715.925 L1290.77 729.93 L1283.87 729.93 L1297.71 711.278 L1285.04 694.282 L1291.95 694.282 L1301.4 706.981 L1310.86 694.282 L1317.76 694.282 Z" fill="#000000" fill-rule="evenodd" fill-opacity="1" /><polyline clip-path="url(#clip792)" style="stroke:#000000; stroke-linecap:butt; stroke-linejoin:round; stroke-width:2; stroke-opacity:0.1; fill:none" points="
  249.542,569.844 2352.76,569.844 
  "/>
<polyline clip-path="url(#clip792)" style="stroke:#000000; stroke-linecap:butt; stroke-linejoin:round; stroke-width:2; stroke-opacity:0.1; fill:none" points="
  249.542,449.251 2352.76,449.251 
  "/>
<polyline clip-path="url(#clip792)" style="stroke:#000000; stroke-linecap:butt; stroke-linejoin:round; stroke-width:2; stroke-opacity:0.1; fill:none" points="
  249.542,328.658 2352.76,328.658 
  "/>
<polyline clip-path="url(#clip792)" style="stroke:#000000; stroke-linecap:butt; stroke-linejoin:round; stroke-width:2; stroke-opacity:0.1; fill:none" points="
  249.542,208.064 2352.76,208.064 
  "/>
<polyline clip-path="url(#clip792)" style="stroke:#000000; stroke-linecap:butt; stroke-linejoin:round; stroke-width:2; stroke-opacity:0.1; fill:none" points="
  249.542,87.4711 2352.76,87.4711 
  "/>
<polyline clip-path="url(#clip790)" style="stroke:#000000; stroke-linecap:butt; stroke-linejoin:round; stroke-width:4; stroke-opacity:1; fill:none" points="
  249.542,585.066 249.542,47.2441 
  "/>
<polyline clip-path="url(#clip790)" style="stroke:#000000; stroke-linecap:butt; stroke-linejoin:round; stroke-width:4; stroke-opacity:1; fill:none" points="
  249.542,569.844 268.44,569.844 
  "/>
<polyline clip-path="url(#clip790)" style="stroke:#000000; stroke-linecap:butt; stroke-linejoin:round; stroke-width:4; stroke-opacity:1; fill:none" points="
  249.542,449.251 268.44,449.251 
  "/>
<polyline clip-path="url(#clip790)" style="stroke:#000000; stroke-linecap:butt; stroke-linejoin:round; stroke-width:4; stroke-opacity:1; fill:none" points="
  249.542,328.658 268.44,328.658 
  "/>
<polyline clip-path="url(#clip790)" style="stroke:#000000; stroke-linecap:butt; stroke-linejoin:round; stroke-width:4; stroke-opacity:1; fill:none" points="
  249.542,208.064 268.44,208.064 
  "/>
<polyline clip-path="url(#clip790)" style="stroke:#000000; stroke-linecap:butt; stroke-linejoin:round; stroke-width:4; stroke-opacity:1; fill:none" points="
  249.542,87.4711 268.44,87.4711 
  "/>
<path clip-path="url(#clip790)" d="M156.366 555.643 Q152.755 555.643 150.927 559.208 Q149.121 562.75 149.121 569.879 Q149.121 576.986 150.927 580.55 Q152.755 584.092 156.366 584.092 Q160.001 584.092 161.806 580.55 Q163.635 576.986 163.635 569.879 Q163.635 562.75 161.806 559.208 Q160.001 555.643 156.366 555.643 M156.366 551.939 Q162.177 551.939 165.232 556.546 Q168.311 561.129 168.311 569.879 Q168.311 578.606 165.232 583.212 Q162.177 587.796 156.366 587.796 Q150.556 587.796 147.478 583.212 Q144.422 578.606 144.422 569.879 Q144.422 561.129 147.478 556.546 Q150.556 551.939 156.366 551.939 Z" fill="#000000" fill-rule="evenodd" fill-opacity="1" /><path clip-path="url(#clip790)" d="M176.528 581.245 L181.413 581.245 L181.413 587.124 L176.528 587.124 L176.528 581.245 Z" fill="#000000" fill-rule="evenodd" fill-opacity="1" /><path clip-path="url(#clip790)" d="M201.598 555.643 Q197.987 555.643 196.158 559.208 Q194.352 562.75 194.352 569.879 Q194.352 576.986 196.158 580.55 Q197.987 584.092 201.598 584.092 Q205.232 584.092 207.037 580.55 Q208.866 576.986 208.866 569.879 Q208.866 562.75 207.037 559.208 Q205.232 555.643 201.598 555.643 M201.598 551.939 Q207.408 551.939 210.463 556.546 Q213.542 561.129 213.542 569.879 Q213.542 578.606 210.463 583.212 Q207.408 587.796 201.598 587.796 Q195.787 587.796 192.709 583.212 Q189.653 578.606 189.653 569.879 Q189.653 561.129 192.709 556.546 Q195.787 551.939 201.598 551.939 Z" fill="#000000" fill-rule="evenodd" fill-opacity="1" /><path clip-path="url(#clip790)" d="M157.964 435.05 Q154.353 435.05 152.524 438.615 Q150.718 442.156 150.718 449.286 Q150.718 456.392 152.524 459.957 Q154.353 463.499 157.964 463.499 Q161.598 463.499 163.403 459.957 Q165.232 456.392 165.232 449.286 Q165.232 442.156 163.403 438.615 Q161.598 435.05 157.964 435.05 M157.964 431.346 Q163.774 431.346 166.829 435.953 Q169.908 440.536 169.908 449.286 Q169.908 458.013 166.829 462.619 Q163.774 467.202 157.964 467.202 Q152.153 467.202 149.075 462.619 Q146.019 458.013 146.019 449.286 Q146.019 440.536 149.075 435.953 Q152.153 431.346 157.964 431.346 Z" fill="#000000" fill-rule="evenodd" fill-opacity="1" /><path clip-path="url(#clip790)" d="M178.126 460.652 L183.01 460.652 L183.01 466.531 L178.126 466.531 L178.126 460.652 Z" fill="#000000" fill-rule="evenodd" fill-opacity="1" /><path clip-path="url(#clip790)" d="M197.223 462.596 L213.542 462.596 L213.542 466.531 L191.598 466.531 L191.598 462.596 Q194.26 459.841 198.843 455.212 Q203.449 450.559 204.63 449.216 Q206.875 446.693 207.755 444.957 Q208.658 443.198 208.658 441.508 Q208.658 438.753 206.713 437.017 Q204.792 435.281 201.69 435.281 Q199.491 435.281 197.037 436.045 Q194.607 436.809 191.829 438.36 L191.829 433.638 Q194.653 432.504 197.107 431.925 Q199.561 431.346 201.598 431.346 Q206.968 431.346 210.162 434.031 Q213.357 436.716 213.357 441.207 Q213.357 443.337 212.547 445.258 Q211.76 447.156 209.653 449.749 Q209.074 450.42 205.973 453.638 Q202.871 456.832 197.223 462.596 Z" fill="#000000" fill-rule="evenodd" fill-opacity="1" /><path clip-path="url(#clip790)" d="M155.88 314.456 Q152.269 314.456 150.441 318.021 Q148.635 321.563 148.635 328.692 Q148.635 335.799 150.441 339.364 Q152.269 342.905 155.88 342.905 Q159.515 342.905 161.32 339.364 Q163.149 335.799 163.149 328.692 Q163.149 321.563 161.32 318.021 Q159.515 314.456 155.88 314.456 M155.88 310.753 Q161.69 310.753 164.746 315.359 Q167.825 319.943 167.825 328.692 Q167.825 337.419 164.746 342.026 Q161.69 346.609 155.88 346.609 Q150.07 346.609 146.991 342.026 Q143.936 337.419 143.936 328.692 Q143.936 319.943 146.991 315.359 Q150.07 310.753 155.88 310.753 Z" fill="#000000" fill-rule="evenodd" fill-opacity="1" /><path clip-path="url(#clip790)" d="M176.042 340.058 L180.926 340.058 L180.926 345.938 L176.042 345.938 L176.042 340.058 Z" fill="#000000" fill-rule="evenodd" fill-opacity="1" /><path clip-path="url(#clip790)" d="M203.959 315.452 L192.153 333.901 L203.959 333.901 L203.959 315.452 M202.732 311.378 L208.612 311.378 L208.612 333.901 L213.542 333.901 L213.542 337.79 L208.612 337.79 L208.612 345.938 L203.959 345.938 L203.959 337.79 L188.357 337.79 L188.357 333.276 L202.732 311.378 Z" fill="#000000" fill-rule="evenodd" fill-opacity="1" /><path clip-path="url(#clip790)" d="M156.204 193.863 Q152.593 193.863 150.765 197.428 Q148.959 200.97 148.959 208.099 Q148.959 215.206 150.765 218.77 Q152.593 222.312 156.204 222.312 Q159.839 222.312 161.644 218.77 Q163.473 215.206 163.473 208.099 Q163.473 200.97 161.644 197.428 Q159.839 193.863 156.204 193.863 M156.204 190.159 Q162.015 190.159 165.07 194.766 Q168.149 199.349 168.149 208.099 Q168.149 216.826 165.07 221.432 Q162.015 226.016 156.204 226.016 Q150.394 226.016 147.316 221.432 Q144.26 216.826 144.26 208.099 Q144.26 199.349 147.316 194.766 Q150.394 190.159 156.204 190.159 Z" fill="#000000" fill-rule="evenodd" fill-opacity="1" /><path clip-path="url(#clip790)" d="M176.366 219.465 L181.251 219.465 L181.251 225.344 L176.366 225.344 L176.366 219.465 Z" fill="#000000" fill-rule="evenodd" fill-opacity="1" /><path clip-path="url(#clip790)" d="M202.014 206.201 Q198.866 206.201 197.014 208.354 Q195.186 210.507 195.186 214.257 Q195.186 217.983 197.014 220.159 Q198.866 222.312 202.014 222.312 Q205.162 222.312 206.991 220.159 Q208.843 217.983 208.843 214.257 Q208.843 210.507 206.991 208.354 Q205.162 206.201 202.014 206.201 M211.297 191.548 L211.297 195.808 Q209.537 194.974 207.732 194.534 Q205.949 194.095 204.19 194.095 Q199.561 194.095 197.107 197.22 Q194.676 200.345 194.329 206.664 Q195.695 204.65 197.755 203.585 Q199.815 202.497 202.292 202.497 Q207.5 202.497 210.51 205.669 Q213.542 208.817 213.542 214.257 Q213.542 219.581 210.394 222.798 Q207.246 226.016 202.014 226.016 Q196.019 226.016 192.848 221.432 Q189.676 216.826 189.676 208.099 Q189.676 199.905 193.565 195.044 Q197.454 190.159 204.005 190.159 Q205.764 190.159 207.547 190.507 Q209.352 190.854 211.297 191.548 Z" fill="#000000" fill-rule="evenodd" fill-opacity="1" /><path clip-path="url(#clip790)" d="M156.459 73.2698 Q152.848 73.2698 151.019 76.8346 Q149.214 80.3762 149.214 87.5058 Q149.214 94.6123 151.019 98.177 Q152.848 101.719 156.459 101.719 Q160.093 101.719 161.899 98.177 Q163.727 94.6123 163.727 87.5058 Q163.727 80.3762 161.899 76.8346 Q160.093 73.2698 156.459 73.2698 M156.459 69.5661 Q162.269 69.5661 165.325 74.1725 Q168.403 78.7559 168.403 87.5058 Q168.403 96.2326 165.325 100.839 Q162.269 105.422 156.459 105.422 Q150.649 105.422 147.57 100.839 Q144.515 96.2326 144.515 87.5058 Q144.515 78.7559 147.57 74.1725 Q150.649 69.5661 156.459 69.5661 Z" fill="#000000" fill-rule="evenodd" fill-opacity="1" /><path clip-path="url(#clip790)" d="M176.621 98.8715 L181.505 98.8715 L181.505 104.751 L176.621 104.751 L176.621 98.8715 Z" fill="#000000" fill-rule="evenodd" fill-opacity="1" /><path clip-path="url(#clip790)" d="M201.69 88.3391 Q198.357 88.3391 196.436 90.1215 Q194.538 91.9039 194.538 95.0289 Q194.538 98.1539 196.436 99.9363 Q198.357 101.719 201.69 101.719 Q205.024 101.719 206.945 99.9363 Q208.866 98.1308 208.866 95.0289 Q208.866 91.9039 206.945 90.1215 Q205.047 88.3391 201.69 88.3391 M197.014 86.3484 Q194.005 85.6077 192.315 83.5475 Q190.649 81.4873 190.649 78.5244 Q190.649 74.3809 193.588 71.9735 Q196.551 69.5661 201.69 69.5661 Q206.852 69.5661 209.792 71.9735 Q212.732 74.3809 212.732 78.5244 Q212.732 81.4873 211.042 83.5475 Q209.375 85.6077 206.389 86.3484 Q209.769 87.1354 211.644 89.4271 Q213.542 91.7188 213.542 95.0289 Q213.542 100.052 210.463 102.737 Q207.408 105.422 201.69 105.422 Q195.973 105.422 192.894 102.737 Q189.838 100.052 189.838 95.0289 Q189.838 91.7188 191.737 89.4271 Q193.635 87.1354 197.014 86.3484 M195.301 78.9642 Q195.301 81.6494 196.968 83.154 Q198.658 84.6586 201.69 84.6586 Q204.699 84.6586 206.389 83.154 Q208.102 81.6494 208.102 78.9642 Q208.102 76.279 206.389 74.7744 Q204.699 73.2698 201.69 73.2698 Q198.658 73.2698 196.968 74.7744 Q195.301 76.279 195.301 78.9642 Z" fill="#000000" fill-rule="evenodd" fill-opacity="1" /><path clip-path="url(#clip790)" d="M96.9901 314.468 Q103.356 316.951 105.297 319.306 Q107.239 321.661 107.239 325.608 L107.239 330.287 L102.337 330.287 L102.337 326.849 Q102.337 324.43 101.191 323.094 Q100.046 321.757 95.7806 320.134 L93.107 319.083 L58.032 333.502 L58.032 327.295 L85.9138 316.155 L58.032 305.015 L58.032 298.808 L96.9901 314.468 Z" fill="#000000" fill-rule="evenodd" fill-opacity="1" /><polyline clip-path="url(#clip792)" style="stroke:#008000; stroke-linecap:butt; stroke-linejoin:round; stroke-width:8; stroke-opacity:1; fill:none" points="
  309.067,569.844 329.109,563.754 349.151,557.664 369.193,551.576 389.235,545.489 409.277,539.405 429.319,533.323 449.361,527.246 469.403,521.173 489.446,515.105 
  509.488,509.042 529.53,502.986 549.572,496.936 569.614,490.894 589.656,484.86 609.698,478.835 629.74,472.819 649.782,466.813 669.824,460.817 689.866,454.833 
  709.908,448.86 729.95,442.899 749.992,436.952 770.034,431.018 790.076,425.098 810.118,419.193 830.161,413.304 850.203,407.43 870.245,401.573 890.287,395.733 
  910.329,389.911 930.371,384.107 950.413,378.322 970.455,372.557 990.497,366.812 1010.54,361.087 1030.58,355.384 1050.62,349.703 1070.67,344.044 1090.71,338.408 
  1110.75,332.796 1130.79,327.208 1150.83,321.645 1170.88,316.107 1190.92,310.595 1210.96,305.11 1231,299.651 1251.04,294.22 1271.09,288.817 1291.13,283.443 
  1311.17,278.098 1331.21,272.783 1351.25,267.498 1371.3,262.244 1391.34,257.021 1411.38,251.831 1431.42,246.672 1451.46,241.547 1471.51,236.455 1491.55,231.397 
  1511.59,226.374 1531.63,221.386 1551.67,216.433 1571.72,211.517 1591.76,206.636 1611.8,201.793 1631.84,196.988 1651.89,192.221 1671.93,187.492 1691.97,182.802 
  1712.01,178.152 1732.05,173.541 1752.1,168.971 1772.14,164.442 1792.18,159.954 1812.22,155.508 1832.26,151.105 1852.31,146.744 1872.35,142.426 1892.39,138.152 
  1912.43,133.922 1932.47,129.737 1952.52,125.596 1972.56,121.5 1992.6,117.451 2012.64,113.447 2032.68,109.491 2052.73,105.581 2072.77,101.718 2092.81,97.9032 
  2112.85,94.1366 2132.89,90.4185 2152.94,86.7493 2172.98,83.1294 2193.02,79.5592 2213.06,76.039 2233.1,72.5691 2253.15,69.1501 2273.19,65.782 2293.23,62.4655 
  
  "/>
<path clip-path="url(#clip790)" d="
M1996.53 168.851 L2282.65 168.851 L2282.65 65.1715 L1996.53 65.1715  Z
  " fill="#ffffff" fill-rule="evenodd" fill-opacity="1"/>
<polyline clip-path="url(#clip790)" style="stroke:#000000; stroke-linecap:butt; stroke-linejoin:round; stroke-width:4; stroke-opacity:1; fill:none" points="
  1996.53,168.851 2282.65,168.851 2282.65,65.1715 1996.53,65.1715 1996.53,168.851 
  "/>
<polyline clip-path="url(#clip790)" style="stroke:#008000; stroke-linecap:butt; stroke-linejoin:round; stroke-width:4; stroke-opacity:1; fill:none" points="
  2019.9,117.011 2160.11,117.011 
  "/>
<path clip-path="url(#clip790)" d="M2197.32 136.699 Q2195.52 141.328 2193.8 142.741 Q2192.09 144.153 2189.22 144.153 L2185.82 144.153 L2185.82 140.588 L2188.32 140.588 Q2190.08 140.588 2191.05 139.754 Q2192.02 138.921 2193.2 135.819 L2193.97 133.875 L2183.48 108.366 L2187.99 108.366 L2196.1 128.643 L2204.2 108.366 L2208.71 108.366 L2197.32 136.699 Z" fill="#000000" fill-rule="evenodd" fill-opacity="1" /><path clip-path="url(#clip790)" d="M2216 130.356 L2223.64 130.356 L2223.64 103.991 L2215.33 105.657 L2215.33 101.398 L2223.6 99.7315 L2228.27 99.7315 L2228.27 130.356 L2235.91 130.356 L2235.91 134.291 L2216 134.291 L2216 130.356 Z" fill="#000000" fill-rule="evenodd" fill-opacity="1" /><path clip-path="url(#clip790)" d="
M249.542 1423.18 L2352.76 1423.18 L2352.76 885.358 L249.542 885.358  Z
  " fill="#ffffff" fill-rule="evenodd" fill-opacity="1"/>
<defs>
  <clipPath id="clip793">
    <rect x="249" y="885" width="2104" height="539"/>
  </clipPath>
</defs>
<polyline clip-path="url(#clip793)" style="stroke:#000000; stroke-linecap:butt; stroke-linejoin:round; stroke-width:2; stroke-opacity:0.1; fill:none" points="
  309.067,1423.18 309.067,885.358 
  "/>
<polyline clip-path="url(#clip793)" style="stroke:#000000; stroke-linecap:butt; stroke-linejoin:round; stroke-width:2; stroke-opacity:0.1; fill:none" points="
  805.108,1423.18 805.108,885.358 
  "/>
<polyline clip-path="url(#clip793)" style="stroke:#000000; stroke-linecap:butt; stroke-linejoin:round; stroke-width:2; stroke-opacity:0.1; fill:none" points="
  1301.15,1423.18 1301.15,885.358 
  "/>
<polyline clip-path="url(#clip793)" style="stroke:#000000; stroke-linecap:butt; stroke-linejoin:round; stroke-width:2; stroke-opacity:0.1; fill:none" points="
  1797.19,1423.18 1797.19,885.358 
  "/>
<polyline clip-path="url(#clip793)" style="stroke:#000000; stroke-linecap:butt; stroke-linejoin:round; stroke-width:2; stroke-opacity:0.1; fill:none" points="
  2293.23,1423.18 2293.23,885.358 
  "/>
<polyline clip-path="url(#clip790)" style="stroke:#000000; stroke-linecap:butt; stroke-linejoin:round; stroke-width:4; stroke-opacity:1; fill:none" points="
  249.542,1423.18 2352.76,1423.18 
  "/>
<polyline clip-path="url(#clip790)" style="stroke:#000000; stroke-linecap:butt; stroke-linejoin:round; stroke-width:4; stroke-opacity:1; fill:none" points="
  309.067,1423.18 309.067,1404.28 
  "/>
<polyline clip-path="url(#clip790)" style="stroke:#000000; stroke-linecap:butt; stroke-linejoin:round; stroke-width:4; stroke-opacity:1; fill:none" points="
  805.108,1423.18 805.108,1404.28 
  "/>
<polyline clip-path="url(#clip790)" style="stroke:#000000; stroke-linecap:butt; stroke-linejoin:round; stroke-width:4; stroke-opacity:1; fill:none" points="
  1301.15,1423.18 1301.15,1404.28 
  "/>
<polyline clip-path="url(#clip790)" style="stroke:#000000; stroke-linecap:butt; stroke-linejoin:round; stroke-width:4; stroke-opacity:1; fill:none" points="
  1797.19,1423.18 1797.19,1404.28 
  "/>
<polyline clip-path="url(#clip790)" style="stroke:#000000; stroke-linecap:butt; stroke-linejoin:round; stroke-width:4; stroke-opacity:1; fill:none" points="
  2293.23,1423.18 2293.23,1404.28 
  "/>
<path clip-path="url(#clip790)" d="M271.37 1454.1 Q267.759 1454.1 265.931 1457.66 Q264.125 1461.2 264.125 1468.33 Q264.125 1475.44 265.931 1479.01 Q267.759 1482.55 271.37 1482.55 Q275.005 1482.55 276.81 1479.01 Q278.639 1475.44 278.639 1468.33 Q278.639 1461.2 276.81 1457.66 Q275.005 1454.1 271.37 1454.1 M271.37 1450.39 Q277.181 1450.39 280.236 1455 Q283.315 1459.58 283.315 1468.33 Q283.315 1477.06 280.236 1481.67 Q277.181 1486.25 271.37 1486.25 Q265.56 1486.25 262.482 1481.67 Q259.426 1477.06 259.426 1468.33 Q259.426 1459.58 262.482 1455 Q265.56 1450.39 271.37 1450.39 Z" fill="#000000" fill-rule="evenodd" fill-opacity="1" /><path clip-path="url(#clip790)" d="M291.532 1479.7 L296.417 1479.7 L296.417 1485.58 L291.532 1485.58 L291.532 1479.7 Z" fill="#000000" fill-rule="evenodd" fill-opacity="1" /><path clip-path="url(#clip790)" d="M316.602 1454.1 Q312.991 1454.1 311.162 1457.66 Q309.356 1461.2 309.356 1468.33 Q309.356 1475.44 311.162 1479.01 Q312.991 1482.55 316.602 1482.55 Q320.236 1482.55 322.041 1479.01 Q323.87 1475.44 323.87 1468.33 Q323.87 1461.2 322.041 1457.66 Q320.236 1454.1 316.602 1454.1 M316.602 1450.39 Q322.412 1450.39 325.467 1455 Q328.546 1459.58 328.546 1468.33 Q328.546 1477.06 325.467 1481.67 Q322.412 1486.25 316.602 1486.25 Q310.791 1486.25 307.713 1481.67 Q304.657 1477.06 304.657 1468.33 Q304.657 1459.58 307.713 1455 Q310.791 1450.39 316.602 1450.39 Z" fill="#000000" fill-rule="evenodd" fill-opacity="1" /><path clip-path="url(#clip790)" d="M346.764 1454.1 Q343.152 1454.1 341.324 1457.66 Q339.518 1461.2 339.518 1468.33 Q339.518 1475.44 341.324 1479.01 Q343.152 1482.55 346.764 1482.55 Q350.398 1482.55 352.203 1479.01 Q354.032 1475.44 354.032 1468.33 Q354.032 1461.2 352.203 1457.66 Q350.398 1454.1 346.764 1454.1 M346.764 1450.39 Q352.574 1450.39 355.629 1455 Q358.708 1459.58 358.708 1468.33 Q358.708 1477.06 355.629 1481.67 Q352.574 1486.25 346.764 1486.25 Q340.953 1486.25 337.875 1481.67 Q334.819 1477.06 334.819 1468.33 Q334.819 1459.58 337.875 1455 Q340.953 1450.39 346.764 1450.39 Z" fill="#000000" fill-rule="evenodd" fill-opacity="1" /><path clip-path="url(#clip790)" d="M767.909 1454.1 Q764.298 1454.1 762.469 1457.66 Q760.664 1461.2 760.664 1468.33 Q760.664 1475.44 762.469 1479.01 Q764.298 1482.55 767.909 1482.55 Q771.543 1482.55 773.349 1479.01 Q775.178 1475.44 775.178 1468.33 Q775.178 1461.2 773.349 1457.66 Q771.543 1454.1 767.909 1454.1 M767.909 1450.39 Q773.719 1450.39 776.775 1455 Q779.853 1459.58 779.853 1468.33 Q779.853 1477.06 776.775 1481.67 Q773.719 1486.25 767.909 1486.25 Q762.099 1486.25 759.02 1481.67 Q755.965 1477.06 755.965 1468.33 Q755.965 1459.58 759.02 1455 Q762.099 1450.39 767.909 1450.39 Z" fill="#000000" fill-rule="evenodd" fill-opacity="1" /><path clip-path="url(#clip790)" d="M788.071 1479.7 L792.955 1479.7 L792.955 1485.58 L788.071 1485.58 L788.071 1479.7 Z" fill="#000000" fill-rule="evenodd" fill-opacity="1" /><path clip-path="url(#clip790)" d="M807.168 1481.64 L823.487 1481.64 L823.487 1485.58 L801.543 1485.58 L801.543 1481.64 Q804.205 1478.89 808.788 1474.26 Q813.395 1469.61 814.576 1468.27 Q816.821 1465.74 817.7 1464.01 Q818.603 1462.25 818.603 1460.56 Q818.603 1457.8 816.659 1456.07 Q814.738 1454.33 811.636 1454.33 Q809.437 1454.33 806.983 1455.09 Q804.552 1455.86 801.775 1457.41 L801.775 1452.69 Q804.599 1451.55 807.052 1450.97 Q809.506 1450.39 811.543 1450.39 Q816.913 1450.39 820.108 1453.08 Q823.302 1455.77 823.302 1460.26 Q823.302 1462.39 822.492 1464.31 Q821.705 1466.2 819.599 1468.8 Q819.02 1469.47 815.918 1472.69 Q812.816 1475.88 807.168 1481.64 Z" fill="#000000" fill-rule="evenodd" fill-opacity="1" /><path clip-path="url(#clip790)" d="M833.349 1451.02 L851.705 1451.02 L851.705 1454.96 L837.631 1454.96 L837.631 1463.43 Q838.649 1463.08 839.668 1462.92 Q840.686 1462.73 841.705 1462.73 Q847.492 1462.73 850.872 1465.9 Q854.251 1469.08 854.251 1474.49 Q854.251 1480.07 850.779 1483.17 Q847.307 1486.25 840.987 1486.25 Q838.811 1486.25 836.543 1485.88 Q834.298 1485.51 831.89 1484.77 L831.89 1480.07 Q833.974 1481.2 836.196 1481.76 Q838.418 1482.32 840.895 1482.32 Q844.899 1482.32 847.237 1480.21 Q849.575 1478.1 849.575 1474.49 Q849.575 1470.88 847.237 1468.77 Q844.899 1466.67 840.895 1466.67 Q839.02 1466.67 837.145 1467.08 Q835.293 1467.5 833.349 1468.38 L833.349 1451.02 Z" fill="#000000" fill-rule="evenodd" fill-opacity="1" /><path clip-path="url(#clip790)" d="M1263.45 1454.1 Q1259.84 1454.1 1258.01 1457.66 Q1256.21 1461.2 1256.21 1468.33 Q1256.21 1475.44 1258.01 1479.01 Q1259.84 1482.55 1263.45 1482.55 Q1267.09 1482.55 1268.89 1479.01 Q1270.72 1475.44 1270.72 1468.33 Q1270.72 1461.2 1268.89 1457.66 Q1267.09 1454.1 1263.45 1454.1 M1263.45 1450.39 Q1269.26 1450.39 1272.32 1455 Q1275.4 1459.58 1275.4 1468.33 Q1275.4 1477.06 1272.32 1481.67 Q1269.26 1486.25 1263.45 1486.25 Q1257.64 1486.25 1254.56 1481.67 Q1251.51 1477.06 1251.51 1468.33 Q1251.51 1459.58 1254.56 1455 Q1257.64 1450.39 1263.45 1450.39 Z" fill="#000000" fill-rule="evenodd" fill-opacity="1" /><path clip-path="url(#clip790)" d="M1283.61 1479.7 L1288.5 1479.7 L1288.5 1485.58 L1283.61 1485.58 L1283.61 1479.7 Z" fill="#000000" fill-rule="evenodd" fill-opacity="1" /><path clip-path="url(#clip790)" d="M1298.73 1451.02 L1317.09 1451.02 L1317.09 1454.96 L1303.01 1454.96 L1303.01 1463.43 Q1304.03 1463.08 1305.05 1462.92 Q1306.07 1462.73 1307.09 1462.73 Q1312.87 1462.73 1316.25 1465.9 Q1319.63 1469.08 1319.63 1474.49 Q1319.63 1480.07 1316.16 1483.17 Q1312.69 1486.25 1306.37 1486.25 Q1304.19 1486.25 1301.92 1485.88 Q1299.68 1485.51 1297.27 1484.77 L1297.27 1480.07 Q1299.35 1481.2 1301.58 1481.76 Q1303.8 1482.32 1306.28 1482.32 Q1310.28 1482.32 1312.62 1480.21 Q1314.96 1478.1 1314.96 1474.49 Q1314.96 1470.88 1312.62 1468.77 Q1310.28 1466.67 1306.28 1466.67 Q1304.4 1466.67 1302.53 1467.08 Q1300.67 1467.5 1298.73 1468.38 L1298.73 1451.02 Z" fill="#000000" fill-rule="evenodd" fill-opacity="1" /><path clip-path="url(#clip790)" d="M1338.85 1454.1 Q1335.23 1454.1 1333.41 1457.66 Q1331.6 1461.2 1331.6 1468.33 Q1331.6 1475.44 1333.41 1479.01 Q1335.23 1482.55 1338.85 1482.55 Q1342.48 1482.55 1344.29 1479.01 Q1346.11 1475.44 1346.11 1468.33 Q1346.11 1461.2 1344.29 1457.66 Q1342.48 1454.1 1338.85 1454.1 M1338.85 1450.39 Q1344.66 1450.39 1347.71 1455 Q1350.79 1459.58 1350.79 1468.33 Q1350.79 1477.06 1347.71 1481.67 Q1344.66 1486.25 1338.85 1486.25 Q1333.04 1486.25 1329.96 1481.67 Q1326.9 1477.06 1326.9 1468.33 Q1326.9 1459.58 1329.96 1455 Q1333.04 1450.39 1338.85 1450.39 Z" fill="#000000" fill-rule="evenodd" fill-opacity="1" /><path clip-path="url(#clip790)" d="M1759.99 1454.1 Q1756.38 1454.1 1754.55 1457.66 Q1752.75 1461.2 1752.75 1468.33 Q1752.75 1475.44 1754.55 1479.01 Q1756.38 1482.55 1759.99 1482.55 Q1763.63 1482.55 1765.43 1479.01 Q1767.26 1475.44 1767.26 1468.33 Q1767.26 1461.2 1765.43 1457.66 Q1763.63 1454.1 1759.99 1454.1 M1759.99 1450.39 Q1765.8 1450.39 1768.86 1455 Q1771.94 1459.58 1771.94 1468.33 Q1771.94 1477.06 1768.86 1481.67 Q1765.8 1486.25 1759.99 1486.25 Q1754.18 1486.25 1751.1 1481.67 Q1748.05 1477.06 1748.05 1468.33 Q1748.05 1459.58 1751.1 1455 Q1754.18 1450.39 1759.99 1450.39 Z" fill="#000000" fill-rule="evenodd" fill-opacity="1" /><path clip-path="url(#clip790)" d="M1780.15 1479.7 L1785.04 1479.7 L1785.04 1485.58 L1780.15 1485.58 L1780.15 1479.7 Z" fill="#000000" fill-rule="evenodd" fill-opacity="1" /><path clip-path="url(#clip790)" d="M1794.04 1451.02 L1816.26 1451.02 L1816.26 1453.01 L1803.72 1485.58 L1798.83 1485.58 L1810.64 1454.96 L1794.04 1454.96 L1794.04 1451.02 Z" fill="#000000" fill-rule="evenodd" fill-opacity="1" /><path clip-path="url(#clip790)" d="M1825.43 1451.02 L1843.79 1451.02 L1843.79 1454.96 L1829.71 1454.96 L1829.71 1463.43 Q1830.73 1463.08 1831.75 1462.92 Q1832.77 1462.73 1833.79 1462.73 Q1839.57 1462.73 1842.95 1465.9 Q1846.33 1469.08 1846.33 1474.49 Q1846.33 1480.07 1842.86 1483.17 Q1839.39 1486.25 1833.07 1486.25 Q1830.89 1486.25 1828.62 1485.88 Q1826.38 1485.51 1823.97 1484.77 L1823.97 1480.07 Q1826.06 1481.2 1828.28 1481.76 Q1830.5 1482.32 1832.98 1482.32 Q1836.98 1482.32 1839.32 1480.21 Q1841.66 1478.1 1841.66 1474.49 Q1841.66 1470.88 1839.32 1468.77 Q1836.98 1466.67 1832.98 1466.67 Q1831.1 1466.67 1829.23 1467.08 Q1827.38 1467.5 1825.43 1468.38 L1825.43 1451.02 Z" fill="#000000" fill-rule="evenodd" fill-opacity="1" /><path clip-path="url(#clip790)" d="M2245.3 1481.64 L2252.94 1481.64 L2252.94 1455.28 L2244.63 1456.95 L2244.63 1452.69 L2252.9 1451.02 L2257.57 1451.02 L2257.57 1481.64 L2265.21 1481.64 L2265.21 1485.58 L2245.3 1485.58 L2245.3 1481.64 Z" fill="#000000" fill-rule="evenodd" fill-opacity="1" /><path clip-path="url(#clip790)" d="M2274.65 1479.7 L2279.54 1479.7 L2279.54 1485.58 L2274.65 1485.58 L2274.65 1479.7 Z" fill="#000000" fill-rule="evenodd" fill-opacity="1" /><path clip-path="url(#clip790)" d="M2299.72 1454.1 Q2296.11 1454.1 2294.28 1457.66 Q2292.48 1461.2 2292.48 1468.33 Q2292.48 1475.44 2294.28 1479.01 Q2296.11 1482.55 2299.72 1482.55 Q2303.36 1482.55 2305.16 1479.01 Q2306.99 1475.44 2306.99 1468.33 Q2306.99 1461.2 2305.16 1457.66 Q2303.36 1454.1 2299.72 1454.1 M2299.72 1450.39 Q2305.53 1450.39 2308.59 1455 Q2311.67 1459.58 2311.67 1468.33 Q2311.67 1477.06 2308.59 1481.67 Q2305.53 1486.25 2299.72 1486.25 Q2293.91 1486.25 2290.84 1481.67 Q2287.78 1477.06 2287.78 1468.33 Q2287.78 1459.58 2290.84 1455 Q2293.91 1450.39 2299.72 1450.39 Z" fill="#000000" fill-rule="evenodd" fill-opacity="1" /><path clip-path="url(#clip790)" d="M2329.89 1454.1 Q2326.27 1454.1 2324.45 1457.66 Q2322.64 1461.2 2322.64 1468.33 Q2322.64 1475.44 2324.45 1479.01 Q2326.27 1482.55 2329.89 1482.55 Q2333.52 1482.55 2335.33 1479.01 Q2337.15 1475.44 2337.15 1468.33 Q2337.15 1461.2 2335.33 1457.66 Q2333.52 1454.1 2329.89 1454.1 M2329.89 1450.39 Q2335.7 1450.39 2338.75 1455 Q2341.83 1459.58 2341.83 1468.33 Q2341.83 1477.06 2338.75 1481.67 Q2335.7 1486.25 2329.89 1486.25 Q2324.08 1486.25 2321 1481.67 Q2317.94 1477.06 2317.94 1468.33 Q2317.94 1459.58 2321 1455 Q2324.08 1450.39 2329.89 1450.39 Z" fill="#000000" fill-rule="evenodd" fill-opacity="1" /><path clip-path="url(#clip790)" d="M1317.76 1532.4 L1304.87 1549.74 L1318.43 1568.04 L1311.53 1568.04 L1301.15 1554.04 L1290.77 1568.04 L1283.87 1568.04 L1297.71 1549.39 L1285.04 1532.4 L1291.95 1532.4 L1301.4 1545.1 L1310.86 1532.4 L1317.76 1532.4 Z" fill="#000000" fill-rule="evenodd" fill-opacity="1" /><polyline clip-path="url(#clip793)" style="stroke:#000000; stroke-linecap:butt; stroke-linejoin:round; stroke-width:2; stroke-opacity:0.1; fill:none" points="
  249.542,1407.96 2352.76,1407.96 
  "/>
<polyline clip-path="url(#clip793)" style="stroke:#000000; stroke-linecap:butt; stroke-linejoin:round; stroke-width:2; stroke-opacity:0.1; fill:none" points="
  249.542,1281.11 2352.76,1281.11 
  "/>
<polyline clip-path="url(#clip793)" style="stroke:#000000; stroke-linecap:butt; stroke-linejoin:round; stroke-width:2; stroke-opacity:0.1; fill:none" points="
  249.542,1154.27 2352.76,1154.27 
  "/>
<polyline clip-path="url(#clip793)" style="stroke:#000000; stroke-linecap:butt; stroke-linejoin:round; stroke-width:2; stroke-opacity:0.1; fill:none" points="
  249.542,1027.42 2352.76,1027.42 
  "/>
<polyline clip-path="url(#clip793)" style="stroke:#000000; stroke-linecap:butt; stroke-linejoin:round; stroke-width:2; stroke-opacity:0.1; fill:none" points="
  249.542,900.579 2352.76,900.579 
  "/>
<polyline clip-path="url(#clip790)" style="stroke:#000000; stroke-linecap:butt; stroke-linejoin:round; stroke-width:4; stroke-opacity:1; fill:none" points="
  249.542,1423.18 249.542,885.358 
  "/>
<polyline clip-path="url(#clip790)" style="stroke:#000000; stroke-linecap:butt; stroke-linejoin:round; stroke-width:4; stroke-opacity:1; fill:none" points="
  249.542,1407.96 268.44,1407.96 
  "/>
<polyline clip-path="url(#clip790)" style="stroke:#000000; stroke-linecap:butt; stroke-linejoin:round; stroke-width:4; stroke-opacity:1; fill:none" points="
  249.542,1281.11 268.44,1281.11 
  "/>
<polyline clip-path="url(#clip790)" style="stroke:#000000; stroke-linecap:butt; stroke-linejoin:round; stroke-width:4; stroke-opacity:1; fill:none" points="
  249.542,1154.27 268.44,1154.27 
  "/>
<polyline clip-path="url(#clip790)" style="stroke:#000000; stroke-linecap:butt; stroke-linejoin:round; stroke-width:4; stroke-opacity:1; fill:none" points="
  249.542,1027.42 268.44,1027.42 
  "/>
<polyline clip-path="url(#clip790)" style="stroke:#000000; stroke-linecap:butt; stroke-linejoin:round; stroke-width:4; stroke-opacity:1; fill:none" points="
  249.542,900.579 268.44,900.579 
  "/>
<path clip-path="url(#clip790)" d="M126.205 1393.76 Q122.593 1393.76 120.765 1397.32 Q118.959 1400.86 118.959 1407.99 Q118.959 1415.1 120.765 1418.66 Q122.593 1422.21 126.205 1422.21 Q129.839 1422.21 131.644 1418.66 Q133.473 1415.1 133.473 1407.99 Q133.473 1400.86 131.644 1397.32 Q129.839 1393.76 126.205 1393.76 M126.205 1390.05 Q132.015 1390.05 135.07 1394.66 Q138.149 1399.24 138.149 1407.99 Q138.149 1416.72 135.07 1421.33 Q132.015 1425.91 126.205 1425.91 Q120.394 1425.91 117.316 1421.33 Q114.26 1416.72 114.26 1407.99 Q114.26 1399.24 117.316 1394.66 Q120.394 1390.05 126.205 1390.05 Z" fill="#000000" fill-rule="evenodd" fill-opacity="1" /><path clip-path="url(#clip790)" d="M146.366 1419.36 L151.251 1419.36 L151.251 1425.24 L146.366 1425.24 L146.366 1419.36 Z" fill="#000000" fill-rule="evenodd" fill-opacity="1" /><path clip-path="url(#clip790)" d="M171.436 1393.76 Q167.825 1393.76 165.996 1397.32 Q164.19 1400.86 164.19 1407.99 Q164.19 1415.1 165.996 1418.66 Q167.825 1422.21 171.436 1422.21 Q175.07 1422.21 176.876 1418.66 Q178.704 1415.1 178.704 1407.99 Q178.704 1400.86 176.876 1397.32 Q175.07 1393.76 171.436 1393.76 M171.436 1390.05 Q177.246 1390.05 180.301 1394.66 Q183.38 1399.24 183.38 1407.99 Q183.38 1416.72 180.301 1421.33 Q177.246 1425.91 171.436 1425.91 Q165.626 1425.91 162.547 1421.33 Q159.491 1416.72 159.491 1407.99 Q159.491 1399.24 162.547 1394.66 Q165.626 1390.05 171.436 1390.05 Z" fill="#000000" fill-rule="evenodd" fill-opacity="1" /><path clip-path="url(#clip790)" d="M201.598 1393.76 Q197.987 1393.76 196.158 1397.32 Q194.352 1400.86 194.352 1407.99 Q194.352 1415.1 196.158 1418.66 Q197.987 1422.21 201.598 1422.21 Q205.232 1422.21 207.037 1418.66 Q208.866 1415.1 208.866 1407.99 Q208.866 1400.86 207.037 1397.32 Q205.232 1393.76 201.598 1393.76 M201.598 1390.05 Q207.408 1390.05 210.463 1394.66 Q213.542 1399.24 213.542 1407.99 Q213.542 1416.72 210.463 1421.33 Q207.408 1425.91 201.598 1425.91 Q195.787 1425.91 192.709 1421.33 Q189.653 1416.72 189.653 1407.99 Q189.653 1399.24 192.709 1394.66 Q195.787 1390.05 201.598 1390.05 Z" fill="#000000" fill-rule="evenodd" fill-opacity="1" /><path clip-path="url(#clip790)" d="M127.2 1266.91 Q123.589 1266.91 121.76 1270.48 Q119.955 1274.02 119.955 1281.15 Q119.955 1288.25 121.76 1291.82 Q123.589 1295.36 127.2 1295.36 Q130.834 1295.36 132.64 1291.82 Q134.468 1288.25 134.468 1281.15 Q134.468 1274.02 132.64 1270.48 Q130.834 1266.91 127.2 1266.91 M127.2 1263.21 Q133.01 1263.21 136.066 1267.82 Q139.144 1272.4 139.144 1281.15 Q139.144 1289.88 136.066 1294.48 Q133.01 1299.07 127.2 1299.07 Q121.39 1299.07 118.311 1294.48 Q115.256 1289.88 115.256 1281.15 Q115.256 1272.4 118.311 1267.82 Q121.39 1263.21 127.2 1263.21 Z" fill="#000000" fill-rule="evenodd" fill-opacity="1" /><path clip-path="url(#clip790)" d="M147.362 1292.51 L152.246 1292.51 L152.246 1298.39 L147.362 1298.39 L147.362 1292.51 Z" fill="#000000" fill-rule="evenodd" fill-opacity="1" /><path clip-path="url(#clip790)" d="M166.459 1294.46 L182.778 1294.46 L182.778 1298.39 L160.834 1298.39 L160.834 1294.46 Q163.496 1291.7 168.079 1287.07 Q172.686 1282.42 173.866 1281.08 Q176.112 1278.56 176.991 1276.82 Q177.894 1275.06 177.894 1273.37 Q177.894 1270.62 175.95 1268.88 Q174.028 1267.14 170.927 1267.14 Q168.727 1267.14 166.274 1267.91 Q163.843 1268.67 161.065 1270.22 L161.065 1265.5 Q163.89 1264.37 166.343 1263.79 Q168.797 1263.21 170.834 1263.21 Q176.204 1263.21 179.399 1265.89 Q182.593 1268.58 182.593 1273.07 Q182.593 1275.2 181.783 1277.12 Q180.996 1279.02 178.889 1281.61 Q178.311 1282.28 175.209 1285.5 Q172.107 1288.69 166.459 1294.46 Z" fill="#000000" fill-rule="evenodd" fill-opacity="1" /><path clip-path="url(#clip790)" d="M192.639 1263.83 L210.996 1263.83 L210.996 1267.77 L196.922 1267.77 L196.922 1276.24 Q197.94 1275.89 198.959 1275.73 Q199.977 1275.55 200.996 1275.55 Q206.783 1275.55 210.162 1278.72 Q213.542 1281.89 213.542 1287.31 Q213.542 1292.88 210.07 1295.99 Q206.598 1299.07 200.278 1299.07 Q198.102 1299.07 195.834 1298.69 Q193.588 1298.32 191.181 1297.58 L191.181 1292.88 Q193.264 1294.02 195.487 1294.57 Q197.709 1295.13 200.186 1295.13 Q204.19 1295.13 206.528 1293.02 Q208.866 1290.92 208.866 1287.31 Q208.866 1283.69 206.528 1281.59 Q204.19 1279.48 200.186 1279.48 Q198.311 1279.48 196.436 1279.9 Q194.584 1280.32 192.639 1281.19 L192.639 1263.83 Z" fill="#000000" fill-rule="evenodd" fill-opacity="1" /><path clip-path="url(#clip790)" d="M126.205 1140.07 Q122.593 1140.07 120.765 1143.63 Q118.959 1147.17 118.959 1154.3 Q118.959 1161.41 120.765 1164.97 Q122.593 1168.52 126.205 1168.52 Q129.839 1168.52 131.644 1164.97 Q133.473 1161.41 133.473 1154.3 Q133.473 1147.17 131.644 1143.63 Q129.839 1140.07 126.205 1140.07 M126.205 1136.36 Q132.015 1136.36 135.07 1140.97 Q138.149 1145.55 138.149 1154.3 Q138.149 1163.03 135.07 1167.64 Q132.015 1172.22 126.205 1172.22 Q120.394 1172.22 117.316 1167.64 Q114.26 1163.03 114.26 1154.3 Q114.26 1145.55 117.316 1140.97 Q120.394 1136.36 126.205 1136.36 Z" fill="#000000" fill-rule="evenodd" fill-opacity="1" /><path clip-path="url(#clip790)" d="M146.366 1165.67 L151.251 1165.67 L151.251 1171.55 L146.366 1171.55 L146.366 1165.67 Z" fill="#000000" fill-rule="evenodd" fill-opacity="1" /><path clip-path="url(#clip790)" d="M161.482 1136.99 L179.839 1136.99 L179.839 1140.92 L165.765 1140.92 L165.765 1149.4 Q166.783 1149.05 167.802 1148.89 Q168.82 1148.7 169.839 1148.7 Q175.626 1148.7 179.005 1151.87 Q182.385 1155.04 182.385 1160.46 Q182.385 1166.04 178.913 1169.14 Q175.44 1172.22 169.121 1172.22 Q166.945 1172.22 164.677 1171.85 Q162.431 1171.48 160.024 1170.74 L160.024 1166.04 Q162.107 1167.17 164.329 1167.73 Q166.552 1168.29 169.028 1168.29 Q173.033 1168.29 175.371 1166.18 Q177.709 1164.07 177.709 1160.46 Q177.709 1156.85 175.371 1154.74 Q173.033 1152.64 169.028 1152.64 Q167.153 1152.64 165.278 1153.05 Q163.427 1153.47 161.482 1154.35 L161.482 1136.99 Z" fill="#000000" fill-rule="evenodd" fill-opacity="1" /><path clip-path="url(#clip790)" d="M201.598 1140.07 Q197.987 1140.07 196.158 1143.63 Q194.352 1147.17 194.352 1154.3 Q194.352 1161.41 196.158 1164.97 Q197.987 1168.52 201.598 1168.52 Q205.232 1168.52 207.037 1164.97 Q208.866 1161.41 208.866 1154.3 Q208.866 1147.17 207.037 1143.63 Q205.232 1140.07 201.598 1140.07 M201.598 1136.36 Q207.408 1136.36 210.463 1140.97 Q213.542 1145.55 213.542 1154.3 Q213.542 1163.03 210.463 1167.64 Q207.408 1172.22 201.598 1172.22 Q195.787 1172.22 192.709 1167.64 Q189.653 1163.03 189.653 1154.3 Q189.653 1145.55 192.709 1140.97 Q195.787 1136.36 201.598 1136.36 Z" fill="#000000" fill-rule="evenodd" fill-opacity="1" /><path clip-path="url(#clip790)" d="M127.2 1013.22 Q123.589 1013.22 121.76 1016.79 Q119.955 1020.33 119.955 1027.46 Q119.955 1034.57 121.76 1038.13 Q123.589 1041.67 127.2 1041.67 Q130.834 1041.67 132.64 1038.13 Q134.468 1034.57 134.468 1027.46 Q134.468 1020.33 132.64 1016.79 Q130.834 1013.22 127.2 1013.22 M127.2 1009.52 Q133.01 1009.52 136.066 1014.13 Q139.144 1018.71 139.144 1027.46 Q139.144 1036.19 136.066 1040.79 Q133.01 1045.38 127.2 1045.38 Q121.39 1045.38 118.311 1040.79 Q115.256 1036.19 115.256 1027.46 Q115.256 1018.71 118.311 1014.13 Q121.39 1009.52 127.2 1009.52 Z" fill="#000000" fill-rule="evenodd" fill-opacity="1" /><path clip-path="url(#clip790)" d="M147.362 1038.82 L152.246 1038.82 L152.246 1044.7 L147.362 1044.7 L147.362 1038.82 Z" fill="#000000" fill-rule="evenodd" fill-opacity="1" /><path clip-path="url(#clip790)" d="M161.251 1010.14 L183.473 1010.14 L183.473 1012.13 L170.927 1044.7 L166.042 1044.7 L177.848 1014.08 L161.251 1014.08 L161.251 1010.14 Z" fill="#000000" fill-rule="evenodd" fill-opacity="1" /><path clip-path="url(#clip790)" d="M192.639 1010.14 L210.996 1010.14 L210.996 1014.08 L196.922 1014.08 L196.922 1022.55 Q197.94 1022.2 198.959 1022.04 Q199.977 1021.86 200.996 1021.86 Q206.783 1021.86 210.162 1025.03 Q213.542 1028.2 213.542 1033.62 Q213.542 1039.19 210.07 1042.3 Q206.598 1045.38 200.278 1045.38 Q198.102 1045.38 195.834 1045.01 Q193.588 1044.63 191.181 1043.89 L191.181 1039.19 Q193.264 1040.33 195.487 1040.88 Q197.709 1041.44 200.186 1041.44 Q204.19 1041.44 206.528 1039.33 Q208.866 1037.23 208.866 1033.62 Q208.866 1030.01 206.528 1027.9 Q204.19 1025.79 200.186 1025.79 Q198.311 1025.79 196.436 1026.21 Q194.584 1026.63 192.639 1027.51 L192.639 1010.14 Z" fill="#000000" fill-rule="evenodd" fill-opacity="1" /><path clip-path="url(#clip790)" d="M117.015 913.924 L124.654 913.924 L124.654 887.559 L116.343 889.225 L116.343 884.966 L124.607 883.299 L129.283 883.299 L129.283 913.924 L136.922 913.924 L136.922 917.859 L117.015 917.859 L117.015 913.924 Z" fill="#000000" fill-rule="evenodd" fill-opacity="1" /><path clip-path="url(#clip790)" d="M146.366 911.98 L151.251 911.98 L151.251 917.859 L146.366 917.859 L146.366 911.98 Z" fill="#000000" fill-rule="evenodd" fill-opacity="1" /><path clip-path="url(#clip790)" d="M171.436 886.378 Q167.825 886.378 165.996 889.943 Q164.19 893.485 164.19 900.614 Q164.19 907.721 165.996 911.285 Q167.825 914.827 171.436 914.827 Q175.07 914.827 176.876 911.285 Q178.704 907.721 178.704 900.614 Q178.704 893.485 176.876 889.943 Q175.07 886.378 171.436 886.378 M171.436 882.674 Q177.246 882.674 180.301 887.281 Q183.38 891.864 183.38 900.614 Q183.38 909.341 180.301 913.947 Q177.246 918.531 171.436 918.531 Q165.626 918.531 162.547 913.947 Q159.491 909.341 159.491 900.614 Q159.491 891.864 162.547 887.281 Q165.626 882.674 171.436 882.674 Z" fill="#000000" fill-rule="evenodd" fill-opacity="1" /><path clip-path="url(#clip790)" d="M201.598 886.378 Q197.987 886.378 196.158 889.943 Q194.352 893.485 194.352 900.614 Q194.352 907.721 196.158 911.285 Q197.987 914.827 201.598 914.827 Q205.232 914.827 207.037 911.285 Q208.866 907.721 208.866 900.614 Q208.866 893.485 207.037 889.943 Q205.232 886.378 201.598 886.378 M201.598 882.674 Q207.408 882.674 210.463 887.281 Q213.542 891.864 213.542 900.614 Q213.542 909.341 210.463 913.947 Q207.408 918.531 201.598 918.531 Q195.787 918.531 192.709 913.947 Q189.653 909.341 189.653 900.614 Q189.653 891.864 192.709 887.281 Q195.787 882.674 201.598 882.674 Z" fill="#000000" fill-rule="evenodd" fill-opacity="1" /><path clip-path="url(#clip790)" d="M67.3143 1152.58 Q73.68 1155.06 75.6216 1157.42 Q77.5631 1159.78 77.5631 1163.72 L77.5631 1168.4 L72.6615 1168.4 L72.6615 1164.96 Q72.6615 1162.54 71.5157 1161.21 Q70.3699 1159.87 66.1048 1158.25 L63.4312 1157.2 L28.3562 1171.62 L28.3562 1165.41 L56.238 1154.27 L28.3562 1143.13 L28.3562 1136.92 L67.3143 1152.58 Z" fill="#000000" fill-rule="evenodd" fill-opacity="1" /><path clip-path="url(#clip790)" d="M1172.74 776.21 L1172.74 789.092 L1188.09 789.092 L1188.09 794.885 L1172.74 794.885 L1172.74 819.514 Q1172.74 825.064 1174.23 826.644 Q1175.77 828.224 1180.43 828.224 L1188.09 828.224 L1188.09 834.462 L1180.43 834.462 Q1171.8 834.462 1168.52 831.262 Q1165.24 828.021 1165.24 819.514 L1165.24 794.885 L1159.77 794.885 L1159.77 789.092 L1165.24 789.092 L1165.24 776.21 L1172.74 776.21 Z" fill="#000000" fill-rule="evenodd" fill-opacity="1" /><path clip-path="url(#clip790)" d="M1224.18 796.059 Q1222.93 795.33 1221.43 795.006 Q1219.97 794.642 1218.19 794.642 Q1211.87 794.642 1208.46 798.774 Q1205.1 802.865 1205.1 810.562 L1205.1 834.462 L1197.61 834.462 L1197.61 789.092 L1205.1 789.092 L1205.1 796.14 Q1207.45 792.009 1211.22 790.024 Q1214.99 787.998 1220.37 787.998 Q1221.14 787.998 1222.08 788.12 Q1223.01 788.201 1224.14 788.403 L1224.18 796.059 Z" fill="#000000" fill-rule="evenodd" fill-opacity="1" /><path clip-path="url(#clip790)" d="M1252.62 811.655 Q1243.59 811.655 1240.1 813.721 Q1236.62 815.787 1236.62 820.77 Q1236.62 824.74 1239.21 827.089 Q1241.84 829.398 1246.34 829.398 Q1252.54 829.398 1256.26 825.023 Q1260.03 820.608 1260.03 813.316 L1260.03 811.655 L1252.62 811.655 M1267.49 808.577 L1267.49 834.462 L1260.03 834.462 L1260.03 827.575 Q1257.48 831.707 1253.67 833.692 Q1249.86 835.637 1244.36 835.637 Q1237.39 835.637 1233.26 831.748 Q1229.16 827.819 1229.16 821.256 Q1229.16 813.6 1234.27 809.711 Q1239.41 805.822 1249.58 805.822 L1260.03 805.822 L1260.03 805.093 Q1260.03 799.948 1256.63 797.153 Q1253.27 794.318 1247.15 794.318 Q1243.26 794.318 1239.58 795.249 Q1235.89 796.181 1232.49 798.044 L1232.49 791.158 Q1236.58 789.578 1240.43 788.808 Q1244.27 787.998 1247.92 787.998 Q1257.76 787.998 1262.62 793.102 Q1267.49 798.206 1267.49 808.577 Z" fill="#000000" fill-rule="evenodd" fill-opacity="1" /><path clip-path="url(#clip790)" d="M1315.49 790.834 L1315.49 797.801 Q1312.33 796.059 1309.13 795.209 Q1305.97 794.318 1302.73 794.318 Q1295.48 794.318 1291.47 798.936 Q1287.46 803.513 1287.46 811.817 Q1287.46 820.122 1291.47 824.74 Q1295.48 829.317 1302.73 829.317 Q1305.97 829.317 1309.13 828.467 Q1312.33 827.575 1315.49 825.834 L1315.49 832.72 Q1312.37 834.178 1309.01 834.908 Q1305.69 835.637 1301.92 835.637 Q1291.67 835.637 1285.63 829.196 Q1279.6 822.755 1279.6 811.817 Q1279.6 800.718 1285.67 794.358 Q1291.79 787.998 1302.4 787.998 Q1305.85 787.998 1309.13 788.727 Q1312.41 789.416 1315.49 790.834 Z" fill="#000000" fill-rule="evenodd" fill-opacity="1" /><path clip-path="url(#clip790)" d="M1367.26 809.914 L1367.26 813.559 L1332.99 813.559 Q1333.48 821.256 1337.61 825.307 Q1341.78 829.317 1349.19 829.317 Q1353.49 829.317 1357.5 828.264 Q1361.55 827.211 1365.52 825.104 L1365.52 832.153 Q1361.51 833.854 1357.29 834.746 Q1353.08 835.637 1348.75 835.637 Q1337.89 835.637 1331.53 829.317 Q1325.21 822.998 1325.21 812.223 Q1325.21 801.083 1331.21 794.561 Q1337.24 787.998 1347.45 787.998 Q1356.61 787.998 1361.91 793.912 Q1367.26 799.786 1367.26 809.914 M1359.81 807.726 Q1359.73 801.609 1356.36 797.963 Q1353.04 794.318 1347.53 794.318 Q1341.29 794.318 1337.53 797.842 Q1333.8 801.366 1333.23 807.767 L1359.81 807.726 M1352.64 768.108 L1360.7 768.108 L1347.49 783.34 L1341.29 783.34 L1352.64 768.108 Z" fill="#000000" fill-rule="evenodd" fill-opacity="1" /><path clip-path="url(#clip790)" d="M1413.97 827.575 L1442.53 827.575 L1442.53 834.462 L1404.12 834.462 L1404.12 827.575 Q1408.78 822.755 1416.8 814.653 Q1424.86 806.511 1426.93 804.161 Q1430.86 799.746 1432.4 796.708 Q1433.98 793.629 1433.98 790.672 Q1433.98 785.851 1430.58 782.813 Q1427.21 779.775 1421.78 779.775 Q1417.94 779.775 1413.64 781.112 Q1409.39 782.448 1404.53 785.162 L1404.53 776.899 Q1409.47 774.914 1413.76 773.901 Q1418.06 772.888 1421.62 772.888 Q1431.02 772.888 1436.61 777.587 Q1442.2 782.286 1442.2 790.145 Q1442.2 793.872 1440.78 797.234 Q1439.41 800.556 1435.72 805.093 Q1434.71 806.268 1429.28 811.898 Q1423.85 817.489 1413.97 827.575 Z" fill="#000000" fill-rule="evenodd" fill-opacity="1" /><polyline clip-path="url(#clip793)" style="stroke:#ff0000; stroke-linecap:butt; stroke-linejoin:round; stroke-width:4; stroke-opacity:1; fill:none" points="
  309.067,1407.96 329.109,1402.83 349.151,1397.71 369.193,1392.58 389.235,1387.46 409.277,1382.33 429.319,1377.21 449.361,1372.08 469.403,1366.96 489.446,1361.83 
  509.488,1356.71 529.53,1351.58 549.572,1346.46 569.614,1341.33 589.656,1336.21 609.698,1331.08 629.74,1325.96 649.782,1320.83 669.824,1315.71 689.866,1310.58 
  709.908,1305.46 729.95,1300.33 749.992,1295.21 770.034,1290.08 790.076,1284.96 810.118,1279.83 830.161,1274.71 850.203,1269.58 870.245,1264.46 890.287,1259.33 
  910.329,1254.21 930.371,1249.08 950.413,1243.96 970.455,1238.83 990.497,1233.71 1010.54,1228.58 1030.58,1223.46 1050.62,1218.33 1070.67,1213.21 1090.71,1208.08 
  1110.75,1202.96 1130.79,1197.83 1150.83,1192.71 1170.88,1187.58 1190.92,1182.46 1210.96,1177.33 1231,1172.21 1251.04,1167.08 1271.09,1161.96 1291.13,1156.83 
  1311.17,1151.71 1331.21,1146.58 1351.25,1141.46 1371.3,1136.33 1391.34,1131.21 1411.38,1126.08 1431.42,1120.96 1451.46,1115.83 1471.51,1110.71 1491.55,1105.58 
  1511.59,1100.46 1531.63,1095.33 1551.67,1090.21 1571.72,1085.08 1591.76,1079.96 1611.8,1074.83 1631.84,1069.71 1651.89,1064.58 1671.93,1059.46 1691.97,1054.33 
  1712.01,1049.21 1732.05,1044.08 1752.1,1038.96 1772.14,1033.83 1792.18,1028.71 1812.22,1023.58 1832.26,1018.46 1852.31,1013.33 1872.35,1008.21 1892.39,1003.08 
  1912.43,997.955 1932.47,992.83 1952.52,987.705 1972.56,982.58 1992.6,977.455 2012.64,972.33 2032.68,967.205 2052.73,962.08 2072.77,956.955 2092.81,951.83 
  2112.85,946.705 2132.89,941.58 2152.94,936.455 2172.98,931.33 2193.02,926.205 2213.06,921.08 2233.1,915.955 2253.15,910.83 2273.19,905.705 2293.23,900.579 
  
  "/>
<path clip-path="url(#clip790)" d="
M1996.9 1006.97 L2282.65 1006.97 L2282.65 903.286 L1996.9 903.286  Z
  " fill="#ffffff" fill-rule="evenodd" fill-opacity="1"/>
<polyline clip-path="url(#clip790)" style="stroke:#000000; stroke-linecap:butt; stroke-linejoin:round; stroke-width:4; stroke-opacity:1; fill:none" points="
  1996.9,1006.97 2282.65,1006.97 2282.65,903.286 1996.9,903.286 1996.9,1006.97 
  "/>
<polyline clip-path="url(#clip790)" style="stroke:#ff0000; stroke-linecap:butt; stroke-linejoin:round; stroke-width:4; stroke-opacity:1; fill:none" points="
  2020.27,955.126 2160.48,955.126 
  "/>
<path clip-path="url(#clip790)" d="M2197.69 974.813 Q2195.89 979.443 2194.17 980.855 Q2192.46 982.267 2189.59 982.267 L2186.19 982.267 L2186.19 978.702 L2188.69 978.702 Q2190.45 978.702 2191.42 977.868 Q2192.39 977.035 2193.57 973.933 L2194.34 971.989 L2183.85 946.48 L2188.36 946.48 L2196.47 966.757 L2204.57 946.48 L2209.08 946.48 L2197.69 974.813 Z" fill="#000000" fill-rule="evenodd" fill-opacity="1" /><path clip-path="url(#clip790)" d="M2219.59 968.47 L2235.91 968.47 L2235.91 972.406 L2213.97 972.406 L2213.97 968.47 Q2216.63 965.716 2221.21 961.086 Q2225.82 956.433 2227 955.091 Q2229.24 952.568 2230.12 950.832 Q2231.03 949.072 2231.03 947.382 Q2231.03 944.628 2229.08 942.892 Q2227.16 941.156 2224.06 941.156 Q2221.86 941.156 2219.41 941.92 Q2216.98 942.683 2214.2 944.234 L2214.2 939.512 Q2217.02 938.378 2219.48 937.799 Q2221.93 937.221 2223.97 937.221 Q2229.34 937.221 2232.53 939.906 Q2235.73 942.591 2235.73 947.082 Q2235.73 949.211 2234.92 951.132 Q2234.13 953.031 2232.02 955.623 Q2231.44 956.294 2228.34 959.512 Q2225.24 962.706 2219.59 968.47 Z" fill="#000000" fill-rule="evenodd" fill-opacity="1" /></svg>
