<?xml version="1.0" encoding="utf-8"?>
<svg xmlns="http://www.w3.org/2000/svg" xmlns:xlink="http://www.w3.org/1999/xlink" width="600" height="400" viewBox="0 0 2400 1600">
<defs>
  <clipPath id="clip420">
    <rect x="0" y="0" width="2400" height="1600"/>
  </clipPath>
</defs>
<path clip-path="url(#clip420)" d="
M0 1600 L2400 1600 L2400 0 L0 0  Z
  " fill="#ffffff" fill-rule="evenodd" fill-opacity="1"/>
<defs>
  <clipPath id="clip421">
    <rect x="480" y="0" width="1681" height="1600"/>
  </clipPath>
</defs>
<path clip-path="url(#clip420)" d="
M193.936 1486.45 L2352.76 1486.45 L2352.76 47.2441 L193.936 47.2441  Z
  " fill="#ffffff" fill-rule="evenodd" fill-opacity="1"/>
<defs>
  <clipPath id="clip422">
    <rect x="193" y="47" width="2160" height="1440"/>
  </clipPath>
</defs>
<polyline clip-path="url(#clip422)" style="stroke:#000000; stroke-linecap:butt; stroke-linejoin:round; stroke-width:2; stroke-opacity:0.1; fill:none" points="
  472.787,1486.45 472.787,47.2441 
  "/>
<polyline clip-path="url(#clip422)" style="stroke:#000000; stroke-linecap:butt; stroke-linejoin:round; stroke-width:2; stroke-opacity:0.1; fill:none" points="
  873.066,1486.45 873.066,47.2441 
  "/>
<polyline clip-path="url(#clip422)" style="stroke:#000000; stroke-linecap:butt; stroke-linejoin:round; stroke-width:2; stroke-opacity:0.1; fill:none" points="
  1273.35,1486.45 1273.35,47.2441 
  "/>
<polyline clip-path="url(#clip422)" style="stroke:#000000; stroke-linecap:butt; stroke-linejoin:round; stroke-width:2; stroke-opacity:0.1; fill:none" points="
  1673.63,1486.45 1673.63,47.2441 
  "/>
<polyline clip-path="url(#clip422)" style="stroke:#000000; stroke-linecap:butt; stroke-linejoin:round; stroke-width:2; stroke-opacity:0.1; fill:none" points="
  2073.91,1486.45 2073.91,47.2441 
  "/>
<polyline clip-path="url(#clip420)" style="stroke:#000000; stroke-linecap:butt; stroke-linejoin:round; stroke-width:4; stroke-opacity:1; fill:none" points="
  193.936,1486.45 2352.76,1486.45 
  "/>
<polyline clip-path="url(#clip420)" style="stroke:#000000; stroke-linecap:butt; stroke-linejoin:round; stroke-width:4; stroke-opacity:1; fill:none" points="
  472.787,1486.45 472.787,1467.55 
  "/>
<polyline clip-path="url(#clip420)" style="stroke:#000000; stroke-linecap:butt; stroke-linejoin:round; stroke-width:4; stroke-opacity:1; fill:none" points="
  873.066,1486.45 873.066,1467.55 
  "/>
<polyline clip-path="url(#clip420)" style="stroke:#000000; stroke-linecap:butt; stroke-linejoin:round; stroke-width:4; stroke-opacity:1; fill:none" points="
  1273.35,1486.45 1273.35,1467.55 
  "/>
<polyline clip-path="url(#clip420)" style="stroke:#000000; stroke-linecap:butt; stroke-linejoin:round; stroke-width:4; stroke-opacity:1; fill:none" points="
  1673.63,1486.45 1673.63,1467.55 
  "/>
<polyline clip-path="url(#clip420)" style="stroke:#000000; stroke-linecap:butt; stroke-linejoin:round; stroke-width:4; stroke-opacity:1; fill:none" points="
  2073.91,1486.45 2073.91,1467.55 
  "/>
<path clip-path="url(#clip420)" d="M463.169 1544.91 L470.808 1544.91 L470.808 1518.55 L462.497 1520.21 L462.497 1515.95 L470.761 1514.29 L475.437 1514.29 L475.437 1544.91 L483.076 1544.91 L483.076 1548.85 L463.169 1548.85 L463.169 1544.91 Z" fill="#000000" fill-rule="evenodd" fill-opacity="1" /><path clip-path="url(#clip420)" d="M867.719 1544.91 L884.039 1544.91 L884.039 1548.85 L862.094 1548.85 L862.094 1544.91 Q864.756 1542.16 869.34 1537.53 Q873.946 1532.88 875.127 1531.53 Q877.372 1529.01 878.252 1527.27 Q879.154 1525.51 879.154 1523.82 Q879.154 1521.07 877.21 1519.33 Q875.289 1517.6 872.187 1517.6 Q869.988 1517.6 867.534 1518.36 Q865.103 1519.13 862.326 1520.68 L862.326 1515.95 Q865.15 1514.82 867.603 1514.24 Q870.057 1513.66 872.094 1513.66 Q877.464 1513.66 880.659 1516.35 Q883.853 1519.03 883.853 1523.52 Q883.853 1525.65 883.043 1527.57 Q882.256 1529.47 880.15 1532.07 Q879.571 1532.74 876.469 1535.95 Q873.367 1539.15 867.719 1544.91 Z" fill="#000000" fill-rule="evenodd" fill-opacity="1" /><path clip-path="url(#clip420)" d="M1277.59 1530.21 Q1280.95 1530.93 1282.83 1533.2 Q1284.72 1535.47 1284.72 1538.8 Q1284.72 1543.92 1281.2 1546.72 Q1277.69 1549.52 1271.2 1549.52 Q1269.03 1549.52 1266.71 1549.08 Q1264.42 1548.66 1261.97 1547.81 L1261.97 1543.29 Q1263.91 1544.43 1266.23 1545.01 Q1268.54 1545.58 1271.07 1545.58 Q1275.46 1545.58 1277.76 1543.85 Q1280.07 1542.11 1280.07 1538.8 Q1280.07 1535.75 1277.92 1534.03 Q1275.79 1532.3 1271.97 1532.3 L1267.94 1532.3 L1267.94 1528.45 L1272.15 1528.45 Q1275.6 1528.45 1277.43 1527.09 Q1279.26 1525.7 1279.26 1523.11 Q1279.26 1520.45 1277.36 1519.03 Q1275.49 1517.6 1271.97 1517.6 Q1270.05 1517.6 1267.85 1518.01 Q1265.65 1518.43 1263.01 1519.31 L1263.01 1515.14 Q1265.67 1514.4 1267.99 1514.03 Q1270.33 1513.66 1272.39 1513.66 Q1277.71 1513.66 1280.81 1516.09 Q1283.91 1518.5 1283.91 1522.62 Q1283.91 1525.49 1282.27 1527.48 Q1280.63 1529.45 1277.59 1530.21 Z" fill="#000000" fill-rule="evenodd" fill-opacity="1" /><path clip-path="url(#clip420)" d="M1676.63 1518.36 L1664.83 1536.81 L1676.63 1536.81 L1676.63 1518.36 M1675.41 1514.29 L1681.29 1514.29 L1681.29 1536.81 L1686.22 1536.81 L1686.22 1540.7 L1681.29 1540.7 L1681.29 1548.85 L1676.63 1548.85 L1676.63 1540.7 L1661.03 1540.7 L1661.03 1536.19 L1675.41 1514.29 Z" fill="#000000" fill-rule="evenodd" fill-opacity="1" /><path clip-path="url(#clip420)" d="M2064.18 1514.29 L2082.54 1514.29 L2082.54 1518.22 L2068.47 1518.22 L2068.47 1526.7 Q2069.48 1526.35 2070.5 1526.19 Q2071.52 1526 2072.54 1526 Q2078.33 1526 2081.71 1529.17 Q2085.09 1532.34 2085.09 1537.76 Q2085.09 1543.34 2081.61 1546.44 Q2078.14 1549.52 2071.82 1549.52 Q2069.65 1549.52 2067.38 1549.15 Q2065.13 1548.78 2062.72 1548.04 L2062.72 1543.34 Q2064.81 1544.47 2067.03 1545.03 Q2069.25 1545.58 2071.73 1545.58 Q2075.73 1545.58 2078.07 1543.48 Q2080.41 1541.37 2080.41 1537.76 Q2080.41 1534.15 2078.07 1532.04 Q2075.73 1529.94 2071.73 1529.94 Q2069.85 1529.94 2067.98 1530.35 Q2066.13 1530.77 2064.18 1531.65 L2064.18 1514.29 Z" fill="#000000" fill-rule="evenodd" fill-opacity="1" /><polyline clip-path="url(#clip422)" style="stroke:#000000; stroke-linecap:butt; stroke-linejoin:round; stroke-width:2; stroke-opacity:0.1; fill:none" points="
  193.936,1366.51 2352.76,1366.51 
  "/>
<polyline clip-path="url(#clip422)" style="stroke:#000000; stroke-linecap:butt; stroke-linejoin:round; stroke-width:2; stroke-opacity:0.1; fill:none" points="
  193.936,1066.68 2352.76,1066.68 
  "/>
<polyline clip-path="url(#clip422)" style="stroke:#000000; stroke-linecap:butt; stroke-linejoin:round; stroke-width:2; stroke-opacity:0.1; fill:none" points="
  193.936,766.846 2352.76,766.846 
  "/>
<polyline clip-path="url(#clip422)" style="stroke:#000000; stroke-linecap:butt; stroke-linejoin:round; stroke-width:2; stroke-opacity:0.1; fill:none" points="
  193.936,467.012 2352.76,467.012 
  "/>
<polyline clip-path="url(#clip422)" style="stroke:#000000; stroke-linecap:butt; stroke-linejoin:round; stroke-width:2; stroke-opacity:0.1; fill:none" points="
  193.936,167.178 2352.76,167.178 
  "/>
<polyline clip-path="url(#clip420)" style="stroke:#000000; stroke-linecap:butt; stroke-linejoin:round; stroke-width:4; stroke-opacity:1; fill:none" points="
  193.936,1486.45 193.936,47.2441 
  "/>
<polyline clip-path="url(#clip420)" style="stroke:#000000; stroke-linecap:butt; stroke-linejoin:round; stroke-width:4; stroke-opacity:1; fill:none" points="
  193.936,1366.51 212.834,1366.51 
  "/>
<polyline clip-path="url(#clip420)" style="stroke:#000000; stroke-linecap:butt; stroke-linejoin:round; stroke-width:4; stroke-opacity:1; fill:none" points="
  193.936,1066.68 212.834,1066.68 
  "/>
<polyline clip-path="url(#clip420)" style="stroke:#000000; stroke-linecap:butt; stroke-linejoin:round; stroke-width:4; stroke-opacity:1; fill:none" points="
  193.936,766.846 212.834,766.846 
  "/>
<polyline clip-path="url(#clip420)" style="stroke:#000000; stroke-linecap:butt; stroke-linejoin:round; stroke-width:4; stroke-opacity:1; fill:none" points="
  193.936,467.012 212.834,467.012 
  "/>
<polyline clip-path="url(#clip420)" style="stroke:#000000; stroke-linecap:butt; stroke-linejoin:round; stroke-width:4; stroke-opacity:1; fill:none" points="
  193.936,167.178 212.834,167.178 
  "/>
<path clip-path="url(#clip420)" d="M50.9921 1366.97 L80.6679 1366.97 L80.6679 1370.9 L50.9921 1370.9 L50.9921 1366.97 Z" fill="#000000" fill-rule="evenodd" fill-opacity="1" /><path clip-path="url(#clip420)" d="M91.5706 1379.86 L99.2095 1379.86 L99.2095 1353.49 L90.8993 1355.16 L90.8993 1350.9 L99.1632 1349.23 L103.839 1349.23 L103.839 1379.86 L111.478 1379.86 L111.478 1383.79 L91.5706 1383.79 L91.5706 1379.86 Z" fill="#000000" fill-rule="evenodd" fill-opacity="1" /><path clip-path="url(#clip420)" d="M120.922 1377.91 L125.807 1377.91 L125.807 1383.79 L120.922 1383.79 L120.922 1377.91 Z" fill="#000000" fill-rule="evenodd" fill-opacity="1" /><path clip-path="url(#clip420)" d="M145.992 1352.31 Q142.381 1352.31 140.552 1355.88 Q138.746 1359.42 138.746 1366.55 Q138.746 1373.66 140.552 1377.22 Q142.381 1380.76 145.992 1380.76 Q149.626 1380.76 151.431 1377.22 Q153.26 1373.66 153.26 1366.55 Q153.26 1359.42 151.431 1355.88 Q149.626 1352.31 145.992 1352.31 M145.992 1348.61 Q151.802 1348.61 154.857 1353.22 Q157.936 1357.8 157.936 1366.55 Q157.936 1375.28 154.857 1379.88 Q151.802 1384.47 145.992 1384.47 Q140.181 1384.47 137.103 1379.88 Q134.047 1375.28 134.047 1366.55 Q134.047 1357.8 137.103 1353.22 Q140.181 1348.61 145.992 1348.61 Z" fill="#000000" fill-rule="evenodd" fill-opacity="1" /><path clip-path="url(#clip420)" d="M51.9875 1067.13 L81.6633 1067.13 L81.6633 1071.07 L51.9875 1071.07 L51.9875 1067.13 Z" fill="#000000" fill-rule="evenodd" fill-opacity="1" /><path clip-path="url(#clip420)" d="M101.756 1052.48 Q98.1447 1052.48 96.316 1056.04 Q94.5104 1059.59 94.5104 1066.71 Q94.5104 1073.82 96.316 1077.39 Q98.1447 1080.93 101.756 1080.93 Q105.39 1080.93 107.196 1077.39 Q109.024 1073.82 109.024 1066.71 Q109.024 1059.59 107.196 1056.04 Q105.39 1052.48 101.756 1052.48 M101.756 1048.78 Q107.566 1048.78 110.621 1053.38 Q113.7 1057.96 113.7 1066.71 Q113.7 1075.44 110.621 1080.05 Q107.566 1084.63 101.756 1084.63 Q95.9456 1084.63 92.8669 1080.05 Q89.8114 1075.44 89.8114 1066.71 Q89.8114 1057.96 92.8669 1053.38 Q95.9456 1048.78 101.756 1048.78 Z" fill="#000000" fill-rule="evenodd" fill-opacity="1" /><path clip-path="url(#clip420)" d="M121.918 1078.08 L126.802 1078.08 L126.802 1083.96 L121.918 1083.96 L121.918 1078.08 Z" fill="#000000" fill-rule="evenodd" fill-opacity="1" /><path clip-path="url(#clip420)" d="M137.033 1049.4 L155.39 1049.4 L155.39 1053.34 L141.316 1053.34 L141.316 1061.81 Q142.334 1061.46 143.353 1061.3 Q144.371 1061.11 145.39 1061.11 Q151.177 1061.11 154.556 1064.28 Q157.936 1067.46 157.936 1072.87 Q157.936 1078.45 154.464 1081.55 Q150.992 1084.63 144.672 1084.63 Q142.496 1084.63 140.228 1084.26 Q137.982 1083.89 135.575 1083.15 L135.575 1078.45 Q137.658 1079.59 139.881 1080.14 Q142.103 1080.7 144.58 1080.7 Q148.584 1080.7 150.922 1078.59 Q153.26 1076.48 153.26 1072.87 Q153.26 1069.26 150.922 1067.15 Q148.584 1065.05 144.58 1065.05 Q142.705 1065.05 140.83 1065.46 Q138.978 1065.88 137.033 1066.76 L137.033 1049.4 Z" fill="#000000" fill-rule="evenodd" fill-opacity="1" /><path clip-path="url(#clip420)" d="M100.76 752.645 Q97.1493 752.645 95.3206 756.209 Q93.515 759.751 93.515 766.881 Q93.515 773.987 95.3206 777.552 Q97.1493 781.094 100.76 781.094 Q104.395 781.094 106.2 777.552 Q108.029 773.987 108.029 766.881 Q108.029 759.751 106.2 756.209 Q104.395 752.645 100.76 752.645 M100.76 748.941 Q106.571 748.941 109.626 753.547 Q112.705 758.131 112.705 766.881 Q112.705 775.608 109.626 780.214 Q106.571 784.797 100.76 784.797 Q94.9502 784.797 91.8715 780.214 Q88.816 775.608 88.816 766.881 Q88.816 758.131 91.8715 753.547 Q94.9502 748.941 100.76 748.941 Z" fill="#000000" fill-rule="evenodd" fill-opacity="1" /><path clip-path="url(#clip420)" d="M120.922 778.246 L125.807 778.246 L125.807 784.126 L120.922 784.126 L120.922 778.246 Z" fill="#000000" fill-rule="evenodd" fill-opacity="1" /><path clip-path="url(#clip420)" d="M145.992 752.645 Q142.381 752.645 140.552 756.209 Q138.746 759.751 138.746 766.881 Q138.746 773.987 140.552 777.552 Q142.381 781.094 145.992 781.094 Q149.626 781.094 151.431 777.552 Q153.26 773.987 153.26 766.881 Q153.26 759.751 151.431 756.209 Q149.626 752.645 145.992 752.645 M145.992 748.941 Q151.802 748.941 154.857 753.547 Q157.936 758.131 157.936 766.881 Q157.936 775.608 154.857 780.214 Q151.802 784.797 145.992 784.797 Q140.181 784.797 137.103 780.214 Q134.047 775.608 134.047 766.881 Q134.047 758.131 137.103 753.547 Q140.181 748.941 145.992 748.941 Z" fill="#000000" fill-rule="evenodd" fill-opacity="1" /><path clip-path="url(#clip420)" d="M101.756 452.811 Q98.1447 452.811 96.316 456.375 Q94.5104 459.917 94.5104 467.047 Q94.5104 474.153 96.316 477.718 Q98.1447 481.259 101.756 481.259 Q105.39 481.259 107.196 477.718 Q109.024 474.153 109.024 467.047 Q109.024 459.917 107.196 456.375 Q105.39 452.811 101.756 452.811 M101.756 449.107 Q107.566 449.107 110.621 453.713 Q113.7 458.297 113.7 467.047 Q113.7 475.773 110.621 480.38 Q107.566 484.963 101.756 484.963 Q95.9456 484.963 92.8669 480.38 Q89.8114 475.773 89.8114 467.047 Q89.8114 458.297 92.8669 453.713 Q95.9456 449.107 101.756 449.107 Z" fill="#000000" fill-rule="evenodd" fill-opacity="1" /><path clip-path="url(#clip420)" d="M121.918 478.412 L126.802 478.412 L126.802 484.292 L121.918 484.292 L121.918 478.412 Z" fill="#000000" fill-rule="evenodd" fill-opacity="1" /><path clip-path="url(#clip420)" d="M137.033 449.732 L155.39 449.732 L155.39 453.667 L141.316 453.667 L141.316 462.139 Q142.334 461.792 143.353 461.63 Q144.371 461.445 145.39 461.445 Q151.177 461.445 154.556 464.616 Q157.936 467.787 157.936 473.204 Q157.936 478.783 154.464 481.884 Q150.992 484.963 144.672 484.963 Q142.496 484.963 140.228 484.593 Q137.982 484.222 135.575 483.482 L135.575 478.783 Q137.658 479.917 139.881 480.472 Q142.103 481.028 144.58 481.028 Q148.584 481.028 150.922 478.922 Q153.26 476.815 153.26 473.204 Q153.26 469.593 150.922 467.486 Q148.584 465.38 144.58 465.38 Q142.705 465.38 140.83 465.797 Q138.978 466.213 137.033 467.093 L137.033 449.732 Z" fill="#000000" fill-rule="evenodd" fill-opacity="1" /><path clip-path="url(#clip420)" d="M91.5706 180.523 L99.2095 180.523 L99.2095 154.157 L90.8993 155.824 L90.8993 151.564 L99.1632 149.898 L103.839 149.898 L103.839 180.523 L111.478 180.523 L111.478 184.458 L91.5706 184.458 L91.5706 180.523 Z" fill="#000000" fill-rule="evenodd" fill-opacity="1" /><path clip-path="url(#clip420)" d="M120.922 178.578 L125.807 178.578 L125.807 184.458 L120.922 184.458 L120.922 178.578 Z" fill="#000000" fill-rule="evenodd" fill-opacity="1" /><path clip-path="url(#clip420)" d="M145.992 152.976 Q142.381 152.976 140.552 156.541 Q138.746 160.083 138.746 167.212 Q138.746 174.319 140.552 177.884 Q142.381 181.425 145.992 181.425 Q149.626 181.425 151.431 177.884 Q153.26 174.319 153.26 167.212 Q153.26 160.083 151.431 156.541 Q149.626 152.976 145.992 152.976 M145.992 149.273 Q151.802 149.273 154.857 153.879 Q157.936 158.463 157.936 167.212 Q157.936 175.939 154.857 180.546 Q151.802 185.129 145.992 185.129 Q140.181 185.129 137.103 180.546 Q134.047 175.939 134.047 167.212 Q134.047 158.463 137.103 153.879 Q140.181 149.273 145.992 149.273 Z" fill="#000000" fill-rule="evenodd" fill-opacity="1" /><path clip-path="url(#clip422)" d="
M312.675 843.33 L312.675 766.846 L632.899 766.846 L632.899 843.33 L312.675 843.33 L312.675 843.33  Z
  " fill="#009af9" fill-rule="evenodd" fill-opacity="1"/>
<polyline clip-path="url(#clip422)" style="stroke:#000000; stroke-linecap:butt; stroke-linejoin:round; stroke-width:4; stroke-opacity:1; fill:none" points="
  312.675,843.33 312.675,766.846 632.899,766.846 632.899,843.33 312.675,843.33 
  "/>
<path clip-path="url(#clip422)" d="
M712.955 776.331 L712.955 766.846 L1033.18 766.846 L1033.18 776.331 L712.955 776.331 L712.955 776.331  Z
  " fill="#009af9" fill-rule="evenodd" fill-opacity="1"/>
<polyline clip-path="url(#clip422)" style="stroke:#000000; stroke-linecap:butt; stroke-linejoin:round; stroke-width:4; stroke-opacity:1; fill:none" points="
  712.955,776.331 712.955,766.846 1033.18,766.846 1033.18,776.331 712.955,776.331 
  "/>
<path clip-path="url(#clip422)" d="
M1113.23 1256.7 L1113.23 766.846 L1433.46 766.846 L1433.46 1256.7 L1113.23 1256.7 L1113.23 1256.7  Z
  " fill="#009af9" fill-rule="evenodd" fill-opacity="1"/>
<polyline clip-path="url(#clip422)" style="stroke:#000000; stroke-linecap:butt; stroke-linejoin:round; stroke-width:4; stroke-opacity:1; fill:none" points="
  1113.23,1256.7 1113.23,766.846 1433.46,766.846 1433.46,1256.7 1113.23,1256.7 
  "/>
<path clip-path="url(#clip422)" d="
M1513.51 1280.2 L1513.51 766.846 L1833.74 766.846 L1833.74 1280.2 L1513.51 1280.2 L1513.51 1280.2  Z
  " fill="#009af9" fill-rule="evenodd" fill-opacity="1"/>
<polyline clip-path="url(#clip422)" style="stroke:#000000; stroke-linecap:butt; stroke-linejoin:round; stroke-width:4; stroke-opacity:1; fill:none" points="
  1513.51,1280.2 1513.51,766.846 1833.74,766.846 1833.74,1280.2 1513.51,1280.2 
  "/>
<path clip-path="url(#clip422)" d="
M1913.79 1112.1 L1913.79 766.846 L2234.02 766.846 L2234.02 1112.1 L1913.79 1112.1 L1913.79 1112.1  Z
  " fill="#009af9" fill-rule="evenodd" fill-opacity="1"/>
<polyline clip-path="url(#clip422)" style="stroke:#000000; stroke-linecap:butt; stroke-linejoin:round; stroke-width:4; stroke-opacity:1; fill:none" points="
  1913.79,1112.1 1913.79,766.846 2234.02,766.846 2234.02,1112.1 1913.79,1112.1 
  "/>
<circle clip-path="url(#clip422)" style="fill:#009af9; stroke:none; fill-opacity:0" cx="472.787" cy="843.33" r="2"/>
<circle clip-path="url(#clip422)" style="fill:#009af9; stroke:none; fill-opacity:0" cx="873.066" cy="776.331" r="2"/>
<circle clip-path="url(#clip422)" style="fill:#009af9; stroke:none; fill-opacity:0" cx="1273.35" cy="1256.7" r="2"/>
<circle clip-path="url(#clip422)" style="fill:#009af9; stroke:none; fill-opacity:0" cx="1673.63" cy="1280.2" r="2"/>
<circle clip-path="url(#clip422)" style="fill:#009af9; stroke:none; fill-opacity:0" cx="2073.91" cy="1112.1" r="2"/>
<path clip-path="url(#clip420)" d="
M1988.5 198.898 L2280.8 198.898 L2280.8 95.2176 L1988.5 95.2176  Z
  " fill="#ffffff" fill-rule="evenodd" fill-opacity="1"/>
<polyline clip-path="url(#clip420)" style="stroke:#000000; stroke-linecap:butt; stroke-linejoin:round; stroke-width:4; stroke-opacity:1; fill:none" points="
  1988.5,198.898 2280.8,198.898 2280.8,95.2176 1988.5,95.2176 1988.5,198.898 
  "/>
<path clip-path="url(#clip420)" d="
M2012.48 167.794 L2156.4 167.794 L2156.4 126.322 L2012.48 126.322 L2012.48 167.794  Z
  " fill="#009af9" fill-rule="evenodd" fill-opacity="1"/>
<polyline clip-path="url(#clip420)" style="stroke:#000000; stroke-linecap:butt; stroke-linejoin:round; stroke-width:4; stroke-opacity:1; fill:none" points="
  2012.48,167.794 2156.4,167.794 2156.4,126.322 2012.48,126.322 2012.48,167.794 
  "/>
<path clip-path="url(#clip420)" d="M2194.23 166.745 Q2192.43 171.375 2190.72 172.787 Q2189 174.199 2186.13 174.199 L2182.73 174.199 L2182.73 170.634 L2185.23 170.634 Q2186.99 170.634 2187.96 169.8 Q2188.93 168.967 2190.11 165.865 L2190.88 163.921 L2180.39 138.412 L2184.91 138.412 L2193.01 158.689 L2201.11 138.412 L2205.62 138.412 L2194.23 166.745 Z" fill="#000000" fill-rule="evenodd" fill-opacity="1" /><path clip-path="url(#clip420)" d="M2212.91 160.402 L2220.55 160.402 L2220.55 134.037 L2212.24 135.703 L2212.24 131.444 L2220.51 129.778 L2225.18 129.778 L2225.18 160.402 L2232.82 160.402 L2232.82 164.338 L2212.91 164.338 L2212.91 160.402 Z" fill="#000000" fill-rule="evenodd" fill-opacity="1" /></svg>
