<?xml version="1.0" encoding="utf-8"?>
<svg xmlns="http://www.w3.org/2000/svg" xmlns:xlink="http://www.w3.org/1999/xlink" width="600" height="400" viewBox="0 0 2400 1600">
<defs>
  <clipPath id="clip920">
    <rect x="0" y="0" width="2400" height="1600"/>
  </clipPath>
</defs>
<path clip-path="url(#clip920)" d="
M0 1600 L2400 1600 L2400 0 L0 0  Z
  " fill="#ffffff" fill-rule="evenodd" fill-opacity="1"/>
<defs>
  <clipPath id="clip921">
    <rect x="480" y="0" width="1681" height="1600"/>
  </clipPath>
</defs>
<path clip-path="url(#clip920)" d="
M249.542 623.18 L2352.76 623.18 L2352.76 123.472 L249.542 123.472  Z
  " fill="#ffffff" fill-rule="evenodd" fill-opacity="1"/>
<defs>
  <clipPath id="clip922">
    <rect x="249" y="123" width="2104" height="501"/>
  </clipPath>
</defs>
<polyline clip-path="url(#clip922)" style="stroke:#000000; stroke-linecap:butt; stroke-linejoin:round; stroke-width:2; stroke-opacity:0.1; fill:none" points="
  309.067,623.18 309.067,123.472 
  "/>
<polyline clip-path="url(#clip922)" style="stroke:#000000; stroke-linecap:butt; stroke-linejoin:round; stroke-width:2; stroke-opacity:0.1; fill:none" points="
  805.108,623.18 805.108,123.472 
  "/>
<polyline clip-path="url(#clip922)" style="stroke:#000000; stroke-linecap:butt; stroke-linejoin:round; stroke-width:2; stroke-opacity:0.1; fill:none" points="
  1301.15,623.18 1301.15,123.472 
  "/>
<polyline clip-path="url(#clip922)" style="stroke:#000000; stroke-linecap:butt; stroke-linejoin:round; stroke-width:2; stroke-opacity:0.1; fill:none" points="
  1797.19,623.18 1797.19,123.472 
  "/>
<polyline clip-path="url(#clip922)" style="stroke:#000000; stroke-linecap:butt; stroke-linejoin:round; stroke-width:2; stroke-opacity:0.1; fill:none" points="
  2293.23,623.18 2293.23,123.472 
  "/>
<polyline clip-path="url(#clip920)" style="stroke:#000000; stroke-linecap:butt; stroke-linejoin:round; stroke-width:4; stroke-opacity:1; fill:none" points="
  249.542,623.18 2352.76,623.18 
  "/>
<polyline clip-path="url(#clip920)" style="stroke:#000000; stroke-linecap:butt; stroke-linejoin:round; stroke-width:4; stroke-opacity:1; fill:none" points="
  309.067,623.18 309.067,604.282 
  "/>
<polyline clip-path="url(#clip920)" style="stroke:#000000; stroke-linecap:butt; stroke-linejoin:round; stroke-width:4; stroke-opacity:1; fill:none" points="
  805.108,623.18 805.108,604.282 
  "/>
<polyline clip-path="url(#clip920)" style="stroke:#000000; stroke-linecap:butt; stroke-linejoin:round; stroke-width:4; stroke-opacity:1; fill:none" points="
  1301.15,623.18 1301.15,604.282 
  "/>
<polyline clip-path="url(#clip920)" style="stroke:#000000; stroke-linecap:butt; stroke-linejoin:round; stroke-width:4; stroke-opacity:1; fill:none" points="
  1797.19,623.18 1797.19,604.282 
  "/>
<polyline clip-path="url(#clip920)" style="stroke:#000000; stroke-linecap:butt; stroke-linejoin:round; stroke-width:4; stroke-opacity:1; fill:none" points="
  2293.23,623.18 2293.23,604.282 
  "/>
<path clip-path="url(#clip920)" d="M271.37 654.099 Q267.759 654.099 265.931 657.663 Q264.125 661.205 264.125 668.335 Q264.125 675.441 265.931 679.006 Q267.759 682.547 271.37 682.547 Q275.005 682.547 276.81 679.006 Q278.639 675.441 278.639 668.335 Q278.639 661.205 276.81 657.663 Q275.005 654.099 271.37 654.099 M271.37 650.395 Q277.181 650.395 280.236 655.001 Q283.315 659.585 283.315 668.335 Q283.315 677.061 280.236 681.668 Q277.181 686.251 271.37 686.251 Q265.56 686.251 262.482 681.668 Q259.426 677.061 259.426 668.335 Q259.426 659.585 262.482 655.001 Q265.56 650.395 271.37 650.395 Z" fill="#000000" fill-rule="evenodd" fill-opacity="1" /><path clip-path="url(#clip920)" d="M291.532 679.7 L296.417 679.7 L296.417 685.58 L291.532 685.58 L291.532 679.7 Z" fill="#000000" fill-rule="evenodd" fill-opacity="1" /><path clip-path="url(#clip920)" d="M316.602 654.099 Q312.991 654.099 311.162 657.663 Q309.356 661.205 309.356 668.335 Q309.356 675.441 311.162 679.006 Q312.991 682.547 316.602 682.547 Q320.236 682.547 322.041 679.006 Q323.87 675.441 323.87 668.335 Q323.87 661.205 322.041 657.663 Q320.236 654.099 316.602 654.099 M316.602 650.395 Q322.412 650.395 325.467 655.001 Q328.546 659.585 328.546 668.335 Q328.546 677.061 325.467 681.668 Q322.412 686.251 316.602 686.251 Q310.791 686.251 307.713 681.668 Q304.657 677.061 304.657 668.335 Q304.657 659.585 307.713 655.001 Q310.791 650.395 316.602 650.395 Z" fill="#000000" fill-rule="evenodd" fill-opacity="1" /><path clip-path="url(#clip920)" d="M346.764 654.099 Q343.152 654.099 341.324 657.663 Q339.518 661.205 339.518 668.335 Q339.518 675.441 341.324 679.006 Q343.152 682.547 346.764 682.547 Q350.398 682.547 352.203 679.006 Q354.032 675.441 354.032 668.335 Q354.032 661.205 352.203 657.663 Q350.398 654.099 346.764 654.099 M346.764 650.395 Q352.574 650.395 355.629 655.001 Q358.708 659.585 358.708 668.335 Q358.708 677.061 355.629 681.668 Q352.574 686.251 346.764 686.251 Q340.953 686.251 337.875 681.668 Q334.819 677.061 334.819 668.335 Q334.819 659.585 337.875 655.001 Q340.953 650.395 346.764 650.395 Z" fill="#000000" fill-rule="evenodd" fill-opacity="1" /><path clip-path="url(#clip920)" d="M767.909 654.099 Q764.298 654.099 762.469 657.663 Q760.664 661.205 760.664 668.335 Q760.664 675.441 762.469 679.006 Q764.298 682.547 767.909 682.547 Q771.543 682.547 773.349 679.006 Q775.178 675.441 775.178 668.335 Q775.178 661.205 773.349 657.663 Q771.543 654.099 767.909 654.099 M767.909 650.395 Q773.719 650.395 776.775 655.001 Q779.853 659.585 779.853 668.335 Q779.853 677.061 776.775 681.668 Q773.719 686.251 767.909 686.251 Q762.099 686.251 759.02 681.668 Q755.965 677.061 755.965 668.335 Q755.965 659.585 759.02 655.001 Q762.099 650.395 767.909 650.395 Z" fill="#000000" fill-rule="evenodd" fill-opacity="1" /><path clip-path="url(#clip920)" d="M788.071 679.7 L792.955 679.7 L792.955 685.58 L788.071 685.58 L788.071 679.7 Z" fill="#000000" fill-rule="evenodd" fill-opacity="1" /><path clip-path="url(#clip920)" d="M807.168 681.645 L823.487 681.645 L823.487 685.58 L801.543 685.58 L801.543 681.645 Q804.205 678.89 808.788 674.26 Q813.395 669.608 814.576 668.265 Q816.821 665.742 817.7 664.006 Q818.603 662.247 818.603 660.557 Q818.603 657.802 816.659 656.066 Q814.738 654.33 811.636 654.33 Q809.437 654.33 806.983 655.094 Q804.552 655.858 801.775 657.409 L801.775 652.687 Q804.599 651.552 807.052 650.974 Q809.506 650.395 811.543 650.395 Q816.913 650.395 820.108 653.08 Q823.302 655.765 823.302 660.256 Q823.302 662.386 822.492 664.307 Q821.705 666.205 819.599 668.798 Q819.02 669.469 815.918 672.686 Q812.816 675.881 807.168 681.645 Z" fill="#000000" fill-rule="evenodd" fill-opacity="1" /><path clip-path="url(#clip920)" d="M833.349 651.02 L851.705 651.02 L851.705 654.955 L837.631 654.955 L837.631 663.427 Q838.649 663.08 839.668 662.918 Q840.686 662.733 841.705 662.733 Q847.492 662.733 850.872 665.904 Q854.251 669.075 854.251 674.492 Q854.251 680.071 850.779 683.172 Q847.307 686.251 840.987 686.251 Q838.811 686.251 836.543 685.881 Q834.298 685.51 831.89 684.77 L831.89 680.071 Q833.974 681.205 836.196 681.76 Q838.418 682.316 840.895 682.316 Q844.899 682.316 847.237 680.21 Q849.575 678.103 849.575 674.492 Q849.575 670.881 847.237 668.774 Q844.899 666.668 840.895 666.668 Q839.02 666.668 837.145 667.085 Q835.293 667.501 833.349 668.381 L833.349 651.02 Z" fill="#000000" fill-rule="evenodd" fill-opacity="1" /><path clip-path="url(#clip920)" d="M1263.45 654.099 Q1259.84 654.099 1258.01 657.663 Q1256.21 661.205 1256.21 668.335 Q1256.21 675.441 1258.01 679.006 Q1259.84 682.547 1263.45 682.547 Q1267.09 682.547 1268.89 679.006 Q1270.72 675.441 1270.72 668.335 Q1270.72 661.205 1268.89 657.663 Q1267.09 654.099 1263.45 654.099 M1263.45 650.395 Q1269.26 650.395 1272.32 655.001 Q1275.4 659.585 1275.4 668.335 Q1275.4 677.061 1272.32 681.668 Q1269.26 686.251 1263.45 686.251 Q1257.64 686.251 1254.56 681.668 Q1251.51 677.061 1251.51 668.335 Q1251.51 659.585 1254.56 655.001 Q1257.64 650.395 1263.45 650.395 Z" fill="#000000" fill-rule="evenodd" fill-opacity="1" /><path clip-path="url(#clip920)" d="M1283.61 679.7 L1288.5 679.7 L1288.5 685.58 L1283.61 685.58 L1283.61 679.7 Z" fill="#000000" fill-rule="evenodd" fill-opacity="1" /><path clip-path="url(#clip920)" d="M1298.73 651.02 L1317.09 651.02 L1317.09 654.955 L1303.01 654.955 L1303.01 663.427 Q1304.03 663.08 1305.05 662.918 Q1306.07 662.733 1307.09 662.733 Q1312.87 662.733 1316.25 665.904 Q1319.63 669.075 1319.63 674.492 Q1319.63 680.071 1316.16 683.172 Q1312.69 686.251 1306.37 686.251 Q1304.19 686.251 1301.92 685.881 Q1299.68 685.51 1297.27 684.77 L1297.27 680.071 Q1299.35 681.205 1301.58 681.76 Q1303.8 682.316 1306.28 682.316 Q1310.28 682.316 1312.62 680.21 Q1314.96 678.103 1314.96 674.492 Q1314.96 670.881 1312.62 668.774 Q1310.28 666.668 1306.28 666.668 Q1304.4 666.668 1302.53 667.085 Q1300.67 667.501 1298.73 668.381 L1298.73 651.02 Z" fill="#000000" fill-rule="evenodd" fill-opacity="1" /><path clip-path="url(#clip920)" d="M1338.85 654.099 Q1335.23 654.099 1333.41 657.663 Q1331.6 661.205 1331.6 668.335 Q1331.6 675.441 1333.41 679.006 Q1335.23 682.547 1338.85 682.547 Q1342.48 682.547 1344.29 679.006 Q1346.11 675.441 1346.11 668.335 Q1346.11 661.205 1344.29 657.663 Q1342.48 654.099 1338.85 654.099 M1338.85 650.395 Q1344.66 650.395 1347.71 655.001 Q1350.79 659.585 1350.79 668.335 Q1350.79 677.061 1347.71 681.668 Q1344.66 686.251 1338.85 686.251 Q1333.04 686.251 1329.96 681.668 Q1326.9 677.061 1326.9 668.335 Q1326.9 659.585 1329.96 655.001 Q1333.04 650.395 1338.85 650.395 Z" fill="#000000" fill-rule="evenodd" fill-opacity="1" /><path clip-path="url(#clip920)" d="M1759.99 654.099 Q1756.38 654.099 1754.55 657.663 Q1752.75 661.205 1752.75 668.335 Q1752.75 675.441 1754.55 679.006 Q1756.38 682.547 1759.99 682.547 Q1763.63 682.547 1765.43 679.006 Q1767.26 675.441 1767.26 668.335 Q1767.26 661.205 1765.43 657.663 Q1763.63 654.099 1759.99 654.099 M1759.99 650.395 Q1765.8 650.395 1768.86 655.001 Q1771.94 659.585 1771.94 668.335 Q1771.94 677.061 1768.86 681.668 Q1765.8 686.251 1759.99 686.251 Q1754.18 686.251 1751.1 681.668 Q1748.05 677.061 1748.05 668.335 Q1748.05 659.585 1751.1 655.001 Q1754.18 650.395 1759.99 650.395 Z" fill="#000000" fill-rule="evenodd" fill-opacity="1" /><path clip-path="url(#clip920)" d="M1780.15 679.7 L1785.04 679.7 L1785.04 685.58 L1780.15 685.58 L1780.15 679.7 Z" fill="#000000" fill-rule="evenodd" fill-opacity="1" /><path clip-path="url(#clip920)" d="M1794.04 651.02 L1816.26 651.02 L1816.26 653.011 L1803.72 685.58 L1798.83 685.58 L1810.64 654.955 L1794.04 654.955 L1794.04 651.02 Z" fill="#000000" fill-rule="evenodd" fill-opacity="1" /><path clip-path="url(#clip920)" d="M1825.43 651.02 L1843.79 651.02 L1843.79 654.955 L1829.71 654.955 L1829.71 663.427 Q1830.73 663.08 1831.75 662.918 Q1832.77 662.733 1833.79 662.733 Q1839.57 662.733 1842.95 665.904 Q1846.33 669.075 1846.33 674.492 Q1846.33 680.071 1842.86 683.172 Q1839.39 686.251 1833.07 686.251 Q1830.89 686.251 1828.62 685.881 Q1826.38 685.51 1823.97 684.77 L1823.97 680.071 Q1826.06 681.205 1828.28 681.76 Q1830.5 682.316 1832.98 682.316 Q1836.98 682.316 1839.32 680.21 Q1841.66 678.103 1841.66 674.492 Q1841.66 670.881 1839.32 668.774 Q1836.98 666.668 1832.98 666.668 Q1831.1 666.668 1829.23 667.085 Q1827.38 667.501 1825.43 668.381 L1825.43 651.02 Z" fill="#000000" fill-rule="evenodd" fill-opacity="1" /><path clip-path="url(#clip920)" d="M2245.3 681.645 L2252.94 681.645 L2252.94 655.279 L2244.63 656.946 L2244.63 652.687 L2252.9 651.02 L2257.57 651.02 L2257.57 681.645 L2265.21 681.645 L2265.21 685.58 L2245.3 685.58 L2245.3 681.645 Z" fill="#000000" fill-rule="evenodd" fill-opacity="1" /><path clip-path="url(#clip920)" d="M2274.65 679.7 L2279.54 679.7 L2279.54 685.58 L2274.65 685.58 L2274.65 679.7 Z" fill="#000000" fill-rule="evenodd" fill-opacity="1" /><path clip-path="url(#clip920)" d="M2299.72 654.099 Q2296.11 654.099 2294.28 657.663 Q2292.48 661.205 2292.48 668.335 Q2292.48 675.441 2294.28 679.006 Q2296.11 682.547 2299.72 682.547 Q2303.36 682.547 2305.16 679.006 Q2306.99 675.441 2306.99 668.335 Q2306.99 661.205 2305.16 657.663 Q2303.36 654.099 2299.72 654.099 M2299.72 650.395 Q2305.53 650.395 2308.59 655.001 Q2311.67 659.585 2311.67 668.335 Q2311.67 677.061 2308.59 681.668 Q2305.53 686.251 2299.72 686.251 Q2293.91 686.251 2290.84 681.668 Q2287.78 677.061 2287.78 668.335 Q2287.78 659.585 2290.84 655.001 Q2293.91 650.395 2299.72 650.395 Z" fill="#000000" fill-rule="evenodd" fill-opacity="1" /><path clip-path="url(#clip920)" d="M2329.89 654.099 Q2326.27 654.099 2324.45 657.663 Q2322.64 661.205 2322.64 668.335 Q2322.64 675.441 2324.45 679.006 Q2326.27 682.547 2329.89 682.547 Q2333.52 682.547 2335.33 679.006 Q2337.15 675.441 2337.15 668.335 Q2337.15 661.205 2335.33 657.663 Q2333.52 654.099 2329.89 654.099 M2329.89 650.395 Q2335.7 650.395 2338.75 655.001 Q2341.83 659.585 2341.83 668.335 Q2341.83 677.061 2338.75 681.668 Q2335.7 686.251 2329.89 686.251 Q2324.08 686.251 2321 681.668 Q2317.94 677.061 2317.94 668.335 Q2317.94 659.585 2321 655.001 Q2324.08 650.395 2329.89 650.395 Z" fill="#000000" fill-rule="evenodd" fill-opacity="1" /><path clip-path="url(#clip920)" d="M1317.76 732.396 L1304.87 749.742 L1318.43 768.044 L1311.53 768.044 L1301.15 754.039 L1290.77 768.044 L1283.87 768.044 L1297.71 749.392 L1285.04 732.396 L1291.95 732.396 L1301.4 745.095 L1310.86 732.396 L1317.76 732.396 Z" fill="#000000" fill-rule="evenodd" fill-opacity="1" /><polyline clip-path="url(#clip922)" style="stroke:#000000; stroke-linecap:butt; stroke-linejoin:round; stroke-width:2; stroke-opacity:0.1; fill:none" points="
  249.542,623.18 2352.76,623.18 
  "/>
<polyline clip-path="url(#clip922)" style="stroke:#000000; stroke-linecap:butt; stroke-linejoin:round; stroke-width:2; stroke-opacity:0.1; fill:none" points="
  249.542,523.238 2352.76,523.238 
  "/>
<polyline clip-path="url(#clip922)" style="stroke:#000000; stroke-linecap:butt; stroke-linejoin:round; stroke-width:2; stroke-opacity:0.1; fill:none" points="
  249.542,423.297 2352.76,423.297 
  "/>
<polyline clip-path="url(#clip922)" style="stroke:#000000; stroke-linecap:butt; stroke-linejoin:round; stroke-width:2; stroke-opacity:0.1; fill:none" points="
  249.542,323.355 2352.76,323.355 
  "/>
<polyline clip-path="url(#clip922)" style="stroke:#000000; stroke-linecap:butt; stroke-linejoin:round; stroke-width:2; stroke-opacity:0.1; fill:none" points="
  249.542,223.414 2352.76,223.414 
  "/>
<polyline clip-path="url(#clip922)" style="stroke:#000000; stroke-linecap:butt; stroke-linejoin:round; stroke-width:2; stroke-opacity:0.1; fill:none" points="
  249.542,123.472 2352.76,123.472 
  "/>
<polyline clip-path="url(#clip920)" style="stroke:#000000; stroke-linecap:butt; stroke-linejoin:round; stroke-width:4; stroke-opacity:1; fill:none" points="
  249.542,623.18 249.542,123.472 
  "/>
<polyline clip-path="url(#clip920)" style="stroke:#000000; stroke-linecap:butt; stroke-linejoin:round; stroke-width:4; stroke-opacity:1; fill:none" points="
  249.542,623.18 268.44,623.18 
  "/>
<polyline clip-path="url(#clip920)" style="stroke:#000000; stroke-linecap:butt; stroke-linejoin:round; stroke-width:4; stroke-opacity:1; fill:none" points="
  249.542,523.238 268.44,523.238 
  "/>
<polyline clip-path="url(#clip920)" style="stroke:#000000; stroke-linecap:butt; stroke-linejoin:round; stroke-width:4; stroke-opacity:1; fill:none" points="
  249.542,423.297 268.44,423.297 
  "/>
<polyline clip-path="url(#clip920)" style="stroke:#000000; stroke-linecap:butt; stroke-linejoin:round; stroke-width:4; stroke-opacity:1; fill:none" points="
  249.542,323.355 268.44,323.355 
  "/>
<polyline clip-path="url(#clip920)" style="stroke:#000000; stroke-linecap:butt; stroke-linejoin:round; stroke-width:4; stroke-opacity:1; fill:none" points="
  249.542,223.414 268.44,223.414 
  "/>
<polyline clip-path="url(#clip920)" style="stroke:#000000; stroke-linecap:butt; stroke-linejoin:round; stroke-width:4; stroke-opacity:1; fill:none" points="
  249.542,123.472 268.44,123.472 
  "/>
<path clip-path="url(#clip920)" d="M156.366 608.979 Q152.755 608.979 150.927 612.543 Q149.121 616.085 149.121 623.215 Q149.121 630.321 150.927 633.886 Q152.755 637.427 156.366 637.427 Q160.001 637.427 161.806 633.886 Q163.635 630.321 163.635 623.215 Q163.635 616.085 161.806 612.543 Q160.001 608.979 156.366 608.979 M156.366 605.275 Q162.177 605.275 165.232 609.881 Q168.311 614.465 168.311 623.215 Q168.311 631.941 165.232 636.548 Q162.177 641.131 156.366 641.131 Q150.556 641.131 147.478 636.548 Q144.422 631.941 144.422 623.215 Q144.422 614.465 147.478 609.881 Q150.556 605.275 156.366 605.275 Z" fill="#000000" fill-rule="evenodd" fill-opacity="1" /><path clip-path="url(#clip920)" d="M176.528 634.58 L181.413 634.58 L181.413 640.46 L176.528 640.46 L176.528 634.58 Z" fill="#000000" fill-rule="evenodd" fill-opacity="1" /><path clip-path="url(#clip920)" d="M201.598 608.979 Q197.987 608.979 196.158 612.543 Q194.352 616.085 194.352 623.215 Q194.352 630.321 196.158 633.886 Q197.987 637.427 201.598 637.427 Q205.232 637.427 207.037 633.886 Q208.866 630.321 208.866 623.215 Q208.866 616.085 207.037 612.543 Q205.232 608.979 201.598 608.979 M201.598 605.275 Q207.408 605.275 210.463 609.881 Q213.542 614.465 213.542 623.215 Q213.542 631.941 210.463 636.548 Q207.408 641.131 201.598 641.131 Q195.787 641.131 192.709 636.548 Q189.653 631.941 189.653 623.215 Q189.653 614.465 192.709 609.881 Q195.787 605.275 201.598 605.275 Z" fill="#000000" fill-rule="evenodd" fill-opacity="1" /><path clip-path="url(#clip920)" d="M157.964 509.037 Q154.353 509.037 152.524 512.602 Q150.718 516.143 150.718 523.273 Q150.718 530.379 152.524 533.944 Q154.353 537.486 157.964 537.486 Q161.598 537.486 163.403 533.944 Q165.232 530.379 165.232 523.273 Q165.232 516.143 163.403 512.602 Q161.598 509.037 157.964 509.037 M157.964 505.333 Q163.774 505.333 166.829 509.94 Q169.908 514.523 169.908 523.273 Q169.908 532 166.829 536.606 Q163.774 541.19 157.964 541.19 Q152.153 541.19 149.075 536.606 Q146.019 532 146.019 523.273 Q146.019 514.523 149.075 509.94 Q152.153 505.333 157.964 505.333 Z" fill="#000000" fill-rule="evenodd" fill-opacity="1" /><path clip-path="url(#clip920)" d="M178.126 534.639 L183.01 534.639 L183.01 540.518 L178.126 540.518 L178.126 534.639 Z" fill="#000000" fill-rule="evenodd" fill-opacity="1" /><path clip-path="url(#clip920)" d="M197.223 536.583 L213.542 536.583 L213.542 540.518 L191.598 540.518 L191.598 536.583 Q194.26 533.829 198.843 529.199 Q203.449 524.546 204.63 523.204 Q206.875 520.68 207.755 518.944 Q208.658 517.185 208.658 515.495 Q208.658 512.741 206.713 511.005 Q204.792 509.268 201.69 509.268 Q199.491 509.268 197.037 510.032 Q194.607 510.796 191.829 512.347 L191.829 507.625 Q194.653 506.491 197.107 505.912 Q199.561 505.333 201.598 505.333 Q206.968 505.333 210.162 508.018 Q213.357 510.704 213.357 515.194 Q213.357 517.324 212.547 519.245 Q211.76 521.143 209.653 523.736 Q209.074 524.407 205.973 527.625 Q202.871 530.819 197.223 536.583 Z" fill="#000000" fill-rule="evenodd" fill-opacity="1" /><path clip-path="url(#clip920)" d="M155.88 409.095 Q152.269 409.095 150.441 412.66 Q148.635 416.202 148.635 423.331 Q148.635 430.438 150.441 434.003 Q152.269 437.544 155.88 437.544 Q159.515 437.544 161.32 434.003 Q163.149 430.438 163.149 423.331 Q163.149 416.202 161.32 412.66 Q159.515 409.095 155.88 409.095 M155.88 405.392 Q161.69 405.392 164.746 409.998 Q167.825 414.582 167.825 423.331 Q167.825 432.058 164.746 436.665 Q161.69 441.248 155.88 441.248 Q150.07 441.248 146.991 436.665 Q143.936 432.058 143.936 423.331 Q143.936 414.582 146.991 409.998 Q150.07 405.392 155.88 405.392 Z" fill="#000000" fill-rule="evenodd" fill-opacity="1" /><path clip-path="url(#clip920)" d="M176.042 434.697 L180.926 434.697 L180.926 440.577 L176.042 440.577 L176.042 434.697 Z" fill="#000000" fill-rule="evenodd" fill-opacity="1" /><path clip-path="url(#clip920)" d="M203.959 410.091 L192.153 428.54 L203.959 428.54 L203.959 410.091 M202.732 406.017 L208.612 406.017 L208.612 428.54 L213.542 428.54 L213.542 432.429 L208.612 432.429 L208.612 440.577 L203.959 440.577 L203.959 432.429 L188.357 432.429 L188.357 427.915 L202.732 406.017 Z" fill="#000000" fill-rule="evenodd" fill-opacity="1" /><path clip-path="url(#clip920)" d="M156.204 309.154 Q152.593 309.154 150.765 312.719 Q148.959 316.26 148.959 323.39 Q148.959 330.496 150.765 334.061 Q152.593 337.603 156.204 337.603 Q159.839 337.603 161.644 334.061 Q163.473 330.496 163.473 323.39 Q163.473 316.26 161.644 312.719 Q159.839 309.154 156.204 309.154 M156.204 305.45 Q162.015 305.45 165.07 310.057 Q168.149 314.64 168.149 323.39 Q168.149 332.117 165.07 336.723 Q162.015 341.307 156.204 341.307 Q150.394 341.307 147.316 336.723 Q144.26 332.117 144.26 323.39 Q144.26 314.64 147.316 310.057 Q150.394 305.45 156.204 305.45 Z" fill="#000000" fill-rule="evenodd" fill-opacity="1" /><path clip-path="url(#clip920)" d="M176.366 334.756 L181.251 334.756 L181.251 340.635 L176.366 340.635 L176.366 334.756 Z" fill="#000000" fill-rule="evenodd" fill-opacity="1" /><path clip-path="url(#clip920)" d="M202.014 321.492 Q198.866 321.492 197.014 323.645 Q195.186 325.797 195.186 329.547 Q195.186 333.274 197.014 335.45 Q198.866 337.603 202.014 337.603 Q205.162 337.603 206.991 335.45 Q208.843 333.274 208.843 329.547 Q208.843 325.797 206.991 323.645 Q205.162 321.492 202.014 321.492 M211.297 306.839 L211.297 311.098 Q209.537 310.265 207.732 309.825 Q205.949 309.385 204.19 309.385 Q199.561 309.385 197.107 312.51 Q194.676 315.635 194.329 321.955 Q195.695 319.941 197.755 318.876 Q199.815 317.788 202.292 317.788 Q207.5 317.788 210.51 320.959 Q213.542 324.108 213.542 329.547 Q213.542 334.871 210.394 338.089 Q207.246 341.307 202.014 341.307 Q196.019 341.307 192.848 336.723 Q189.676 332.117 189.676 323.39 Q189.676 315.196 193.565 310.334 Q197.454 305.45 204.005 305.45 Q205.764 305.45 207.547 305.797 Q209.352 306.145 211.297 306.839 Z" fill="#000000" fill-rule="evenodd" fill-opacity="1" /><path clip-path="url(#clip920)" d="M156.459 209.212 Q152.848 209.212 151.019 212.777 Q149.214 216.319 149.214 223.448 Q149.214 230.555 151.019 234.12 Q152.848 237.661 156.459 237.661 Q160.093 237.661 161.899 234.12 Q163.727 230.555 163.727 223.448 Q163.727 216.319 161.899 212.777 Q160.093 209.212 156.459 209.212 M156.459 205.509 Q162.269 205.509 165.325 210.115 Q168.403 214.698 168.403 223.448 Q168.403 232.175 165.325 236.782 Q162.269 241.365 156.459 241.365 Q150.649 241.365 147.57 236.782 Q144.515 232.175 144.515 223.448 Q144.515 214.698 147.57 210.115 Q150.649 205.509 156.459 205.509 Z" fill="#000000" fill-rule="evenodd" fill-opacity="1" /><path clip-path="url(#clip920)" d="M176.621 234.814 L181.505 234.814 L181.505 240.694 L176.621 240.694 L176.621 234.814 Z" fill="#000000" fill-rule="evenodd" fill-opacity="1" /><path clip-path="url(#clip920)" d="M201.69 224.282 Q198.357 224.282 196.436 226.064 Q194.538 227.847 194.538 230.971 Q194.538 234.096 196.436 235.879 Q198.357 237.661 201.69 237.661 Q205.024 237.661 206.945 235.879 Q208.866 234.073 208.866 230.971 Q208.866 227.847 206.945 226.064 Q205.047 224.282 201.69 224.282 M197.014 222.291 Q194.005 221.55 192.315 219.49 Q190.649 217.43 190.649 214.467 Q190.649 210.323 193.588 207.916 Q196.551 205.509 201.69 205.509 Q206.852 205.509 209.792 207.916 Q212.732 210.323 212.732 214.467 Q212.732 217.43 211.042 219.49 Q209.375 221.55 206.389 222.291 Q209.769 223.078 211.644 225.37 Q213.542 227.661 213.542 230.971 Q213.542 235.995 210.463 238.68 Q207.408 241.365 201.69 241.365 Q195.973 241.365 192.894 238.68 Q189.838 235.995 189.838 230.971 Q189.838 227.661 191.737 225.37 Q193.635 223.078 197.014 222.291 M195.301 214.907 Q195.301 217.592 196.968 219.097 Q198.658 220.601 201.69 220.601 Q204.699 220.601 206.389 219.097 Q208.102 217.592 208.102 214.907 Q208.102 212.222 206.389 210.717 Q204.699 209.212 201.69 209.212 Q198.658 209.212 196.968 210.717 Q195.301 212.222 195.301 214.907 Z" fill="#000000" fill-rule="evenodd" fill-opacity="1" /><path clip-path="url(#clip920)" d="M147.177 136.817 L154.815 136.817 L154.815 110.451 L146.505 112.118 L146.505 107.859 L154.769 106.192 L159.445 106.192 L159.445 136.817 L167.084 136.817 L167.084 140.752 L147.177 140.752 L147.177 136.817 Z" fill="#000000" fill-rule="evenodd" fill-opacity="1" /><path clip-path="url(#clip920)" d="M176.528 134.873 L181.413 134.873 L181.413 140.752 L176.528 140.752 L176.528 134.873 Z" fill="#000000" fill-rule="evenodd" fill-opacity="1" /><path clip-path="url(#clip920)" d="M201.598 109.271 Q197.987 109.271 196.158 112.836 Q194.352 116.377 194.352 123.507 Q194.352 130.613 196.158 134.178 Q197.987 137.72 201.598 137.72 Q205.232 137.72 207.037 134.178 Q208.866 130.613 208.866 123.507 Q208.866 116.377 207.037 112.836 Q205.232 109.271 201.598 109.271 M201.598 105.567 Q207.408 105.567 210.463 110.174 Q213.542 114.757 213.542 123.507 Q213.542 132.234 210.463 136.84 Q207.408 141.423 201.598 141.423 Q195.787 141.423 192.709 136.84 Q189.653 132.234 189.653 123.507 Q189.653 114.757 192.709 110.174 Q195.787 105.567 201.598 105.567 Z" fill="#000000" fill-rule="evenodd" fill-opacity="1" /><path clip-path="url(#clip920)" d="M96.9901 371.639 Q103.356 374.122 105.297 376.477 Q107.239 378.832 107.239 382.779 L107.239 387.458 L102.337 387.458 L102.337 384.02 Q102.337 381.601 101.191 380.265 Q100.046 378.928 95.7806 377.305 L93.107 376.254 L58.032 390.673 L58.032 384.466 L85.9138 373.326 L58.032 362.186 L58.032 355.979 L96.9901 371.639 Z" fill="#000000" fill-rule="evenodd" fill-opacity="1" /><path clip-path="url(#clip920)" d="M1172.41 14.324 L1172.41 27.2059 L1187.76 27.2059 L1187.76 32.9987 L1172.41 32.9987 L1172.41 57.6282 Q1172.41 63.1779 1173.91 64.7578 Q1175.45 66.3376 1180.11 66.3376 L1187.76 66.3376 L1187.76 72.576 L1180.11 72.576 Q1171.48 72.576 1168.2 69.3758 Q1164.92 66.1351 1164.92 57.6282 L1164.92 32.9987 L1159.45 32.9987 L1159.45 27.2059 L1164.92 27.2059 L1164.92 14.324 L1172.41 14.324 Z" fill="#000000" fill-rule="evenodd" fill-opacity="1" /><path clip-path="url(#clip920)" d="M1223.86 34.1734 Q1222.6 33.4443 1221.1 33.1202 Q1219.64 32.7556 1217.86 32.7556 Q1211.54 32.7556 1208.14 36.8875 Q1204.78 40.9789 1204.78 48.6757 L1204.78 72.576 L1197.28 72.576 L1197.28 27.2059 L1204.78 27.2059 L1204.78 34.2544 Q1207.13 30.1225 1210.89 28.1376 Q1214.66 26.1121 1220.05 26.1121 Q1220.82 26.1121 1221.75 26.2337 Q1222.68 26.3147 1223.82 26.5172 L1223.86 34.1734 Z" fill="#000000" fill-rule="evenodd" fill-opacity="1" /><path clip-path="url(#clip920)" d="M1252.3 49.7694 Q1243.26 49.7694 1239.78 51.8354 Q1236.29 53.9013 1236.29 58.8839 Q1236.29 62.8538 1238.89 65.2034 Q1241.52 67.5124 1246.02 67.5124 Q1252.21 67.5124 1255.94 63.1374 Q1259.71 58.7219 1259.71 51.4303 L1259.71 49.7694 L1252.3 49.7694 M1267.16 46.6907 L1267.16 72.576 L1259.71 72.576 L1259.71 65.6895 Q1257.16 69.8214 1253.35 71.8063 Q1249.54 73.7508 1244.03 73.7508 Q1237.06 73.7508 1232.93 69.8619 Q1228.84 65.9325 1228.84 59.3701 Q1228.84 51.7138 1233.94 47.825 Q1239.09 43.9361 1249.26 43.9361 L1259.71 43.9361 L1259.71 43.2069 Q1259.71 38.0623 1256.31 35.2672 Q1252.94 32.4315 1246.83 32.4315 Q1242.94 32.4315 1239.25 33.3632 Q1235.56 34.295 1232.16 36.1584 L1232.16 29.2718 Q1236.25 27.692 1240.1 26.9223 Q1243.95 26.1121 1247.6 26.1121 Q1257.44 26.1121 1262.3 31.2163 Q1267.16 36.3204 1267.16 46.6907 Z" fill="#000000" fill-rule="evenodd" fill-opacity="1" /><path clip-path="url(#clip920)" d="M1315.17 28.9478 L1315.17 35.9153 Q1312.01 34.1734 1308.81 33.3227 Q1305.65 32.4315 1302.4 32.4315 Q1295.15 32.4315 1291.14 37.0496 Q1287.13 41.6271 1287.13 49.9314 Q1287.13 58.2358 1291.14 62.8538 Q1295.15 67.4314 1302.4 67.4314 Q1305.65 67.4314 1308.81 66.5807 Q1312.01 65.6895 1315.17 63.9476 L1315.17 70.8341 Q1312.05 72.2924 1308.68 73.0216 Q1305.36 73.7508 1301.59 73.7508 Q1291.35 73.7508 1285.31 67.3098 Q1279.27 60.8689 1279.27 49.9314 Q1279.27 38.832 1285.35 32.472 Q1291.47 26.1121 1302.08 26.1121 Q1305.52 26.1121 1308.81 26.8413 Q1312.09 27.5299 1315.17 28.9478 Z" fill="#000000" fill-rule="evenodd" fill-opacity="1" /><path clip-path="url(#clip920)" d="M1366.94 48.0275 L1366.94 51.6733 L1332.67 51.6733 Q1333.15 59.3701 1337.28 63.421 Q1341.46 67.4314 1348.87 67.4314 Q1353.16 67.4314 1357.17 66.3781 Q1361.22 65.3249 1365.19 63.2184 L1365.19 70.267 Q1361.18 71.9684 1356.97 72.8596 Q1352.76 73.7508 1348.42 73.7508 Q1337.57 73.7508 1331.21 67.4314 Q1324.89 61.1119 1324.89 50.3365 Q1324.89 39.1965 1330.88 32.6746 Q1336.92 26.1121 1347.13 26.1121 Q1356.28 26.1121 1361.59 32.0264 Q1366.94 37.9003 1366.94 48.0275 M1359.48 45.84 Q1359.4 39.7232 1356.04 36.0774 Q1352.72 32.4315 1347.21 32.4315 Q1340.97 32.4315 1337.2 35.9558 Q1333.48 39.4801 1332.91 45.8805 L1359.48 45.84 M1352.31 6.22219 L1360.37 6.22219 L1347.17 21.4536 L1340.97 21.4536 L1352.31 6.22219 Z" fill="#000000" fill-rule="evenodd" fill-opacity="1" /><path clip-path="url(#clip920)" d="M1408.01 65.6895 L1421.38 65.6895 L1421.38 19.5497 L1406.84 22.4663 L1406.84 15.0127 L1421.3 12.096 L1429.48 12.096 L1429.48 65.6895 L1442.85 65.6895 L1442.85 72.576 L1408.01 72.576 L1408.01 65.6895 Z" fill="#000000" fill-rule="evenodd" fill-opacity="1" /><polyline clip-path="url(#clip922)" style="stroke:#008000; stroke-linecap:butt; stroke-linejoin:round; stroke-width:8; stroke-opacity:1; fill:none" points="
  309.067,623.18 329.109,618.132 349.151,613.085 369.193,608.04 389.235,602.995 409.277,597.953 429.319,592.913 449.361,587.876 469.403,582.843 489.446,577.814 
  509.488,572.79 529.53,567.771 549.572,562.757 569.614,557.75 589.656,552.749 609.698,547.756 629.74,542.77 649.782,537.793 669.824,532.824 689.866,527.864 
  709.908,522.914 729.95,517.974 749.992,513.045 770.034,508.128 790.076,503.222 810.118,498.328 830.161,493.447 850.203,488.579 870.245,483.725 890.287,478.885 
  910.329,474.06 930.371,469.25 950.413,464.456 970.455,459.678 990.497,454.917 1010.54,450.173 1030.58,445.446 1050.62,440.738 1070.67,436.048 1090.71,431.378 
  1110.75,426.726 1130.79,422.095 1150.83,417.485 1170.88,412.895 1190.92,408.327 1210.96,403.781 1231,399.257 1251.04,394.757 1271.09,390.279 1291.13,385.825 
  1311.17,381.395 1331.21,376.99 1351.25,372.611 1371.3,368.256 1391.34,363.928 1411.38,359.626 1431.42,355.351 1451.46,351.104 1471.51,346.884 1491.55,342.692 
  1511.59,338.529 1531.63,334.395 1551.67,330.291 1571.72,326.216 1591.76,322.172 1611.8,318.158 1631.84,314.176 1651.89,310.225 1671.93,306.306 1691.97,302.419 
  1712.01,298.565 1732.05,294.744 1752.1,290.957 1772.14,287.203 1792.18,283.484 1812.22,279.8 1832.26,276.15 1852.31,272.536 1872.35,268.958 1892.39,265.416 
  1912.43,261.91 1932.47,258.441 1952.52,255.009 1972.56,251.615 1992.6,248.259 2012.64,244.941 2032.68,241.662 2052.73,238.422 2072.77,235.221 2092.81,232.059 
  2112.85,228.938 2132.89,225.856 2152.94,222.816 2172.98,219.816 2193.02,216.857 2213.06,213.939 2233.1,211.064 2253.15,208.23 2273.19,205.439 2293.23,202.69 
  
  "/>
<path clip-path="url(#clip920)" d="
M1996.53 243.809 L2282.65 243.809 L2282.65 140.129 L1996.53 140.129  Z
  " fill="#ffffff" fill-rule="evenodd" fill-opacity="1"/>
<polyline clip-path="url(#clip920)" style="stroke:#000000; stroke-linecap:butt; stroke-linejoin:round; stroke-width:4; stroke-opacity:1; fill:none" points="
  1996.53,243.809 2282.65,243.809 2282.65,140.129 1996.53,140.129 1996.53,243.809 
  "/>
<polyline clip-path="url(#clip920)" style="stroke:#008000; stroke-linecap:butt; stroke-linejoin:round; stroke-width:4; stroke-opacity:1; fill:none" points="
  2019.9,191.969 2160.11,191.969 
  "/>
<path clip-path="url(#clip920)" d="M2197.32 211.656 Q2195.52 216.286 2193.8 217.698 Q2192.09 219.11 2189.22 219.11 L2185.82 219.11 L2185.82 215.545 L2188.32 215.545 Q2190.08 215.545 2191.05 214.712 Q2192.02 213.879 2193.2 210.777 L2193.97 208.832 L2183.48 183.323 L2187.99 183.323 L2196.1 203.601 L2204.2 183.323 L2208.71 183.323 L2197.32 211.656 Z" fill="#000000" fill-rule="evenodd" fill-opacity="1" /><path clip-path="url(#clip920)" d="M2216 205.314 L2223.64 205.314 L2223.64 178.948 L2215.33 180.615 L2215.33 176.356 L2223.6 174.689 L2228.27 174.689 L2228.27 205.314 L2235.91 205.314 L2235.91 209.249 L2216 209.249 L2216 205.314 Z" fill="#000000" fill-rule="evenodd" fill-opacity="1" /><path clip-path="url(#clip920)" d="
M249.542 1423.18 L2352.76 1423.18 L2352.76 923.472 L249.542 923.472  Z
  " fill="#ffffff" fill-rule="evenodd" fill-opacity="1"/>
<defs>
  <clipPath id="clip923">
    <rect x="249" y="923" width="2104" height="501"/>
  </clipPath>
</defs>
<polyline clip-path="url(#clip923)" style="stroke:#000000; stroke-linecap:butt; stroke-linejoin:round; stroke-width:2; stroke-opacity:0.1; fill:none" points="
  309.067,1423.18 309.067,923.472 
  "/>
<polyline clip-path="url(#clip923)" style="stroke:#000000; stroke-linecap:butt; stroke-linejoin:round; stroke-width:2; stroke-opacity:0.1; fill:none" points="
  805.108,1423.18 805.108,923.472 
  "/>
<polyline clip-path="url(#clip923)" style="stroke:#000000; stroke-linecap:butt; stroke-linejoin:round; stroke-width:2; stroke-opacity:0.1; fill:none" points="
  1301.15,1423.18 1301.15,923.472 
  "/>
<polyline clip-path="url(#clip923)" style="stroke:#000000; stroke-linecap:butt; stroke-linejoin:round; stroke-width:2; stroke-opacity:0.1; fill:none" points="
  1797.19,1423.18 1797.19,923.472 
  "/>
<polyline clip-path="url(#clip923)" style="stroke:#000000; stroke-linecap:butt; stroke-linejoin:round; stroke-width:2; stroke-opacity:0.1; fill:none" points="
  2293.23,1423.18 2293.23,923.472 
  "/>
<polyline clip-path="url(#clip920)" style="stroke:#000000; stroke-linecap:butt; stroke-linejoin:round; stroke-width:4; stroke-opacity:1; fill:none" points="
  249.542,1423.18 2352.76,1423.18 
  "/>
<polyline clip-path="url(#clip920)" style="stroke:#000000; stroke-linecap:butt; stroke-linejoin:round; stroke-width:4; stroke-opacity:1; fill:none" points="
  309.067,1423.18 309.067,1404.28 
  "/>
<polyline clip-path="url(#clip920)" style="stroke:#000000; stroke-linecap:butt; stroke-linejoin:round; stroke-width:4; stroke-opacity:1; fill:none" points="
  805.108,1423.18 805.108,1404.28 
  "/>
<polyline clip-path="url(#clip920)" style="stroke:#000000; stroke-linecap:butt; stroke-linejoin:round; stroke-width:4; stroke-opacity:1; fill:none" points="
  1301.15,1423.18 1301.15,1404.28 
  "/>
<polyline clip-path="url(#clip920)" style="stroke:#000000; stroke-linecap:butt; stroke-linejoin:round; stroke-width:4; stroke-opacity:1; fill:none" points="
  1797.19,1423.18 1797.19,1404.28 
  "/>
<polyline clip-path="url(#clip920)" style="stroke:#000000; stroke-linecap:butt; stroke-linejoin:round; stroke-width:4; stroke-opacity:1; fill:none" points="
  2293.23,1423.18 2293.23,1404.28 
  "/>
<path clip-path="url(#clip920)" d="M271.37 1454.1 Q267.759 1454.1 265.931 1457.66 Q264.125 1461.2 264.125 1468.33 Q264.125 1475.44 265.931 1479.01 Q267.759 1482.55 271.37 1482.55 Q275.005 1482.55 276.81 1479.01 Q278.639 1475.44 278.639 1468.33 Q278.639 1461.2 276.81 1457.66 Q275.005 1454.1 271.37 1454.1 M271.37 1450.39 Q277.181 1450.39 280.236 1455 Q283.315 1459.58 283.315 1468.33 Q283.315 1477.06 280.236 1481.67 Q277.181 1486.25 271.37 1486.25 Q265.56 1486.25 262.482 1481.67 Q259.426 1477.06 259.426 1468.33 Q259.426 1459.58 262.482 1455 Q265.56 1450.39 271.37 1450.39 Z" fill="#000000" fill-rule="evenodd" fill-opacity="1" /><path clip-path="url(#clip920)" d="M291.532 1479.7 L296.417 1479.7 L296.417 1485.58 L291.532 1485.58 L291.532 1479.7 Z" fill="#000000" fill-rule="evenodd" fill-opacity="1" /><path clip-path="url(#clip920)" d="M316.602 1454.1 Q312.991 1454.1 311.162 1457.66 Q309.356 1461.2 309.356 1468.33 Q309.356 1475.44 311.162 1479.01 Q312.991 1482.55 316.602 1482.55 Q320.236 1482.55 322.041 1479.01 Q323.87 1475.44 323.87 1468.33 Q323.87 1461.2 322.041 1457.66 Q320.236 1454.1 316.602 1454.1 M316.602 1450.39 Q322.412 1450.39 325.467 1455 Q328.546 1459.58 328.546 1468.33 Q328.546 1477.06 325.467 1481.67 Q322.412 1486.25 316.602 1486.25 Q310.791 1486.25 307.713 1481.67 Q304.657 1477.06 304.657 1468.33 Q304.657 1459.58 307.713 1455 Q310.791 1450.39 316.602 1450.39 Z" fill="#000000" fill-rule="evenodd" fill-opacity="1" /><path clip-path="url(#clip920)" d="M346.764 1454.1 Q343.152 1454.1 341.324 1457.66 Q339.518 1461.2 339.518 1468.33 Q339.518 1475.44 341.324 1479.01 Q343.152 1482.55 346.764 1482.55 Q350.398 1482.55 352.203 1479.01 Q354.032 1475.44 354.032 1468.33 Q354.032 1461.2 352.203 1457.66 Q350.398 1454.1 346.764 1454.1 M346.764 1450.39 Q352.574 1450.39 355.629 1455 Q358.708 1459.58 358.708 1468.33 Q358.708 1477.06 355.629 1481.67 Q352.574 1486.25 346.764 1486.25 Q340.953 1486.25 337.875 1481.67 Q334.819 1477.06 334.819 1468.33 Q334.819 1459.58 337.875 1455 Q340.953 1450.39 346.764 1450.39 Z" fill="#000000" fill-rule="evenodd" fill-opacity="1" /><path clip-path="url(#clip920)" d="M767.909 1454.1 Q764.298 1454.1 762.469 1457.66 Q760.664 1461.2 760.664 1468.33 Q760.664 1475.44 762.469 1479.01 Q764.298 1482.55 767.909 1482.55 Q771.543 1482.55 773.349 1479.01 Q775.178 1475.44 775.178 1468.33 Q775.178 1461.2 773.349 1457.66 Q771.543 1454.1 767.909 1454.1 M767.909 1450.39 Q773.719 1450.39 776.775 1455 Q779.853 1459.58 779.853 1468.33 Q779.853 1477.06 776.775 1481.67 Q773.719 1486.25 767.909 1486.25 Q762.099 1486.25 759.02 1481.67 Q755.965 1477.06 755.965 1468.33 Q755.965 1459.58 759.02 1455 Q762.099 1450.39 767.909 1450.39 Z" fill="#000000" fill-rule="evenodd" fill-opacity="1" /><path clip-path="url(#clip920)" d="M788.071 1479.7 L792.955 1479.7 L792.955 1485.58 L788.071 1485.58 L788.071 1479.7 Z" fill="#000000" fill-rule="evenodd" fill-opacity="1" /><path clip-path="url(#clip920)" d="M807.168 1481.64 L823.487 1481.64 L823.487 1485.58 L801.543 1485.58 L801.543 1481.64 Q804.205 1478.89 808.788 1474.26 Q813.395 1469.61 814.576 1468.27 Q816.821 1465.74 817.7 1464.01 Q818.603 1462.25 818.603 1460.56 Q818.603 1457.8 816.659 1456.07 Q814.738 1454.33 811.636 1454.33 Q809.437 1454.33 806.983 1455.09 Q804.552 1455.86 801.775 1457.41 L801.775 1452.69 Q804.599 1451.55 807.052 1450.97 Q809.506 1450.39 811.543 1450.39 Q816.913 1450.39 820.108 1453.08 Q823.302 1455.77 823.302 1460.26 Q823.302 1462.39 822.492 1464.31 Q821.705 1466.2 819.599 1468.8 Q819.02 1469.47 815.918 1472.69 Q812.816 1475.88 807.168 1481.64 Z" fill="#000000" fill-rule="evenodd" fill-opacity="1" /><path clip-path="url(#clip920)" d="M833.349 1451.02 L851.705 1451.02 L851.705 1454.96 L837.631 1454.96 L837.631 1463.43 Q838.649 1463.08 839.668 1462.92 Q840.686 1462.73 841.705 1462.73 Q847.492 1462.73 850.872 1465.9 Q854.251 1469.08 854.251 1474.49 Q854.251 1480.07 850.779 1483.17 Q847.307 1486.25 840.987 1486.25 Q838.811 1486.25 836.543 1485.88 Q834.298 1485.51 831.89 1484.77 L831.89 1480.07 Q833.974 1481.2 836.196 1481.76 Q838.418 1482.32 840.895 1482.32 Q844.899 1482.32 847.237 1480.21 Q849.575 1478.1 849.575 1474.49 Q849.575 1470.88 847.237 1468.77 Q844.899 1466.67 840.895 1466.67 Q839.02 1466.67 837.145 1467.08 Q835.293 1467.5 833.349 1468.38 L833.349 1451.02 Z" fill="#000000" fill-rule="evenodd" fill-opacity="1" /><path clip-path="url(#clip920)" d="M1263.45 1454.1 Q1259.84 1454.1 1258.01 1457.66 Q1256.21 1461.2 1256.21 1468.33 Q1256.21 1475.44 1258.01 1479.01 Q1259.84 1482.55 1263.45 1482.55 Q1267.09 1482.55 1268.89 1479.01 Q1270.72 1475.44 1270.72 1468.33 Q1270.72 1461.2 1268.89 1457.66 Q1267.09 1454.1 1263.45 1454.1 M1263.45 1450.39 Q1269.26 1450.39 1272.32 1455 Q1275.4 1459.58 1275.4 1468.33 Q1275.4 1477.06 1272.32 1481.67 Q1269.26 1486.25 1263.45 1486.25 Q1257.64 1486.25 1254.56 1481.67 Q1251.51 1477.06 1251.51 1468.33 Q1251.51 1459.58 1254.56 1455 Q1257.64 1450.39 1263.45 1450.39 Z" fill="#000000" fill-rule="evenodd" fill-opacity="1" /><path clip-path="url(#clip920)" d="M1283.61 1479.7 L1288.5 1479.7 L1288.5 1485.58 L1283.61 1485.58 L1283.61 1479.7 Z" fill="#000000" fill-rule="evenodd" fill-opacity="1" /><path clip-path="url(#clip920)" d="M1298.73 1451.02 L1317.09 1451.02 L1317.09 1454.96 L1303.01 1454.96 L1303.01 1463.43 Q1304.03 1463.08 1305.05 1462.92 Q1306.07 1462.73 1307.09 1462.73 Q1312.87 1462.73 1316.25 1465.9 Q1319.63 1469.08 1319.63 1474.49 Q1319.63 1480.07 1316.16 1483.17 Q1312.69 1486.25 1306.37 1486.25 Q1304.19 1486.25 1301.92 1485.88 Q1299.68 1485.51 1297.27 1484.77 L1297.27 1480.07 Q1299.35 1481.2 1301.58 1481.76 Q1303.8 1482.32 1306.28 1482.32 Q1310.28 1482.32 1312.62 1480.21 Q1314.96 1478.1 1314.96 1474.49 Q1314.96 1470.88 1312.62 1468.77 Q1310.28 1466.67 1306.28 1466.67 Q1304.4 1466.67 1302.53 1467.08 Q1300.67 1467.5 1298.73 1468.38 L1298.73 1451.02 Z" fill="#000000" fill-rule="evenodd" fill-opacity="1" /><path clip-path="url(#clip920)" d="M1338.85 1454.1 Q1335.23 1454.1 1333.41 1457.66 Q1331.6 1461.2 1331.6 1468.33 Q1331.6 1475.44 1333.41 1479.01 Q1335.23 1482.55 1338.85 1482.55 Q1342.48 1482.55 1344.29 1479.01 Q1346.11 1475.44 1346.11 1468.33 Q1346.11 1461.2 1344.29 1457.66 Q1342.48 1454.1 1338.85 1454.1 M1338.85 1450.39 Q1344.66 1450.39 1347.71 1455 Q1350.79 1459.58 1350.79 1468.33 Q1350.79 1477.06 1347.71 1481.67 Q1344.66 1486.25 1338.85 1486.25 Q1333.04 1486.25 1329.96 1481.67 Q1326.9 1477.06 1326.9 1468.33 Q1326.9 1459.58 1329.96 1455 Q1333.04 1450.39 1338.85 1450.39 Z" fill="#000000" fill-rule="evenodd" fill-opacity="1" /><path clip-path="url(#clip920)" d="M1759.99 1454.1 Q1756.38 1454.1 1754.55 1457.66 Q1752.75 1461.2 1752.75 1468.33 Q1752.75 1475.44 1754.55 1479.01 Q1756.38 1482.55 1759.99 1482.55 Q1763.63 1482.55 1765.43 1479.01 Q1767.26 1475.44 1767.26 1468.33 Q1767.26 1461.2 1765.43 1457.66 Q1763.63 1454.1 1759.99 1454.1 M1759.99 1450.39 Q1765.8 1450.39 1768.86 1455 Q1771.94 1459.58 1771.94 1468.33 Q1771.94 1477.06 1768.86 1481.67 Q1765.8 1486.25 1759.99 1486.25 Q1754.18 1486.25 1751.1 1481.67 Q1748.05 1477.06 1748.05 1468.33 Q1748.05 1459.58 1751.1 1455 Q1754.18 1450.39 1759.99 1450.39 Z" fill="#000000" fill-rule="evenodd" fill-opacity="1" /><path clip-path="url(#clip920)" d="M1780.15 1479.7 L1785.04 1479.7 L1785.04 1485.58 L1780.15 1485.58 L1780.15 1479.7 Z" fill="#000000" fill-rule="evenodd" fill-opacity="1" /><path clip-path="url(#clip920)" d="M1794.04 1451.02 L1816.26 1451.02 L1816.26 1453.01 L1803.72 1485.58 L1798.83 1485.58 L1810.64 1454.96 L1794.04 1454.96 L1794.04 1451.02 Z" fill="#000000" fill-rule="evenodd" fill-opacity="1" /><path clip-path="url(#clip920)" d="M1825.43 1451.02 L1843.79 1451.02 L1843.79 1454.96 L1829.71 1454.96 L1829.71 1463.43 Q1830.73 1463.08 1831.75 1462.92 Q1832.77 1462.73 1833.79 1462.73 Q1839.57 1462.73 1842.95 1465.9 Q1846.33 1469.08 1846.33 1474.49 Q1846.33 1480.07 1842.86 1483.17 Q1839.39 1486.25 1833.07 1486.25 Q1830.89 1486.25 1828.62 1485.88 Q1826.38 1485.51 1823.97 1484.77 L1823.97 1480.07 Q1826.06 1481.2 1828.28 1481.76 Q1830.5 1482.32 1832.98 1482.32 Q1836.98 1482.32 1839.32 1480.21 Q1841.66 1478.1 1841.66 1474.49 Q1841.66 1470.88 1839.32 1468.77 Q1836.98 1466.67 1832.98 1466.67 Q1831.1 1466.67 1829.23 1467.08 Q1827.38 1467.5 1825.43 1468.38 L1825.43 1451.02 Z" fill="#000000" fill-rule="evenodd" fill-opacity="1" /><path clip-path="url(#clip920)" d="M2245.3 1481.64 L2252.94 1481.64 L2252.94 1455.28 L2244.63 1456.95 L2244.63 1452.69 L2252.9 1451.02 L2257.57 1451.02 L2257.57 1481.64 L2265.21 1481.64 L2265.21 1485.58 L2245.3 1485.58 L2245.3 1481.64 Z" fill="#000000" fill-rule="evenodd" fill-opacity="1" /><path clip-path="url(#clip920)" d="M2274.65 1479.7 L2279.54 1479.7 L2279.54 1485.58 L2274.65 1485.58 L2274.65 1479.7 Z" fill="#000000" fill-rule="evenodd" fill-opacity="1" /><path clip-path="url(#clip920)" d="M2299.72 1454.1 Q2296.11 1454.1 2294.28 1457.66 Q2292.48 1461.2 2292.48 1468.33 Q2292.48 1475.44 2294.28 1479.01 Q2296.11 1482.55 2299.72 1482.55 Q2303.36 1482.55 2305.16 1479.01 Q2306.99 1475.44 2306.99 1468.33 Q2306.99 1461.2 2305.16 1457.66 Q2303.36 1454.1 2299.72 1454.1 M2299.72 1450.39 Q2305.53 1450.39 2308.59 1455 Q2311.67 1459.58 2311.67 1468.33 Q2311.67 1477.06 2308.59 1481.67 Q2305.53 1486.25 2299.72 1486.25 Q2293.91 1486.25 2290.84 1481.67 Q2287.78 1477.06 2287.78 1468.33 Q2287.78 1459.58 2290.84 1455 Q2293.91 1450.39 2299.72 1450.39 Z" fill="#000000" fill-rule="evenodd" fill-opacity="1" /><path clip-path="url(#clip920)" d="M2329.89 1454.1 Q2326.27 1454.1 2324.45 1457.66 Q2322.64 1461.2 2322.64 1468.33 Q2322.64 1475.44 2324.45 1479.01 Q2326.27 1482.55 2329.89 1482.55 Q2333.52 1482.55 2335.33 1479.01 Q2337.15 1475.44 2337.15 1468.33 Q2337.15 1461.2 2335.33 1457.66 Q2333.52 1454.1 2329.89 1454.1 M2329.89 1450.39 Q2335.7 1450.39 2338.75 1455 Q2341.83 1459.58 2341.83 1468.33 Q2341.83 1477.06 2338.75 1481.67 Q2335.7 1486.25 2329.89 1486.25 Q2324.08 1486.25 2321 1481.67 Q2317.94 1477.06 2317.94 1468.33 Q2317.94 1459.58 2321 1455 Q2324.08 1450.39 2329.89 1450.39 Z" fill="#000000" fill-rule="evenodd" fill-opacity="1" /><path clip-path="url(#clip920)" d="M1317.76 1532.4 L1304.87 1549.74 L1318.43 1568.04 L1311.53 1568.04 L1301.15 1554.04 L1290.77 1568.04 L1283.87 1568.04 L1297.71 1549.39 L1285.04 1532.4 L1291.95 1532.4 L1301.4 1545.1 L1310.86 1532.4 L1317.76 1532.4 Z" fill="#000000" fill-rule="evenodd" fill-opacity="1" /><polyline clip-path="url(#clip923)" style="stroke:#000000; stroke-linecap:butt; stroke-linejoin:round; stroke-width:2; stroke-opacity:0.1; fill:none" points="
  249.542,1409.04 2352.76,1409.04 
  "/>
<polyline clip-path="url(#clip923)" style="stroke:#000000; stroke-linecap:butt; stroke-linejoin:round; stroke-width:2; stroke-opacity:0.1; fill:none" points="
  249.542,1291.18 2352.76,1291.18 
  "/>
<polyline clip-path="url(#clip923)" style="stroke:#000000; stroke-linecap:butt; stroke-linejoin:round; stroke-width:2; stroke-opacity:0.1; fill:none" points="
  249.542,1173.33 2352.76,1173.33 
  "/>
<polyline clip-path="url(#clip923)" style="stroke:#000000; stroke-linecap:butt; stroke-linejoin:round; stroke-width:2; stroke-opacity:0.1; fill:none" points="
  249.542,1055.47 2352.76,1055.47 
  "/>
<polyline clip-path="url(#clip923)" style="stroke:#000000; stroke-linecap:butt; stroke-linejoin:round; stroke-width:2; stroke-opacity:0.1; fill:none" points="
  249.542,937.615 2352.76,937.615 
  "/>
<polyline clip-path="url(#clip920)" style="stroke:#000000; stroke-linecap:butt; stroke-linejoin:round; stroke-width:4; stroke-opacity:1; fill:none" points="
  249.542,1423.18 249.542,923.472 
  "/>
<polyline clip-path="url(#clip920)" style="stroke:#000000; stroke-linecap:butt; stroke-linejoin:round; stroke-width:4; stroke-opacity:1; fill:none" points="
  249.542,1409.04 268.44,1409.04 
  "/>
<polyline clip-path="url(#clip920)" style="stroke:#000000; stroke-linecap:butt; stroke-linejoin:round; stroke-width:4; stroke-opacity:1; fill:none" points="
  249.542,1291.18 268.44,1291.18 
  "/>
<polyline clip-path="url(#clip920)" style="stroke:#000000; stroke-linecap:butt; stroke-linejoin:round; stroke-width:4; stroke-opacity:1; fill:none" points="
  249.542,1173.33 268.44,1173.33 
  "/>
<polyline clip-path="url(#clip920)" style="stroke:#000000; stroke-linecap:butt; stroke-linejoin:round; stroke-width:4; stroke-opacity:1; fill:none" points="
  249.542,1055.47 268.44,1055.47 
  "/>
<polyline clip-path="url(#clip920)" style="stroke:#000000; stroke-linecap:butt; stroke-linejoin:round; stroke-width:4; stroke-opacity:1; fill:none" points="
  249.542,937.615 268.44,937.615 
  "/>
<path clip-path="url(#clip920)" d="M126.205 1394.84 Q122.593 1394.84 120.765 1398.4 Q118.959 1401.94 118.959 1409.07 Q118.959 1416.18 120.765 1419.74 Q122.593 1423.28 126.205 1423.28 Q129.839 1423.28 131.644 1419.74 Q133.473 1416.18 133.473 1409.07 Q133.473 1401.94 131.644 1398.4 Q129.839 1394.84 126.205 1394.84 M126.205 1391.13 Q132.015 1391.13 135.07 1395.74 Q138.149 1400.32 138.149 1409.07 Q138.149 1417.8 135.07 1422.41 Q132.015 1426.99 126.205 1426.99 Q120.394 1426.99 117.316 1422.41 Q114.26 1417.8 114.26 1409.07 Q114.26 1400.32 117.316 1395.74 Q120.394 1391.13 126.205 1391.13 Z" fill="#000000" fill-rule="evenodd" fill-opacity="1" /><path clip-path="url(#clip920)" d="M146.366 1420.44 L151.251 1420.44 L151.251 1426.32 L146.366 1426.32 L146.366 1420.44 Z" fill="#000000" fill-rule="evenodd" fill-opacity="1" /><path clip-path="url(#clip920)" d="M171.436 1394.84 Q167.825 1394.84 165.996 1398.4 Q164.19 1401.94 164.19 1409.07 Q164.19 1416.18 165.996 1419.74 Q167.825 1423.28 171.436 1423.28 Q175.07 1423.28 176.876 1419.74 Q178.704 1416.18 178.704 1409.07 Q178.704 1401.94 176.876 1398.4 Q175.07 1394.84 171.436 1394.84 M171.436 1391.13 Q177.246 1391.13 180.301 1395.74 Q183.38 1400.32 183.38 1409.07 Q183.38 1417.8 180.301 1422.41 Q177.246 1426.99 171.436 1426.99 Q165.626 1426.99 162.547 1422.41 Q159.491 1417.8 159.491 1409.07 Q159.491 1400.32 162.547 1395.74 Q165.626 1391.13 171.436 1391.13 Z" fill="#000000" fill-rule="evenodd" fill-opacity="1" /><path clip-path="url(#clip920)" d="M201.598 1394.84 Q197.987 1394.84 196.158 1398.4 Q194.352 1401.94 194.352 1409.07 Q194.352 1416.18 196.158 1419.74 Q197.987 1423.28 201.598 1423.28 Q205.232 1423.28 207.037 1419.74 Q208.866 1416.18 208.866 1409.07 Q208.866 1401.94 207.037 1398.4 Q205.232 1394.84 201.598 1394.84 M201.598 1391.13 Q207.408 1391.13 210.463 1395.74 Q213.542 1400.32 213.542 1409.07 Q213.542 1417.8 210.463 1422.41 Q207.408 1426.99 201.598 1426.99 Q195.787 1426.99 192.709 1422.41 Q189.653 1417.8 189.653 1409.07 Q189.653 1400.32 192.709 1395.74 Q195.787 1391.13 201.598 1391.13 Z" fill="#000000" fill-rule="evenodd" fill-opacity="1" /><path clip-path="url(#clip920)" d="M127.2 1276.98 Q123.589 1276.98 121.76 1280.55 Q119.955 1284.09 119.955 1291.22 Q119.955 1298.32 121.76 1301.89 Q123.589 1305.43 127.2 1305.43 Q130.834 1305.43 132.64 1301.89 Q134.468 1298.32 134.468 1291.22 Q134.468 1284.09 132.64 1280.55 Q130.834 1276.98 127.2 1276.98 M127.2 1273.28 Q133.01 1273.28 136.066 1277.88 Q139.144 1282.47 139.144 1291.22 Q139.144 1299.94 136.066 1304.55 Q133.01 1309.13 127.2 1309.13 Q121.39 1309.13 118.311 1304.55 Q115.256 1299.94 115.256 1291.22 Q115.256 1282.47 118.311 1277.88 Q121.39 1273.28 127.2 1273.28 Z" fill="#000000" fill-rule="evenodd" fill-opacity="1" /><path clip-path="url(#clip920)" d="M147.362 1302.58 L152.246 1302.58 L152.246 1308.46 L147.362 1308.46 L147.362 1302.58 Z" fill="#000000" fill-rule="evenodd" fill-opacity="1" /><path clip-path="url(#clip920)" d="M166.459 1304.53 L182.778 1304.53 L182.778 1308.46 L160.834 1308.46 L160.834 1304.53 Q163.496 1301.77 168.079 1297.14 Q172.686 1292.49 173.866 1291.15 Q176.112 1288.62 176.991 1286.89 Q177.894 1285.13 177.894 1283.44 Q177.894 1280.68 175.95 1278.95 Q174.028 1277.21 170.927 1277.21 Q168.727 1277.21 166.274 1277.98 Q163.843 1278.74 161.065 1280.29 L161.065 1275.57 Q163.89 1274.43 166.343 1273.86 Q168.797 1273.28 170.834 1273.28 Q176.204 1273.28 179.399 1275.96 Q182.593 1278.65 182.593 1283.14 Q182.593 1285.27 181.783 1287.19 Q180.996 1289.09 178.889 1291.68 Q178.311 1292.35 175.209 1295.57 Q172.107 1298.76 166.459 1304.53 Z" fill="#000000" fill-rule="evenodd" fill-opacity="1" /><path clip-path="url(#clip920)" d="M192.639 1273.9 L210.996 1273.9 L210.996 1277.84 L196.922 1277.84 L196.922 1286.31 Q197.94 1285.96 198.959 1285.8 Q199.977 1285.61 200.996 1285.61 Q206.783 1285.61 210.162 1288.79 Q213.542 1291.96 213.542 1297.37 Q213.542 1302.95 210.07 1306.05 Q206.598 1309.13 200.278 1309.13 Q198.102 1309.13 195.834 1308.76 Q193.588 1308.39 191.181 1307.65 L191.181 1302.95 Q193.264 1304.09 195.487 1304.64 Q197.709 1305.2 200.186 1305.2 Q204.19 1305.2 206.528 1303.09 Q208.866 1300.98 208.866 1297.37 Q208.866 1293.76 206.528 1291.66 Q204.19 1289.55 200.186 1289.55 Q198.311 1289.55 196.436 1289.97 Q194.584 1290.38 192.639 1291.26 L192.639 1273.9 Z" fill="#000000" fill-rule="evenodd" fill-opacity="1" /><path clip-path="url(#clip920)" d="M126.205 1159.12 Q122.593 1159.12 120.765 1162.69 Q118.959 1166.23 118.959 1173.36 Q118.959 1180.47 120.765 1184.03 Q122.593 1187.57 126.205 1187.57 Q129.839 1187.57 131.644 1184.03 Q133.473 1180.47 133.473 1173.36 Q133.473 1166.23 131.644 1162.69 Q129.839 1159.12 126.205 1159.12 M126.205 1155.42 Q132.015 1155.42 135.07 1160.03 Q138.149 1164.61 138.149 1173.36 Q138.149 1182.09 135.07 1186.69 Q132.015 1191.28 126.205 1191.28 Q120.394 1191.28 117.316 1186.69 Q114.26 1182.09 114.26 1173.36 Q114.26 1164.61 117.316 1160.03 Q120.394 1155.42 126.205 1155.42 Z" fill="#000000" fill-rule="evenodd" fill-opacity="1" /><path clip-path="url(#clip920)" d="M146.366 1184.73 L151.251 1184.73 L151.251 1190.61 L146.366 1190.61 L146.366 1184.73 Z" fill="#000000" fill-rule="evenodd" fill-opacity="1" /><path clip-path="url(#clip920)" d="M161.482 1156.05 L179.839 1156.05 L179.839 1159.98 L165.765 1159.98 L165.765 1168.45 Q166.783 1168.11 167.802 1167.94 Q168.82 1167.76 169.839 1167.76 Q175.626 1167.76 179.005 1170.93 Q182.385 1174.1 182.385 1179.52 Q182.385 1185.1 178.913 1188.2 Q175.44 1191.28 169.121 1191.28 Q166.945 1191.28 164.677 1190.91 Q162.431 1190.54 160.024 1189.8 L160.024 1185.1 Q162.107 1186.23 164.329 1186.79 Q166.552 1187.34 169.028 1187.34 Q173.033 1187.34 175.371 1185.24 Q177.709 1183.13 177.709 1179.52 Q177.709 1175.91 175.371 1173.8 Q173.033 1171.69 169.028 1171.69 Q167.153 1171.69 165.278 1172.11 Q163.427 1172.53 161.482 1173.41 L161.482 1156.05 Z" fill="#000000" fill-rule="evenodd" fill-opacity="1" /><path clip-path="url(#clip920)" d="M201.598 1159.12 Q197.987 1159.12 196.158 1162.69 Q194.352 1166.23 194.352 1173.36 Q194.352 1180.47 196.158 1184.03 Q197.987 1187.57 201.598 1187.57 Q205.232 1187.57 207.037 1184.03 Q208.866 1180.47 208.866 1173.36 Q208.866 1166.23 207.037 1162.69 Q205.232 1159.12 201.598 1159.12 M201.598 1155.42 Q207.408 1155.42 210.463 1160.03 Q213.542 1164.61 213.542 1173.36 Q213.542 1182.09 210.463 1186.69 Q207.408 1191.28 201.598 1191.28 Q195.787 1191.28 192.709 1186.69 Q189.653 1182.09 189.653 1173.36 Q189.653 1164.61 192.709 1160.03 Q195.787 1155.42 201.598 1155.42 Z" fill="#000000" fill-rule="evenodd" fill-opacity="1" /><path clip-path="url(#clip920)" d="M127.2 1041.27 Q123.589 1041.27 121.76 1044.83 Q119.955 1048.38 119.955 1055.51 Q119.955 1062.61 121.76 1066.18 Q123.589 1069.72 127.2 1069.72 Q130.834 1069.72 132.64 1066.18 Q134.468 1062.61 134.468 1055.51 Q134.468 1048.38 132.64 1044.83 Q130.834 1041.27 127.2 1041.27 M127.2 1037.57 Q133.01 1037.57 136.066 1042.17 Q139.144 1046.76 139.144 1055.51 Q139.144 1064.23 136.066 1068.84 Q133.01 1073.42 127.2 1073.42 Q121.39 1073.42 118.311 1068.84 Q115.256 1064.23 115.256 1055.51 Q115.256 1046.76 118.311 1042.17 Q121.39 1037.57 127.2 1037.57 Z" fill="#000000" fill-rule="evenodd" fill-opacity="1" /><path clip-path="url(#clip920)" d="M147.362 1066.87 L152.246 1066.87 L152.246 1072.75 L147.362 1072.75 L147.362 1066.87 Z" fill="#000000" fill-rule="evenodd" fill-opacity="1" /><path clip-path="url(#clip920)" d="M161.251 1038.19 L183.473 1038.19 L183.473 1040.18 L170.927 1072.75 L166.042 1072.75 L177.848 1042.13 L161.251 1042.13 L161.251 1038.19 Z" fill="#000000" fill-rule="evenodd" fill-opacity="1" /><path clip-path="url(#clip920)" d="M192.639 1038.19 L210.996 1038.19 L210.996 1042.13 L196.922 1042.13 L196.922 1050.6 Q197.94 1050.25 198.959 1050.09 Q199.977 1049.9 200.996 1049.9 Q206.783 1049.9 210.162 1053.07 Q213.542 1056.25 213.542 1061.66 Q213.542 1067.24 210.07 1070.34 Q206.598 1073.42 200.278 1073.42 Q198.102 1073.42 195.834 1073.05 Q193.588 1072.68 191.181 1071.94 L191.181 1067.24 Q193.264 1068.38 195.487 1068.93 Q197.709 1069.49 200.186 1069.49 Q204.19 1069.49 206.528 1067.38 Q208.866 1065.27 208.866 1061.66 Q208.866 1058.05 206.528 1055.94 Q204.19 1053.84 200.186 1053.84 Q198.311 1053.84 196.436 1054.26 Q194.584 1054.67 192.639 1055.55 L192.639 1038.19 Z" fill="#000000" fill-rule="evenodd" fill-opacity="1" /><path clip-path="url(#clip920)" d="M117.015 950.96 L124.654 950.96 L124.654 924.594 L116.343 926.261 L116.343 922.001 L124.607 920.335 L129.283 920.335 L129.283 950.96 L136.922 950.96 L136.922 954.895 L117.015 954.895 L117.015 950.96 Z" fill="#000000" fill-rule="evenodd" fill-opacity="1" /><path clip-path="url(#clip920)" d="M146.366 949.015 L151.251 949.015 L151.251 954.895 L146.366 954.895 L146.366 949.015 Z" fill="#000000" fill-rule="evenodd" fill-opacity="1" /><path clip-path="url(#clip920)" d="M171.436 923.413 Q167.825 923.413 165.996 926.978 Q164.19 930.52 164.19 937.65 Q164.19 944.756 165.996 948.321 Q167.825 951.862 171.436 951.862 Q175.07 951.862 176.876 948.321 Q178.704 944.756 178.704 937.65 Q178.704 930.52 176.876 926.978 Q175.07 923.413 171.436 923.413 M171.436 919.71 Q177.246 919.71 180.301 924.316 Q183.38 928.9 183.38 937.65 Q183.38 946.376 180.301 950.983 Q177.246 955.566 171.436 955.566 Q165.626 955.566 162.547 950.983 Q159.491 946.376 159.491 937.65 Q159.491 928.9 162.547 924.316 Q165.626 919.71 171.436 919.71 Z" fill="#000000" fill-rule="evenodd" fill-opacity="1" /><path clip-path="url(#clip920)" d="M201.598 923.413 Q197.987 923.413 196.158 926.978 Q194.352 930.52 194.352 937.65 Q194.352 944.756 196.158 948.321 Q197.987 951.862 201.598 951.862 Q205.232 951.862 207.037 948.321 Q208.866 944.756 208.866 937.65 Q208.866 930.52 207.037 926.978 Q205.232 923.413 201.598 923.413 M201.598 919.71 Q207.408 919.71 210.463 924.316 Q213.542 928.9 213.542 937.65 Q213.542 946.376 210.463 950.983 Q207.408 955.566 201.598 955.566 Q195.787 955.566 192.709 950.983 Q189.653 946.376 189.653 937.65 Q189.653 928.9 192.709 924.316 Q195.787 919.71 201.598 919.71 Z" fill="#000000" fill-rule="evenodd" fill-opacity="1" /><path clip-path="url(#clip920)" d="M67.3143 1171.64 Q73.68 1174.12 75.6216 1176.48 Q77.5631 1178.83 77.5631 1182.78 L77.5631 1187.46 L72.6615 1187.46 L72.6615 1184.02 Q72.6615 1181.6 71.5157 1180.26 Q70.3699 1178.93 66.1048 1177.3 L63.4312 1176.25 L28.3562 1190.67 L28.3562 1184.47 L56.238 1173.33 L28.3562 1162.19 L28.3562 1155.98 L67.3143 1171.64 Z" fill="#000000" fill-rule="evenodd" fill-opacity="1" /><path clip-path="url(#clip920)" d="M1172.74 814.324 L1172.74 827.206 L1188.09 827.206 L1188.09 832.999 L1172.74 832.999 L1172.74 857.628 Q1172.74 863.178 1174.23 864.758 Q1175.77 866.338 1180.43 866.338 L1188.09 866.338 L1188.09 872.576 L1180.43 872.576 Q1171.8 872.576 1168.52 869.376 Q1165.24 866.135 1165.24 857.628 L1165.24 832.999 L1159.77 832.999 L1159.77 827.206 L1165.24 827.206 L1165.24 814.324 L1172.74 814.324 Z" fill="#000000" fill-rule="evenodd" fill-opacity="1" /><path clip-path="url(#clip920)" d="M1224.18 834.173 Q1222.93 833.444 1221.43 833.12 Q1219.97 832.756 1218.19 832.756 Q1211.87 832.756 1208.46 836.888 Q1205.1 840.979 1205.1 848.676 L1205.1 872.576 L1197.61 872.576 L1197.61 827.206 L1205.1 827.206 L1205.1 834.254 Q1207.45 830.123 1211.22 828.138 Q1214.99 826.112 1220.37 826.112 Q1221.14 826.112 1222.08 826.234 Q1223.01 826.315 1224.14 826.517 L1224.18 834.173 Z" fill="#000000" fill-rule="evenodd" fill-opacity="1" /><path clip-path="url(#clip920)" d="M1252.62 849.769 Q1243.59 849.769 1240.1 851.835 Q1236.62 853.901 1236.62 858.884 Q1236.62 862.854 1239.21 865.203 Q1241.84 867.512 1246.34 867.512 Q1252.54 867.512 1256.26 863.137 Q1260.03 858.722 1260.03 851.43 L1260.03 849.769 L1252.62 849.769 M1267.49 846.691 L1267.49 872.576 L1260.03 872.576 L1260.03 865.689 Q1257.48 869.821 1253.67 871.806 Q1249.86 873.751 1244.36 873.751 Q1237.39 873.751 1233.26 869.862 Q1229.16 865.933 1229.16 859.37 Q1229.16 851.714 1234.27 847.825 Q1239.41 843.936 1249.58 843.936 L1260.03 843.936 L1260.03 843.207 Q1260.03 838.062 1256.63 835.267 Q1253.27 832.432 1247.15 832.432 Q1243.26 832.432 1239.58 833.363 Q1235.89 834.295 1232.49 836.158 L1232.49 829.272 Q1236.58 827.692 1240.43 826.922 Q1244.27 826.112 1247.92 826.112 Q1257.76 826.112 1262.62 831.216 Q1267.49 836.32 1267.49 846.691 Z" fill="#000000" fill-rule="evenodd" fill-opacity="1" /><path clip-path="url(#clip920)" d="M1315.49 828.948 L1315.49 835.915 Q1312.33 834.173 1309.13 833.323 Q1305.97 832.432 1302.73 832.432 Q1295.48 832.432 1291.47 837.05 Q1287.46 841.627 1287.46 849.931 Q1287.46 858.236 1291.47 862.854 Q1295.48 867.431 1302.73 867.431 Q1305.97 867.431 1309.13 866.581 Q1312.33 865.689 1315.49 863.948 L1315.49 870.834 Q1312.37 872.292 1309.01 873.022 Q1305.69 873.751 1301.92 873.751 Q1291.67 873.751 1285.63 867.31 Q1279.6 860.869 1279.6 849.931 Q1279.6 838.832 1285.67 832.472 Q1291.79 826.112 1302.4 826.112 Q1305.85 826.112 1309.13 826.841 Q1312.41 827.53 1315.49 828.948 Z" fill="#000000" fill-rule="evenodd" fill-opacity="1" /><path clip-path="url(#clip920)" d="M1367.26 848.028 L1367.26 851.673 L1332.99 851.673 Q1333.48 859.37 1337.61 863.421 Q1341.78 867.431 1349.19 867.431 Q1353.49 867.431 1357.5 866.378 Q1361.55 865.325 1365.52 863.218 L1365.52 870.267 Q1361.51 871.968 1357.29 872.86 Q1353.08 873.751 1348.75 873.751 Q1337.89 873.751 1331.53 867.431 Q1325.21 861.112 1325.21 850.337 Q1325.21 839.197 1331.21 832.675 Q1337.24 826.112 1347.45 826.112 Q1356.61 826.112 1361.91 832.026 Q1367.26 837.9 1367.26 848.028 M1359.81 845.84 Q1359.73 839.723 1356.36 836.077 Q1353.04 832.432 1347.53 832.432 Q1341.29 832.432 1337.53 835.956 Q1333.8 839.48 1333.23 845.881 L1359.81 845.84 M1352.64 806.222 L1360.7 806.222 L1347.49 821.454 L1341.29 821.454 L1352.64 806.222 Z" fill="#000000" fill-rule="evenodd" fill-opacity="1" /><path clip-path="url(#clip920)" d="M1413.97 865.689 L1442.53 865.689 L1442.53 872.576 L1404.12 872.576 L1404.12 865.689 Q1408.78 860.869 1416.8 852.767 Q1424.86 844.625 1426.93 842.275 Q1430.86 837.86 1432.4 834.822 Q1433.98 831.743 1433.98 828.786 Q1433.98 823.965 1430.58 820.927 Q1427.21 817.889 1421.78 817.889 Q1417.94 817.889 1413.64 819.226 Q1409.39 820.562 1404.53 823.276 L1404.53 815.013 Q1409.47 813.028 1413.76 812.015 Q1418.06 811.002 1421.62 811.002 Q1431.02 811.002 1436.61 815.701 Q1442.2 820.4 1442.2 828.259 Q1442.2 831.986 1440.78 835.348 Q1439.41 838.67 1435.72 843.207 Q1434.71 844.382 1429.28 850.012 Q1423.85 855.603 1413.97 865.689 Z" fill="#000000" fill-rule="evenodd" fill-opacity="1" /><polyline clip-path="url(#clip923)" style="stroke:#ff0000; stroke-linecap:butt; stroke-linejoin:round; stroke-width:4; stroke-opacity:1; fill:none" points="
  309.067,1409.04 329.109,1404.28 349.151,1399.51 369.193,1394.75 389.235,1389.99 409.277,1385.23 429.319,1380.47 449.361,1375.7 469.403,1370.94 489.446,1366.18 
  509.488,1361.42 529.53,1356.66 549.572,1351.9 569.614,1347.13 589.656,1342.37 609.698,1337.61 629.74,1332.85 649.782,1328.09 669.824,1323.32 689.866,1318.56 
  709.908,1313.8 729.95,1309.04 749.992,1304.28 770.034,1299.51 790.076,1294.75 810.118,1289.99 830.161,1285.23 850.203,1280.47 870.245,1275.71 890.287,1270.94 
  910.329,1266.18 930.371,1261.42 950.413,1256.66 970.455,1251.9 990.497,1247.13 1010.54,1242.37 1030.58,1237.61 1050.62,1232.85 1070.67,1228.09 1090.71,1223.33 
  1110.75,1218.56 1130.79,1213.8 1150.83,1209.04 1170.88,1204.28 1190.92,1199.52 1210.96,1194.75 1231,1189.99 1251.04,1185.23 1271.09,1180.47 1291.13,1175.71 
  1311.17,1170.95 1331.21,1166.18 1351.25,1161.42 1371.3,1156.66 1391.34,1151.9 1411.38,1147.14 1431.42,1142.37 1451.46,1137.61 1471.51,1132.85 1491.55,1128.09 
  1511.59,1123.33 1531.63,1118.56 1551.67,1113.8 1571.72,1109.04 1591.76,1104.28 1611.8,1099.52 1631.84,1094.76 1651.89,1089.99 1671.93,1085.23 1691.97,1080.47 
  1712.01,1075.71 1732.05,1070.95 1752.1,1066.18 1772.14,1061.42 1792.18,1056.66 1812.22,1051.9 1832.26,1047.14 1852.31,1042.38 1872.35,1037.61 1892.39,1032.85 
  1912.43,1028.09 1932.47,1023.33 1952.52,1018.57 1972.56,1013.8 1992.6,1009.04 2012.64,1004.28 2032.68,999.519 2052.73,994.757 2072.77,989.995 2092.81,985.233 
  2112.85,980.471 2132.89,975.71 2152.94,970.948 2172.98,966.186 2193.02,961.424 2213.06,956.662 2233.1,951.9 2253.15,947.138 2273.19,942.377 2293.23,937.615 
  
  "/>
<path clip-path="url(#clip920)" d="
M1996.9 1043.81 L2282.65 1043.81 L2282.65 940.129 L1996.9 940.129  Z
  " fill="#ffffff" fill-rule="evenodd" fill-opacity="1"/>
<polyline clip-path="url(#clip920)" style="stroke:#000000; stroke-linecap:butt; stroke-linejoin:round; stroke-width:4; stroke-opacity:1; fill:none" points="
  1996.9,1043.81 2282.65,1043.81 2282.65,940.129 1996.9,940.129 1996.9,1043.81 
  "/>
<polyline clip-path="url(#clip920)" style="stroke:#ff0000; stroke-linecap:butt; stroke-linejoin:round; stroke-width:4; stroke-opacity:1; fill:none" points="
  2020.27,991.969 2160.48,991.969 
  "/>
<path clip-path="url(#clip920)" d="M2197.69 1011.66 Q2195.89 1016.29 2194.17 1017.7 Q2192.46 1019.11 2189.59 1019.11 L2186.19 1019.11 L2186.19 1015.55 L2188.69 1015.55 Q2190.45 1015.55 2191.42 1014.71 Q2192.39 1013.88 2193.57 1010.78 L2194.34 1008.83 L2183.85 983.323 L2188.36 983.323 L2196.47 1003.6 L2204.57 983.323 L2209.08 983.323 L2197.69 1011.66 Z" fill="#000000" fill-rule="evenodd" fill-opacity="1" /><path clip-path="url(#clip920)" d="M2219.59 1005.31 L2235.91 1005.31 L2235.91 1009.25 L2213.97 1009.25 L2213.97 1005.31 Q2216.63 1002.56 2221.21 997.93 Q2225.82 993.277 2227 991.934 Q2229.24 989.411 2230.12 987.675 Q2231.03 985.916 2231.03 984.226 Q2231.03 981.471 2229.08 979.735 Q2227.16 977.999 2224.06 977.999 Q2221.86 977.999 2219.41 978.763 Q2216.98 979.527 2214.2 981.078 L2214.2 976.356 Q2217.02 975.221 2219.48 974.643 Q2221.93 974.064 2223.97 974.064 Q2229.34 974.064 2232.53 976.749 Q2235.73 979.434 2235.73 983.925 Q2235.73 986.055 2234.92 987.976 Q2234.13 989.874 2232.02 992.467 Q2231.44 993.138 2228.34 996.356 Q2225.24 999.55 2219.59 1005.31 Z" fill="#000000" fill-rule="evenodd" fill-opacity="1" /></svg>
