<?xml version="1.0" encoding="utf-8"?>
<svg xmlns="http://www.w3.org/2000/svg" xmlns:xlink="http://www.w3.org/1999/xlink" width="600" height="400" viewBox="0 0 2400 1600">
<defs>
  <clipPath id="clip520">
    <rect x="0" y="0" width="2400" height="1600"/>
  </clipPath>
</defs>
<path clip-path="url(#clip520)" d="
M0 1600 L2400 1600 L2400 0 L0 0  Z
  " fill="#ffffff" fill-rule="evenodd" fill-opacity="1"/>
<defs>
  <clipPath id="clip521">
    <rect x="480" y="0" width="1681" height="1600"/>
  </clipPath>
</defs>
<path clip-path="url(#clip520)" d="
M202.177 1486.45 L2352.76 1486.45 L2352.76 47.2441 L202.177 47.2441  Z
  " fill="#ffffff" fill-rule="evenodd" fill-opacity="1"/>
<defs>
  <clipPath id="clip522">
    <rect x="202" y="47" width="2152" height="1440"/>
  </clipPath>
</defs>
<polyline clip-path="url(#clip522)" style="stroke:#000000; stroke-linecap:butt; stroke-linejoin:round; stroke-width:2; stroke-opacity:0.1; fill:none" points="
  432.113,1486.45 432.113,47.2441 
  "/>
<polyline clip-path="url(#clip522)" style="stroke:#000000; stroke-linecap:butt; stroke-linejoin:round; stroke-width:2; stroke-opacity:0.1; fill:none" points="
  854.79,1486.45 854.79,47.2441 
  "/>
<polyline clip-path="url(#clip522)" style="stroke:#000000; stroke-linecap:butt; stroke-linejoin:round; stroke-width:2; stroke-opacity:0.1; fill:none" points="
  1277.47,1486.45 1277.47,47.2441 
  "/>
<polyline clip-path="url(#clip522)" style="stroke:#000000; stroke-linecap:butt; stroke-linejoin:round; stroke-width:2; stroke-opacity:0.1; fill:none" points="
  1700.14,1486.45 1700.14,47.2441 
  "/>
<polyline clip-path="url(#clip522)" style="stroke:#000000; stroke-linecap:butt; stroke-linejoin:round; stroke-width:2; stroke-opacity:0.1; fill:none" points="
  2122.82,1486.45 2122.82,47.2441 
  "/>
<polyline clip-path="url(#clip520)" style="stroke:#000000; stroke-linecap:butt; stroke-linejoin:round; stroke-width:4; stroke-opacity:1; fill:none" points="
  202.177,1486.45 2352.76,1486.45 
  "/>
<polyline clip-path="url(#clip520)" style="stroke:#000000; stroke-linecap:butt; stroke-linejoin:round; stroke-width:4; stroke-opacity:1; fill:none" points="
  432.113,1486.45 432.113,1467.55 
  "/>
<polyline clip-path="url(#clip520)" style="stroke:#000000; stroke-linecap:butt; stroke-linejoin:round; stroke-width:4; stroke-opacity:1; fill:none" points="
  854.79,1486.45 854.79,1467.55 
  "/>
<polyline clip-path="url(#clip520)" style="stroke:#000000; stroke-linecap:butt; stroke-linejoin:round; stroke-width:4; stroke-opacity:1; fill:none" points="
  1277.47,1486.45 1277.47,1467.55 
  "/>
<polyline clip-path="url(#clip520)" style="stroke:#000000; stroke-linecap:butt; stroke-linejoin:round; stroke-width:4; stroke-opacity:1; fill:none" points="
  1700.14,1486.45 1700.14,1467.55 
  "/>
<polyline clip-path="url(#clip520)" style="stroke:#000000; stroke-linecap:butt; stroke-linejoin:round; stroke-width:4; stroke-opacity:1; fill:none" points="
  2122.82,1486.45 2122.82,1467.55 
  "/>
<path clip-path="url(#clip520)" d="M378.641 1532.02 L408.317 1532.02 L408.317 1535.95 L378.641 1535.95 L378.641 1532.02 Z" fill="#000000" fill-rule="evenodd" fill-opacity="1" /><path clip-path="url(#clip520)" d="M418.456 1514.29 L436.812 1514.29 L436.812 1518.22 L422.738 1518.22 L422.738 1526.7 Q423.756 1526.35 424.775 1526.19 Q425.793 1526 426.812 1526 Q432.599 1526 435.979 1529.17 Q439.358 1532.34 439.358 1537.76 Q439.358 1543.34 435.886 1546.44 Q432.414 1549.52 426.094 1549.52 Q423.918 1549.52 421.65 1549.15 Q419.405 1548.78 416.997 1548.04 L416.997 1543.34 Q419.08 1544.47 421.303 1545.03 Q423.525 1545.58 426.002 1545.58 Q430.006 1545.58 432.344 1543.48 Q434.682 1541.37 434.682 1537.76 Q434.682 1534.15 432.344 1532.04 Q430.006 1529.94 426.002 1529.94 Q424.127 1529.94 422.252 1530.35 Q420.4 1530.77 418.456 1531.65 L418.456 1514.29 Z" fill="#000000" fill-rule="evenodd" fill-opacity="1" /><path clip-path="url(#clip520)" d="M448.571 1542.97 L453.455 1542.97 L453.455 1548.85 L448.571 1548.85 L448.571 1542.97 Z" fill="#000000" fill-rule="evenodd" fill-opacity="1" /><path clip-path="url(#clip520)" d="M473.64 1517.37 Q470.029 1517.37 468.201 1520.93 Q466.395 1524.47 466.395 1531.6 Q466.395 1538.71 468.201 1542.27 Q470.029 1545.82 473.64 1545.82 Q477.275 1545.82 479.08 1542.27 Q480.909 1538.71 480.909 1531.6 Q480.909 1524.47 479.08 1520.93 Q477.275 1517.37 473.64 1517.37 M473.64 1513.66 Q479.451 1513.66 482.506 1518.27 Q485.585 1522.85 485.585 1531.6 Q485.585 1540.33 482.506 1544.94 Q479.451 1549.52 473.64 1549.52 Q467.83 1549.52 464.752 1544.94 Q461.696 1540.33 461.696 1531.6 Q461.696 1522.85 464.752 1518.27 Q467.83 1513.66 473.64 1513.66 Z" fill="#000000" fill-rule="evenodd" fill-opacity="1" /><path clip-path="url(#clip520)" d="M801.815 1532.02 L831.491 1532.02 L831.491 1535.95 L801.815 1535.95 L801.815 1532.02 Z" fill="#000000" fill-rule="evenodd" fill-opacity="1" /><path clip-path="url(#clip520)" d="M845.611 1544.91 L861.931 1544.91 L861.931 1548.85 L839.986 1548.85 L839.986 1544.91 Q842.648 1542.16 847.232 1537.53 Q851.838 1532.88 853.019 1531.53 Q855.264 1529.01 856.144 1527.27 Q857.047 1525.51 857.047 1523.82 Q857.047 1521.07 855.102 1519.33 Q853.181 1517.6 850.079 1517.6 Q847.88 1517.6 845.426 1518.36 Q842.996 1519.13 840.218 1520.68 L840.218 1515.95 Q843.042 1514.82 845.496 1514.24 Q847.949 1513.66 849.986 1513.66 Q855.357 1513.66 858.551 1516.35 Q861.746 1519.03 861.746 1523.52 Q861.746 1525.65 860.935 1527.57 Q860.148 1529.47 858.042 1532.07 Q857.463 1532.74 854.361 1535.95 Q851.259 1539.15 845.611 1544.91 Z" fill="#000000" fill-rule="evenodd" fill-opacity="1" /><path clip-path="url(#clip520)" d="M871.745 1542.97 L876.63 1542.97 L876.63 1548.85 L871.745 1548.85 L871.745 1542.97 Z" fill="#000000" fill-rule="evenodd" fill-opacity="1" /><path clip-path="url(#clip520)" d="M886.861 1514.29 L905.218 1514.29 L905.218 1518.22 L891.144 1518.22 L891.144 1526.7 Q892.162 1526.35 893.181 1526.19 Q894.199 1526 895.218 1526 Q901.005 1526 904.384 1529.17 Q907.764 1532.34 907.764 1537.76 Q907.764 1543.34 904.292 1546.44 Q900.819 1549.52 894.5 1549.52 Q892.324 1549.52 890.056 1549.15 Q887.81 1548.78 885.403 1548.04 L885.403 1543.34 Q887.486 1544.47 889.708 1545.03 Q891.931 1545.58 894.407 1545.58 Q898.412 1545.58 900.75 1543.48 Q903.088 1541.37 903.088 1537.76 Q903.088 1534.15 900.75 1532.04 Q898.412 1529.94 894.407 1529.94 Q892.532 1529.94 890.657 1530.35 Q888.806 1530.77 886.861 1531.65 L886.861 1514.29 Z" fill="#000000" fill-rule="evenodd" fill-opacity="1" /><path clip-path="url(#clip520)" d="M1254.85 1517.37 Q1251.24 1517.37 1249.41 1520.93 Q1247.61 1524.47 1247.61 1531.6 Q1247.61 1538.71 1249.41 1542.27 Q1251.24 1545.82 1254.85 1545.82 Q1258.48 1545.82 1260.29 1542.27 Q1262.12 1538.71 1262.12 1531.6 Q1262.12 1524.47 1260.29 1520.93 Q1258.48 1517.37 1254.85 1517.37 M1254.85 1513.66 Q1260.66 1513.66 1263.72 1518.27 Q1266.8 1522.85 1266.8 1531.6 Q1266.8 1540.33 1263.72 1544.94 Q1260.66 1549.52 1254.85 1549.52 Q1249.04 1549.52 1245.96 1544.94 Q1242.91 1540.33 1242.91 1531.6 Q1242.91 1522.85 1245.96 1518.27 Q1249.04 1513.66 1254.85 1513.66 Z" fill="#000000" fill-rule="evenodd" fill-opacity="1" /><path clip-path="url(#clip520)" d="M1275.01 1542.97 L1279.9 1542.97 L1279.9 1548.85 L1275.01 1548.85 L1275.01 1542.97 Z" fill="#000000" fill-rule="evenodd" fill-opacity="1" /><path clip-path="url(#clip520)" d="M1300.08 1517.37 Q1296.47 1517.37 1294.64 1520.93 Q1292.84 1524.47 1292.84 1531.6 Q1292.84 1538.71 1294.64 1542.27 Q1296.47 1545.82 1300.08 1545.82 Q1303.72 1545.82 1305.52 1542.27 Q1307.35 1538.71 1307.35 1531.6 Q1307.35 1524.47 1305.52 1520.93 Q1303.72 1517.37 1300.08 1517.37 M1300.08 1513.66 Q1305.89 1513.66 1308.95 1518.27 Q1312.03 1522.85 1312.03 1531.6 Q1312.03 1540.33 1308.95 1544.94 Q1305.89 1549.52 1300.08 1549.52 Q1294.27 1549.52 1291.19 1544.94 Q1288.14 1540.33 1288.14 1531.6 Q1288.14 1522.85 1291.19 1518.27 Q1294.27 1513.66 1300.08 1513.66 Z" fill="#000000" fill-rule="evenodd" fill-opacity="1" /><path clip-path="url(#clip520)" d="M1671.88 1544.91 L1688.2 1544.91 L1688.2 1548.85 L1666.25 1548.85 L1666.25 1544.91 Q1668.92 1542.16 1673.5 1537.53 Q1678.11 1532.88 1679.29 1531.53 Q1681.53 1529.01 1682.41 1527.27 Q1683.31 1525.51 1683.31 1523.82 Q1683.31 1521.07 1681.37 1519.33 Q1679.45 1517.6 1676.35 1517.6 Q1674.15 1517.6 1671.69 1518.36 Q1669.26 1519.13 1666.49 1520.68 L1666.49 1515.95 Q1669.31 1514.82 1671.76 1514.24 Q1674.22 1513.66 1676.25 1513.66 Q1681.62 1513.66 1684.82 1516.35 Q1688.01 1519.03 1688.01 1523.52 Q1688.01 1525.65 1687.2 1527.57 Q1686.42 1529.47 1684.31 1532.07 Q1683.73 1532.74 1680.63 1535.95 Q1677.53 1539.15 1671.88 1544.91 Z" fill="#000000" fill-rule="evenodd" fill-opacity="1" /><path clip-path="url(#clip520)" d="M1698.01 1542.97 L1702.9 1542.97 L1702.9 1548.85 L1698.01 1548.85 L1698.01 1542.97 Z" fill="#000000" fill-rule="evenodd" fill-opacity="1" /><path clip-path="url(#clip520)" d="M1713.13 1514.29 L1731.49 1514.29 L1731.49 1518.22 L1717.41 1518.22 L1717.41 1526.7 Q1718.43 1526.35 1719.45 1526.19 Q1720.47 1526 1721.49 1526 Q1727.27 1526 1730.65 1529.17 Q1734.03 1532.34 1734.03 1537.76 Q1734.03 1543.34 1730.56 1546.44 Q1727.09 1549.52 1720.77 1549.52 Q1718.59 1549.52 1716.32 1549.15 Q1714.08 1548.78 1711.67 1548.04 L1711.67 1543.34 Q1713.75 1544.47 1715.98 1545.03 Q1718.2 1545.58 1720.68 1545.58 Q1724.68 1545.58 1727.02 1543.48 Q1729.36 1541.37 1729.36 1537.76 Q1729.36 1534.15 1727.02 1532.04 Q1724.68 1529.94 1720.68 1529.94 Q1718.8 1529.94 1716.93 1530.35 Q1715.07 1530.77 1713.13 1531.65 L1713.13 1514.29 Z" fill="#000000" fill-rule="evenodd" fill-opacity="1" /><path clip-path="url(#clip520)" d="M2089.98 1514.29 L2108.34 1514.29 L2108.34 1518.22 L2094.27 1518.22 L2094.27 1526.7 Q2095.29 1526.35 2096.3 1526.19 Q2097.32 1526 2098.34 1526 Q2104.13 1526 2107.51 1529.17 Q2110.89 1532.34 2110.89 1537.76 Q2110.89 1543.34 2107.41 1546.44 Q2103.94 1549.52 2097.62 1549.52 Q2095.45 1549.52 2093.18 1549.15 Q2090.93 1548.78 2088.53 1548.04 L2088.53 1543.34 Q2090.61 1544.47 2092.83 1545.03 Q2095.05 1545.58 2097.53 1545.58 Q2101.54 1545.58 2103.87 1543.48 Q2106.21 1541.37 2106.21 1537.76 Q2106.21 1534.15 2103.87 1532.04 Q2101.54 1529.94 2097.53 1529.94 Q2095.66 1529.94 2093.78 1530.35 Q2091.93 1530.77 2089.98 1531.65 L2089.98 1514.29 Z" fill="#000000" fill-rule="evenodd" fill-opacity="1" /><path clip-path="url(#clip520)" d="M2120.1 1542.97 L2124.98 1542.97 L2124.98 1548.85 L2120.1 1548.85 L2120.1 1542.97 Z" fill="#000000" fill-rule="evenodd" fill-opacity="1" /><path clip-path="url(#clip520)" d="M2145.17 1517.37 Q2141.56 1517.37 2139.73 1520.93 Q2137.92 1524.47 2137.92 1531.6 Q2137.92 1538.71 2139.73 1542.27 Q2141.56 1545.82 2145.17 1545.82 Q2148.8 1545.82 2150.61 1542.27 Q2152.44 1538.71 2152.44 1531.6 Q2152.44 1524.47 2150.61 1520.93 Q2148.8 1517.37 2145.17 1517.37 M2145.17 1513.66 Q2150.98 1513.66 2154.03 1518.27 Q2157.11 1522.85 2157.11 1531.6 Q2157.11 1540.33 2154.03 1544.94 Q2150.98 1549.52 2145.17 1549.52 Q2139.36 1549.52 2136.28 1544.94 Q2133.22 1540.33 2133.22 1531.6 Q2133.22 1522.85 2136.28 1518.27 Q2139.36 1513.66 2145.17 1513.66 Z" fill="#000000" fill-rule="evenodd" fill-opacity="1" /><polyline clip-path="url(#clip522)" style="stroke:#000000; stroke-linecap:butt; stroke-linejoin:round; stroke-width:2; stroke-opacity:0.1; fill:none" points="
  202.177,1445.72 2352.76,1445.72 
  "/>
<polyline clip-path="url(#clip522)" style="stroke:#000000; stroke-linecap:butt; stroke-linejoin:round; stroke-width:2; stroke-opacity:0.1; fill:none" points="
  202.177,1111.67 2352.76,1111.67 
  "/>
<polyline clip-path="url(#clip522)" style="stroke:#000000; stroke-linecap:butt; stroke-linejoin:round; stroke-width:2; stroke-opacity:0.1; fill:none" points="
  202.177,777.619 2352.76,777.619 
  "/>
<polyline clip-path="url(#clip522)" style="stroke:#000000; stroke-linecap:butt; stroke-linejoin:round; stroke-width:2; stroke-opacity:0.1; fill:none" points="
  202.177,443.571 2352.76,443.571 
  "/>
<polyline clip-path="url(#clip522)" style="stroke:#000000; stroke-linecap:butt; stroke-linejoin:round; stroke-width:2; stroke-opacity:0.1; fill:none" points="
  202.177,109.522 2352.76,109.522 
  "/>
<polyline clip-path="url(#clip520)" style="stroke:#000000; stroke-linecap:butt; stroke-linejoin:round; stroke-width:4; stroke-opacity:1; fill:none" points="
  202.177,1486.45 202.177,47.2441 
  "/>
<polyline clip-path="url(#clip520)" style="stroke:#000000; stroke-linecap:butt; stroke-linejoin:round; stroke-width:4; stroke-opacity:1; fill:none" points="
  202.177,1445.72 221.074,1445.72 
  "/>
<polyline clip-path="url(#clip520)" style="stroke:#000000; stroke-linecap:butt; stroke-linejoin:round; stroke-width:4; stroke-opacity:1; fill:none" points="
  202.177,1111.67 221.074,1111.67 
  "/>
<polyline clip-path="url(#clip520)" style="stroke:#000000; stroke-linecap:butt; stroke-linejoin:round; stroke-width:4; stroke-opacity:1; fill:none" points="
  202.177,777.619 221.074,777.619 
  "/>
<polyline clip-path="url(#clip520)" style="stroke:#000000; stroke-linecap:butt; stroke-linejoin:round; stroke-width:4; stroke-opacity:1; fill:none" points="
  202.177,443.571 221.074,443.571 
  "/>
<polyline clip-path="url(#clip520)" style="stroke:#000000; stroke-linecap:butt; stroke-linejoin:round; stroke-width:4; stroke-opacity:1; fill:none" points="
  202.177,109.522 221.074,109.522 
  "/>
<path clip-path="url(#clip520)" d="M154.232 1431.51 Q150.621 1431.51 148.793 1435.08 Q146.987 1438.62 146.987 1445.75 Q146.987 1452.86 148.793 1456.42 Q150.621 1459.96 154.232 1459.96 Q157.867 1459.96 159.672 1456.42 Q161.501 1452.86 161.501 1445.75 Q161.501 1438.62 159.672 1435.08 Q157.867 1431.51 154.232 1431.51 M154.232 1427.81 Q160.042 1427.81 163.098 1432.42 Q166.177 1437 166.177 1445.75 Q166.177 1454.48 163.098 1459.08 Q160.042 1463.67 154.232 1463.67 Q148.422 1463.67 145.343 1459.08 Q142.288 1454.48 142.288 1445.75 Q142.288 1437 145.343 1432.42 Q148.422 1427.81 154.232 1427.81 Z" fill="#000000" fill-rule="evenodd" fill-opacity="1" /><path clip-path="url(#clip520)" d="M57.7745 1125.01 L74.0939 1125.01 L74.0939 1128.95 L52.1495 1128.95 L52.1495 1125.01 Q54.8115 1122.26 59.3949 1117.63 Q64.0013 1112.98 65.1819 1111.63 Q67.4272 1109.11 68.3068 1107.37 Q69.2096 1105.61 69.2096 1103.92 Q69.2096 1101.17 67.2652 1099.43 Q65.3439 1097.7 62.2421 1097.7 Q60.043 1097.7 57.5893 1098.46 Q55.1588 1099.23 52.381 1100.78 L52.381 1096.05 Q55.2051 1094.92 57.6588 1094.34 Q60.1124 1093.76 62.1495 1093.76 Q67.5198 1093.76 70.7142 1096.45 Q73.9087 1099.13 73.9087 1103.62 Q73.9087 1105.75 73.0985 1107.67 Q72.3115 1109.57 70.205 1112.17 Q69.6263 1112.84 66.5245 1116.05 Q63.4226 1119.25 57.7745 1125.01 Z" fill="#000000" fill-rule="evenodd" fill-opacity="1" /><path clip-path="url(#clip520)" d="M93.9086 1097.47 Q90.2975 1097.47 88.4688 1101.03 Q86.6632 1104.57 86.6632 1111.7 Q86.6632 1118.81 88.4688 1122.37 Q90.2975 1125.91 93.9086 1125.91 Q97.5428 1125.91 99.3483 1122.37 Q101.177 1118.81 101.177 1111.7 Q101.177 1104.57 99.3483 1101.03 Q97.5428 1097.47 93.9086 1097.47 M93.9086 1093.76 Q99.7187 1093.76 102.774 1098.37 Q105.853 1102.95 105.853 1111.7 Q105.853 1120.43 102.774 1125.04 Q99.7187 1129.62 93.9086 1129.62 Q88.0984 1129.62 85.0197 1125.04 Q81.9642 1120.43 81.9642 1111.7 Q81.9642 1102.95 85.0197 1098.37 Q88.0984 1093.76 93.9086 1093.76 Z" fill="#000000" fill-rule="evenodd" fill-opacity="1" /><path clip-path="url(#clip520)" d="M124.07 1097.47 Q120.459 1097.47 118.631 1101.03 Q116.825 1104.57 116.825 1111.7 Q116.825 1118.81 118.631 1122.37 Q120.459 1125.91 124.07 1125.91 Q127.705 1125.91 129.51 1122.37 Q131.339 1118.81 131.339 1111.7 Q131.339 1104.57 129.51 1101.03 Q127.705 1097.47 124.07 1097.47 M124.07 1093.76 Q129.881 1093.76 132.936 1098.37 Q136.015 1102.95 136.015 1111.7 Q136.015 1120.43 132.936 1125.04 Q129.881 1129.62 124.07 1129.62 Q118.26 1129.62 115.182 1125.04 Q112.126 1120.43 112.126 1111.7 Q112.126 1102.95 115.182 1098.37 Q118.26 1093.76 124.07 1093.76 Z" fill="#000000" fill-rule="evenodd" fill-opacity="1" /><path clip-path="url(#clip520)" d="M154.232 1097.47 Q150.621 1097.47 148.793 1101.03 Q146.987 1104.57 146.987 1111.7 Q146.987 1118.81 148.793 1122.37 Q150.621 1125.91 154.232 1125.91 Q157.867 1125.91 159.672 1122.37 Q161.501 1118.81 161.501 1111.7 Q161.501 1104.57 159.672 1101.03 Q157.867 1097.47 154.232 1097.47 M154.232 1093.76 Q160.042 1093.76 163.098 1098.37 Q166.177 1102.95 166.177 1111.7 Q166.177 1120.43 163.098 1125.04 Q160.042 1129.62 154.232 1129.62 Q148.422 1129.62 145.343 1125.04 Q142.288 1120.43 142.288 1111.7 Q142.288 1102.95 145.343 1098.37 Q148.422 1093.76 154.232 1093.76 Z" fill="#000000" fill-rule="evenodd" fill-opacity="1" /><path clip-path="url(#clip520)" d="M66.5939 764.413 L54.7884 782.862 L66.5939 782.862 L66.5939 764.413 M65.367 760.339 L71.2466 760.339 L71.2466 782.862 L76.1772 782.862 L76.1772 786.751 L71.2466 786.751 L71.2466 794.899 L66.5939 794.899 L66.5939 786.751 L50.9921 786.751 L50.9921 782.237 L65.367 760.339 Z" fill="#000000" fill-rule="evenodd" fill-opacity="1" /><path clip-path="url(#clip520)" d="M93.9086 763.418 Q90.2975 763.418 88.4688 766.983 Q86.6632 770.524 86.6632 777.654 Q86.6632 784.76 88.4688 788.325 Q90.2975 791.867 93.9086 791.867 Q97.5428 791.867 99.3483 788.325 Q101.177 784.76 101.177 777.654 Q101.177 770.524 99.3483 766.983 Q97.5428 763.418 93.9086 763.418 M93.9086 759.714 Q99.7187 759.714 102.774 764.321 Q105.853 768.904 105.853 777.654 Q105.853 786.381 102.774 790.987 Q99.7187 795.57 93.9086 795.57 Q88.0984 795.57 85.0197 790.987 Q81.9642 786.381 81.9642 777.654 Q81.9642 768.904 85.0197 764.321 Q88.0984 759.714 93.9086 759.714 Z" fill="#000000" fill-rule="evenodd" fill-opacity="1" /><path clip-path="url(#clip520)" d="M124.07 763.418 Q120.459 763.418 118.631 766.983 Q116.825 770.524 116.825 777.654 Q116.825 784.76 118.631 788.325 Q120.459 791.867 124.07 791.867 Q127.705 791.867 129.51 788.325 Q131.339 784.76 131.339 777.654 Q131.339 770.524 129.51 766.983 Q127.705 763.418 124.07 763.418 M124.07 759.714 Q129.881 759.714 132.936 764.321 Q136.015 768.904 136.015 777.654 Q136.015 786.381 132.936 790.987 Q129.881 795.57 124.07 795.57 Q118.26 795.57 115.182 790.987 Q112.126 786.381 112.126 777.654 Q112.126 768.904 115.182 764.321 Q118.26 759.714 124.07 759.714 Z" fill="#000000" fill-rule="evenodd" fill-opacity="1" /><path clip-path="url(#clip520)" d="M154.232 763.418 Q150.621 763.418 148.793 766.983 Q146.987 770.524 146.987 777.654 Q146.987 784.76 148.793 788.325 Q150.621 791.867 154.232 791.867 Q157.867 791.867 159.672 788.325 Q161.501 784.76 161.501 777.654 Q161.501 770.524 159.672 766.983 Q157.867 763.418 154.232 763.418 M154.232 759.714 Q160.042 759.714 163.098 764.321 Q166.177 768.904 166.177 777.654 Q166.177 786.381 163.098 790.987 Q160.042 795.57 154.232 795.57 Q148.422 795.57 145.343 790.987 Q142.288 786.381 142.288 777.654 Q142.288 768.904 145.343 764.321 Q148.422 759.714 154.232 759.714 Z" fill="#000000" fill-rule="evenodd" fill-opacity="1" /><path clip-path="url(#clip520)" d="M64.3254 441.707 Q61.1773 441.707 59.3254 443.86 Q57.4967 446.013 57.4967 449.763 Q57.4967 453.49 59.3254 455.666 Q61.1773 457.818 64.3254 457.818 Q67.4735 457.818 69.3022 455.666 Q71.1541 453.49 71.1541 449.763 Q71.1541 446.013 69.3022 443.86 Q67.4735 441.707 64.3254 441.707 M73.6077 427.055 L73.6077 431.314 Q71.8485 430.481 70.0429 430.041 Q68.2606 429.601 66.5013 429.601 Q61.8717 429.601 59.418 432.726 Q56.9875 435.851 56.6402 442.17 Q58.006 440.156 60.0662 439.092 Q62.1263 438.004 64.6032 438.004 Q69.8115 438.004 72.8207 441.175 Q75.8531 444.323 75.8531 449.763 Q75.8531 455.087 72.705 458.304 Q69.5568 461.522 64.3254 461.522 Q58.33 461.522 55.1588 456.939 Q51.9875 452.332 51.9875 443.605 Q51.9875 435.411 55.8764 430.55 Q59.7652 425.666 66.3161 425.666 Q68.0754 425.666 69.8578 426.013 Q71.6633 426.36 73.6077 427.055 Z" fill="#000000" fill-rule="evenodd" fill-opacity="1" /><path clip-path="url(#clip520)" d="M93.9086 429.369 Q90.2975 429.369 88.4688 432.934 Q86.6632 436.476 86.6632 443.605 Q86.6632 450.712 88.4688 454.277 Q90.2975 457.818 93.9086 457.818 Q97.5428 457.818 99.3483 454.277 Q101.177 450.712 101.177 443.605 Q101.177 436.476 99.3483 432.934 Q97.5428 429.369 93.9086 429.369 M93.9086 425.666 Q99.7187 425.666 102.774 430.272 Q105.853 434.855 105.853 443.605 Q105.853 452.332 102.774 456.939 Q99.7187 461.522 93.9086 461.522 Q88.0984 461.522 85.0197 456.939 Q81.9642 452.332 81.9642 443.605 Q81.9642 434.855 85.0197 430.272 Q88.0984 425.666 93.9086 425.666 Z" fill="#000000" fill-rule="evenodd" fill-opacity="1" /><path clip-path="url(#clip520)" d="M124.07 429.369 Q120.459 429.369 118.631 432.934 Q116.825 436.476 116.825 443.605 Q116.825 450.712 118.631 454.277 Q120.459 457.818 124.07 457.818 Q127.705 457.818 129.51 454.277 Q131.339 450.712 131.339 443.605 Q131.339 436.476 129.51 432.934 Q127.705 429.369 124.07 429.369 M124.07 425.666 Q129.881 425.666 132.936 430.272 Q136.015 434.855 136.015 443.605 Q136.015 452.332 132.936 456.939 Q129.881 461.522 124.07 461.522 Q118.26 461.522 115.182 456.939 Q112.126 452.332 112.126 443.605 Q112.126 434.855 115.182 430.272 Q118.26 425.666 124.07 425.666 Z" fill="#000000" fill-rule="evenodd" fill-opacity="1" /><path clip-path="url(#clip520)" d="M154.232 429.369 Q150.621 429.369 148.793 432.934 Q146.987 436.476 146.987 443.605 Q146.987 450.712 148.793 454.277 Q150.621 457.818 154.232 457.818 Q157.867 457.818 159.672 454.277 Q161.501 450.712 161.501 443.605 Q161.501 436.476 159.672 432.934 Q157.867 429.369 154.232 429.369 M154.232 425.666 Q160.042 425.666 163.098 430.272 Q166.177 434.855 166.177 443.605 Q166.177 452.332 163.098 456.939 Q160.042 461.522 154.232 461.522 Q148.422 461.522 145.343 456.939 Q142.288 452.332 142.288 443.605 Q142.288 434.855 145.343 430.272 Q148.422 425.666 154.232 425.666 Z" fill="#000000" fill-rule="evenodd" fill-opacity="1" /><path clip-path="url(#clip520)" d="M63.7467 110.39 Q60.4134 110.39 58.4921 112.173 Q56.5939 113.955 56.5939 117.08 Q56.5939 120.205 58.4921 121.988 Q60.4134 123.77 63.7467 123.77 Q67.08 123.77 69.0013 121.988 Q70.9226 120.182 70.9226 117.08 Q70.9226 113.955 69.0013 112.173 Q67.1032 110.39 63.7467 110.39 M59.0708 108.4 Q56.0615 107.659 54.3717 105.599 Q52.7051 103.539 52.7051 100.576 Q52.7051 96.4322 55.6449 94.0248 Q58.6078 91.6174 63.7467 91.6174 Q68.9087 91.6174 71.8485 94.0248 Q74.7883 96.4322 74.7883 100.576 Q74.7883 103.539 73.0985 105.599 Q71.4318 107.659 68.4457 108.4 Q71.8253 109.187 73.7003 111.478 Q75.5985 113.77 75.5985 117.08 Q75.5985 122.103 72.5198 124.789 Q69.4642 127.474 63.7467 127.474 Q58.0291 127.474 54.9504 124.789 Q51.8949 122.103 51.8949 117.08 Q51.8949 113.77 53.793 111.478 Q55.6912 109.187 59.0708 108.4 M57.3578 101.015 Q57.3578 103.701 59.0245 105.205 Q60.7143 106.71 63.7467 106.71 Q66.7559 106.71 68.4457 105.205 Q70.1587 103.701 70.1587 101.015 Q70.1587 98.3303 68.4457 96.8257 Q66.7559 95.3211 63.7467 95.3211 Q60.7143 95.3211 59.0245 96.8257 Q57.3578 98.3303 57.3578 101.015 Z" fill="#000000" fill-rule="evenodd" fill-opacity="1" /><path clip-path="url(#clip520)" d="M93.9086 95.3211 Q90.2975 95.3211 88.4688 98.8859 Q86.6632 102.428 86.6632 109.557 Q86.6632 116.664 88.4688 120.228 Q90.2975 123.77 93.9086 123.77 Q97.5428 123.77 99.3483 120.228 Q101.177 116.664 101.177 109.557 Q101.177 102.428 99.3483 98.8859 Q97.5428 95.3211 93.9086 95.3211 M93.9086 91.6174 Q99.7187 91.6174 102.774 96.2239 Q105.853 100.807 105.853 109.557 Q105.853 118.284 102.774 122.89 Q99.7187 127.474 93.9086 127.474 Q88.0984 127.474 85.0197 122.89 Q81.9642 118.284 81.9642 109.557 Q81.9642 100.807 85.0197 96.2239 Q88.0984 91.6174 93.9086 91.6174 Z" fill="#000000" fill-rule="evenodd" fill-opacity="1" /><path clip-path="url(#clip520)" d="M124.07 95.3211 Q120.459 95.3211 118.631 98.8859 Q116.825 102.428 116.825 109.557 Q116.825 116.664 118.631 120.228 Q120.459 123.77 124.07 123.77 Q127.705 123.77 129.51 120.228 Q131.339 116.664 131.339 109.557 Q131.339 102.428 129.51 98.8859 Q127.705 95.3211 124.07 95.3211 M124.07 91.6174 Q129.881 91.6174 132.936 96.2239 Q136.015 100.807 136.015 109.557 Q136.015 118.284 132.936 122.89 Q129.881 127.474 124.07 127.474 Q118.26 127.474 115.182 122.89 Q112.126 118.284 112.126 109.557 Q112.126 100.807 115.182 96.2239 Q118.26 91.6174 124.07 91.6174 Z" fill="#000000" fill-rule="evenodd" fill-opacity="1" /><path clip-path="url(#clip520)" d="M154.232 95.3211 Q150.621 95.3211 148.793 98.8859 Q146.987 102.428 146.987 109.557 Q146.987 116.664 148.793 120.228 Q150.621 123.77 154.232 123.77 Q157.867 123.77 159.672 120.228 Q161.501 116.664 161.501 109.557 Q161.501 102.428 159.672 98.8859 Q157.867 95.3211 154.232 95.3211 M154.232 91.6174 Q160.042 91.6174 163.098 96.2239 Q166.177 100.807 166.177 109.557 Q166.177 118.284 163.098 122.89 Q160.042 127.474 154.232 127.474 Q148.422 127.474 145.343 122.89 Q142.288 118.284 142.288 109.557 Q142.288 100.807 145.343 96.2239 Q148.422 91.6174 154.232 91.6174 Z" fill="#000000" fill-rule="evenodd" fill-opacity="1" /><path clip-path="url(#clip522)" d="
M432.113 1445.55 L432.113 1445.72 L465.927 1445.72 L465.927 1445.55 L432.113 1445.55 L432.113 1445.55  Z
  " fill="#009af9" fill-rule="evenodd" fill-opacity="1"/>
<polyline clip-path="url(#clip522)" style="stroke:#000000; stroke-linecap:butt; stroke-linejoin:round; stroke-width:4; stroke-opacity:1; fill:none" points="
  432.113,1445.55 432.113,1445.72 465.927,1445.72 465.927,1445.55 432.113,1445.55 
  "/>
<path clip-path="url(#clip522)" d="
M465.927 1445.72 L465.927 1445.72 L499.741 1445.72 L499.741 1445.72 L465.927 1445.72 L465.927 1445.72  Z
  " fill="#009af9" fill-rule="evenodd" fill-opacity="1"/>
<polyline clip-path="url(#clip522)" style="stroke:#000000; stroke-linecap:butt; stroke-linejoin:round; stroke-width:4; stroke-opacity:1; fill:none" points="
  465.927,1445.72 465.927,1445.72 499.741,1445.72 465.927,1445.72 
  "/>
<path clip-path="url(#clip522)" d="
M499.741 1445.38 L499.741 1445.72 L533.555 1445.72 L533.555 1445.38 L499.741 1445.38 L499.741 1445.38  Z
  " fill="#009af9" fill-rule="evenodd" fill-opacity="1"/>
<polyline clip-path="url(#clip522)" style="stroke:#000000; stroke-linecap:butt; stroke-linejoin:round; stroke-width:4; stroke-opacity:1; fill:none" points="
  499.741,1445.38 499.741,1445.72 533.555,1445.72 533.555,1445.38 499.741,1445.38 
  "/>
<path clip-path="url(#clip522)" d="
M533.555 1445.72 L533.555 1445.72 L567.369 1445.72 L567.369 1445.72 L533.555 1445.72 L533.555 1445.72  Z
  " fill="#009af9" fill-rule="evenodd" fill-opacity="1"/>
<polyline clip-path="url(#clip522)" style="stroke:#000000; stroke-linecap:butt; stroke-linejoin:round; stroke-width:4; stroke-opacity:1; fill:none" points="
  533.555,1445.72 533.555,1445.72 567.369,1445.72 533.555,1445.72 
  "/>
<path clip-path="url(#clip522)" d="
M567.369 1444.88 L567.369 1445.72 L601.184 1445.72 L601.184 1444.88 L567.369 1444.88 L567.369 1444.88  Z
  " fill="#009af9" fill-rule="evenodd" fill-opacity="1"/>
<polyline clip-path="url(#clip522)" style="stroke:#000000; stroke-linecap:butt; stroke-linejoin:round; stroke-width:4; stroke-opacity:1; fill:none" points="
  567.369,1444.88 567.369,1445.72 601.184,1445.72 601.184,1444.88 567.369,1444.88 
  "/>
<path clip-path="url(#clip522)" d="
M601.184 1445.21 L601.184 1445.72 L634.998 1445.72 L634.998 1445.21 L601.184 1445.21 L601.184 1445.21  Z
  " fill="#009af9" fill-rule="evenodd" fill-opacity="1"/>
<polyline clip-path="url(#clip522)" style="stroke:#000000; stroke-linecap:butt; stroke-linejoin:round; stroke-width:4; stroke-opacity:1; fill:none" points="
  601.184,1445.21 601.184,1445.72 634.998,1445.72 634.998,1445.21 601.184,1445.21 
  "/>
<path clip-path="url(#clip522)" d="
M634.998 1444.05 L634.998 1445.72 L668.812 1445.72 L668.812 1444.05 L634.998 1444.05 L634.998 1444.05  Z
  " fill="#009af9" fill-rule="evenodd" fill-opacity="1"/>
<polyline clip-path="url(#clip522)" style="stroke:#000000; stroke-linecap:butt; stroke-linejoin:round; stroke-width:4; stroke-opacity:1; fill:none" points="
  634.998,1444.05 634.998,1445.72 668.812,1445.72 668.812,1444.05 634.998,1444.05 
  "/>
<path clip-path="url(#clip522)" d="
M668.812 1442.54 L668.812 1445.72 L702.626 1445.72 L702.626 1442.54 L668.812 1442.54 L668.812 1442.54  Z
  " fill="#009af9" fill-rule="evenodd" fill-opacity="1"/>
<polyline clip-path="url(#clip522)" style="stroke:#000000; stroke-linecap:butt; stroke-linejoin:round; stroke-width:4; stroke-opacity:1; fill:none" points="
  668.812,1442.54 668.812,1445.72 702.626,1445.72 702.626,1442.54 668.812,1442.54 
  "/>
<path clip-path="url(#clip522)" d="
M702.626 1440.2 L702.626 1445.72 L736.44 1445.72 L736.44 1440.2 L702.626 1440.2 L702.626 1440.2  Z
  " fill="#009af9" fill-rule="evenodd" fill-opacity="1"/>
<polyline clip-path="url(#clip522)" style="stroke:#000000; stroke-linecap:butt; stroke-linejoin:round; stroke-width:4; stroke-opacity:1; fill:none" points="
  702.626,1440.2 702.626,1445.72 736.44,1445.72 736.44,1440.2 702.626,1440.2 
  "/>
<path clip-path="url(#clip522)" d="
M736.44 1436.03 L736.44 1445.72 L770.254 1445.72 L770.254 1436.03 L736.44 1436.03 L736.44 1436.03  Z
  " fill="#009af9" fill-rule="evenodd" fill-opacity="1"/>
<polyline clip-path="url(#clip522)" style="stroke:#000000; stroke-linecap:butt; stroke-linejoin:round; stroke-width:4; stroke-opacity:1; fill:none" points="
  736.44,1436.03 736.44,1445.72 770.254,1445.72 770.254,1436.03 736.44,1436.03 
  "/>
<path clip-path="url(#clip522)" d="
M770.254 1424.34 L770.254 1445.72 L804.068 1445.72 L804.068 1424.34 L770.254 1424.34 L770.254 1424.34  Z
  " fill="#009af9" fill-rule="evenodd" fill-opacity="1"/>
<polyline clip-path="url(#clip522)" style="stroke:#000000; stroke-linecap:butt; stroke-linejoin:round; stroke-width:4; stroke-opacity:1; fill:none" points="
  770.254,1424.34 770.254,1445.72 804.068,1445.72 804.068,1424.34 770.254,1424.34 
  "/>
<path clip-path="url(#clip522)" d="
M804.068 1409.97 L804.068 1445.72 L837.882 1445.72 L837.882 1409.97 L804.068 1409.97 L804.068 1409.97  Z
  " fill="#009af9" fill-rule="evenodd" fill-opacity="1"/>
<polyline clip-path="url(#clip522)" style="stroke:#000000; stroke-linecap:butt; stroke-linejoin:round; stroke-width:4; stroke-opacity:1; fill:none" points="
  804.068,1409.97 804.068,1445.72 837.882,1445.72 837.882,1409.97 804.068,1409.97 
  "/>
<path clip-path="url(#clip522)" d="
M837.882 1386.92 L837.882 1445.72 L871.697 1445.72 L871.697 1386.92 L837.882 1386.92 L837.882 1386.92  Z
  " fill="#009af9" fill-rule="evenodd" fill-opacity="1"/>
<polyline clip-path="url(#clip522)" style="stroke:#000000; stroke-linecap:butt; stroke-linejoin:round; stroke-width:4; stroke-opacity:1; fill:none" points="
  837.882,1386.92 837.882,1445.72 871.697,1445.72 871.697,1386.92 837.882,1386.92 
  "/>
<path clip-path="url(#clip522)" d="
M871.697 1343.83 L871.697 1445.72 L905.511 1445.72 L905.511 1343.83 L871.697 1343.83 L871.697 1343.83  Z
  " fill="#009af9" fill-rule="evenodd" fill-opacity="1"/>
<polyline clip-path="url(#clip522)" style="stroke:#000000; stroke-linecap:butt; stroke-linejoin:round; stroke-width:4; stroke-opacity:1; fill:none" points="
  871.697,1343.83 871.697,1445.72 905.511,1445.72 905.511,1343.83 871.697,1343.83 
  "/>
<path clip-path="url(#clip522)" d="
M905.511 1301.74 L905.511 1445.72 L939.325 1445.72 L939.325 1301.74 L905.511 1301.74 L905.511 1301.74  Z
  " fill="#009af9" fill-rule="evenodd" fill-opacity="1"/>
<polyline clip-path="url(#clip522)" style="stroke:#000000; stroke-linecap:butt; stroke-linejoin:round; stroke-width:4; stroke-opacity:1; fill:none" points="
  905.511,1301.74 905.511,1445.72 939.325,1445.72 939.325,1301.74 905.511,1301.74 
  "/>
<path clip-path="url(#clip522)" d="
M939.325 1238.1 L939.325 1445.72 L973.139 1445.72 L973.139 1238.1 L939.325 1238.1 L939.325 1238.1  Z
  " fill="#009af9" fill-rule="evenodd" fill-opacity="1"/>
<polyline clip-path="url(#clip522)" style="stroke:#000000; stroke-linecap:butt; stroke-linejoin:round; stroke-width:4; stroke-opacity:1; fill:none" points="
  939.325,1238.1 939.325,1445.72 973.139,1445.72 973.139,1238.1 939.325,1238.1 
  "/>
<path clip-path="url(#clip522)" d="
M973.139 1121.02 L973.139 1445.72 L1006.95 1445.72 L1006.95 1121.02 L973.139 1121.02 L973.139 1121.02  Z
  " fill="#009af9" fill-rule="evenodd" fill-opacity="1"/>
<polyline clip-path="url(#clip522)" style="stroke:#000000; stroke-linecap:butt; stroke-linejoin:round; stroke-width:4; stroke-opacity:1; fill:none" points="
  973.139,1121.02 973.139,1445.72 1006.95,1445.72 1006.95,1121.02 973.139,1121.02 
  "/>
<path clip-path="url(#clip522)" d="
M1006.95 1007.95 L1006.95 1445.72 L1040.77 1445.72 L1040.77 1007.95 L1006.95 1007.95 L1006.95 1007.95  Z
  " fill="#009af9" fill-rule="evenodd" fill-opacity="1"/>
<polyline clip-path="url(#clip522)" style="stroke:#000000; stroke-linecap:butt; stroke-linejoin:round; stroke-width:4; stroke-opacity:1; fill:none" points="
  1006.95,1007.95 1006.95,1445.72 1040.77,1445.72 1040.77,1007.95 1006.95,1007.95 
  "/>
<path clip-path="url(#clip522)" d="
M1040.77 881.007 L1040.77 1445.72 L1074.58 1445.72 L1074.58 881.007 L1040.77 881.007 L1040.77 881.007  Z
  " fill="#009af9" fill-rule="evenodd" fill-opacity="1"/>
<polyline clip-path="url(#clip522)" style="stroke:#000000; stroke-linecap:butt; stroke-linejoin:round; stroke-width:4; stroke-opacity:1; fill:none" points="
  1040.77,881.007 1040.77,1445.72 1074.58,1445.72 1074.58,881.007 1040.77,881.007 
  "/>
<path clip-path="url(#clip522)" d="
M1074.58 717.323 L1074.58 1445.72 L1108.4 1445.72 L1108.4 717.323 L1074.58 717.323 L1074.58 717.323  Z
  " fill="#009af9" fill-rule="evenodd" fill-opacity="1"/>
<polyline clip-path="url(#clip522)" style="stroke:#000000; stroke-linecap:butt; stroke-linejoin:round; stroke-width:4; stroke-opacity:1; fill:none" points="
  1074.58,717.323 1074.58,1445.72 1108.4,1445.72 1108.4,717.323 1074.58,717.323 
  "/>
<path clip-path="url(#clip522)" d="
M1108.4 558.65 L1108.4 1445.72 L1142.21 1445.72 L1142.21 558.65 L1108.4 558.65 L1108.4 558.65  Z
  " fill="#009af9" fill-rule="evenodd" fill-opacity="1"/>
<polyline clip-path="url(#clip522)" style="stroke:#000000; stroke-linecap:butt; stroke-linejoin:round; stroke-width:4; stroke-opacity:1; fill:none" points="
  1108.4,558.65 1108.4,1445.72 1142.21,1445.72 1142.21,558.65 1108.4,558.65 
  "/>
<path clip-path="url(#clip522)" d="
M1142.21 388.286 L1142.21 1445.72 L1176.02 1445.72 L1176.02 388.286 L1142.21 388.286 L1142.21 388.286  Z
  " fill="#009af9" fill-rule="evenodd" fill-opacity="1"/>
<polyline clip-path="url(#clip522)" style="stroke:#000000; stroke-linecap:butt; stroke-linejoin:round; stroke-width:4; stroke-opacity:1; fill:none" points="
  1142.21,388.286 1142.21,1445.72 1176.02,1445.72 1176.02,388.286 1142.21,388.286 
  "/>
<path clip-path="url(#clip522)" d="
M1176.02 293.416 L1176.02 1445.72 L1209.84 1445.72 L1209.84 293.416 L1176.02 293.416 L1176.02 293.416  Z
  " fill="#009af9" fill-rule="evenodd" fill-opacity="1"/>
<polyline clip-path="url(#clip522)" style="stroke:#000000; stroke-linecap:butt; stroke-linejoin:round; stroke-width:4; stroke-opacity:1; fill:none" points="
  1176.02,293.416 1176.02,1445.72 1209.84,1445.72 1209.84,293.416 1176.02,293.416 
  "/>
<path clip-path="url(#clip522)" d="
M1209.84 169.985 L1209.84 1445.72 L1243.65 1445.72 L1243.65 169.985 L1209.84 169.985 L1209.84 169.985  Z
  " fill="#009af9" fill-rule="evenodd" fill-opacity="1"/>
<polyline clip-path="url(#clip522)" style="stroke:#000000; stroke-linecap:butt; stroke-linejoin:round; stroke-width:4; stroke-opacity:1; fill:none" points="
  1209.84,169.985 1209.84,1445.72 1243.65,1445.72 1243.65,169.985 1209.84,169.985 
  "/>
<path clip-path="url(#clip522)" d="
M1243.65 138.919 L1243.65 1445.72 L1277.47 1445.72 L1277.47 138.919 L1243.65 138.919 L1243.65 138.919  Z
  " fill="#009af9" fill-rule="evenodd" fill-opacity="1"/>
<polyline clip-path="url(#clip522)" style="stroke:#000000; stroke-linecap:butt; stroke-linejoin:round; stroke-width:4; stroke-opacity:1; fill:none" points="
  1243.65,138.919 1243.65,1445.72 1277.47,1445.72 1277.47,138.919 1243.65,138.919 
  "/>
<path clip-path="url(#clip522)" d="
M1277.47 87.9763 L1277.47 1445.72 L1311.28 1445.72 L1311.28 87.9763 L1277.47 87.9763 L1277.47 87.9763  Z
  " fill="#009af9" fill-rule="evenodd" fill-opacity="1"/>
<polyline clip-path="url(#clip522)" style="stroke:#000000; stroke-linecap:butt; stroke-linejoin:round; stroke-width:4; stroke-opacity:1; fill:none" points="
  1277.47,87.9763 1277.47,1445.72 1311.28,1445.72 1311.28,87.9763 1277.47,87.9763 
  "/>
<path clip-path="url(#clip522)" d="
M1311.28 163.638 L1311.28 1445.72 L1345.09 1445.72 L1345.09 163.638 L1311.28 163.638 L1311.28 163.638  Z
  " fill="#009af9" fill-rule="evenodd" fill-opacity="1"/>
<polyline clip-path="url(#clip522)" style="stroke:#000000; stroke-linecap:butt; stroke-linejoin:round; stroke-width:4; stroke-opacity:1; fill:none" points="
  1311.28,163.638 1311.28,1445.72 1345.09,1445.72 1345.09,163.638 1311.28,163.638 
  "/>
<path clip-path="url(#clip522)" d="
M1345.09 278.885 L1345.09 1445.72 L1378.91 1445.72 L1378.91 278.885 L1345.09 278.885 L1345.09 278.885  Z
  " fill="#009af9" fill-rule="evenodd" fill-opacity="1"/>
<polyline clip-path="url(#clip522)" style="stroke:#000000; stroke-linecap:butt; stroke-linejoin:round; stroke-width:4; stroke-opacity:1; fill:none" points="
  1345.09,278.885 1345.09,1445.72 1378.91,1445.72 1378.91,278.885 1345.09,278.885 
  "/>
<path clip-path="url(#clip522)" d="
M1378.91 411.502 L1378.91 1445.72 L1412.72 1445.72 L1412.72 411.502 L1378.91 411.502 L1378.91 411.502  Z
  " fill="#009af9" fill-rule="evenodd" fill-opacity="1"/>
<polyline clip-path="url(#clip522)" style="stroke:#000000; stroke-linecap:butt; stroke-linejoin:round; stroke-width:4; stroke-opacity:1; fill:none" points="
  1378.91,411.502 1378.91,1445.72 1412.72,1445.72 1412.72,411.502 1378.91,411.502 
  "/>
<path clip-path="url(#clip522)" d="
M1412.72 570.676 L1412.72 1445.72 L1446.54 1445.72 L1446.54 570.676 L1412.72 570.676 L1412.72 570.676  Z
  " fill="#009af9" fill-rule="evenodd" fill-opacity="1"/>
<polyline clip-path="url(#clip522)" style="stroke:#000000; stroke-linecap:butt; stroke-linejoin:round; stroke-width:4; stroke-opacity:1; fill:none" points="
  1412.72,570.676 1412.72,1445.72 1446.54,1445.72 1446.54,570.676 1412.72,570.676 
  "/>
<path clip-path="url(#clip522)" d="
M1446.54 714.317 L1446.54 1445.72 L1480.35 1445.72 L1480.35 714.317 L1446.54 714.317 L1446.54 714.317  Z
  " fill="#009af9" fill-rule="evenodd" fill-opacity="1"/>
<polyline clip-path="url(#clip522)" style="stroke:#000000; stroke-linecap:butt; stroke-linejoin:round; stroke-width:4; stroke-opacity:1; fill:none" points="
  1446.54,714.317 1446.54,1445.72 1480.35,1445.72 1480.35,714.317 1446.54,714.317 
  "/>
<path clip-path="url(#clip522)" d="
M1480.35 861.465 L1480.35 1445.72 L1514.17 1445.72 L1514.17 861.465 L1480.35 861.465 L1480.35 861.465  Z
  " fill="#009af9" fill-rule="evenodd" fill-opacity="1"/>
<polyline clip-path="url(#clip522)" style="stroke:#000000; stroke-linecap:butt; stroke-linejoin:round; stroke-width:4; stroke-opacity:1; fill:none" points="
  1480.35,861.465 1480.35,1445.72 1514.17,1445.72 1514.17,861.465 1480.35,861.465 
  "/>
<path clip-path="url(#clip522)" d="
M1514.17 1025.65 L1514.17 1445.72 L1547.98 1445.72 L1547.98 1025.65 L1514.17 1025.65 L1514.17 1025.65  Z
  " fill="#009af9" fill-rule="evenodd" fill-opacity="1"/>
<polyline clip-path="url(#clip522)" style="stroke:#000000; stroke-linecap:butt; stroke-linejoin:round; stroke-width:4; stroke-opacity:1; fill:none" points="
  1514.17,1025.65 1514.17,1445.72 1547.98,1445.72 1547.98,1025.65 1514.17,1025.65 
  "/>
<path clip-path="url(#clip522)" d="
M1547.98 1131.21 L1547.98 1445.72 L1581.79 1445.72 L1581.79 1131.21 L1547.98 1131.21 L1547.98 1131.21  Z
  " fill="#009af9" fill-rule="evenodd" fill-opacity="1"/>
<polyline clip-path="url(#clip522)" style="stroke:#000000; stroke-linecap:butt; stroke-linejoin:round; stroke-width:4; stroke-opacity:1; fill:none" points="
  1547.98,1131.21 1547.98,1445.72 1581.79,1445.72 1581.79,1131.21 1547.98,1131.21 
  "/>
<path clip-path="url(#clip522)" d="
M1581.79 1227.42 L1581.79 1445.72 L1615.61 1445.72 L1615.61 1227.42 L1581.79 1227.42 L1581.79 1227.42  Z
  " fill="#009af9" fill-rule="evenodd" fill-opacity="1"/>
<polyline clip-path="url(#clip522)" style="stroke:#000000; stroke-linecap:butt; stroke-linejoin:round; stroke-width:4; stroke-opacity:1; fill:none" points="
  1581.79,1227.42 1581.79,1445.72 1615.61,1445.72 1615.61,1227.42 1581.79,1227.42 
  "/>
<path clip-path="url(#clip522)" d="
M1615.61 1301.57 L1615.61 1445.72 L1649.42 1445.72 L1649.42 1301.57 L1615.61 1301.57 L1615.61 1301.57  Z
  " fill="#009af9" fill-rule="evenodd" fill-opacity="1"/>
<polyline clip-path="url(#clip522)" style="stroke:#000000; stroke-linecap:butt; stroke-linejoin:round; stroke-width:4; stroke-opacity:1; fill:none" points="
  1615.61,1301.57 1615.61,1445.72 1649.42,1445.72 1649.42,1301.57 1615.61,1301.57 
  "/>
<path clip-path="url(#clip522)" d="
M1649.42 1341.66 L1649.42 1445.72 L1683.24 1445.72 L1683.24 1341.66 L1649.42 1341.66 L1649.42 1341.66  Z
  " fill="#009af9" fill-rule="evenodd" fill-opacity="1"/>
<polyline clip-path="url(#clip522)" style="stroke:#000000; stroke-linecap:butt; stroke-linejoin:round; stroke-width:4; stroke-opacity:1; fill:none" points="
  1649.42,1341.66 1649.42,1445.72 1683.24,1445.72 1683.24,1341.66 1649.42,1341.66 
  "/>
<path clip-path="url(#clip522)" d="
M1683.24 1388.26 L1683.24 1445.72 L1717.05 1445.72 L1717.05 1388.26 L1683.24 1388.26 L1683.24 1388.26  Z
  " fill="#009af9" fill-rule="evenodd" fill-opacity="1"/>
<polyline clip-path="url(#clip522)" style="stroke:#000000; stroke-linecap:butt; stroke-linejoin:round; stroke-width:4; stroke-opacity:1; fill:none" points="
  1683.24,1388.26 1683.24,1445.72 1717.05,1445.72 1717.05,1388.26 1683.24,1388.26 
  "/>
<path clip-path="url(#clip522)" d="
M1717.05 1407.97 L1717.05 1445.72 L1750.86 1445.72 L1750.86 1407.97 L1717.05 1407.97 L1717.05 1407.97  Z
  " fill="#009af9" fill-rule="evenodd" fill-opacity="1"/>
<polyline clip-path="url(#clip522)" style="stroke:#000000; stroke-linecap:butt; stroke-linejoin:round; stroke-width:4; stroke-opacity:1; fill:none" points="
  1717.05,1407.97 1717.05,1445.72 1750.86,1445.72 1750.86,1407.97 1717.05,1407.97 
  "/>
<path clip-path="url(#clip522)" d="
M1750.86 1425.17 L1750.86 1445.72 L1784.68 1445.72 L1784.68 1425.17 L1750.86 1425.17 L1750.86 1425.17  Z
  " fill="#009af9" fill-rule="evenodd" fill-opacity="1"/>
<polyline clip-path="url(#clip522)" style="stroke:#000000; stroke-linecap:butt; stroke-linejoin:round; stroke-width:4; stroke-opacity:1; fill:none" points="
  1750.86,1425.17 1750.86,1445.72 1784.68,1445.72 1784.68,1425.17 1750.86,1425.17 
  "/>
<path clip-path="url(#clip522)" d="
M1784.68 1433.19 L1784.68 1445.72 L1818.49 1445.72 L1818.49 1433.19 L1784.68 1433.19 L1784.68 1433.19  Z
  " fill="#009af9" fill-rule="evenodd" fill-opacity="1"/>
<polyline clip-path="url(#clip522)" style="stroke:#000000; stroke-linecap:butt; stroke-linejoin:round; stroke-width:4; stroke-opacity:1; fill:none" points="
  1784.68,1433.19 1784.68,1445.72 1818.49,1445.72 1818.49,1433.19 1784.68,1433.19 
  "/>
<path clip-path="url(#clip522)" d="
M1818.49 1439.03 L1818.49 1445.72 L1852.31 1445.72 L1852.31 1439.03 L1818.49 1439.03 L1818.49 1439.03  Z
  " fill="#009af9" fill-rule="evenodd" fill-opacity="1"/>
<polyline clip-path="url(#clip522)" style="stroke:#000000; stroke-linecap:butt; stroke-linejoin:round; stroke-width:4; stroke-opacity:1; fill:none" points="
  1818.49,1439.03 1818.49,1445.72 1852.31,1445.72 1852.31,1439.03 1818.49,1439.03 
  "/>
<path clip-path="url(#clip522)" d="
M1852.31 1440.7 L1852.31 1445.72 L1886.12 1445.72 L1886.12 1440.7 L1852.31 1440.7 L1852.31 1440.7  Z
  " fill="#009af9" fill-rule="evenodd" fill-opacity="1"/>
<polyline clip-path="url(#clip522)" style="stroke:#000000; stroke-linecap:butt; stroke-linejoin:round; stroke-width:4; stroke-opacity:1; fill:none" points="
  1852.31,1440.7 1852.31,1445.72 1886.12,1445.72 1886.12,1440.7 1852.31,1440.7 
  "/>
<path clip-path="url(#clip522)" d="
M1886.12 1443.71 L1886.12 1445.72 L1919.93 1445.72 L1919.93 1443.71 L1886.12 1443.71 L1886.12 1443.71  Z
  " fill="#009af9" fill-rule="evenodd" fill-opacity="1"/>
<polyline clip-path="url(#clip522)" style="stroke:#000000; stroke-linecap:butt; stroke-linejoin:round; stroke-width:4; stroke-opacity:1; fill:none" points="
  1886.12,1443.71 1886.12,1445.72 1919.93,1445.72 1919.93,1443.71 1886.12,1443.71 
  "/>
<path clip-path="url(#clip522)" d="
M1919.93 1444.71 L1919.93 1445.72 L1953.75 1445.72 L1953.75 1444.71 L1919.93 1444.71 L1919.93 1444.71  Z
  " fill="#009af9" fill-rule="evenodd" fill-opacity="1"/>
<polyline clip-path="url(#clip522)" style="stroke:#000000; stroke-linecap:butt; stroke-linejoin:round; stroke-width:4; stroke-opacity:1; fill:none" points="
  1919.93,1444.71 1919.93,1445.72 1953.75,1445.72 1953.75,1444.71 1919.93,1444.71 
  "/>
<path clip-path="url(#clip522)" d="
M1953.75 1445.05 L1953.75 1445.72 L1987.56 1445.72 L1987.56 1445.05 L1953.75 1445.05 L1953.75 1445.05  Z
  " fill="#009af9" fill-rule="evenodd" fill-opacity="1"/>
<polyline clip-path="url(#clip522)" style="stroke:#000000; stroke-linecap:butt; stroke-linejoin:round; stroke-width:4; stroke-opacity:1; fill:none" points="
  1953.75,1445.05 1953.75,1445.72 1987.56,1445.72 1987.56,1445.05 1953.75,1445.05 
  "/>
<circle clip-path="url(#clip522)" style="fill:#009af9; stroke:none; fill-opacity:0" cx="449.02" cy="1445.55" r="2"/>
<circle clip-path="url(#clip522)" style="fill:#009af9; stroke:none; fill-opacity:0" cx="482.834" cy="1445.72" r="2"/>
<circle clip-path="url(#clip522)" style="fill:#009af9; stroke:none; fill-opacity:0" cx="516.648" cy="1445.38" r="2"/>
<circle clip-path="url(#clip522)" style="fill:#009af9; stroke:none; fill-opacity:0" cx="550.462" cy="1445.72" r="2"/>
<circle clip-path="url(#clip522)" style="fill:#009af9; stroke:none; fill-opacity:0" cx="584.276" cy="1444.88" r="2"/>
<circle clip-path="url(#clip522)" style="fill:#009af9; stroke:none; fill-opacity:0" cx="618.091" cy="1445.21" r="2"/>
<circle clip-path="url(#clip522)" style="fill:#009af9; stroke:none; fill-opacity:0" cx="651.905" cy="1444.05" r="2"/>
<circle clip-path="url(#clip522)" style="fill:#009af9; stroke:none; fill-opacity:0" cx="685.719" cy="1442.54" r="2"/>
<circle clip-path="url(#clip522)" style="fill:#009af9; stroke:none; fill-opacity:0" cx="719.533" cy="1440.2" r="2"/>
<circle clip-path="url(#clip522)" style="fill:#009af9; stroke:none; fill-opacity:0" cx="753.347" cy="1436.03" r="2"/>
<circle clip-path="url(#clip522)" style="fill:#009af9; stroke:none; fill-opacity:0" cx="787.161" cy="1424.34" r="2"/>
<circle clip-path="url(#clip522)" style="fill:#009af9; stroke:none; fill-opacity:0" cx="820.975" cy="1409.97" r="2"/>
<circle clip-path="url(#clip522)" style="fill:#009af9; stroke:none; fill-opacity:0" cx="854.79" cy="1386.92" r="2"/>
<circle clip-path="url(#clip522)" style="fill:#009af9; stroke:none; fill-opacity:0" cx="888.604" cy="1343.83" r="2"/>
<circle clip-path="url(#clip522)" style="fill:#009af9; stroke:none; fill-opacity:0" cx="922.418" cy="1301.74" r="2"/>
<circle clip-path="url(#clip522)" style="fill:#009af9; stroke:none; fill-opacity:0" cx="956.232" cy="1238.1" r="2"/>
<circle clip-path="url(#clip522)" style="fill:#009af9; stroke:none; fill-opacity:0" cx="990.046" cy="1121.02" r="2"/>
<circle clip-path="url(#clip522)" style="fill:#009af9; stroke:none; fill-opacity:0" cx="1023.86" cy="1007.95" r="2"/>
<circle clip-path="url(#clip522)" style="fill:#009af9; stroke:none; fill-opacity:0" cx="1057.67" cy="881.007" r="2"/>
<circle clip-path="url(#clip522)" style="fill:#009af9; stroke:none; fill-opacity:0" cx="1091.49" cy="717.323" r="2"/>
<circle clip-path="url(#clip522)" style="fill:#009af9; stroke:none; fill-opacity:0" cx="1125.3" cy="558.65" r="2"/>
<circle clip-path="url(#clip522)" style="fill:#009af9; stroke:none; fill-opacity:0" cx="1159.12" cy="388.286" r="2"/>
<circle clip-path="url(#clip522)" style="fill:#009af9; stroke:none; fill-opacity:0" cx="1192.93" cy="293.416" r="2"/>
<circle clip-path="url(#clip522)" style="fill:#009af9; stroke:none; fill-opacity:0" cx="1226.75" cy="169.985" r="2"/>
<circle clip-path="url(#clip522)" style="fill:#009af9; stroke:none; fill-opacity:0" cx="1260.56" cy="138.919" r="2"/>
<circle clip-path="url(#clip522)" style="fill:#009af9; stroke:none; fill-opacity:0" cx="1294.37" cy="87.9763" r="2"/>
<circle clip-path="url(#clip522)" style="fill:#009af9; stroke:none; fill-opacity:0" cx="1328.19" cy="163.638" r="2"/>
<circle clip-path="url(#clip522)" style="fill:#009af9; stroke:none; fill-opacity:0" cx="1362" cy="278.885" r="2"/>
<circle clip-path="url(#clip522)" style="fill:#009af9; stroke:none; fill-opacity:0" cx="1395.82" cy="411.502" r="2"/>
<circle clip-path="url(#clip522)" style="fill:#009af9; stroke:none; fill-opacity:0" cx="1429.63" cy="570.676" r="2"/>
<circle clip-path="url(#clip522)" style="fill:#009af9; stroke:none; fill-opacity:0" cx="1463.44" cy="714.317" r="2"/>
<circle clip-path="url(#clip522)" style="fill:#009af9; stroke:none; fill-opacity:0" cx="1497.26" cy="861.465" r="2"/>
<circle clip-path="url(#clip522)" style="fill:#009af9; stroke:none; fill-opacity:0" cx="1531.07" cy="1025.65" r="2"/>
<circle clip-path="url(#clip522)" style="fill:#009af9; stroke:none; fill-opacity:0" cx="1564.89" cy="1131.21" r="2"/>
<circle clip-path="url(#clip522)" style="fill:#009af9; stroke:none; fill-opacity:0" cx="1598.7" cy="1227.42" r="2"/>
<circle clip-path="url(#clip522)" style="fill:#009af9; stroke:none; fill-opacity:0" cx="1632.51" cy="1301.57" r="2"/>
<circle clip-path="url(#clip522)" style="fill:#009af9; stroke:none; fill-opacity:0" cx="1666.33" cy="1341.66" r="2"/>
<circle clip-path="url(#clip522)" style="fill:#009af9; stroke:none; fill-opacity:0" cx="1700.14" cy="1388.26" r="2"/>
<circle clip-path="url(#clip522)" style="fill:#009af9; stroke:none; fill-opacity:0" cx="1733.96" cy="1407.97" r="2"/>
<circle clip-path="url(#clip522)" style="fill:#009af9; stroke:none; fill-opacity:0" cx="1767.77" cy="1425.17" r="2"/>
<circle clip-path="url(#clip522)" style="fill:#009af9; stroke:none; fill-opacity:0" cx="1801.59" cy="1433.19" r="2"/>
<circle clip-path="url(#clip522)" style="fill:#009af9; stroke:none; fill-opacity:0" cx="1835.4" cy="1439.03" r="2"/>
<circle clip-path="url(#clip522)" style="fill:#009af9; stroke:none; fill-opacity:0" cx="1869.21" cy="1440.7" r="2"/>
<circle clip-path="url(#clip522)" style="fill:#009af9; stroke:none; fill-opacity:0" cx="1903.03" cy="1443.71" r="2"/>
<circle clip-path="url(#clip522)" style="fill:#009af9; stroke:none; fill-opacity:0" cx="1936.84" cy="1444.71" r="2"/>
<circle clip-path="url(#clip522)" style="fill:#009af9; stroke:none; fill-opacity:0" cx="1970.66" cy="1445.05" r="2"/>
<polyline clip-path="url(#clip522)" style="stroke:#e26f46; stroke-linecap:butt; stroke-linejoin:round; stroke-width:20; stroke-opacity:1; fill:none" points="
  263.042,1445.72 295.246,1445.72 327.45,1445.72 359.654,1445.72 391.858,1445.72 424.062,1445.72 456.266,1445.55 488.47,1445.38 520.674,1445.72 552.878,1445.38 
  585.082,1445.05 617.285,1445.05 649.489,1443.88 681.693,1443.21 713.897,1440.04 746.101,1436.36 778.305,1426.51 810.509,1417.32 842.713,1399.78 874.917,1382.41 
  907.121,1350.34 939.325,1325.12 971.529,1277.52 1003.73,1230.25 1035.94,1176.14 1068.14,1113.84 1100.34,1057.05 1132.55,980.386 1164.75,918.086 1196.96,869.148 
  1229.16,807.182 1261.36,817.371 1293.57,790.313 1325.77,817.371 1357.98,858.125 1390.18,919.423 1422.38,996.254 1454.59,1033.83 1486.79,1119.85 1519,1187.83 
  1551.2,1241.28 1583.4,1277.19 1615.61,1322.12 1647.81,1351.35 1680.02,1376.57 1712.22,1400.45 1744.42,1416.15 1776.63,1427.68 1808.83,1434.69 1841.04,1439.03 
  1873.24,1440.87 1905.44,1443.54 1937.65,1444.38 1969.85,1445.38 2002.05,1445.21 2034.26,1445.72 2066.46,1445.72 2098.67,1445.72 2130.87,1445.72 2163.07,1445.72 
  2195.28,1445.72 2227.48,1445.72 2259.69,1445.72 2291.89,1445.72 
  "/>
<path clip-path="url(#clip520)" d="
M1989.69 250.738 L2281.07 250.738 L2281.07 95.2176 L1989.69 95.2176  Z
  " fill="#ffffff" fill-rule="evenodd" fill-opacity="1"/>
<polyline clip-path="url(#clip520)" style="stroke:#000000; stroke-linecap:butt; stroke-linejoin:round; stroke-width:4; stroke-opacity:1; fill:none" points="
  1989.69,250.738 2281.07,250.738 2281.07,95.2176 1989.69,95.2176 1989.69,250.738 
  "/>
<path clip-path="url(#clip520)" d="
M2013.58 167.794 L2156.95 167.794 L2156.95 126.322 L2013.58 126.322 L2013.58 167.794  Z
  " fill="#009af9" fill-rule="evenodd" fill-opacity="1"/>
<polyline clip-path="url(#clip520)" style="stroke:#000000; stroke-linecap:butt; stroke-linejoin:round; stroke-width:4; stroke-opacity:1; fill:none" points="
  2013.58,167.794 2156.95,167.794 2156.95,126.322 2013.58,126.322 2013.58,167.794 
  "/>
<path clip-path="url(#clip520)" d="M2194.69 166.745 Q2192.89 171.375 2191.17 172.787 Q2189.46 174.199 2186.59 174.199 L2183.19 174.199 L2183.19 170.634 L2185.69 170.634 Q2187.45 170.634 2188.42 169.8 Q2189.39 168.967 2190.57 165.865 L2191.34 163.921 L2180.85 138.412 L2185.36 138.412 L2193.46 158.689 L2201.57 138.412 L2206.08 138.412 L2194.69 166.745 Z" fill="#000000" fill-rule="evenodd" fill-opacity="1" /><path clip-path="url(#clip520)" d="M2213.37 160.402 L2221.01 160.402 L2221.01 134.037 L2212.7 135.703 L2212.7 131.444 L2220.96 129.778 L2225.64 129.778 L2225.64 160.402 L2233.28 160.402 L2233.28 164.338 L2213.37 164.338 L2213.37 160.402 Z" fill="#000000" fill-rule="evenodd" fill-opacity="1" /><polyline clip-path="url(#clip520)" style="stroke:#e26f46; stroke-linecap:butt; stroke-linejoin:round; stroke-width:4; stroke-opacity:1; fill:none" points="
  2013.58,198.898 2156.95,198.898 
  "/>
<path clip-path="url(#clip520)" d="M2194.69 218.585 Q2192.89 223.215 2191.17 224.627 Q2189.46 226.039 2186.59 226.039 L2183.19 226.039 L2183.19 222.474 L2185.69 222.474 Q2187.45 222.474 2188.42 221.64 Q2189.39 220.807 2190.57 217.705 L2191.34 215.761 L2180.85 190.252 L2185.36 190.252 L2193.46 210.529 L2201.57 190.252 L2206.08 190.252 L2194.69 218.585 Z" fill="#000000" fill-rule="evenodd" fill-opacity="1" /><path clip-path="url(#clip520)" d="M2216.59 212.242 L2232.91 212.242 L2232.91 216.178 L2210.96 216.178 L2210.96 212.242 Q2213.63 209.488 2218.21 204.858 Q2222.82 200.205 2224 198.863 Q2226.24 196.34 2227.12 194.604 Q2228.02 192.844 2228.02 191.155 Q2228.02 188.4 2226.08 186.664 Q2224.16 184.928 2221.06 184.928 Q2218.86 184.928 2216.4 185.692 Q2213.97 186.455 2211.2 188.006 L2211.2 183.284 Q2214.02 182.15 2216.47 181.571 Q2218.93 180.993 2220.96 180.993 Q2226.33 180.993 2229.53 183.678 Q2232.72 186.363 2232.72 190.854 Q2232.72 192.983 2231.91 194.905 Q2231.13 196.803 2229.02 199.395 Q2228.44 200.067 2225.34 203.284 Q2222.24 206.479 2216.59 212.242 Z" fill="#000000" fill-rule="evenodd" fill-opacity="1" /></svg>
