<?xml version="1.0" encoding="utf-8"?>
<svg xmlns="http://www.w3.org/2000/svg" xmlns:xlink="http://www.w3.org/1999/xlink" width="600" height="400" viewBox="0 0 2400 1600">
<defs>
  <clipPath id="clip930">
    <rect x="0" y="0" width="2400" height="1600"/>
  </clipPath>
</defs>
<path clip-path="url(#clip930)" d="
M0 1600 L2400 1600 L2400 0 L0 0  Z
  " fill="#ffffff" fill-rule="evenodd" fill-opacity="1"/>
<defs>
  <clipPath id="clip931">
    <rect x="480" y="0" width="1681" height="1600"/>
  </clipPath>
</defs>
<path clip-path="url(#clip930)" d="
M186.274 1486.45 L2352.76 1486.45 L2352.76 47.2441 L186.274 47.2441  Z
  " fill="#ffffff" fill-rule="evenodd" fill-opacity="1"/>
<defs>
  <clipPath id="clip932">
    <rect x="186" y="47" width="2167" height="1440"/>
  </clipPath>
</defs>
<polyline clip-path="url(#clip932)" style="stroke:#000000; stroke-linecap:butt; stroke-linejoin:round; stroke-width:2; stroke-opacity:0.1; fill:none" points="
  247.59,1486.45 247.59,47.2441 
  "/>
<polyline clip-path="url(#clip932)" style="stroke:#000000; stroke-linecap:butt; stroke-linejoin:round; stroke-width:2; stroke-opacity:0.1; fill:none" points="
  656.36,1486.45 656.36,47.2441 
  "/>
<polyline clip-path="url(#clip932)" style="stroke:#000000; stroke-linecap:butt; stroke-linejoin:round; stroke-width:2; stroke-opacity:0.1; fill:none" points="
  1065.13,1486.45 1065.13,47.2441 
  "/>
<polyline clip-path="url(#clip932)" style="stroke:#000000; stroke-linecap:butt; stroke-linejoin:round; stroke-width:2; stroke-opacity:0.1; fill:none" points="
  1473.9,1486.45 1473.9,47.2441 
  "/>
<polyline clip-path="url(#clip932)" style="stroke:#000000; stroke-linecap:butt; stroke-linejoin:round; stroke-width:2; stroke-opacity:0.1; fill:none" points="
  1882.67,1486.45 1882.67,47.2441 
  "/>
<polyline clip-path="url(#clip932)" style="stroke:#000000; stroke-linecap:butt; stroke-linejoin:round; stroke-width:2; stroke-opacity:0.1; fill:none" points="
  2291.44,1486.45 2291.44,47.2441 
  "/>
<polyline clip-path="url(#clip930)" style="stroke:#000000; stroke-linecap:butt; stroke-linejoin:round; stroke-width:4; stroke-opacity:1; fill:none" points="
  186.274,1486.45 2352.76,1486.45 
  "/>
<polyline clip-path="url(#clip930)" style="stroke:#000000; stroke-linecap:butt; stroke-linejoin:round; stroke-width:4; stroke-opacity:1; fill:none" points="
  247.59,1486.45 247.59,1467.55 
  "/>
<polyline clip-path="url(#clip930)" style="stroke:#000000; stroke-linecap:butt; stroke-linejoin:round; stroke-width:4; stroke-opacity:1; fill:none" points="
  656.36,1486.45 656.36,1467.55 
  "/>
<polyline clip-path="url(#clip930)" style="stroke:#000000; stroke-linecap:butt; stroke-linejoin:round; stroke-width:4; stroke-opacity:1; fill:none" points="
  1065.13,1486.45 1065.13,1467.55 
  "/>
<polyline clip-path="url(#clip930)" style="stroke:#000000; stroke-linecap:butt; stroke-linejoin:round; stroke-width:4; stroke-opacity:1; fill:none" points="
  1473.9,1486.45 1473.9,1467.55 
  "/>
<polyline clip-path="url(#clip930)" style="stroke:#000000; stroke-linecap:butt; stroke-linejoin:round; stroke-width:4; stroke-opacity:1; fill:none" points="
  1882.67,1486.45 1882.67,1467.55 
  "/>
<polyline clip-path="url(#clip930)" style="stroke:#000000; stroke-linecap:butt; stroke-linejoin:round; stroke-width:4; stroke-opacity:1; fill:none" points="
  2291.44,1486.45 2291.44,1467.55 
  "/>
<path clip-path="url(#clip930)" d="M247.59 1517.37 Q243.978 1517.37 242.15 1520.93 Q240.344 1524.47 240.344 1531.6 Q240.344 1538.71 242.15 1542.27 Q243.978 1545.82 247.59 1545.82 Q251.224 1545.82 253.029 1542.27 Q254.858 1538.71 254.858 1531.6 Q254.858 1524.47 253.029 1520.93 Q251.224 1517.37 247.59 1517.37 M247.59 1513.66 Q253.4 1513.66 256.455 1518.27 Q259.534 1522.85 259.534 1531.6 Q259.534 1540.33 256.455 1544.94 Q253.4 1549.52 247.59 1549.52 Q241.779 1549.52 238.701 1544.94 Q235.645 1540.33 235.645 1531.6 Q235.645 1522.85 238.701 1518.27 Q241.779 1513.66 247.59 1513.66 Z" fill="#000000" fill-rule="evenodd" fill-opacity="1" /><path clip-path="url(#clip930)" d="M646.742 1544.91 L654.381 1544.91 L654.381 1518.55 L646.07 1520.21 L646.07 1515.95 L654.334 1514.29 L659.01 1514.29 L659.01 1544.91 L666.649 1544.91 L666.649 1548.85 L646.742 1548.85 L646.742 1544.91 Z" fill="#000000" fill-rule="evenodd" fill-opacity="1" /><path clip-path="url(#clip930)" d="M1059.78 1544.91 L1076.1 1544.91 L1076.1 1548.85 L1054.16 1548.85 L1054.16 1544.91 Q1056.82 1542.16 1061.4 1537.53 Q1066.01 1532.88 1067.19 1531.53 Q1069.44 1529.01 1070.32 1527.27 Q1071.22 1525.51 1071.22 1523.82 Q1071.22 1521.07 1069.27 1519.33 Q1067.35 1517.6 1064.25 1517.6 Q1062.05 1517.6 1059.6 1518.36 Q1057.17 1519.13 1054.39 1520.68 L1054.39 1515.95 Q1057.21 1514.82 1059.67 1514.24 Q1062.12 1513.66 1064.16 1513.66 Q1069.53 1513.66 1072.72 1516.35 Q1075.92 1519.03 1075.92 1523.52 Q1075.92 1525.65 1075.11 1527.57 Q1074.32 1529.47 1072.21 1532.07 Q1071.63 1532.74 1068.53 1535.95 Q1065.43 1539.15 1059.78 1544.91 Z" fill="#000000" fill-rule="evenodd" fill-opacity="1" /><path clip-path="url(#clip930)" d="M1478.15 1530.21 Q1481.5 1530.93 1483.38 1533.2 Q1485.28 1535.47 1485.28 1538.8 Q1485.28 1543.92 1481.76 1546.72 Q1478.24 1549.52 1471.76 1549.52 Q1469.58 1549.52 1467.27 1549.08 Q1464.98 1548.66 1462.52 1547.81 L1462.52 1543.29 Q1464.47 1544.43 1466.78 1545.01 Q1469.1 1545.58 1471.62 1545.58 Q1476.02 1545.58 1478.31 1543.85 Q1480.62 1542.11 1480.62 1538.8 Q1480.62 1535.75 1478.47 1534.03 Q1476.34 1532.3 1472.52 1532.3 L1468.49 1532.3 L1468.49 1528.45 L1472.71 1528.45 Q1476.16 1528.45 1477.99 1527.09 Q1479.81 1525.7 1479.81 1523.11 Q1479.81 1520.45 1477.92 1519.03 Q1476.04 1517.6 1472.52 1517.6 Q1470.6 1517.6 1468.4 1518.01 Q1466.2 1518.43 1463.56 1519.31 L1463.56 1515.14 Q1466.23 1514.4 1468.54 1514.03 Q1470.88 1513.66 1472.94 1513.66 Q1478.26 1513.66 1481.37 1516.09 Q1484.47 1518.5 1484.47 1522.62 Q1484.47 1525.49 1482.82 1527.48 Q1481.18 1529.45 1478.15 1530.21 Z" fill="#000000" fill-rule="evenodd" fill-opacity="1" /><path clip-path="url(#clip930)" d="M1885.68 1518.36 L1873.87 1536.81 L1885.68 1536.81 L1885.68 1518.36 M1884.45 1514.29 L1890.33 1514.29 L1890.33 1536.81 L1895.26 1536.81 L1895.26 1540.7 L1890.33 1540.7 L1890.33 1548.85 L1885.68 1548.85 L1885.68 1540.7 L1870.08 1540.7 L1870.08 1536.19 L1884.45 1514.29 Z" fill="#000000" fill-rule="evenodd" fill-opacity="1" /><path clip-path="url(#clip930)" d="M2281.72 1514.29 L2300.07 1514.29 L2300.07 1518.22 L2286 1518.22 L2286 1526.7 Q2287.02 1526.35 2288.04 1526.19 Q2289.06 1526 2290.07 1526 Q2295.86 1526 2299.24 1529.17 Q2302.62 1532.34 2302.62 1537.76 Q2302.62 1543.34 2299.15 1546.44 Q2295.68 1549.52 2289.36 1549.52 Q2287.18 1549.52 2284.91 1549.15 Q2282.67 1548.78 2280.26 1548.04 L2280.26 1543.34 Q2282.34 1544.47 2284.57 1545.03 Q2286.79 1545.58 2289.26 1545.58 Q2293.27 1545.58 2295.61 1543.48 Q2297.94 1541.37 2297.94 1537.76 Q2297.94 1534.15 2295.61 1532.04 Q2293.27 1529.94 2289.26 1529.94 Q2287.39 1529.94 2285.51 1530.35 Q2283.66 1530.77 2281.72 1531.65 L2281.72 1514.29 Z" fill="#000000" fill-rule="evenodd" fill-opacity="1" /><polyline clip-path="url(#clip932)" style="stroke:#000000; stroke-linecap:butt; stroke-linejoin:round; stroke-width:2; stroke-opacity:0.1; fill:none" points="
  186.274,1445.72 2352.76,1445.72 
  "/>
<polyline clip-path="url(#clip932)" style="stroke:#000000; stroke-linecap:butt; stroke-linejoin:round; stroke-width:2; stroke-opacity:0.1; fill:none" points="
  186.274,1103.88 2352.76,1103.88 
  "/>
<polyline clip-path="url(#clip932)" style="stroke:#000000; stroke-linecap:butt; stroke-linejoin:round; stroke-width:2; stroke-opacity:0.1; fill:none" points="
  186.274,762.05 2352.76,762.05 
  "/>
<polyline clip-path="url(#clip932)" style="stroke:#000000; stroke-linecap:butt; stroke-linejoin:round; stroke-width:2; stroke-opacity:0.1; fill:none" points="
  186.274,420.217 2352.76,420.217 
  "/>
<polyline clip-path="url(#clip932)" style="stroke:#000000; stroke-linecap:butt; stroke-linejoin:round; stroke-width:2; stroke-opacity:0.1; fill:none" points="
  186.274,78.3837 2352.76,78.3837 
  "/>
<polyline clip-path="url(#clip930)" style="stroke:#000000; stroke-linecap:butt; stroke-linejoin:round; stroke-width:4; stroke-opacity:1; fill:none" points="
  186.274,1486.45 186.274,47.2441 
  "/>
<polyline clip-path="url(#clip930)" style="stroke:#000000; stroke-linecap:butt; stroke-linejoin:round; stroke-width:4; stroke-opacity:1; fill:none" points="
  186.274,1445.72 205.172,1445.72 
  "/>
<polyline clip-path="url(#clip930)" style="stroke:#000000; stroke-linecap:butt; stroke-linejoin:round; stroke-width:4; stroke-opacity:1; fill:none" points="
  186.274,1103.88 205.172,1103.88 
  "/>
<polyline clip-path="url(#clip930)" style="stroke:#000000; stroke-linecap:butt; stroke-linejoin:round; stroke-width:4; stroke-opacity:1; fill:none" points="
  186.274,762.05 205.172,762.05 
  "/>
<polyline clip-path="url(#clip930)" style="stroke:#000000; stroke-linecap:butt; stroke-linejoin:round; stroke-width:4; stroke-opacity:1; fill:none" points="
  186.274,420.217 205.172,420.217 
  "/>
<polyline clip-path="url(#clip930)" style="stroke:#000000; stroke-linecap:butt; stroke-linejoin:round; stroke-width:4; stroke-opacity:1; fill:none" points="
  186.274,78.3837 205.172,78.3837 
  "/>
<path clip-path="url(#clip930)" d="M62.9365 1431.51 Q59.3254 1431.51 57.4967 1435.08 Q55.6912 1438.62 55.6912 1445.75 Q55.6912 1452.86 57.4967 1456.42 Q59.3254 1459.96 62.9365 1459.96 Q66.5707 1459.96 68.3763 1456.42 Q70.205 1452.86 70.205 1445.75 Q70.205 1438.62 68.3763 1435.08 Q66.5707 1431.51 62.9365 1431.51 M62.9365 1427.81 Q68.7467 1427.81 71.8022 1432.42 Q74.8809 1437 74.8809 1445.75 Q74.8809 1454.48 71.8022 1459.08 Q68.7467 1463.67 62.9365 1463.67 Q57.1264 1463.67 54.0477 1459.08 Q50.9921 1454.48 50.9921 1445.75 Q50.9921 1437 54.0477 1432.42 Q57.1264 1427.81 62.9365 1427.81 Z" fill="#000000" fill-rule="evenodd" fill-opacity="1" /><path clip-path="url(#clip930)" d="M83.0984 1457.12 L87.9827 1457.12 L87.9827 1463 L83.0984 1463 L83.0984 1457.12 Z" fill="#000000" fill-rule="evenodd" fill-opacity="1" /><path clip-path="url(#clip930)" d="M108.168 1431.51 Q104.557 1431.51 102.728 1435.08 Q100.922 1438.62 100.922 1445.75 Q100.922 1452.86 102.728 1456.42 Q104.557 1459.96 108.168 1459.96 Q111.802 1459.96 113.608 1456.42 Q115.436 1452.86 115.436 1445.75 Q115.436 1438.62 113.608 1435.08 Q111.802 1431.51 108.168 1431.51 M108.168 1427.81 Q113.978 1427.81 117.033 1432.42 Q120.112 1437 120.112 1445.75 Q120.112 1454.48 117.033 1459.08 Q113.978 1463.67 108.168 1463.67 Q102.358 1463.67 99.2789 1459.08 Q96.2234 1454.48 96.2234 1445.75 Q96.2234 1437 99.2789 1432.42 Q102.358 1427.81 108.168 1427.81 Z" fill="#000000" fill-rule="evenodd" fill-opacity="1" /><path clip-path="url(#clip930)" d="M138.33 1431.51 Q134.719 1431.51 132.89 1435.08 Q131.084 1438.62 131.084 1445.75 Q131.084 1452.86 132.89 1456.42 Q134.719 1459.96 138.33 1459.96 Q141.964 1459.96 143.769 1456.42 Q145.598 1452.86 145.598 1445.75 Q145.598 1438.62 143.769 1435.08 Q141.964 1431.51 138.33 1431.51 M138.33 1427.81 Q144.14 1427.81 147.195 1432.42 Q150.274 1437 150.274 1445.75 Q150.274 1454.48 147.195 1459.08 Q144.14 1463.67 138.33 1463.67 Q132.519 1463.67 129.441 1459.08 Q126.385 1454.48 126.385 1445.75 Q126.385 1437 129.441 1432.42 Q132.519 1427.81 138.33 1427.81 Z" fill="#000000" fill-rule="evenodd" fill-opacity="1" /><path clip-path="url(#clip930)" d="M63.9319 1089.68 Q60.3208 1089.68 58.4921 1093.25 Q56.6865 1096.79 56.6865 1103.92 Q56.6865 1111.02 58.4921 1114.59 Q60.3208 1118.13 63.9319 1118.13 Q67.5661 1118.13 69.3717 1114.59 Q71.2004 1111.02 71.2004 1103.92 Q71.2004 1096.79 69.3717 1093.25 Q67.5661 1089.68 63.9319 1089.68 M63.9319 1085.98 Q69.742 1085.98 72.7976 1090.58 Q75.8763 1095.17 75.8763 1103.92 Q75.8763 1112.64 72.7976 1117.25 Q69.742 1121.83 63.9319 1121.83 Q58.1217 1121.83 55.043 1117.25 Q51.9875 1112.64 51.9875 1103.92 Q51.9875 1095.17 55.043 1090.58 Q58.1217 1085.98 63.9319 1085.98 Z" fill="#000000" fill-rule="evenodd" fill-opacity="1" /><path clip-path="url(#clip930)" d="M84.0938 1115.28 L88.978 1115.28 L88.978 1121.16 L84.0938 1121.16 L84.0938 1115.28 Z" fill="#000000" fill-rule="evenodd" fill-opacity="1" /><path clip-path="url(#clip930)" d="M103.191 1117.23 L119.51 1117.23 L119.51 1121.16 L97.566 1121.16 L97.566 1117.23 Q100.228 1114.47 104.811 1109.84 Q109.418 1105.19 110.598 1103.85 Q112.844 1101.32 113.723 1099.59 Q114.626 1097.83 114.626 1096.14 Q114.626 1093.39 112.682 1091.65 Q110.76 1089.91 107.658 1089.91 Q105.459 1089.91 103.006 1090.68 Q100.575 1091.44 97.7974 1092.99 L97.7974 1088.27 Q100.621 1087.14 103.075 1086.56 Q105.529 1085.98 107.566 1085.98 Q112.936 1085.98 116.131 1088.66 Q119.325 1091.35 119.325 1095.84 Q119.325 1097.97 118.515 1099.89 Q117.728 1101.79 115.621 1104.38 Q115.043 1105.05 111.941 1108.27 Q108.839 1111.46 103.191 1117.23 Z" fill="#000000" fill-rule="evenodd" fill-opacity="1" /><path clip-path="url(#clip930)" d="M129.371 1086.6 L147.728 1086.6 L147.728 1090.54 L133.654 1090.54 L133.654 1099.01 Q134.672 1098.66 135.691 1098.5 Q136.709 1098.32 137.728 1098.32 Q143.515 1098.32 146.894 1101.49 Q150.274 1104.66 150.274 1110.07 Q150.274 1115.65 146.802 1118.76 Q143.33 1121.83 137.01 1121.83 Q134.834 1121.83 132.566 1121.46 Q130.32 1121.09 127.913 1120.35 L127.913 1115.65 Q129.996 1116.79 132.219 1117.34 Q134.441 1117.9 136.918 1117.9 Q140.922 1117.9 143.26 1115.79 Q145.598 1113.69 145.598 1110.07 Q145.598 1106.46 143.26 1104.36 Q140.922 1102.25 136.918 1102.25 Q135.043 1102.25 133.168 1102.67 Q131.316 1103.08 129.371 1103.96 L129.371 1086.6 Z" fill="#000000" fill-rule="evenodd" fill-opacity="1" /><path clip-path="url(#clip930)" d="M62.9365 747.848 Q59.3254 747.848 57.4967 751.413 Q55.6912 754.955 55.6912 762.084 Q55.6912 769.191 57.4967 772.756 Q59.3254 776.297 62.9365 776.297 Q66.5707 776.297 68.3763 772.756 Q70.205 769.191 70.205 762.084 Q70.205 754.955 68.3763 751.413 Q66.5707 747.848 62.9365 747.848 M62.9365 744.145 Q68.7467 744.145 71.8022 748.751 Q74.8809 753.334 74.8809 762.084 Q74.8809 770.811 71.8022 775.418 Q68.7467 780.001 62.9365 780.001 Q57.1264 780.001 54.0477 775.418 Q50.9921 770.811 50.9921 762.084 Q50.9921 753.334 54.0477 748.751 Q57.1264 744.145 62.9365 744.145 Z" fill="#000000" fill-rule="evenodd" fill-opacity="1" /><path clip-path="url(#clip930)" d="M83.0984 773.45 L87.9827 773.45 L87.9827 779.33 L83.0984 779.33 L83.0984 773.45 Z" fill="#000000" fill-rule="evenodd" fill-opacity="1" /><path clip-path="url(#clip930)" d="M98.2141 744.77 L116.57 744.77 L116.57 748.705 L102.496 748.705 L102.496 757.177 Q103.515 756.83 104.534 756.668 Q105.552 756.483 106.571 756.483 Q112.358 756.483 115.737 759.654 Q119.117 762.825 119.117 768.242 Q119.117 773.82 115.645 776.922 Q112.172 780.001 105.853 780.001 Q103.677 780.001 101.409 779.631 Q99.1632 779.26 96.7558 778.52 L96.7558 773.82 Q98.8391 774.955 101.061 775.51 Q103.284 776.066 105.76 776.066 Q109.765 776.066 112.103 773.959 Q114.441 771.853 114.441 768.242 Q114.441 764.631 112.103 762.524 Q109.765 760.418 105.76 760.418 Q103.885 760.418 102.01 760.834 Q100.159 761.251 98.2141 762.131 L98.2141 744.77 Z" fill="#000000" fill-rule="evenodd" fill-opacity="1" /><path clip-path="url(#clip930)" d="M138.33 747.848 Q134.719 747.848 132.89 751.413 Q131.084 754.955 131.084 762.084 Q131.084 769.191 132.89 772.756 Q134.719 776.297 138.33 776.297 Q141.964 776.297 143.769 772.756 Q145.598 769.191 145.598 762.084 Q145.598 754.955 143.769 751.413 Q141.964 747.848 138.33 747.848 M138.33 744.145 Q144.14 744.145 147.195 748.751 Q150.274 753.334 150.274 762.084 Q150.274 770.811 147.195 775.418 Q144.14 780.001 138.33 780.001 Q132.519 780.001 129.441 775.418 Q126.385 770.811 126.385 762.084 Q126.385 753.334 129.441 748.751 Q132.519 744.145 138.33 744.145 Z" fill="#000000" fill-rule="evenodd" fill-opacity="1" /><path clip-path="url(#clip930)" d="M63.9319 406.015 Q60.3208 406.015 58.4921 409.58 Q56.6865 413.122 56.6865 420.251 Q56.6865 427.358 58.4921 430.923 Q60.3208 434.464 63.9319 434.464 Q67.5661 434.464 69.3717 430.923 Q71.2004 427.358 71.2004 420.251 Q71.2004 413.122 69.3717 409.58 Q67.5661 406.015 63.9319 406.015 M63.9319 402.312 Q69.742 402.312 72.7976 406.918 Q75.8763 411.501 75.8763 420.251 Q75.8763 428.978 72.7976 433.585 Q69.742 438.168 63.9319 438.168 Q58.1217 438.168 55.043 433.585 Q51.9875 428.978 51.9875 420.251 Q51.9875 411.501 55.043 406.918 Q58.1217 402.312 63.9319 402.312 Z" fill="#000000" fill-rule="evenodd" fill-opacity="1" /><path clip-path="url(#clip930)" d="M84.0938 431.617 L88.978 431.617 L88.978 437.497 L84.0938 437.497 L84.0938 431.617 Z" fill="#000000" fill-rule="evenodd" fill-opacity="1" /><path clip-path="url(#clip930)" d="M97.9826 402.937 L120.205 402.937 L120.205 404.927 L107.658 437.497 L102.774 437.497 L114.58 406.872 L97.9826 406.872 L97.9826 402.937 Z" fill="#000000" fill-rule="evenodd" fill-opacity="1" /><path clip-path="url(#clip930)" d="M129.371 402.937 L147.728 402.937 L147.728 406.872 L133.654 406.872 L133.654 415.344 Q134.672 414.997 135.691 414.835 Q136.709 414.65 137.728 414.65 Q143.515 414.65 146.894 417.821 Q150.274 420.992 150.274 426.409 Q150.274 431.987 146.802 435.089 Q143.33 438.168 137.01 438.168 Q134.834 438.168 132.566 437.798 Q130.32 437.427 127.913 436.687 L127.913 431.987 Q129.996 433.122 132.219 433.677 Q134.441 434.233 136.918 434.233 Q140.922 434.233 143.26 432.126 Q145.598 430.02 145.598 426.409 Q145.598 422.798 143.26 420.691 Q140.922 418.585 136.918 418.585 Q135.043 418.585 133.168 419.001 Q131.316 419.418 129.371 420.298 L129.371 402.937 Z" fill="#000000" fill-rule="evenodd" fill-opacity="1" /><path clip-path="url(#clip930)" d="M53.7467 91.7286 L61.3856 91.7286 L61.3856 65.363 L53.0754 67.0296 L53.0754 62.7704 L61.3393 61.1037 L66.0152 61.1037 L66.0152 91.7286 L73.654 91.7286 L73.654 95.6637 L53.7467 95.6637 L53.7467 91.7286 Z" fill="#000000" fill-rule="evenodd" fill-opacity="1" /><path clip-path="url(#clip930)" d="M83.0984 89.7841 L87.9827 89.7841 L87.9827 95.6637 L83.0984 95.6637 L83.0984 89.7841 Z" fill="#000000" fill-rule="evenodd" fill-opacity="1" /><path clip-path="url(#clip930)" d="M108.168 64.1824 Q104.557 64.1824 102.728 67.7472 Q100.922 71.2889 100.922 78.4185 Q100.922 85.5249 102.728 89.0897 Q104.557 92.6313 108.168 92.6313 Q111.802 92.6313 113.608 89.0897 Q115.436 85.5249 115.436 78.4185 Q115.436 71.2889 113.608 67.7472 Q111.802 64.1824 108.168 64.1824 M108.168 60.4787 Q113.978 60.4787 117.033 65.0852 Q120.112 69.6685 120.112 78.4185 Q120.112 87.1453 117.033 91.7517 Q113.978 96.335 108.168 96.335 Q102.358 96.335 99.2789 91.7517 Q96.2234 87.1453 96.2234 78.4185 Q96.2234 69.6685 99.2789 65.0852 Q102.358 60.4787 108.168 60.4787 Z" fill="#000000" fill-rule="evenodd" fill-opacity="1" /><path clip-path="url(#clip930)" d="M138.33 64.1824 Q134.719 64.1824 132.89 67.7472 Q131.084 71.2889 131.084 78.4185 Q131.084 85.5249 132.89 89.0897 Q134.719 92.6313 138.33 92.6313 Q141.964 92.6313 143.769 89.0897 Q145.598 85.5249 145.598 78.4185 Q145.598 71.2889 143.769 67.7472 Q141.964 64.1824 138.33 64.1824 M138.33 60.4787 Q144.14 60.4787 147.195 65.0852 Q150.274 69.6685 150.274 78.4185 Q150.274 87.1453 147.195 91.7517 Q144.14 96.335 138.33 96.335 Q132.519 96.335 129.441 91.7517 Q126.385 87.1453 126.385 78.4185 Q126.385 69.6685 129.441 65.0852 Q132.519 60.4787 138.33 60.4787 Z" fill="#000000" fill-rule="evenodd" fill-opacity="1" /><polyline clip-path="url(#clip932)" style="stroke:#009af9; stroke-linecap:butt; stroke-linejoin:round; stroke-width:4; stroke-opacity:1; fill:none" points="
  247.59,1445.72 588.231,676.635 928.873,340.138 1269.51,192.91 1610.16,128.493 1950.8,100.308 2291.44,87.9763 
  "/>
<path clip-path="url(#clip930)" d="
M1987.39 198.898 L2280.54 198.898 L2280.54 95.2176 L1987.39 95.2176  Z
  " fill="#ffffff" fill-rule="evenodd" fill-opacity="1"/>
<polyline clip-path="url(#clip930)" style="stroke:#000000; stroke-linecap:butt; stroke-linejoin:round; stroke-width:4; stroke-opacity:1; fill:none" points="
  1987.39,198.898 2280.54,198.898 2280.54,95.2176 1987.39,95.2176 1987.39,198.898 
  "/>
<polyline clip-path="url(#clip930)" style="stroke:#009af9; stroke-linecap:butt; stroke-linejoin:round; stroke-width:4; stroke-opacity:1; fill:none" points="
  2011.46,147.058 2155.89,147.058 
  "/>
<path clip-path="url(#clip930)" d="M2193.81 166.745 Q2192 171.375 2190.29 172.787 Q2188.58 174.199 2185.71 174.199 L2182.3 174.199 L2182.3 170.634 L2184.8 170.634 Q2186.56 170.634 2187.53 169.8 Q2188.51 168.967 2189.69 165.865 L2190.45 163.921 L2179.97 138.412 L2184.48 138.412 L2192.58 158.689 L2200.68 138.412 L2205.2 138.412 L2193.81 166.745 Z" fill="#000000" fill-rule="evenodd" fill-opacity="1" /><path clip-path="url(#clip930)" d="M2212.49 160.402 L2220.13 160.402 L2220.13 134.037 L2211.82 135.703 L2211.82 131.444 L2220.08 129.778 L2224.76 129.778 L2224.76 160.402 L2232.4 160.402 L2232.4 164.338 L2212.49 164.338 L2212.49 160.402 Z" fill="#000000" fill-rule="evenodd" fill-opacity="1" /></svg>
