<?xml version="1.0" encoding="utf-8"?>
<svg xmlns="http://www.w3.org/2000/svg" xmlns:xlink="http://www.w3.org/1999/xlink" width="600" height="400" viewBox="0 0 2400 1600">
<defs>
  <clipPath id="clip770">
    <rect x="0" y="0" width="2400" height="1600"/>
  </clipPath>
</defs>
<path clip-path="url(#clip770)" d="
M0 1600 L2400 1600 L2400 0 L0 0  Z
  " fill="#ffffff" fill-rule="evenodd" fill-opacity="1"/>
<defs>
  <clipPath id="clip771">
    <rect x="480" y="0" width="1681" height="1600"/>
  </clipPath>
</defs>
<path clip-path="url(#clip770)" d="
M186.274 1486.45 L2352.76 1486.45 L2352.76 47.2441 L186.274 47.2441  Z
  " fill="#ffffff" fill-rule="evenodd" fill-opacity="1"/>
<defs>
  <clipPath id="clip772">
    <rect x="186" y="47" width="2167" height="1440"/>
  </clipPath>
</defs>
<polyline clip-path="url(#clip772)" style="stroke:#000000; stroke-linecap:butt; stroke-linejoin:round; stroke-width:2; stroke-opacity:0.1; fill:none" points="
  247.59,1486.45 247.59,47.2441 
  "/>
<polyline clip-path="url(#clip772)" style="stroke:#000000; stroke-linecap:butt; stroke-linejoin:round; stroke-width:2; stroke-opacity:0.1; fill:none" points="
  656.36,1486.45 656.36,47.2441 
  "/>
<polyline clip-path="url(#clip772)" style="stroke:#000000; stroke-linecap:butt; stroke-linejoin:round; stroke-width:2; stroke-opacity:0.1; fill:none" points="
  1065.13,1486.45 1065.13,47.2441 
  "/>
<polyline clip-path="url(#clip772)" style="stroke:#000000; stroke-linecap:butt; stroke-linejoin:round; stroke-width:2; stroke-opacity:0.1; fill:none" points="
  1473.9,1486.45 1473.9,47.2441 
  "/>
<polyline clip-path="url(#clip772)" style="stroke:#000000; stroke-linecap:butt; stroke-linejoin:round; stroke-width:2; stroke-opacity:0.1; fill:none" points="
  1882.67,1486.45 1882.67,47.2441 
  "/>
<polyline clip-path="url(#clip772)" style="stroke:#000000; stroke-linecap:butt; stroke-linejoin:round; stroke-width:2; stroke-opacity:0.1; fill:none" points="
  2291.44,1486.45 2291.44,47.2441 
  "/>
<polyline clip-path="url(#clip770)" style="stroke:#000000; stroke-linecap:butt; stroke-linejoin:round; stroke-width:4; stroke-opacity:1; fill:none" points="
  186.274,1486.45 2352.76,1486.45 
  "/>
<polyline clip-path="url(#clip770)" style="stroke:#000000; stroke-linecap:butt; stroke-linejoin:round; stroke-width:4; stroke-opacity:1; fill:none" points="
  247.59,1486.45 247.59,1467.55 
  "/>
<polyline clip-path="url(#clip770)" style="stroke:#000000; stroke-linecap:butt; stroke-linejoin:round; stroke-width:4; stroke-opacity:1; fill:none" points="
  656.36,1486.45 656.36,1467.55 
  "/>
<polyline clip-path="url(#clip770)" style="stroke:#000000; stroke-linecap:butt; stroke-linejoin:round; stroke-width:4; stroke-opacity:1; fill:none" points="
  1065.13,1486.45 1065.13,1467.55 
  "/>
<polyline clip-path="url(#clip770)" style="stroke:#000000; stroke-linecap:butt; stroke-linejoin:round; stroke-width:4; stroke-opacity:1; fill:none" points="
  1473.9,1486.45 1473.9,1467.55 
  "/>
<polyline clip-path="url(#clip770)" style="stroke:#000000; stroke-linecap:butt; stroke-linejoin:round; stroke-width:4; stroke-opacity:1; fill:none" points="
  1882.67,1486.45 1882.67,1467.55 
  "/>
<polyline clip-path="url(#clip770)" style="stroke:#000000; stroke-linecap:butt; stroke-linejoin:round; stroke-width:4; stroke-opacity:1; fill:none" points="
  2291.44,1486.45 2291.44,1467.55 
  "/>
<path clip-path="url(#clip770)" d="M247.59 1517.37 Q243.978 1517.37 242.15 1520.93 Q240.344 1524.47 240.344 1531.6 Q240.344 1538.71 242.15 1542.27 Q243.978 1545.82 247.59 1545.82 Q251.224 1545.82 253.029 1542.27 Q254.858 1538.71 254.858 1531.6 Q254.858 1524.47 253.029 1520.93 Q251.224 1517.37 247.59 1517.37 M247.59 1513.66 Q253.4 1513.66 256.455 1518.27 Q259.534 1522.85 259.534 1531.6 Q259.534 1540.33 256.455 1544.94 Q253.4 1549.52 247.59 1549.52 Q241.779 1549.52 238.701 1544.94 Q235.645 1540.33 235.645 1531.6 Q235.645 1522.85 238.701 1518.27 Q241.779 1513.66 247.59 1513.66 Z" fill="#000000" fill-rule="evenodd" fill-opacity="1" /><path clip-path="url(#clip770)" d="M646.742 1544.91 L654.381 1544.91 L654.381 1518.55 L646.07 1520.21 L646.07 1515.95 L654.334 1514.29 L659.01 1514.29 L659.01 1544.91 L666.649 1544.91 L666.649 1548.85 L646.742 1548.85 L646.742 1544.91 Z" fill="#000000" fill-rule="evenodd" fill-opacity="1" /><path clip-path="url(#clip770)" d="M1059.78 1544.91 L1076.1 1544.91 L1076.1 1548.85 L1054.16 1548.85 L1054.16 1544.91 Q1056.82 1542.16 1061.4 1537.53 Q1066.01 1532.88 1067.19 1531.53 Q1069.44 1529.01 1070.32 1527.27 Q1071.22 1525.51 1071.22 1523.82 Q1071.22 1521.07 1069.27 1519.33 Q1067.35 1517.6 1064.25 1517.6 Q1062.05 1517.6 1059.6 1518.36 Q1057.17 1519.13 1054.39 1520.68 L1054.39 1515.95 Q1057.21 1514.82 1059.67 1514.24 Q1062.12 1513.66 1064.16 1513.66 Q1069.53 1513.66 1072.72 1516.35 Q1075.92 1519.03 1075.92 1523.52 Q1075.92 1525.65 1075.11 1527.57 Q1074.32 1529.47 1072.21 1532.07 Q1071.63 1532.74 1068.53 1535.95 Q1065.43 1539.15 1059.78 1544.91 Z" fill="#000000" fill-rule="evenodd" fill-opacity="1" /><path clip-path="url(#clip770)" d="M1478.15 1530.21 Q1481.5 1530.93 1483.38 1533.2 Q1485.28 1535.47 1485.28 1538.8 Q1485.28 1543.92 1481.76 1546.72 Q1478.24 1549.52 1471.76 1549.52 Q1469.58 1549.52 1467.27 1549.08 Q1464.98 1548.66 1462.52 1547.81 L1462.52 1543.29 Q1464.47 1544.43 1466.78 1545.01 Q1469.1 1545.58 1471.62 1545.58 Q1476.02 1545.58 1478.31 1543.85 Q1480.62 1542.11 1480.62 1538.8 Q1480.62 1535.75 1478.47 1534.03 Q1476.34 1532.3 1472.52 1532.3 L1468.49 1532.3 L1468.49 1528.45 L1472.71 1528.45 Q1476.16 1528.45 1477.99 1527.09 Q1479.81 1525.7 1479.81 1523.11 Q1479.81 1520.45 1477.92 1519.03 Q1476.04 1517.6 1472.52 1517.6 Q1470.6 1517.6 1468.4 1518.01 Q1466.2 1518.43 1463.56 1519.31 L1463.56 1515.14 Q1466.23 1514.4 1468.54 1514.03 Q1470.88 1513.66 1472.94 1513.66 Q1478.26 1513.66 1481.37 1516.09 Q1484.47 1518.5 1484.47 1522.62 Q1484.47 1525.49 1482.82 1527.48 Q1481.18 1529.45 1478.15 1530.21 Z" fill="#000000" fill-rule="evenodd" fill-opacity="1" /><path clip-path="url(#clip770)" d="M1885.68 1518.36 L1873.87 1536.81 L1885.68 1536.81 L1885.68 1518.36 M1884.45 1514.29 L1890.33 1514.29 L1890.33 1536.81 L1895.26 1536.81 L1895.26 1540.7 L1890.33 1540.7 L1890.33 1548.85 L1885.68 1548.85 L1885.68 1540.7 L1870.08 1540.7 L1870.08 1536.19 L1884.45 1514.29 Z" fill="#000000" fill-rule="evenodd" fill-opacity="1" /><path clip-path="url(#clip770)" d="M2281.72 1514.29 L2300.07 1514.29 L2300.07 1518.22 L2286 1518.22 L2286 1526.7 Q2287.02 1526.35 2288.04 1526.19 Q2289.06 1526 2290.07 1526 Q2295.86 1526 2299.24 1529.17 Q2302.62 1532.34 2302.62 1537.76 Q2302.62 1543.34 2299.15 1546.44 Q2295.68 1549.52 2289.36 1549.52 Q2287.18 1549.52 2284.91 1549.15 Q2282.67 1548.78 2280.26 1548.04 L2280.26 1543.34 Q2282.34 1544.47 2284.57 1545.03 Q2286.79 1545.58 2289.26 1545.58 Q2293.27 1545.58 2295.61 1543.48 Q2297.94 1541.37 2297.94 1537.76 Q2297.94 1534.15 2295.61 1532.04 Q2293.27 1529.94 2289.26 1529.94 Q2287.39 1529.94 2285.51 1530.35 Q2283.66 1530.77 2281.72 1531.65 L2281.72 1514.29 Z" fill="#000000" fill-rule="evenodd" fill-opacity="1" /><polyline clip-path="url(#clip772)" style="stroke:#000000; stroke-linecap:butt; stroke-linejoin:round; stroke-width:2; stroke-opacity:0.1; fill:none" points="
  186.274,1445.72 2352.76,1445.72 
  "/>
<polyline clip-path="url(#clip772)" style="stroke:#000000; stroke-linecap:butt; stroke-linejoin:round; stroke-width:2; stroke-opacity:0.1; fill:none" points="
  186.274,1106.27 2352.76,1106.27 
  "/>
<polyline clip-path="url(#clip772)" style="stroke:#000000; stroke-linecap:butt; stroke-linejoin:round; stroke-width:2; stroke-opacity:0.1; fill:none" points="
  186.274,766.831 2352.76,766.831 
  "/>
<polyline clip-path="url(#clip772)" style="stroke:#000000; stroke-linecap:butt; stroke-linejoin:round; stroke-width:2; stroke-opacity:0.1; fill:none" points="
  186.274,427.389 2352.76,427.389 
  "/>
<polyline clip-path="url(#clip772)" style="stroke:#000000; stroke-linecap:butt; stroke-linejoin:round; stroke-width:2; stroke-opacity:0.1; fill:none" points="
  186.274,87.9472 2352.76,87.9472 
  "/>
<polyline clip-path="url(#clip770)" style="stroke:#000000; stroke-linecap:butt; stroke-linejoin:round; stroke-width:4; stroke-opacity:1; fill:none" points="
  186.274,1486.45 186.274,47.2441 
  "/>
<polyline clip-path="url(#clip770)" style="stroke:#000000; stroke-linecap:butt; stroke-linejoin:round; stroke-width:4; stroke-opacity:1; fill:none" points="
  186.274,1445.72 205.172,1445.72 
  "/>
<polyline clip-path="url(#clip770)" style="stroke:#000000; stroke-linecap:butt; stroke-linejoin:round; stroke-width:4; stroke-opacity:1; fill:none" points="
  186.274,1106.27 205.172,1106.27 
  "/>
<polyline clip-path="url(#clip770)" style="stroke:#000000; stroke-linecap:butt; stroke-linejoin:round; stroke-width:4; stroke-opacity:1; fill:none" points="
  186.274,766.831 205.172,766.831 
  "/>
<polyline clip-path="url(#clip770)" style="stroke:#000000; stroke-linecap:butt; stroke-linejoin:round; stroke-width:4; stroke-opacity:1; fill:none" points="
  186.274,427.389 205.172,427.389 
  "/>
<polyline clip-path="url(#clip770)" style="stroke:#000000; stroke-linecap:butt; stroke-linejoin:round; stroke-width:4; stroke-opacity:1; fill:none" points="
  186.274,87.9472 205.172,87.9472 
  "/>
<path clip-path="url(#clip770)" d="M62.9365 1431.51 Q59.3254 1431.51 57.4967 1435.08 Q55.6912 1438.62 55.6912 1445.75 Q55.6912 1452.86 57.4967 1456.42 Q59.3254 1459.96 62.9365 1459.96 Q66.5707 1459.96 68.3763 1456.42 Q70.205 1452.86 70.205 1445.75 Q70.205 1438.62 68.3763 1435.08 Q66.5707 1431.51 62.9365 1431.51 M62.9365 1427.81 Q68.7467 1427.81 71.8022 1432.42 Q74.8809 1437 74.8809 1445.75 Q74.8809 1454.48 71.8022 1459.08 Q68.7467 1463.67 62.9365 1463.67 Q57.1264 1463.67 54.0477 1459.08 Q50.9921 1454.48 50.9921 1445.75 Q50.9921 1437 54.0477 1432.42 Q57.1264 1427.81 62.9365 1427.81 Z" fill="#000000" fill-rule="evenodd" fill-opacity="1" /><path clip-path="url(#clip770)" d="M83.0984 1457.12 L87.9827 1457.12 L87.9827 1463 L83.0984 1463 L83.0984 1457.12 Z" fill="#000000" fill-rule="evenodd" fill-opacity="1" /><path clip-path="url(#clip770)" d="M108.168 1431.51 Q104.557 1431.51 102.728 1435.08 Q100.922 1438.62 100.922 1445.75 Q100.922 1452.86 102.728 1456.42 Q104.557 1459.96 108.168 1459.96 Q111.802 1459.96 113.608 1456.42 Q115.436 1452.86 115.436 1445.75 Q115.436 1438.62 113.608 1435.08 Q111.802 1431.51 108.168 1431.51 M108.168 1427.81 Q113.978 1427.81 117.033 1432.42 Q120.112 1437 120.112 1445.75 Q120.112 1454.48 117.033 1459.08 Q113.978 1463.67 108.168 1463.67 Q102.358 1463.67 99.2789 1459.08 Q96.2234 1454.48 96.2234 1445.75 Q96.2234 1437 99.2789 1432.42 Q102.358 1427.81 108.168 1427.81 Z" fill="#000000" fill-rule="evenodd" fill-opacity="1" /><path clip-path="url(#clip770)" d="M138.33 1431.51 Q134.719 1431.51 132.89 1435.08 Q131.084 1438.62 131.084 1445.75 Q131.084 1452.86 132.89 1456.42 Q134.719 1459.96 138.33 1459.96 Q141.964 1459.96 143.769 1456.42 Q145.598 1452.86 145.598 1445.75 Q145.598 1438.62 143.769 1435.08 Q141.964 1431.51 138.33 1431.51 M138.33 1427.81 Q144.14 1427.81 147.195 1432.42 Q150.274 1437 150.274 1445.75 Q150.274 1454.48 147.195 1459.08 Q144.14 1463.67 138.33 1463.67 Q132.519 1463.67 129.441 1459.08 Q126.385 1454.48 126.385 1445.75 Q126.385 1437 129.441 1432.42 Q132.519 1427.81 138.33 1427.81 Z" fill="#000000" fill-rule="evenodd" fill-opacity="1" /><path clip-path="url(#clip770)" d="M63.9319 1092.07 Q60.3208 1092.07 58.4921 1095.64 Q56.6865 1099.18 56.6865 1106.31 Q56.6865 1113.41 58.4921 1116.98 Q60.3208 1120.52 63.9319 1120.52 Q67.5661 1120.52 69.3717 1116.98 Q71.2004 1113.41 71.2004 1106.31 Q71.2004 1099.18 69.3717 1095.64 Q67.5661 1092.07 63.9319 1092.07 M63.9319 1088.37 Q69.742 1088.37 72.7976 1092.98 Q75.8763 1097.56 75.8763 1106.31 Q75.8763 1115.04 72.7976 1119.64 Q69.742 1124.22 63.9319 1124.22 Q58.1217 1124.22 55.043 1119.64 Q51.9875 1115.04 51.9875 1106.31 Q51.9875 1097.56 55.043 1092.98 Q58.1217 1088.37 63.9319 1088.37 Z" fill="#000000" fill-rule="evenodd" fill-opacity="1" /><path clip-path="url(#clip770)" d="M84.0938 1117.67 L88.978 1117.67 L88.978 1123.55 L84.0938 1123.55 L84.0938 1117.67 Z" fill="#000000" fill-rule="evenodd" fill-opacity="1" /><path clip-path="url(#clip770)" d="M103.191 1119.62 L119.51 1119.62 L119.51 1123.55 L97.566 1123.55 L97.566 1119.62 Q100.228 1116.86 104.811 1112.23 Q109.418 1107.58 110.598 1106.24 Q112.844 1103.72 113.723 1101.98 Q114.626 1100.22 114.626 1098.53 Q114.626 1095.78 112.682 1094.04 Q110.76 1092.3 107.658 1092.3 Q105.459 1092.3 103.006 1093.07 Q100.575 1093.83 97.7974 1095.38 L97.7974 1090.66 Q100.621 1089.53 103.075 1088.95 Q105.529 1088.37 107.566 1088.37 Q112.936 1088.37 116.131 1091.05 Q119.325 1093.74 119.325 1098.23 Q119.325 1100.36 118.515 1102.28 Q117.728 1104.18 115.621 1106.77 Q115.043 1107.44 111.941 1110.66 Q108.839 1113.85 103.191 1119.62 Z" fill="#000000" fill-rule="evenodd" fill-opacity="1" /><path clip-path="url(#clip770)" d="M129.371 1088.99 L147.728 1088.99 L147.728 1092.93 L133.654 1092.93 L133.654 1101.4 Q134.672 1101.05 135.691 1100.89 Q136.709 1100.71 137.728 1100.71 Q143.515 1100.71 146.894 1103.88 Q150.274 1107.05 150.274 1112.47 Q150.274 1118.04 146.802 1121.15 Q143.33 1124.22 137.01 1124.22 Q134.834 1124.22 132.566 1123.85 Q130.32 1123.48 127.913 1122.74 L127.913 1118.04 Q129.996 1119.18 132.219 1119.73 Q134.441 1120.29 136.918 1120.29 Q140.922 1120.29 143.26 1118.18 Q145.598 1116.08 145.598 1112.47 Q145.598 1108.85 143.26 1106.75 Q140.922 1104.64 136.918 1104.64 Q135.043 1104.64 133.168 1105.06 Q131.316 1105.47 129.371 1106.35 L129.371 1088.99 Z" fill="#000000" fill-rule="evenodd" fill-opacity="1" /><path clip-path="url(#clip770)" d="M62.9365 752.63 Q59.3254 752.63 57.4967 756.195 Q55.6912 759.737 55.6912 766.866 Q55.6912 773.973 57.4967 777.537 Q59.3254 781.079 62.9365 781.079 Q66.5707 781.079 68.3763 777.537 Q70.205 773.973 70.205 766.866 Q70.205 759.737 68.3763 756.195 Q66.5707 752.63 62.9365 752.63 M62.9365 748.926 Q68.7467 748.926 71.8022 753.533 Q74.8809 758.116 74.8809 766.866 Q74.8809 775.593 71.8022 780.199 Q68.7467 784.783 62.9365 784.783 Q57.1264 784.783 54.0477 780.199 Q50.9921 775.593 50.9921 766.866 Q50.9921 758.116 54.0477 753.533 Q57.1264 748.926 62.9365 748.926 Z" fill="#000000" fill-rule="evenodd" fill-opacity="1" /><path clip-path="url(#clip770)" d="M83.0984 778.232 L87.9827 778.232 L87.9827 784.111 L83.0984 784.111 L83.0984 778.232 Z" fill="#000000" fill-rule="evenodd" fill-opacity="1" /><path clip-path="url(#clip770)" d="M98.2141 749.551 L116.57 749.551 L116.57 753.487 L102.496 753.487 L102.496 761.959 Q103.515 761.612 104.534 761.45 Q105.552 761.264 106.571 761.264 Q112.358 761.264 115.737 764.436 Q119.117 767.607 119.117 773.024 Q119.117 778.602 115.645 781.704 Q112.172 784.783 105.853 784.783 Q103.677 784.783 101.409 784.412 Q99.1632 784.042 96.7558 783.301 L96.7558 778.602 Q98.8391 779.736 101.061 780.292 Q103.284 780.848 105.76 780.848 Q109.765 780.848 112.103 778.741 Q114.441 776.635 114.441 773.024 Q114.441 769.412 112.103 767.306 Q109.765 765.199 105.76 765.199 Q103.885 765.199 102.01 765.616 Q100.159 766.033 98.2141 766.912 L98.2141 749.551 Z" fill="#000000" fill-rule="evenodd" fill-opacity="1" /><path clip-path="url(#clip770)" d="M138.33 752.63 Q134.719 752.63 132.89 756.195 Q131.084 759.737 131.084 766.866 Q131.084 773.973 132.89 777.537 Q134.719 781.079 138.33 781.079 Q141.964 781.079 143.769 777.537 Q145.598 773.973 145.598 766.866 Q145.598 759.737 143.769 756.195 Q141.964 752.63 138.33 752.63 M138.33 748.926 Q144.14 748.926 147.195 753.533 Q150.274 758.116 150.274 766.866 Q150.274 775.593 147.195 780.199 Q144.14 784.783 138.33 784.783 Q132.519 784.783 129.441 780.199 Q126.385 775.593 126.385 766.866 Q126.385 758.116 129.441 753.533 Q132.519 748.926 138.33 748.926 Z" fill="#000000" fill-rule="evenodd" fill-opacity="1" /><path clip-path="url(#clip770)" d="M63.9319 413.188 Q60.3208 413.188 58.4921 416.753 Q56.6865 420.294 56.6865 427.424 Q56.6865 434.53 58.4921 438.095 Q60.3208 441.637 63.9319 441.637 Q67.5661 441.637 69.3717 438.095 Q71.2004 434.53 71.2004 427.424 Q71.2004 420.294 69.3717 416.753 Q67.5661 413.188 63.9319 413.188 M63.9319 409.484 Q69.742 409.484 72.7976 414.091 Q75.8763 418.674 75.8763 427.424 Q75.8763 436.151 72.7976 440.757 Q69.742 445.341 63.9319 445.341 Q58.1217 445.341 55.043 440.757 Q51.9875 436.151 51.9875 427.424 Q51.9875 418.674 55.043 414.091 Q58.1217 409.484 63.9319 409.484 Z" fill="#000000" fill-rule="evenodd" fill-opacity="1" /><path clip-path="url(#clip770)" d="M84.0938 438.79 L88.978 438.79 L88.978 444.669 L84.0938 444.669 L84.0938 438.79 Z" fill="#000000" fill-rule="evenodd" fill-opacity="1" /><path clip-path="url(#clip770)" d="M97.9826 410.109 L120.205 410.109 L120.205 412.1 L107.658 444.669 L102.774 444.669 L114.58 414.044 L97.9826 414.044 L97.9826 410.109 Z" fill="#000000" fill-rule="evenodd" fill-opacity="1" /><path clip-path="url(#clip770)" d="M129.371 410.109 L147.728 410.109 L147.728 414.044 L133.654 414.044 L133.654 422.517 Q134.672 422.169 135.691 422.007 Q136.709 421.822 137.728 421.822 Q143.515 421.822 146.894 424.993 Q150.274 428.165 150.274 433.581 Q150.274 439.16 146.802 442.262 Q143.33 445.341 137.01 445.341 Q134.834 445.341 132.566 444.97 Q130.32 444.6 127.913 443.859 L127.913 439.16 Q129.996 440.294 132.219 440.85 Q134.441 441.405 136.918 441.405 Q140.922 441.405 143.26 439.299 Q145.598 437.192 145.598 433.581 Q145.598 429.97 143.26 427.864 Q140.922 425.757 136.918 425.757 Q135.043 425.757 133.168 426.174 Q131.316 426.591 129.371 427.47 L129.371 410.109 Z" fill="#000000" fill-rule="evenodd" fill-opacity="1" /><path clip-path="url(#clip770)" d="M53.7467 101.292 L61.3856 101.292 L61.3856 74.9264 L53.0754 76.5931 L53.0754 72.3338 L61.3393 70.6672 L66.0152 70.6672 L66.0152 101.292 L73.654 101.292 L73.654 105.227 L53.7467 105.227 L53.7467 101.292 Z" fill="#000000" fill-rule="evenodd" fill-opacity="1" /><path clip-path="url(#clip770)" d="M83.0984 99.3476 L87.9827 99.3476 L87.9827 105.227 L83.0984 105.227 L83.0984 99.3476 Z" fill="#000000" fill-rule="evenodd" fill-opacity="1" /><path clip-path="url(#clip770)" d="M108.168 73.7459 Q104.557 73.7459 102.728 77.3107 Q100.922 80.8523 100.922 87.9819 Q100.922 95.0883 102.728 98.6531 Q104.557 102.195 108.168 102.195 Q111.802 102.195 113.608 98.6531 Q115.436 95.0883 115.436 87.9819 Q115.436 80.8523 113.608 77.3107 Q111.802 73.7459 108.168 73.7459 M108.168 70.0422 Q113.978 70.0422 117.033 74.6486 Q120.112 79.2319 120.112 87.9819 Q120.112 96.7087 117.033 101.315 Q113.978 105.898 108.168 105.898 Q102.358 105.898 99.2789 101.315 Q96.2234 96.7087 96.2234 87.9819 Q96.2234 79.2319 99.2789 74.6486 Q102.358 70.0422 108.168 70.0422 Z" fill="#000000" fill-rule="evenodd" fill-opacity="1" /><path clip-path="url(#clip770)" d="M138.33 73.7459 Q134.719 73.7459 132.89 77.3107 Q131.084 80.8523 131.084 87.9819 Q131.084 95.0883 132.89 98.6531 Q134.719 102.195 138.33 102.195 Q141.964 102.195 143.769 98.6531 Q145.598 95.0883 145.598 87.9819 Q145.598 80.8523 143.769 77.3107 Q141.964 73.7459 138.33 73.7459 M138.33 70.0422 Q144.14 70.0422 147.195 74.6486 Q150.274 79.2319 150.274 87.9819 Q150.274 96.7087 147.195 101.315 Q144.14 105.898 138.33 105.898 Q132.519 105.898 129.441 101.315 Q126.385 96.7087 126.385 87.9819 Q126.385 79.2319 129.441 74.6486 Q132.519 70.0422 138.33 70.0422 Z" fill="#000000" fill-rule="evenodd" fill-opacity="1" /><polyline clip-path="url(#clip772)" style="stroke:#009af9; stroke-linecap:butt; stroke-linejoin:round; stroke-width:4; stroke-opacity:1; fill:none" points="
  247.59,1445.72 588.231,314.242 928.873,125.663 1269.51,94.2331 1610.16,88.9948 1950.8,88.1218 2291.44,87.9763 
  "/>
<path clip-path="url(#clip772)" d="M247.59 1461.72 L236.278 1457.03 L231.59 1445.72 L236.278 1434.4 L247.59 1429.72 L258.902 1434.4 L263.59 1445.72 L258.902 1457.03 Z" fill="#009af9" fill-rule="evenodd" fill-opacity="1" stroke="#000000" stroke-opacity="1" stroke-width="3.2"/>
<path clip-path="url(#clip772)" d="M588.231 330.242 L576.919 325.554 L572.231 314.242 L576.919 302.93 L588.231 298.242 L599.543 302.93 L604.231 314.242 L599.543 325.554 Z" fill="#009af9" fill-rule="evenodd" fill-opacity="1" stroke="#000000" stroke-opacity="1" stroke-width="3.2"/>
<path clip-path="url(#clip772)" d="M928.873 141.663 L917.561 136.975 L912.873 125.663 L917.561 114.351 L928.873 109.663 L940.185 114.351 L944.873 125.663 L940.185 136.975 Z" fill="#009af9" fill-rule="evenodd" fill-opacity="1" stroke="#000000" stroke-opacity="1" stroke-width="3.2"/>
<path clip-path="url(#clip772)" d="M1269.51 110.233 L1258.2 105.545 L1253.51 94.2331 L1258.2 82.9211 L1269.51 78.2331 L1280.83 82.9211 L1285.51 94.2331 L1280.83 105.545 Z" fill="#009af9" fill-rule="evenodd" fill-opacity="1" stroke="#000000" stroke-opacity="1" stroke-width="3.2"/>
<path clip-path="url(#clip772)" d="M1610.16 104.995 L1598.84 100.307 L1594.16 88.9948 L1598.84 77.6828 L1610.16 72.9948 L1621.47 77.6828 L1626.16 88.9948 L1621.47 100.307 Z" fill="#009af9" fill-rule="evenodd" fill-opacity="1" stroke="#000000" stroke-opacity="1" stroke-width="3.2"/>
<path clip-path="url(#clip772)" d="M1950.8 104.122 L1939.49 99.4338 L1934.8 88.1218 L1939.49 76.8098 L1950.8 72.1218 L1962.11 76.8098 L1966.8 88.1218 L1962.11 99.4338 Z" fill="#009af9" fill-rule="evenodd" fill-opacity="1" stroke="#000000" stroke-opacity="1" stroke-width="3.2"/>
<path clip-path="url(#clip772)" d="M2291.44 103.976 L2280.13 99.2883 L2275.44 87.9763 L2280.13 76.6643 L2291.44 71.9763 L2302.75 76.6643 L2307.44 87.9763 L2302.75 99.2883 Z" fill="#009af9" fill-rule="evenodd" fill-opacity="1" stroke="#000000" stroke-opacity="1" stroke-width="3.2"/>
<polyline clip-path="url(#clip772)" style="stroke:#e26f46; stroke-linecap:butt; stroke-linejoin:round; stroke-width:4; stroke-opacity:1; fill:none" points="
  247.59,1445.72 588.231,785.689 928.873,446.509 1269.51,272.208 1610.16,182.637 1950.8,136.607 2291.44,112.953 
  "/>
<path clip-path="url(#clip772)" d="M247.59 1429.72 L231.59 1445.72 L247.59 1461.72 L263.59 1445.72 L247.59 1429.72 Z" fill="#e26f46" fill-rule="evenodd" fill-opacity="1" stroke="#000000" stroke-opacity="1" stroke-width="3.2"/>
<path clip-path="url(#clip772)" d="M588.231 769.689 L572.231 785.689 L588.231 801.689 L604.231 785.689 L588.231 769.689 Z" fill="#e26f46" fill-rule="evenodd" fill-opacity="1" stroke="#000000" stroke-opacity="1" stroke-width="3.2"/>
<path clip-path="url(#clip772)" d="M928.873 430.509 L912.873 446.509 L928.873 462.509 L944.873 446.509 L928.873 430.509 Z" fill="#e26f46" fill-rule="evenodd" fill-opacity="1" stroke="#000000" stroke-opacity="1" stroke-width="3.2"/>
<path clip-path="url(#clip772)" d="M1269.51 256.208 L1253.51 272.208 L1269.51 288.208 L1285.51 272.208 L1269.51 256.208 Z" fill="#e26f46" fill-rule="evenodd" fill-opacity="1" stroke="#000000" stroke-opacity="1" stroke-width="3.2"/>
<path clip-path="url(#clip772)" d="M1610.16 166.637 L1594.16 182.637 L1610.16 198.637 L1626.16 182.637 L1610.16 166.637 Z" fill="#e26f46" fill-rule="evenodd" fill-opacity="1" stroke="#000000" stroke-opacity="1" stroke-width="3.2"/>
<path clip-path="url(#clip772)" d="M1950.8 120.607 L1934.8 136.607 L1950.8 152.607 L1966.8 136.607 L1950.8 120.607 Z" fill="#e26f46" fill-rule="evenodd" fill-opacity="1" stroke="#000000" stroke-opacity="1" stroke-width="3.2"/>
<path clip-path="url(#clip772)" d="M2291.44 96.953 L2275.44 112.953 L2291.44 128.953 L2307.44 112.953 L2291.44 96.953 Z" fill="#e26f46" fill-rule="evenodd" fill-opacity="1" stroke="#000000" stroke-opacity="1" stroke-width="3.2"/>
<polyline clip-path="url(#clip772)" style="stroke:#3da44d; stroke-linecap:butt; stroke-linejoin:round; stroke-width:4; stroke-opacity:1; fill:none" points="
  247.59,1445.72 588.231,682.015 928.873,347.871 1269.51,201.672 1610.16,137.705 1950.8,109.718 2291.44,97.4726 
  "/>
<path clip-path="url(#clip772)" d="M247.59 1429.72 L232.374 1440.77 L238.182 1458.66 L256.998 1458.66 L262.806 1440.77 Z" fill="#3da44d" fill-rule="evenodd" fill-opacity="1" stroke="#000000" stroke-opacity="1" stroke-width="3.2"/>
<path clip-path="url(#clip772)" d="M588.231 666.015 L573.015 677.071 L578.823 694.959 L597.639 694.959 L603.447 677.071 Z" fill="#3da44d" fill-rule="evenodd" fill-opacity="1" stroke="#000000" stroke-opacity="1" stroke-width="3.2"/>
<path clip-path="url(#clip772)" d="M928.873 331.871 L913.657 342.927 L919.465 360.815 L938.281 360.815 L944.089 342.927 Z" fill="#3da44d" fill-rule="evenodd" fill-opacity="1" stroke="#000000" stroke-opacity="1" stroke-width="3.2"/>
<path clip-path="url(#clip772)" d="M1269.51 185.672 L1254.3 196.728 L1260.11 214.616 L1278.92 214.616 L1284.73 196.728 Z" fill="#3da44d" fill-rule="evenodd" fill-opacity="1" stroke="#000000" stroke-opacity="1" stroke-width="3.2"/>
<path clip-path="url(#clip772)" d="M1610.16 121.705 L1594.94 132.761 L1600.75 150.649 L1619.56 150.649 L1625.37 132.761 Z" fill="#3da44d" fill-rule="evenodd" fill-opacity="1" stroke="#000000" stroke-opacity="1" stroke-width="3.2"/>
<path clip-path="url(#clip772)" d="M1950.8 93.718 L1935.58 104.774 L1941.39 122.662 L1960.21 122.662 L1966.01 104.774 Z" fill="#3da44d" fill-rule="evenodd" fill-opacity="1" stroke="#000000" stroke-opacity="1" stroke-width="3.2"/>
<path clip-path="url(#clip772)" d="M2291.44 81.4726 L2276.22 92.5286 L2282.03 110.417 L2300.85 110.417 L2306.66 92.5286 Z" fill="#3da44d" fill-rule="evenodd" fill-opacity="1" stroke="#000000" stroke-opacity="1" stroke-width="3.2"/>
<polyline clip-path="url(#clip772)" style="stroke:#c271d2; stroke-linecap:butt; stroke-linejoin:round; stroke-width:12; stroke-opacity:1; fill:none" points="
  247.59,1445.72 288.467,1316.51 329.344,1199.59 370.221,1093.81 411.098,998.087 451.975,911.475 492.852,833.106 533.729,762.195 574.606,698.032 615.483,639.975 
  656.36,587.442 697.237,539.909 738.114,496.899 778.991,457.982 819.868,422.769 860.745,390.906 901.622,362.076 942.499,335.989 983.376,312.385 1024.25,291.027 
  1065.13,271.701 1106.01,254.215 1146.88,238.392 1187.76,224.075 1228.64,211.121 1269.51,199.4 1310.39,188.794 1351.27,179.197 1392.15,170.513 1433.02,162.656 
  1473.9,155.546 1514.78,149.114 1555.65,143.293 1596.53,138.026 1637.41,133.26 1678.29,128.948 1719.16,125.046 1760.04,121.516 1800.92,118.322 1841.79,115.431 
  1882.67,112.816 1923.55,110.449 1964.42,108.308 2005.3,106.37 2046.18,104.617 2087.06,103.031 2127.93,101.595 2168.81,100.296 2209.69,99.1213 2250.56,98.0579 
  2291.44,97.0957 
  "/>
<path clip-path="url(#clip770)" d="
M1913.48 870.526 L2280.54 870.526 L2280.54 611.326 L1913.48 611.326  Z
  " fill="#ffffff" fill-rule="evenodd" fill-opacity="1"/>
<polyline clip-path="url(#clip770)" style="stroke:#000000; stroke-linecap:butt; stroke-linejoin:round; stroke-width:4; stroke-opacity:1; fill:none" points="
  1913.48,870.526 2280.54,870.526 2280.54,611.326 1913.48,611.326 1913.48,870.526 
  "/>
<polyline clip-path="url(#clip770)" style="stroke:#009af9; stroke-linecap:butt; stroke-linejoin:round; stroke-width:4; stroke-opacity:1; fill:none" points="
  1937.55,663.166 2081.98,663.166 
  "/>
<path clip-path="url(#clip770)" d="M2009.77 688.766 L1991.67 681.265 L1984.17 663.166 L1991.67 645.067 L2009.77 637.566 L2027.86 645.067 L2035.37 663.166 L2027.86 681.265 Z" fill="#009af9" fill-rule="evenodd" fill-opacity="1" stroke="#000000" stroke-opacity="1" stroke-width="5.12"/>
<path clip-path="url(#clip770)" d="M2130.08 666.418 L2130.08 668.502 L2110.5 668.502 Q2110.78 672.9 2113.14 675.215 Q2115.52 677.506 2119.76 677.506 Q2122.21 677.506 2124.5 676.904 Q2126.82 676.302 2129.09 675.099 L2129.09 679.127 Q2126.79 680.099 2124.39 680.608 Q2121.98 681.117 2119.5 681.117 Q2113.3 681.117 2109.66 677.506 Q2106.05 673.895 2106.05 667.738 Q2106.05 661.372 2109.48 657.645 Q2112.93 653.895 2118.76 653.895 Q2123.99 653.895 2127.03 657.275 Q2130.08 660.631 2130.08 666.418 M2125.82 665.168 Q2125.78 661.673 2123.85 659.59 Q2121.96 657.506 2118.81 657.506 Q2115.24 657.506 2113.09 659.52 Q2110.96 661.534 2110.64 665.191 L2125.82 665.168 Z" fill="#000000" fill-rule="evenodd" fill-opacity="1" /><path clip-path="url(#clip770)" d="M2136.63 670.215 L2136.63 654.52 L2140.89 654.52 L2140.89 670.053 Q2140.89 673.733 2142.33 675.585 Q2143.76 677.414 2146.63 677.414 Q2150.08 677.414 2152.07 675.215 Q2154.09 673.015 2154.09 669.219 L2154.09 654.52 L2158.35 654.52 L2158.35 680.446 L2154.09 680.446 L2154.09 676.465 Q2152.54 678.826 2150.47 679.983 Q2148.44 681.117 2145.73 681.117 Q2141.26 681.117 2138.95 678.34 Q2136.63 675.562 2136.63 670.215 M2147.35 653.895 L2147.35 653.895 Z" fill="#000000" fill-rule="evenodd" fill-opacity="1" /><path clip-path="url(#clip770)" d="M2167.12 644.428 L2171.38 644.428 L2171.38 680.446 L2167.12 680.446 L2167.12 644.428 Z" fill="#000000" fill-rule="evenodd" fill-opacity="1" /><path clip-path="url(#clip770)" d="M2202.47 666.418 L2202.47 668.502 L2182.88 668.502 Q2183.16 672.9 2185.52 675.215 Q2187.91 677.506 2192.14 677.506 Q2194.6 677.506 2196.89 676.904 Q2199.2 676.302 2201.47 675.099 L2201.47 679.127 Q2199.18 680.099 2196.77 680.608 Q2194.36 681.117 2191.89 681.117 Q2185.68 681.117 2182.05 677.506 Q2178.44 673.895 2178.44 667.738 Q2178.44 661.372 2181.86 657.645 Q2185.31 653.895 2191.15 653.895 Q2196.38 653.895 2199.41 657.275 Q2202.47 660.631 2202.47 666.418 M2198.21 665.168 Q2198.16 661.673 2196.24 659.59 Q2194.34 657.506 2191.19 657.506 Q2187.63 657.506 2185.47 659.52 Q2183.35 661.534 2183.02 665.191 L2198.21 665.168 Z" fill="#000000" fill-rule="evenodd" fill-opacity="1" /><path clip-path="url(#clip770)" d="M2224.48 658.502 Q2223.76 658.085 2222.91 657.9 Q2222.07 657.691 2221.05 657.691 Q2217.44 657.691 2215.5 660.053 Q2213.58 662.391 2213.58 666.789 L2213.58 680.446 L2209.29 680.446 L2209.29 654.52 L2213.58 654.52 L2213.58 658.548 Q2214.92 656.187 2217.07 655.053 Q2219.22 653.895 2222.3 653.895 Q2222.74 653.895 2223.28 653.965 Q2223.81 654.011 2224.46 654.127 L2224.48 658.502 Z" fill="#000000" fill-rule="evenodd" fill-opacity="1" /><polyline clip-path="url(#clip770)" style="stroke:#e26f46; stroke-linecap:butt; stroke-linejoin:round; stroke-width:4; stroke-opacity:1; fill:none" points="
  1937.55,715.006 2081.98,715.006 
  "/>
<path clip-path="url(#clip770)" d="M2009.77 689.406 L1984.17 715.006 L2009.77 740.606 L2035.37 715.006 L2009.77 689.406 Z" fill="#e26f46" fill-rule="evenodd" fill-opacity="1" stroke="#000000" stroke-opacity="1" stroke-width="5.12"/>
<path clip-path="url(#clip770)" d="M2121.24 710.342 Q2120.52 709.925 2119.66 709.74 Q2118.83 709.531 2117.81 709.531 Q2114.2 709.531 2112.26 711.893 Q2110.34 714.231 2110.34 718.629 L2110.34 732.286 L2106.05 732.286 L2106.05 706.36 L2110.34 706.36 L2110.34 710.388 Q2111.68 708.027 2113.83 706.893 Q2115.98 705.735 2119.06 705.735 Q2119.5 705.735 2120.04 705.805 Q2120.57 705.851 2121.22 705.967 L2121.24 710.342 Z" fill="#000000" fill-rule="evenodd" fill-opacity="1" /><path clip-path="url(#clip770)" d="M2125.54 696.268 L2129.83 696.268 L2129.83 717.541 L2142.54 706.36 L2147.97 706.36 L2134.23 718.49 L2148.55 732.286 L2143 732.286 L2129.83 719.624 L2129.83 732.286 L2125.54 732.286 L2125.54 696.268 Z" fill="#000000" fill-rule="evenodd" fill-opacity="1" /><path clip-path="url(#clip770)" d="M2157.79 728.351 L2174.11 728.351 L2174.11 732.286 L2152.16 732.286 L2152.16 728.351 Q2154.83 725.596 2159.41 720.967 Q2164.02 716.314 2165.2 714.971 Q2167.44 712.448 2168.32 710.712 Q2169.22 708.953 2169.22 707.263 Q2169.22 704.508 2167.28 702.772 Q2165.36 701.036 2162.26 701.036 Q2160.06 701.036 2157.6 701.8 Q2155.17 702.564 2152.4 704.115 L2152.4 699.393 Q2155.22 698.258 2157.67 697.68 Q2160.13 697.101 2162.16 697.101 Q2167.54 697.101 2170.73 699.786 Q2173.92 702.471 2173.92 706.962 Q2173.92 709.092 2173.11 711.013 Q2172.33 712.911 2170.22 715.504 Q2169.64 716.175 2166.54 719.393 Q2163.44 722.587 2157.79 728.351 Z" fill="#000000" fill-rule="evenodd" fill-opacity="1" /><polyline clip-path="url(#clip770)" style="stroke:#3da44d; stroke-linecap:butt; stroke-linejoin:round; stroke-width:4; stroke-opacity:1; fill:none" points="
  1937.55,766.846 2081.98,766.846 
  "/>
<path clip-path="url(#clip770)" d="M2009.77 741.246 L1985.42 758.936 L1994.71 787.556 L2024.82 787.556 L2034.11 758.936 Z" fill="#3da44d" fill-rule="evenodd" fill-opacity="1" stroke="#000000" stroke-opacity="1" stroke-width="5.12"/>
<path clip-path="url(#clip770)" d="M2121.24 762.182 Q2120.52 761.765 2119.66 761.58 Q2118.83 761.371 2117.81 761.371 Q2114.2 761.371 2112.26 763.733 Q2110.34 766.071 2110.34 770.469 L2110.34 784.126 L2106.05 784.126 L2106.05 758.2 L2110.34 758.2 L2110.34 762.228 Q2111.68 759.867 2113.83 758.733 Q2115.98 757.575 2119.06 757.575 Q2119.5 757.575 2120.04 757.645 Q2120.57 757.691 2121.22 757.807 L2121.24 762.182 Z" fill="#000000" fill-rule="evenodd" fill-opacity="1" /><path clip-path="url(#clip770)" d="M2125.54 748.108 L2129.83 748.108 L2129.83 769.381 L2142.54 758.2 L2147.97 758.2 L2134.23 770.33 L2148.55 784.126 L2143 784.126 L2129.83 771.464 L2129.83 784.126 L2125.54 784.126 L2125.54 748.108 Z" fill="#000000" fill-rule="evenodd" fill-opacity="1" /><path clip-path="url(#clip770)" d="M2166.61 753.64 L2154.8 772.089 L2166.61 772.089 L2166.61 753.64 M2165.38 749.566 L2171.26 749.566 L2171.26 772.089 L2176.19 772.089 L2176.19 775.978 L2171.26 775.978 L2171.26 784.126 L2166.61 784.126 L2166.61 775.978 L2151.01 775.978 L2151.01 771.464 L2165.38 749.566 Z" fill="#000000" fill-rule="evenodd" fill-opacity="1" /><polyline clip-path="url(#clip770)" style="stroke:#c271d2; stroke-linecap:butt; stroke-linejoin:round; stroke-width:4; stroke-opacity:1; fill:none" points="
  1937.55,818.686 2081.98,818.686 
  "/>
<path clip-path="url(#clip770)" d="M2130.08 821.938 L2130.08 824.022 L2110.5 824.022 Q2110.78 828.42 2113.14 830.735 Q2115.52 833.026 2119.76 833.026 Q2122.21 833.026 2124.5 832.424 Q2126.82 831.822 2129.09 830.619 L2129.09 834.647 Q2126.79 835.619 2124.39 836.128 Q2121.98 836.637 2119.5 836.637 Q2113.3 836.637 2109.66 833.026 Q2106.05 829.415 2106.05 823.258 Q2106.05 816.892 2109.48 813.165 Q2112.93 809.415 2118.76 809.415 Q2123.99 809.415 2127.03 812.795 Q2130.08 816.151 2130.08 821.938 M2125.82 820.688 Q2125.78 817.193 2123.85 815.11 Q2121.96 813.026 2118.81 813.026 Q2115.24 813.026 2113.09 815.04 Q2110.96 817.054 2110.64 820.711 L2125.82 820.688 Z" fill="#000000" fill-rule="evenodd" fill-opacity="1" /><path clip-path="url(#clip770)" d="M2157.79 810.04 L2148.41 822.656 L2158.28 835.966 L2153.25 835.966 L2145.71 825.781 L2138.16 835.966 L2133.14 835.966 L2143.21 822.401 L2133.99 810.04 L2139.02 810.04 L2145.89 819.276 L2152.77 810.04 L2157.79 810.04 Z" fill="#000000" fill-rule="evenodd" fill-opacity="1" /><path clip-path="url(#clip770)" d="M2176.08 822.934 Q2170.91 822.934 2168.92 824.114 Q2166.93 825.295 2166.93 828.142 Q2166.93 830.41 2168.41 831.753 Q2169.92 833.072 2172.49 833.072 Q2176.03 833.072 2178.16 830.572 Q2180.31 828.049 2180.31 823.883 L2180.31 822.934 L2176.08 822.934 M2184.57 821.174 L2184.57 835.966 L2180.31 835.966 L2180.31 832.031 Q2178.85 834.392 2176.68 835.526 Q2174.5 836.637 2171.35 836.637 Q2167.37 836.637 2165.01 834.415 Q2162.67 832.17 2162.67 828.42 Q2162.67 824.045 2165.59 821.823 Q2168.53 819.6 2174.34 819.6 L2180.31 819.6 L2180.31 819.184 Q2180.31 816.244 2178.37 814.647 Q2176.45 813.026 2172.95 813.026 Q2170.73 813.026 2168.62 813.559 Q2166.52 814.091 2164.57 815.156 L2164.57 811.221 Q2166.91 810.318 2169.11 809.878 Q2171.31 809.415 2173.39 809.415 Q2179.02 809.415 2181.79 812.332 Q2184.57 815.249 2184.57 821.174 Z" fill="#000000" fill-rule="evenodd" fill-opacity="1" /><path clip-path="url(#clip770)" d="M2212 811.036 L2212 815.017 Q2210.2 814.022 2208.37 813.536 Q2206.56 813.026 2204.71 813.026 Q2200.57 813.026 2198.28 815.665 Q2195.98 818.281 2195.98 823.026 Q2195.98 827.772 2198.28 830.41 Q2200.57 833.026 2204.71 833.026 Q2206.56 833.026 2208.37 832.54 Q2210.2 832.031 2212 831.035 L2212 834.971 Q2210.22 835.804 2208.3 836.221 Q2206.4 836.637 2204.25 836.637 Q2198.39 836.637 2194.94 832.957 Q2191.49 829.276 2191.49 823.026 Q2191.49 816.684 2194.97 813.049 Q2198.46 809.415 2204.53 809.415 Q2206.49 809.415 2208.37 809.832 Q2210.24 810.225 2212 811.036 Z" fill="#000000" fill-rule="evenodd" fill-opacity="1" /><path clip-path="url(#clip770)" d="M2223.62 802.679 L2223.62 810.04 L2232.4 810.04 L2232.4 813.35 L2223.62 813.35 L2223.62 827.424 Q2223.62 830.596 2224.48 831.498 Q2225.36 832.401 2228.02 832.401 L2232.4 832.401 L2232.4 835.966 L2228.02 835.966 Q2223.09 835.966 2221.22 834.137 Q2219.34 832.285 2219.34 827.424 L2219.34 813.35 L2216.22 813.35 L2216.22 810.04 L2219.34 810.04 L2219.34 802.679 L2223.62 802.679 Z" fill="#000000" fill-rule="evenodd" fill-opacity="1" /></svg>
