<?xml version="1.0" encoding="utf-8"?>
<svg xmlns="http://www.w3.org/2000/svg" xmlns:xlink="http://www.w3.org/1999/xlink" width="600" height="400" viewBox="0 0 2400 1600">
<defs>
  <clipPath id="clip890">
    <rect x="0" y="0" width="2400" height="1600"/>
  </clipPath>
</defs>
<path clip-path="url(#clip890)" d="
M0 1600 L2400 1600 L2400 0 L0 0  Z
  " fill="#ffffff" fill-rule="evenodd" fill-opacity="1"/>
<defs>
  <clipPath id="clip891">
    <rect x="480" y="0" width="1681" height="1600"/>
  </clipPath>
</defs>
<path clip-path="url(#clip890)" d="
M186.274 1486.45 L2352.76 1486.45 L2352.76 47.2441 L186.274 47.2441  Z
  " fill="#ffffff" fill-rule="evenodd" fill-opacity="1"/>
<defs>
  <clipPath id="clip892">
    <rect x="186" y="47" width="2167" height="1440"/>
  </clipPath>
</defs>
<polyline clip-path="url(#clip892)" style="stroke:#000000; stroke-linecap:butt; stroke-linejoin:round; stroke-width:2; stroke-opacity:0.1; fill:none" points="
  247.59,1486.45 247.59,47.2441 
  "/>
<polyline clip-path="url(#clip892)" style="stroke:#000000; stroke-linecap:butt; stroke-linejoin:round; stroke-width:2; stroke-opacity:0.1; fill:none" points="
  656.36,1486.45 656.36,47.2441 
  "/>
<polyline clip-path="url(#clip892)" style="stroke:#000000; stroke-linecap:butt; stroke-linejoin:round; stroke-width:2; stroke-opacity:0.1; fill:none" points="
  1065.13,1486.45 1065.13,47.2441 
  "/>
<polyline clip-path="url(#clip892)" style="stroke:#000000; stroke-linecap:butt; stroke-linejoin:round; stroke-width:2; stroke-opacity:0.1; fill:none" points="
  1473.9,1486.45 1473.9,47.2441 
  "/>
<polyline clip-path="url(#clip892)" style="stroke:#000000; stroke-linecap:butt; stroke-linejoin:round; stroke-width:2; stroke-opacity:0.1; fill:none" points="
  1882.67,1486.45 1882.67,47.2441 
  "/>
<polyline clip-path="url(#clip892)" style="stroke:#000000; stroke-linecap:butt; stroke-linejoin:round; stroke-width:2; stroke-opacity:0.1; fill:none" points="
  2291.44,1486.45 2291.44,47.2441 
  "/>
<polyline clip-path="url(#clip890)" style="stroke:#000000; stroke-linecap:butt; stroke-linejoin:round; stroke-width:4; stroke-opacity:1; fill:none" points="
  186.274,1486.45 2352.76,1486.45 
  "/>
<polyline clip-path="url(#clip890)" style="stroke:#000000; stroke-linecap:butt; stroke-linejoin:round; stroke-width:4; stroke-opacity:1; fill:none" points="
  247.59,1486.45 247.59,1467.55 
  "/>
<polyline clip-path="url(#clip890)" style="stroke:#000000; stroke-linecap:butt; stroke-linejoin:round; stroke-width:4; stroke-opacity:1; fill:none" points="
  656.36,1486.45 656.36,1467.55 
  "/>
<polyline clip-path="url(#clip890)" style="stroke:#000000; stroke-linecap:butt; stroke-linejoin:round; stroke-width:4; stroke-opacity:1; fill:none" points="
  1065.13,1486.45 1065.13,1467.55 
  "/>
<polyline clip-path="url(#clip890)" style="stroke:#000000; stroke-linecap:butt; stroke-linejoin:round; stroke-width:4; stroke-opacity:1; fill:none" points="
  1473.9,1486.45 1473.9,1467.55 
  "/>
<polyline clip-path="url(#clip890)" style="stroke:#000000; stroke-linecap:butt; stroke-linejoin:round; stroke-width:4; stroke-opacity:1; fill:none" points="
  1882.67,1486.45 1882.67,1467.55 
  "/>
<polyline clip-path="url(#clip890)" style="stroke:#000000; stroke-linecap:butt; stroke-linejoin:round; stroke-width:4; stroke-opacity:1; fill:none" points="
  2291.44,1486.45 2291.44,1467.55 
  "/>
<path clip-path="url(#clip890)" d="M247.59 1517.37 Q243.978 1517.37 242.15 1520.93 Q240.344 1524.47 240.344 1531.6 Q240.344 1538.71 242.15 1542.27 Q243.978 1545.82 247.59 1545.82 Q251.224 1545.82 253.029 1542.27 Q254.858 1538.71 254.858 1531.6 Q254.858 1524.47 253.029 1520.93 Q251.224 1517.37 247.59 1517.37 M247.59 1513.66 Q253.4 1513.66 256.455 1518.27 Q259.534 1522.85 259.534 1531.6 Q259.534 1540.33 256.455 1544.94 Q253.4 1549.52 247.59 1549.52 Q241.779 1549.52 238.701 1544.94 Q235.645 1540.33 235.645 1531.6 Q235.645 1522.85 238.701 1518.27 Q241.779 1513.66 247.59 1513.66 Z" fill="#000000" fill-rule="evenodd" fill-opacity="1" /><path clip-path="url(#clip890)" d="M646.742 1544.91 L654.381 1544.91 L654.381 1518.55 L646.07 1520.21 L646.07 1515.95 L654.334 1514.29 L659.01 1514.29 L659.01 1544.91 L666.649 1544.91 L666.649 1548.85 L646.742 1548.85 L646.742 1544.91 Z" fill="#000000" fill-rule="evenodd" fill-opacity="1" /><path clip-path="url(#clip890)" d="M1059.78 1544.91 L1076.1 1544.91 L1076.1 1548.85 L1054.16 1548.85 L1054.16 1544.91 Q1056.82 1542.16 1061.4 1537.53 Q1066.01 1532.88 1067.19 1531.53 Q1069.44 1529.01 1070.32 1527.27 Q1071.22 1525.51 1071.22 1523.82 Q1071.22 1521.07 1069.27 1519.33 Q1067.35 1517.6 1064.25 1517.6 Q1062.05 1517.6 1059.6 1518.36 Q1057.17 1519.13 1054.39 1520.68 L1054.39 1515.95 Q1057.21 1514.82 1059.67 1514.24 Q1062.12 1513.66 1064.16 1513.66 Q1069.53 1513.66 1072.72 1516.35 Q1075.92 1519.03 1075.92 1523.52 Q1075.92 1525.65 1075.11 1527.57 Q1074.32 1529.47 1072.21 1532.07 Q1071.63 1532.74 1068.53 1535.95 Q1065.43 1539.15 1059.78 1544.91 Z" fill="#000000" fill-rule="evenodd" fill-opacity="1" /><path clip-path="url(#clip890)" d="M1478.15 1530.21 Q1481.5 1530.93 1483.38 1533.2 Q1485.28 1535.47 1485.28 1538.8 Q1485.28 1543.92 1481.76 1546.72 Q1478.24 1549.52 1471.76 1549.52 Q1469.58 1549.52 1467.27 1549.08 Q1464.98 1548.66 1462.52 1547.81 L1462.52 1543.29 Q1464.47 1544.43 1466.78 1545.01 Q1469.1 1545.58 1471.62 1545.58 Q1476.02 1545.58 1478.31 1543.85 Q1480.62 1542.11 1480.62 1538.8 Q1480.62 1535.75 1478.47 1534.03 Q1476.34 1532.3 1472.52 1532.3 L1468.49 1532.3 L1468.49 1528.45 L1472.71 1528.45 Q1476.16 1528.45 1477.99 1527.09 Q1479.81 1525.7 1479.81 1523.11 Q1479.81 1520.45 1477.92 1519.03 Q1476.04 1517.6 1472.52 1517.6 Q1470.6 1517.6 1468.4 1518.01 Q1466.2 1518.43 1463.56 1519.31 L1463.56 1515.14 Q1466.23 1514.4 1468.54 1514.03 Q1470.88 1513.66 1472.94 1513.66 Q1478.26 1513.66 1481.37 1516.09 Q1484.47 1518.5 1484.47 1522.62 Q1484.47 1525.49 1482.82 1527.48 Q1481.18 1529.45 1478.15 1530.21 Z" fill="#000000" fill-rule="evenodd" fill-opacity="1" /><path clip-path="url(#clip890)" d="M1885.68 1518.36 L1873.87 1536.81 L1885.68 1536.81 L1885.68 1518.36 M1884.45 1514.29 L1890.33 1514.29 L1890.33 1536.81 L1895.26 1536.81 L1895.26 1540.7 L1890.33 1540.7 L1890.33 1548.85 L1885.68 1548.85 L1885.68 1540.7 L1870.08 1540.7 L1870.08 1536.19 L1884.45 1514.29 Z" fill="#000000" fill-rule="evenodd" fill-opacity="1" /><path clip-path="url(#clip890)" d="M2281.72 1514.29 L2300.07 1514.29 L2300.07 1518.22 L2286 1518.22 L2286 1526.7 Q2287.02 1526.35 2288.04 1526.19 Q2289.06 1526 2290.07 1526 Q2295.86 1526 2299.24 1529.17 Q2302.62 1532.34 2302.62 1537.76 Q2302.62 1543.34 2299.15 1546.44 Q2295.68 1549.52 2289.36 1549.52 Q2287.18 1549.52 2284.91 1549.15 Q2282.67 1548.78 2280.26 1548.04 L2280.26 1543.34 Q2282.34 1544.47 2284.57 1545.03 Q2286.79 1545.58 2289.26 1545.58 Q2293.27 1545.58 2295.61 1543.48 Q2297.94 1541.37 2297.94 1537.76 Q2297.94 1534.15 2295.61 1532.04 Q2293.27 1529.94 2289.26 1529.94 Q2287.39 1529.94 2285.51 1530.35 Q2283.66 1530.77 2281.72 1531.65 L2281.72 1514.29 Z" fill="#000000" fill-rule="evenodd" fill-opacity="1" /><polyline clip-path="url(#clip892)" style="stroke:#000000; stroke-linecap:butt; stroke-linejoin:round; stroke-width:2; stroke-opacity:0.1; fill:none" points="
  186.274,1445.72 2352.76,1445.72 
  "/>
<polyline clip-path="url(#clip892)" style="stroke:#000000; stroke-linecap:butt; stroke-linejoin:round; stroke-width:2; stroke-opacity:0.1; fill:none" points="
  186.274,1103.98 2352.76,1103.98 
  "/>
<polyline clip-path="url(#clip892)" style="stroke:#000000; stroke-linecap:butt; stroke-linejoin:round; stroke-width:2; stroke-opacity:0.1; fill:none" points="
  186.274,762.241 2352.76,762.241 
  "/>
<polyline clip-path="url(#clip892)" style="stroke:#000000; stroke-linecap:butt; stroke-linejoin:round; stroke-width:2; stroke-opacity:0.1; fill:none" points="
  186.274,420.503 2352.76,420.503 
  "/>
<polyline clip-path="url(#clip892)" style="stroke:#000000; stroke-linecap:butt; stroke-linejoin:round; stroke-width:2; stroke-opacity:0.1; fill:none" points="
  186.274,78.7658 2352.76,78.7658 
  "/>
<polyline clip-path="url(#clip890)" style="stroke:#000000; stroke-linecap:butt; stroke-linejoin:round; stroke-width:4; stroke-opacity:1; fill:none" points="
  186.274,1486.45 186.274,47.2441 
  "/>
<polyline clip-path="url(#clip890)" style="stroke:#000000; stroke-linecap:butt; stroke-linejoin:round; stroke-width:4; stroke-opacity:1; fill:none" points="
  186.274,1445.72 205.172,1445.72 
  "/>
<polyline clip-path="url(#clip890)" style="stroke:#000000; stroke-linecap:butt; stroke-linejoin:round; stroke-width:4; stroke-opacity:1; fill:none" points="
  186.274,1103.98 205.172,1103.98 
  "/>
<polyline clip-path="url(#clip890)" style="stroke:#000000; stroke-linecap:butt; stroke-linejoin:round; stroke-width:4; stroke-opacity:1; fill:none" points="
  186.274,762.241 205.172,762.241 
  "/>
<polyline clip-path="url(#clip890)" style="stroke:#000000; stroke-linecap:butt; stroke-linejoin:round; stroke-width:4; stroke-opacity:1; fill:none" points="
  186.274,420.503 205.172,420.503 
  "/>
<polyline clip-path="url(#clip890)" style="stroke:#000000; stroke-linecap:butt; stroke-linejoin:round; stroke-width:4; stroke-opacity:1; fill:none" points="
  186.274,78.7658 205.172,78.7658 
  "/>
<path clip-path="url(#clip890)" d="M62.9365 1431.51 Q59.3254 1431.51 57.4967 1435.08 Q55.6912 1438.62 55.6912 1445.75 Q55.6912 1452.86 57.4967 1456.42 Q59.3254 1459.96 62.9365 1459.96 Q66.5707 1459.96 68.3763 1456.42 Q70.205 1452.86 70.205 1445.75 Q70.205 1438.62 68.3763 1435.08 Q66.5707 1431.51 62.9365 1431.51 M62.9365 1427.81 Q68.7467 1427.81 71.8022 1432.42 Q74.8809 1437 74.8809 1445.75 Q74.8809 1454.48 71.8022 1459.08 Q68.7467 1463.67 62.9365 1463.67 Q57.1264 1463.67 54.0477 1459.08 Q50.9921 1454.48 50.9921 1445.75 Q50.9921 1437 54.0477 1432.42 Q57.1264 1427.81 62.9365 1427.81 Z" fill="#000000" fill-rule="evenodd" fill-opacity="1" /><path clip-path="url(#clip890)" d="M83.0984 1457.12 L87.9827 1457.12 L87.9827 1463 L83.0984 1463 L83.0984 1457.12 Z" fill="#000000" fill-rule="evenodd" fill-opacity="1" /><path clip-path="url(#clip890)" d="M108.168 1431.51 Q104.557 1431.51 102.728 1435.08 Q100.922 1438.62 100.922 1445.75 Q100.922 1452.86 102.728 1456.42 Q104.557 1459.96 108.168 1459.96 Q111.802 1459.96 113.608 1456.42 Q115.436 1452.86 115.436 1445.75 Q115.436 1438.62 113.608 1435.08 Q111.802 1431.51 108.168 1431.51 M108.168 1427.81 Q113.978 1427.81 117.033 1432.42 Q120.112 1437 120.112 1445.75 Q120.112 1454.48 117.033 1459.08 Q113.978 1463.67 108.168 1463.67 Q102.358 1463.67 99.2789 1459.08 Q96.2234 1454.48 96.2234 1445.75 Q96.2234 1437 99.2789 1432.42 Q102.358 1427.81 108.168 1427.81 Z" fill="#000000" fill-rule="evenodd" fill-opacity="1" /><path clip-path="url(#clip890)" d="M138.33 1431.51 Q134.719 1431.51 132.89 1435.08 Q131.084 1438.62 131.084 1445.75 Q131.084 1452.86 132.89 1456.42 Q134.719 1459.96 138.33 1459.96 Q141.964 1459.96 143.769 1456.42 Q145.598 1452.86 145.598 1445.75 Q145.598 1438.62 143.769 1435.08 Q141.964 1431.51 138.33 1431.51 M138.33 1427.81 Q144.14 1427.81 147.195 1432.42 Q150.274 1437 150.274 1445.75 Q150.274 1454.48 147.195 1459.08 Q144.14 1463.67 138.33 1463.67 Q132.519 1463.67 129.441 1459.08 Q126.385 1454.48 126.385 1445.75 Q126.385 1437 129.441 1432.42 Q132.519 1427.81 138.33 1427.81 Z" fill="#000000" fill-rule="evenodd" fill-opacity="1" /><path clip-path="url(#clip890)" d="M63.9319 1089.78 Q60.3208 1089.78 58.4921 1093.34 Q56.6865 1096.88 56.6865 1104.01 Q56.6865 1111.12 58.4921 1114.68 Q60.3208 1118.23 63.9319 1118.23 Q67.5661 1118.23 69.3717 1114.68 Q71.2004 1111.12 71.2004 1104.01 Q71.2004 1096.88 69.3717 1093.34 Q67.5661 1089.78 63.9319 1089.78 M63.9319 1086.07 Q69.742 1086.07 72.7976 1090.68 Q75.8763 1095.26 75.8763 1104.01 Q75.8763 1112.74 72.7976 1117.35 Q69.742 1121.93 63.9319 1121.93 Q58.1217 1121.93 55.043 1117.35 Q51.9875 1112.74 51.9875 1104.01 Q51.9875 1095.26 55.043 1090.68 Q58.1217 1086.07 63.9319 1086.07 Z" fill="#000000" fill-rule="evenodd" fill-opacity="1" /><path clip-path="url(#clip890)" d="M84.0938 1115.38 L88.978 1115.38 L88.978 1121.26 L84.0938 1121.26 L84.0938 1115.38 Z" fill="#000000" fill-rule="evenodd" fill-opacity="1" /><path clip-path="url(#clip890)" d="M103.191 1117.32 L119.51 1117.32 L119.51 1121.26 L97.566 1121.26 L97.566 1117.32 Q100.228 1114.57 104.811 1109.94 Q109.418 1105.29 110.598 1103.94 Q112.844 1101.42 113.723 1099.68 Q114.626 1097.93 114.626 1096.24 Q114.626 1093.48 112.682 1091.74 Q110.76 1090.01 107.658 1090.01 Q105.459 1090.01 103.006 1090.77 Q100.575 1091.54 97.7974 1093.09 L97.7974 1088.36 Q100.621 1087.23 103.075 1086.65 Q105.529 1086.07 107.566 1086.07 Q112.936 1086.07 116.131 1088.76 Q119.325 1091.44 119.325 1095.93 Q119.325 1098.06 118.515 1099.99 Q117.728 1101.88 115.621 1104.48 Q115.043 1105.15 111.941 1108.36 Q108.839 1111.56 103.191 1117.32 Z" fill="#000000" fill-rule="evenodd" fill-opacity="1" /><path clip-path="url(#clip890)" d="M129.371 1086.7 L147.728 1086.7 L147.728 1090.63 L133.654 1090.63 L133.654 1099.11 Q134.672 1098.76 135.691 1098.6 Q136.709 1098.41 137.728 1098.41 Q143.515 1098.41 146.894 1101.58 Q150.274 1104.75 150.274 1110.17 Q150.274 1115.75 146.802 1118.85 Q143.33 1121.93 137.01 1121.93 Q134.834 1121.93 132.566 1121.56 Q130.32 1121.19 127.913 1120.45 L127.913 1115.75 Q129.996 1116.88 132.219 1117.44 Q134.441 1117.99 136.918 1117.99 Q140.922 1117.99 143.26 1115.89 Q145.598 1113.78 145.598 1110.17 Q145.598 1106.56 143.26 1104.45 Q140.922 1102.35 136.918 1102.35 Q135.043 1102.35 133.168 1102.76 Q131.316 1103.18 129.371 1104.06 L129.371 1086.7 Z" fill="#000000" fill-rule="evenodd" fill-opacity="1" /><path clip-path="url(#clip890)" d="M62.9365 748.039 Q59.3254 748.039 57.4967 751.604 Q55.6912 755.146 55.6912 762.275 Q55.6912 769.382 57.4967 772.947 Q59.3254 776.488 62.9365 776.488 Q66.5707 776.488 68.3763 772.947 Q70.205 769.382 70.205 762.275 Q70.205 755.146 68.3763 751.604 Q66.5707 748.039 62.9365 748.039 M62.9365 744.336 Q68.7467 744.336 71.8022 748.942 Q74.8809 753.526 74.8809 762.275 Q74.8809 771.002 71.8022 775.609 Q68.7467 780.192 62.9365 780.192 Q57.1264 780.192 54.0477 775.609 Q50.9921 771.002 50.9921 762.275 Q50.9921 753.526 54.0477 748.942 Q57.1264 744.336 62.9365 744.336 Z" fill="#000000" fill-rule="evenodd" fill-opacity="1" /><path clip-path="url(#clip890)" d="M83.0984 773.641 L87.9827 773.641 L87.9827 779.521 L83.0984 779.521 L83.0984 773.641 Z" fill="#000000" fill-rule="evenodd" fill-opacity="1" /><path clip-path="url(#clip890)" d="M98.2141 744.961 L116.57 744.961 L116.57 748.896 L102.496 748.896 L102.496 757.368 Q103.515 757.021 104.534 756.859 Q105.552 756.674 106.571 756.674 Q112.358 756.674 115.737 759.845 Q119.117 763.016 119.117 768.433 Q119.117 774.012 115.645 777.113 Q112.172 780.192 105.853 780.192 Q103.677 780.192 101.409 779.822 Q99.1632 779.451 96.7558 778.711 L96.7558 774.012 Q98.8391 775.146 101.061 775.701 Q103.284 776.257 105.76 776.257 Q109.765 776.257 112.103 774.15 Q114.441 772.044 114.441 768.433 Q114.441 764.822 112.103 762.715 Q109.765 760.609 105.76 760.609 Q103.885 760.609 102.01 761.025 Q100.159 761.442 98.2141 762.322 L98.2141 744.961 Z" fill="#000000" fill-rule="evenodd" fill-opacity="1" /><path clip-path="url(#clip890)" d="M138.33 748.039 Q134.719 748.039 132.89 751.604 Q131.084 755.146 131.084 762.275 Q131.084 769.382 132.89 772.947 Q134.719 776.488 138.33 776.488 Q141.964 776.488 143.769 772.947 Q145.598 769.382 145.598 762.275 Q145.598 755.146 143.769 751.604 Q141.964 748.039 138.33 748.039 M138.33 744.336 Q144.14 744.336 147.195 748.942 Q150.274 753.526 150.274 762.275 Q150.274 771.002 147.195 775.609 Q144.14 780.192 138.33 780.192 Q132.519 780.192 129.441 775.609 Q126.385 771.002 126.385 762.275 Q126.385 753.526 129.441 748.942 Q132.519 744.336 138.33 744.336 Z" fill="#000000" fill-rule="evenodd" fill-opacity="1" /><path clip-path="url(#clip890)" d="M63.9319 406.302 Q60.3208 406.302 58.4921 409.867 Q56.6865 413.408 56.6865 420.538 Q56.6865 427.644 58.4921 431.209 Q60.3208 434.751 63.9319 434.751 Q67.5661 434.751 69.3717 431.209 Q71.2004 427.644 71.2004 420.538 Q71.2004 413.408 69.3717 409.867 Q67.5661 406.302 63.9319 406.302 M63.9319 402.598 Q69.742 402.598 72.7976 407.205 Q75.8763 411.788 75.8763 420.538 Q75.8763 429.265 72.7976 433.871 Q69.742 438.455 63.9319 438.455 Q58.1217 438.455 55.043 433.871 Q51.9875 429.265 51.9875 420.538 Q51.9875 411.788 55.043 407.205 Q58.1217 402.598 63.9319 402.598 Z" fill="#000000" fill-rule="evenodd" fill-opacity="1" /><path clip-path="url(#clip890)" d="M84.0938 431.904 L88.978 431.904 L88.978 437.783 L84.0938 437.783 L84.0938 431.904 Z" fill="#000000" fill-rule="evenodd" fill-opacity="1" /><path clip-path="url(#clip890)" d="M97.9826 403.223 L120.205 403.223 L120.205 405.214 L107.658 437.783 L102.774 437.783 L114.58 407.158 L97.9826 407.158 L97.9826 403.223 Z" fill="#000000" fill-rule="evenodd" fill-opacity="1" /><path clip-path="url(#clip890)" d="M129.371 403.223 L147.728 403.223 L147.728 407.158 L133.654 407.158 L133.654 415.631 Q134.672 415.283 135.691 415.121 Q136.709 414.936 137.728 414.936 Q143.515 414.936 146.894 418.107 Q150.274 421.279 150.274 426.695 Q150.274 432.274 146.802 435.376 Q143.33 438.455 137.01 438.455 Q134.834 438.455 132.566 438.084 Q130.32 437.714 127.913 436.973 L127.913 432.274 Q129.996 433.408 132.219 433.964 Q134.441 434.519 136.918 434.519 Q140.922 434.519 143.26 432.413 Q145.598 430.306 145.598 426.695 Q145.598 423.084 143.26 420.978 Q140.922 418.871 136.918 418.871 Q135.043 418.871 133.168 419.288 Q131.316 419.705 129.371 420.584 L129.371 403.223 Z" fill="#000000" fill-rule="evenodd" fill-opacity="1" /><path clip-path="url(#clip890)" d="M53.7467 92.1107 L61.3856 92.1107 L61.3856 65.7451 L53.0754 67.4117 L53.0754 63.1525 L61.3393 61.4858 L66.0152 61.4858 L66.0152 92.1107 L73.654 92.1107 L73.654 96.0458 L53.7467 96.0458 L53.7467 92.1107 Z" fill="#000000" fill-rule="evenodd" fill-opacity="1" /><path clip-path="url(#clip890)" d="M83.0984 90.1662 L87.9827 90.1662 L87.9827 96.0458 L83.0984 96.0458 L83.0984 90.1662 Z" fill="#000000" fill-rule="evenodd" fill-opacity="1" /><path clip-path="url(#clip890)" d="M108.168 64.5645 Q104.557 64.5645 102.728 68.1293 Q100.922 71.671 100.922 78.8006 Q100.922 85.907 102.728 89.4718 Q104.557 93.0135 108.168 93.0135 Q111.802 93.0135 113.608 89.4718 Q115.436 85.907 115.436 78.8006 Q115.436 71.671 113.608 68.1293 Q111.802 64.5645 108.168 64.5645 M108.168 60.8608 Q113.978 60.8608 117.033 65.4673 Q120.112 70.0506 120.112 78.8006 Q120.112 87.5274 117.033 92.1338 Q113.978 96.7171 108.168 96.7171 Q102.358 96.7171 99.2789 92.1338 Q96.2234 87.5274 96.2234 78.8006 Q96.2234 70.0506 99.2789 65.4673 Q102.358 60.8608 108.168 60.8608 Z" fill="#000000" fill-rule="evenodd" fill-opacity="1" /><path clip-path="url(#clip890)" d="M138.33 64.5645 Q134.719 64.5645 132.89 68.1293 Q131.084 71.671 131.084 78.8006 Q131.084 85.907 132.89 89.4718 Q134.719 93.0135 138.33 93.0135 Q141.964 93.0135 143.769 89.4718 Q145.598 85.907 145.598 78.8006 Q145.598 71.671 143.769 68.1293 Q141.964 64.5645 138.33 64.5645 M138.33 60.8608 Q144.14 60.8608 147.195 65.4673 Q150.274 70.0506 150.274 78.8006 Q150.274 87.5274 147.195 92.1338 Q144.14 96.7171 138.33 96.7171 Q132.519 96.7171 129.441 92.1338 Q126.385 87.5274 126.385 78.8006 Q126.385 70.0506 129.441 65.4673 Q132.519 60.8608 138.33 60.8608 Z" fill="#000000" fill-rule="evenodd" fill-opacity="1" /><polyline clip-path="url(#clip892)" style="stroke:#009af9; stroke-linecap:butt; stroke-linejoin:round; stroke-width:4; stroke-opacity:1; fill:none" points="
  247.59,1445.72 288.467,1315.63 329.344,1197.93 370.221,1091.43 411.098,995.06 451.975,907.863 492.852,828.964 533.729,757.573 574.606,692.976 615.483,634.526 
  656.36,581.639 697.237,533.784 738.114,490.483 778.991,451.303 819.868,415.852 860.745,383.774 901.622,354.748 942.499,328.485 983.376,304.721 1024.25,283.219 
  1065.13,263.762 1106.01,246.158 1146.88,230.228 1187.76,215.815 1228.64,202.773 1269.51,190.972 1310.39,180.294 1351.27,170.632 1392.15,161.89 1433.02,153.98 
  1473.9,146.822 1514.78,140.346 1555.65,134.486 1596.53,129.183 1637.41,124.385 1678.29,120.044 1719.16,116.116 1760.04,112.562 1800.92,109.346 1841.79,106.436 
  1882.67,103.802 1923.55,101.42 1964.42,99.264 2005.3,97.3134 2046.18,95.5483 2087.06,93.9513 2127.93,92.5062 2168.81,91.1986 2209.69,90.0155 2250.56,88.9449 
  2291.44,87.9763 
  "/>
<polyline clip-path="url(#clip892)" style="stroke:#e26f46; stroke-linecap:butt; stroke-linejoin:round; stroke-width:4; stroke-opacity:1; fill:none" points="
  247.59,1445.72 588.231,676.85 928.873,340.447 1269.51,193.26 1610.16,128.861 1950.8,100.684 2291.44,88.3557 
  "/>
<path clip-path="url(#clip892)" d="M247.59 1461.72 L236.278 1457.03 L231.59 1445.72 L236.278 1434.4 L247.59 1429.72 L258.902 1434.4 L263.59 1445.72 L258.902 1457.03 Z" fill="#e26f46" fill-rule="evenodd" fill-opacity="1" stroke="#000000" stroke-opacity="1" stroke-width="3.2"/>
<path clip-path="url(#clip892)" d="M588.231 692.85 L576.919 688.162 L572.231 676.85 L576.919 665.538 L588.231 660.85 L599.543 665.538 L604.231 676.85 L599.543 688.162 Z" fill="#e26f46" fill-rule="evenodd" fill-opacity="1" stroke="#000000" stroke-opacity="1" stroke-width="3.2"/>
<path clip-path="url(#clip892)" d="M928.873 356.447 L917.561 351.759 L912.873 340.447 L917.561 329.135 L928.873 324.447 L940.185 329.135 L944.873 340.447 L940.185 351.759 Z" fill="#e26f46" fill-rule="evenodd" fill-opacity="1" stroke="#000000" stroke-opacity="1" stroke-width="3.2"/>
<path clip-path="url(#clip892)" d="M1269.51 209.26 L1258.2 204.572 L1253.51 193.26 L1258.2 181.948 L1269.51 177.26 L1280.83 181.948 L1285.51 193.26 L1280.83 204.572 Z" fill="#e26f46" fill-rule="evenodd" fill-opacity="1" stroke="#000000" stroke-opacity="1" stroke-width="3.2"/>
<path clip-path="url(#clip892)" d="M1610.16 144.861 L1598.84 140.173 L1594.16 128.861 L1598.84 117.549 L1610.16 112.861 L1621.47 117.549 L1626.16 128.861 L1621.47 140.173 Z" fill="#e26f46" fill-rule="evenodd" fill-opacity="1" stroke="#000000" stroke-opacity="1" stroke-width="3.2"/>
<path clip-path="url(#clip892)" d="M1950.8 116.684 L1939.49 111.996 L1934.8 100.684 L1939.49 89.3719 L1950.8 84.6839 L1962.11 89.3719 L1966.8 100.684 L1962.11 111.996 Z" fill="#e26f46" fill-rule="evenodd" fill-opacity="1" stroke="#000000" stroke-opacity="1" stroke-width="3.2"/>
<path clip-path="url(#clip892)" d="M2291.44 104.356 L2280.13 99.6677 L2275.44 88.3557 L2280.13 77.0437 L2291.44 72.3557 L2302.75 77.0437 L2307.44 88.3557 L2302.75 99.6677 Z" fill="#e26f46" fill-rule="evenodd" fill-opacity="1" stroke="#000000" stroke-opacity="1" stroke-width="3.2"/>
<polyline clip-path="url(#clip892)" style="stroke:#3da44d; stroke-linecap:butt; stroke-linejoin:round; stroke-width:4; stroke-opacity:1; fill:none" points="
  247.59,1445.72 588.231,676.85 928.873,340.447 1269.51,193.26 1610.16,128.861 1950.8,100.684 2291.44,88.3557 
  "/>
<path clip-path="url(#clip892)" d="M231.59 1429.72 L231.59 1461.72 L263.59 1461.72 L263.59 1429.72 L231.59 1429.72 Z" fill="#3da44d" fill-rule="evenodd" fill-opacity="1" stroke="#000000" stroke-opacity="1" stroke-width="3.2"/>
<path clip-path="url(#clip892)" d="M572.231 660.85 L572.231 692.85 L604.231 692.85 L604.231 660.85 L572.231 660.85 Z" fill="#3da44d" fill-rule="evenodd" fill-opacity="1" stroke="#000000" stroke-opacity="1" stroke-width="3.2"/>
<path clip-path="url(#clip892)" d="M912.873 324.447 L912.873 356.447 L944.873 356.447 L944.873 324.447 L912.873 324.447 Z" fill="#3da44d" fill-rule="evenodd" fill-opacity="1" stroke="#000000" stroke-opacity="1" stroke-width="3.2"/>
<path clip-path="url(#clip892)" d="M1253.51 177.26 L1253.51 209.26 L1285.51 209.26 L1285.51 177.26 L1253.51 177.26 Z" fill="#3da44d" fill-rule="evenodd" fill-opacity="1" stroke="#000000" stroke-opacity="1" stroke-width="3.2"/>
<path clip-path="url(#clip892)" d="M1594.16 112.861 L1594.16 144.861 L1626.16 144.861 L1626.16 112.861 L1594.16 112.861 Z" fill="#3da44d" fill-rule="evenodd" fill-opacity="1" stroke="#000000" stroke-opacity="1" stroke-width="3.2"/>
<path clip-path="url(#clip892)" d="M1934.8 84.6839 L1934.8 116.684 L1966.8 116.684 L1966.8 84.6839 L1934.8 84.6839 Z" fill="#3da44d" fill-rule="evenodd" fill-opacity="1" stroke="#000000" stroke-opacity="1" stroke-width="3.2"/>
<path clip-path="url(#clip892)" d="M2275.44 72.3557 L2275.44 104.356 L2307.44 104.356 L2307.44 72.3557 L2275.44 72.3557 Z" fill="#3da44d" fill-rule="evenodd" fill-opacity="1" stroke="#000000" stroke-opacity="1" stroke-width="3.2"/>
<path clip-path="url(#clip890)" d="
M1847.32 844.606 L2280.54 844.606 L2280.54 637.246 L1847.32 637.246  Z
  " fill="#ffffff" fill-rule="evenodd" fill-opacity="1"/>
<polyline clip-path="url(#clip890)" style="stroke:#000000; stroke-linecap:butt; stroke-linejoin:round; stroke-width:4; stroke-opacity:1; fill:none" points="
  1847.32,844.606 2280.54,844.606 2280.54,637.246 1847.32,637.246 1847.32,844.606 
  "/>
<polyline clip-path="url(#clip890)" style="stroke:#009af9; stroke-linecap:butt; stroke-linejoin:round; stroke-width:4; stroke-opacity:1; fill:none" points="
  1871.39,689.086 2015.82,689.086 
  "/>
<path clip-path="url(#clip890)" d="M2063.92 692.338 L2063.92 694.422 L2044.34 694.422 Q2044.62 698.82 2046.98 701.135 Q2049.36 703.426 2053.6 703.426 Q2056.05 703.426 2058.35 702.824 Q2060.66 702.222 2062.93 701.019 L2062.93 705.047 Q2060.64 706.019 2058.23 706.528 Q2055.82 707.037 2053.35 707.037 Q2047.14 707.037 2043.51 703.426 Q2039.9 699.815 2039.9 693.658 Q2039.9 687.292 2043.32 683.565 Q2046.77 679.815 2052.61 679.815 Q2057.84 679.815 2060.87 683.195 Q2063.92 686.551 2063.92 692.338 M2059.67 691.088 Q2059.62 687.593 2057.7 685.51 Q2055.8 683.426 2052.65 683.426 Q2049.09 683.426 2046.93 685.44 Q2044.8 687.454 2044.48 691.111 L2059.67 691.088 Z" fill="#000000" fill-rule="evenodd" fill-opacity="1" /><path clip-path="url(#clip890)" d="M2091.63 680.44 L2082.26 693.056 L2092.12 706.366 L2087.1 706.366 L2079.55 696.181 L2072 706.366 L2066.98 706.366 L2077.05 692.801 L2067.84 680.44 L2072.86 680.44 L2079.73 689.676 L2086.61 680.44 L2091.63 680.44 Z" fill="#000000" fill-rule="evenodd" fill-opacity="1" /><path clip-path="url(#clip890)" d="M2109.92 693.334 Q2104.76 693.334 2102.77 694.514 Q2100.78 695.695 2100.78 698.542 Q2100.78 700.81 2102.26 702.153 Q2103.76 703.472 2106.33 703.472 Q2109.87 703.472 2112 700.972 Q2114.16 698.449 2114.16 694.283 L2114.16 693.334 L2109.92 693.334 M2118.41 691.574 L2118.41 706.366 L2114.16 706.366 L2114.16 702.431 Q2112.7 704.792 2110.52 705.926 Q2108.35 707.037 2105.2 707.037 Q2101.22 707.037 2098.85 704.815 Q2096.52 702.57 2096.52 698.82 Q2096.52 694.445 2099.43 692.223 Q2102.37 690 2108.18 690 L2114.16 690 L2114.16 689.584 Q2114.16 686.644 2112.21 685.047 Q2110.29 683.426 2106.79 683.426 Q2104.57 683.426 2102.47 683.959 Q2100.36 684.491 2098.42 685.556 L2098.42 681.621 Q2100.75 680.718 2102.95 680.278 Q2105.15 679.815 2107.23 679.815 Q2112.86 679.815 2115.64 682.732 Q2118.41 685.649 2118.41 691.574 Z" fill="#000000" fill-rule="evenodd" fill-opacity="1" /><path clip-path="url(#clip890)" d="M2145.85 681.436 L2145.85 685.417 Q2144.04 684.422 2142.21 683.936 Q2140.41 683.426 2138.55 683.426 Q2134.41 683.426 2132.12 686.065 Q2129.83 688.681 2129.83 693.426 Q2129.83 698.172 2132.12 700.81 Q2134.41 703.426 2138.55 703.426 Q2140.41 703.426 2142.21 702.94 Q2144.04 702.431 2145.85 701.435 L2145.85 705.371 Q2144.06 706.204 2142.14 706.621 Q2140.24 707.037 2138.09 707.037 Q2132.23 707.037 2128.79 703.357 Q2125.34 699.676 2125.34 693.426 Q2125.34 687.084 2128.81 683.449 Q2132.3 679.815 2138.37 679.815 Q2140.34 679.815 2142.21 680.232 Q2144.09 680.625 2145.85 681.436 Z" fill="#000000" fill-rule="evenodd" fill-opacity="1" /><path clip-path="url(#clip890)" d="M2157.47 673.079 L2157.47 680.44 L2166.24 680.44 L2166.24 683.75 L2157.47 683.75 L2157.47 697.824 Q2157.47 700.996 2158.32 701.898 Q2159.2 702.801 2161.86 702.801 L2166.24 702.801 L2166.24 706.366 L2161.86 706.366 Q2156.93 706.366 2155.06 704.537 Q2153.18 702.685 2153.18 697.824 L2153.18 683.75 L2150.06 683.75 L2150.06 680.44 L2153.18 680.44 L2153.18 673.079 L2157.47 673.079 Z" fill="#000000" fill-rule="evenodd" fill-opacity="1" /><polyline clip-path="url(#clip890)" style="stroke:#e26f46; stroke-linecap:butt; stroke-linejoin:round; stroke-width:4; stroke-opacity:1; fill:none" points="
  1871.39,740.926 2015.82,740.926 
  "/>
<path clip-path="url(#clip890)" d="M1943.61 766.526 L1925.51 759.025 L1918.01 740.926 L1925.51 722.827 L1943.61 715.326 L1961.71 722.827 L1969.21 740.926 L1961.71 759.025 Z" fill="#e26f46" fill-rule="evenodd" fill-opacity="1" stroke="#000000" stroke-opacity="1" stroke-width="5.12"/>
<path clip-path="url(#clip890)" d="M2055.08 736.262 Q2054.36 735.845 2053.51 735.66 Q2052.67 735.451 2051.66 735.451 Q2048.04 735.451 2046.1 737.813 Q2044.18 740.151 2044.18 744.549 L2044.18 758.206 L2039.9 758.206 L2039.9 732.28 L2044.18 732.28 L2044.18 736.308 Q2045.52 733.947 2047.67 732.813 Q2049.83 731.655 2052.91 731.655 Q2053.35 731.655 2053.88 731.725 Q2054.41 731.771 2055.06 731.887 L2055.08 736.262 Z" fill="#000000" fill-rule="evenodd" fill-opacity="1" /><path clip-path="url(#clip890)" d="M2059.39 722.188 L2063.67 722.188 L2063.67 743.461 L2076.38 732.28 L2081.82 732.28 L2068.07 744.41 L2082.4 758.206 L2076.84 758.206 L2063.67 745.544 L2063.67 758.206 L2059.39 758.206 L2059.39 722.188 Z" fill="#000000" fill-rule="evenodd" fill-opacity="1" /><path clip-path="url(#clip890)" d="M2100.45 727.72 L2088.65 746.169 L2100.45 746.169 L2100.45 727.72 M2099.23 723.646 L2105.1 723.646 L2105.1 746.169 L2110.04 746.169 L2110.04 750.058 L2105.1 750.058 L2105.1 758.206 L2100.45 758.206 L2100.45 750.058 L2084.85 750.058 L2084.85 745.544 L2099.23 723.646 Z" fill="#000000" fill-rule="evenodd" fill-opacity="1" /><path clip-path="url(#clip890)" d="M2136.86 766.076 L2136.86 769.386 L2112.23 769.386 L2112.23 766.076 L2136.86 766.076 Z" fill="#000000" fill-rule="evenodd" fill-opacity="1" /><path clip-path="url(#clip890)" d="M2162.42 742.558 L2162.42 758.206 L2158.16 758.206 L2158.16 742.697 Q2158.16 739.016 2156.72 737.188 Q2155.29 735.359 2152.42 735.359 Q2148.97 735.359 2146.98 737.558 Q2144.99 739.757 2144.99 743.553 L2144.99 758.206 L2140.71 758.206 L2140.71 732.28 L2144.99 732.28 L2144.99 736.308 Q2146.52 733.97 2148.58 732.813 Q2150.66 731.655 2153.37 731.655 Q2157.84 731.655 2160.13 734.433 Q2162.42 737.188 2162.42 742.558 Z" fill="#000000" fill-rule="evenodd" fill-opacity="1" /><path clip-path="url(#clip890)" d="M2193.09 744.178 L2193.09 746.262 L2173.51 746.262 Q2173.79 750.66 2176.15 752.975 Q2178.53 755.266 2182.77 755.266 Q2185.22 755.266 2187.51 754.664 Q2189.83 754.062 2192.1 752.859 L2192.1 756.887 Q2189.8 757.859 2187.4 758.368 Q2184.99 758.877 2182.51 758.877 Q2176.31 758.877 2172.67 755.266 Q2169.06 751.655 2169.06 745.498 Q2169.06 739.132 2172.49 735.405 Q2175.94 731.655 2181.77 731.655 Q2187 731.655 2190.03 735.035 Q2193.09 738.391 2193.09 744.178 M2188.83 742.928 Q2188.78 739.433 2186.86 737.35 Q2184.97 735.266 2181.82 735.266 Q2178.25 735.266 2176.1 737.28 Q2173.97 739.294 2173.65 742.951 L2188.83 742.928 Z" fill="#000000" fill-rule="evenodd" fill-opacity="1" /><path clip-path="url(#clip890)" d="M2197.6 732.28 L2201.86 732.28 L2207.19 752.512 L2212.49 732.28 L2217.51 732.28 L2222.84 752.512 L2228.14 732.28 L2232.4 732.28 L2225.61 758.206 L2220.59 758.206 L2215.01 736.956 L2209.41 758.206 L2204.39 758.206 L2197.6 732.28 Z" fill="#000000" fill-rule="evenodd" fill-opacity="1" /><polyline clip-path="url(#clip890)" style="stroke:#3da44d; stroke-linecap:butt; stroke-linejoin:round; stroke-width:4; stroke-opacity:1; fill:none" points="
  1871.39,792.766 2015.82,792.766 
  "/>
<path clip-path="url(#clip890)" d="M1918.01 767.166 L1918.01 818.366 L1969.21 818.366 L1969.21 767.166 L1918.01 767.166 Z" fill="#3da44d" fill-rule="evenodd" fill-opacity="1" stroke="#000000" stroke-opacity="1" stroke-width="5.12"/>
<path clip-path="url(#clip890)" d="M2055.08 788.102 Q2054.36 787.685 2053.51 787.5 Q2052.67 787.291 2051.66 787.291 Q2048.04 787.291 2046.1 789.653 Q2044.18 791.991 2044.18 796.389 L2044.18 810.046 L2039.9 810.046 L2039.9 784.12 L2044.18 784.12 L2044.18 788.148 Q2045.52 785.787 2047.67 784.653 Q2049.83 783.495 2052.91 783.495 Q2053.35 783.495 2053.88 783.565 Q2054.41 783.611 2055.06 783.727 L2055.08 788.102 Z" fill="#000000" fill-rule="evenodd" fill-opacity="1" /><path clip-path="url(#clip890)" d="M2059.39 774.028 L2063.67 774.028 L2063.67 795.301 L2076.38 784.12 L2081.82 784.12 L2068.07 796.25 L2082.4 810.046 L2076.84 810.046 L2063.67 797.384 L2063.67 810.046 L2059.39 810.046 L2059.39 774.028 Z" fill="#000000" fill-rule="evenodd" fill-opacity="1" /><path clip-path="url(#clip890)" d="M2100.45 779.56 L2088.65 798.009 L2100.45 798.009 L2100.45 779.56 M2099.23 775.486 L2105.1 775.486 L2105.1 798.009 L2110.04 798.009 L2110.04 801.898 L2105.1 801.898 L2105.1 810.046 L2100.45 810.046 L2100.45 801.898 L2084.85 801.898 L2084.85 797.384 L2099.23 775.486 Z" fill="#000000" fill-rule="evenodd" fill-opacity="1" /><path clip-path="url(#clip890)" d="M2136.86 817.916 L2136.86 821.226 L2112.23 821.226 L2112.23 817.916 L2136.86 817.916 Z" fill="#000000" fill-rule="evenodd" fill-opacity="1" /><path clip-path="url(#clip890)" d="M2155.64 791.412 Q2158.99 792.129 2160.87 794.398 Q2162.77 796.666 2162.77 800 Q2162.77 805.115 2159.25 807.916 Q2155.73 810.717 2149.25 810.717 Q2147.07 810.717 2144.76 810.277 Q2142.47 809.861 2140.01 809.004 L2140.01 804.49 Q2141.96 805.625 2144.27 806.203 Q2146.59 806.782 2149.11 806.782 Q2153.51 806.782 2155.8 805.046 Q2158.11 803.31 2158.11 800 Q2158.11 796.944 2155.96 795.231 Q2153.83 793.495 2150.01 793.495 L2145.98 793.495 L2145.98 789.653 L2150.2 789.653 Q2153.65 789.653 2155.47 788.287 Q2157.3 786.898 2157.3 784.305 Q2157.3 781.643 2155.41 780.231 Q2153.53 778.796 2150.01 778.796 Q2148.09 778.796 2145.89 779.213 Q2143.69 779.629 2141.05 780.509 L2141.05 776.342 Q2143.72 775.602 2146.03 775.231 Q2148.37 774.861 2150.43 774.861 Q2155.75 774.861 2158.85 777.292 Q2161.96 779.699 2161.96 783.819 Q2161.96 786.69 2160.31 788.68 Q2158.67 790.648 2155.64 791.412 Z" fill="#000000" fill-rule="evenodd" fill-opacity="1" /><path clip-path="url(#clip890)" d="M2181.63 793.634 Q2178.3 793.634 2176.38 795.416 Q2174.48 797.199 2174.48 800.324 Q2174.48 803.449 2176.38 805.231 Q2178.3 807.014 2181.63 807.014 Q2184.97 807.014 2186.89 805.231 Q2188.81 803.426 2188.81 800.324 Q2188.81 797.199 2186.89 795.416 Q2184.99 793.634 2181.63 793.634 M2176.96 791.643 Q2173.95 790.903 2172.26 788.842 Q2170.59 786.782 2170.59 783.819 Q2170.59 779.676 2173.53 777.268 Q2176.49 774.861 2181.63 774.861 Q2186.79 774.861 2189.73 777.268 Q2192.67 779.676 2192.67 783.819 Q2192.67 786.782 2190.98 788.842 Q2189.32 790.903 2186.33 791.643 Q2189.71 792.43 2191.59 794.722 Q2193.48 797.014 2193.48 800.324 Q2193.48 805.347 2190.41 808.032 Q2187.35 810.717 2181.63 810.717 Q2175.91 810.717 2172.84 808.032 Q2169.78 805.347 2169.78 800.324 Q2169.78 797.014 2171.68 794.722 Q2173.58 792.43 2176.96 791.643 M2175.24 784.259 Q2175.24 786.944 2176.91 788.449 Q2178.6 789.953 2181.63 789.953 Q2184.64 789.953 2186.33 788.449 Q2188.04 786.944 2188.04 784.259 Q2188.04 781.574 2186.33 780.069 Q2184.64 778.565 2181.63 778.565 Q2178.6 778.565 2176.91 780.069 Q2175.24 781.574 2175.24 784.259 Z" fill="#000000" fill-rule="evenodd" fill-opacity="1" /></svg>
